<svg id="_0" data-name="0" xmlns="http://www.w3.org/2000/svg" viewBox="0 0 531.37 531.37"><defs><style>.cls-1{fill:#fff;}</style></defs><path class="cls-1" d="M265.35,65.13c0,4.46,0,9.22,0,14,0,1,.06,2.36-1.78,2.07s-2.26-1.22-1.67-2.68c2.18-5.42,1.28-11.19,2-16.77.4-3.09.71-6.18,1.16-9.26a5.53,5.53,0,0,1,.9-2.19c.87-1.27,1.85-1.89,2.66.1,1.17,2.87,2.48,5.68,3.49,8.6,2,5.73,3.82,11.5,5.72,17.25a6.77,6.77,0,0,0,.55,1.33c.3.52.68,1,1,1.51.42-.53,1.1-1,1.24-1.6,1.07-4.56,2.06-9.14,3-13.72.66-3.11,1.15-6.25,1.91-9.33a2.87,2.87,0,0,1,1.78-1.67,2.14,2.14,0,0,1,1.83,1,48.68,48.68,0,0,1,3.16,8.2c1.46,6.27,2.62,12.61,3.76,18.94.14.78-.58,1.71-.9,2.58-.65-.79-1.69-1.49-1.88-2.38-1.4-6.45-2.63-12.94-3.94-19.41a8.5,8.5,0,0,0-.77-2.26,6.67,6.67,0,0,0-1.15-1.3,5.16,5.16,0,0,0-.76,1.37c-.57,2.89-1,5.81-1.63,8.69-.93,4.27-1.86,8.55-3.06,12.75a4,4,0,0,1-2.45,2.45c-1.28.27-2.44-.59-2.93-2.2q-2.89-9.56-6-19.05c-.78-2.34-1.85-4.57-2.81-6.85a4.6,4.6,0,0,0-.5-.77c-.2.3-.52.57-.57.88C266.26,58.52,265.84,61.65,265.35,65.13Z"/><path class="cls-1" d="M222.9,78.46c-.11,1.22.1,2.61-.44,3.59-.37.67-1.8.76-2.75,1.11-.29-.82-1-1.74-.8-2.44,1.21-4.77,2.38-9.56,4-14.22,2.31-6.77,4.95-13.44,7.43-20.15.74-2,1.42-4,2.17-6,.58-1.51,1.43-1.5,2.06-.1A43.9,43.9,0,0,1,237,46.6c1.34,5,2.59,10,3.61,15.13.45,2.24,1.51,2.52,3.34,2a9.18,9.18,0,0,1,1.61-.45,10.14,10.14,0,0,1,1.65,0c-.38.69-.58,1.76-1.16,2-4.2,2-4.26,2-3.21,6.32.76,3.16,1.57,6.32,2.47,9.45.26.87,1,1.58,1.37,2.45a10.89,10.89,0,0,1,.57,2.9c0,.27-.73.88-.8.83-.76-.49-1.82-.94-2.08-1.66-1.44-3.87-2.68-7.81-4-11.74a7.28,7.28,0,0,1-.23-1.41c-.68-4.76-.65-4.53-5.38-4.06a24.43,24.43,0,0,1-7.47-.8c-2.47-.53-2.39,1.6-2.79,2.67a59.83,59.83,0,0,0-1.87,7.46c-.05.23-.07.47-.1.71Zm10.59-13,0-.18a21.16,21.16,0,0,0,2.39,0c2.42-.28,3.07-1.13,2.4-3.44-1.3-4.51-2.71-9-4.09-13.48a8.85,8.85,0,0,0-.58-1.15,5.62,5.62,0,0,0-.83,1.14c-.63,1.63-1.17,3.3-1.79,4.93-1.5,4-3,7.87-4.53,11.82a3.51,3.51,0,0,0,0,1.13c.26-.23.48-.57.78-.69a6.44,6.44,0,0,1,2.28-.63A34.08,34.08,0,0,1,233.49,65.45Z"/><path class="cls-1" d="M71.71,77.8c-3.18.28-6,.45-8.16,3.13-.25.31-1.38.2-1.9-.08a2,2,0,0,1-.94-1.53c.91-8.16-.54-16.15-1.52-24.18a10.31,10.31,0,0,1-.1-3.08,2.21,2.21,0,0,1,1.36-1.29c.24-.09,1,.62,1.17,1.09A13.29,13.29,0,0,1,62,54.69q.8,10,1.54,19.94c.09,1.27.55,1.63,1.86,1.23C70.9,74.17,76,76.16,81,78c1.58.6,2.29,2.32,1.51,4.25-1.58,3.88-4.68,5.79-8.47,7.07-4.35,1.48-8.49.34-12.65-.64-.8-.19-1.42-1.12-2.12-1.7.4-.33.77-.91,1.19-1a9.9,9.9,0,0,1,3.12.19c.73.18,1.33,1.1,2,1.16,5,.36,9.19-2,13.21-4.58a1.53,1.53,0,0,0-.2-2.86A72.07,72.07,0,0,0,71.71,77.8Z"/><path class="cls-1" d="M87.44,80.85a38.4,38.4,0,0,1,2.21-6.14c.45-.86,2.13-1.11,3.3-1.53a1.09,1.09,0,0,1,.91.57A1.78,1.78,0,0,1,93.53,75a21.45,21.45,0,0,0-1.59,2c-.81,1.57-1.76,3.48-.29,4.89A6.23,6.23,0,0,0,97.3,83.5c4.29-.8,6.46-3.58,7.8-7.41a3.14,3.14,0,0,1,1.48-1.63c.29-.15,1.2.38,1.47.82a29.15,29.15,0,0,1,2.08,4c1.15,2.63,2.46,5,5.86,5,.32,0,.88.33.91.56a1.83,1.83,0,0,1-.38,1.26c-1.3,1.64-4.83,1.35-6.5-.54a19,19,0,0,1-2.14-2.86c-.78-1.33-1.23-1.42-2.36-.18-3.46,3.74-7.58,6-13,5C89.34,86.91,87.43,84.93,87.44,80.85Z"/><path class="cls-1" d="M122.71,63.39a17.16,17.16,0,0,1,2.05,2.6,7.42,7.42,0,0,1,.46,2.33c.3,2.64,1,3.11,3.48,2.66,2.19-.38,4.41-.64,6.61-.94a2,2,0,0,1,.65.17c-.13.25-.19.65-.39.75-2.32,1.15-4.56,2.71-7,3.22-2.29.48-2.73,1.31-2.34,3.31.64,3.34,1.2,6.71,1.8,10.06.07.39.29.82.2,1.16a5.53,5.53,0,0,1-.74,1.34c-.37-.3-1-.53-1.09-.91-1-3.39-2.2-6.77-2.89-10.23-.53-2.68-.57-5.33-3.78-6.42a2.28,2.28,0,0,1-1-2A2.4,2.4,0,0,1,120.4,69c1.82,0,1.53-1,1.58-2.19A21,21,0,0,1,122.71,63.39Z"/><path class="cls-1" d="M162.64,72.42l.82-1.22c.52.38,1.34.66,1.52,1.17.64,1.79,1,3.67,1.57,5.48.44,1.4,1.11,2.72,1.51,4.11a9.73,9.73,0,0,1,.09,2.36c-1-.35-2.39-.43-2.75-1.1a21.08,21.08,0,0,1-1.52-4.91C163.44,76.48,163.11,74.64,162.64,72.42Z"/><path class="cls-1" d="M165.6,57.49a6.13,6.13,0,0,1,1.25.86,19.6,19.6,0,0,1,1.45,2.14c.37.62.68,1.29,1,1.93-.83-.27-1.68-.48-2.48-.82a4.32,4.32,0,0,1-1.78-1.11,3.21,3.21,0,0,1-.37-2C164.71,58.18,165.25,57.88,165.6,57.49Z"/></svg>