<svg id="_0" data-name="0" xmlns="http://www.w3.org/2000/svg" viewBox="0 0 531.37 531.37"><defs><style>.cls-1{fill:#fff;}</style></defs><path class="cls-1" d="M96,103.17a10.47,10.47,0,0,1-2.86-.06,12,12,0,0,1-2.58-1.49c.85-.62,1.65-1.67,2.56-1.76,2.52-.28,5.11.08,7.6-.28a15.72,15.72,0,0,0,5.3-2c2.07-1.17,2.49-2.94,1.62-5.11a11.8,11.8,0,0,0-.82-1.72c-.65-1.1-1.34-2.17-2-3.25-.87.7-1.76,1.37-2.61,2.09-2.14,1.81-4.94,2.39-6.8,1.41s-2.27-2.19-1.61-4.16c1.2-3.61,2.85-6.94,5.73-9.44,1-.82,2.5-1,3.77-1.41.34,1.1.69,2.2,1,3.31.14.51,0,1.26.33,1.51,3.37,2.76,4.81,6.65,6.13,10.55,1.74,5.14,0,8.73-5.09,10.66a22.29,22.29,0,0,1-4.88,1.1c-1.57.22-3.17.18-4.76.25Zm7-21.63c-.06-.08-.28-.71-.64-.79-.51-.13-1.42-.06-1.65.27a44.09,44.09,0,0,0-2.87,4.87,1.62,1.62,0,0,0,.32,1.43c.21.23.92.17,1.32,0A6.48,6.48,0,0,0,103,81.54Z"/><path class="cls-1" d="M348.23,78.09c0-5.58,0-11.15,0-16.73a7.43,7.43,0,0,1,.94-2.39c.58.71,1.62,1.38,1.67,2.12.38,5.16.59,10.33.79,15.5.1,2.55.07,5.1.1,7.65,0,.87-.18,1.74,1.23.81,2.74-1.82,3.4-1.56,4.33,1.55.5,1.66.68,3.42,1.09,5.12a5.79,5.79,0,0,0,1,2.58c.71.74,1.7,1.09.38,2.11s-2.53,1-3.23-.36a21.6,21.6,0,0,1-1.15-4.32c-.23-.89-.51-1.78-.77-2.66a18.76,18.76,0,0,1-1.77,1.69c-.83.62-1.78,1.6-2.63,1.55-1.62-.09-1.67-1.65-1.67-3,0-3.75,0-7.51,0-11.26Z"/><path class="cls-1" d="M450.88,92.19a1,1,0,0,1,0-.24c.71-3.65-.55-6-4.25-7.14-1.62-.49-2.52-1.76-1.34-3.54.78-1.17,1.83-1.65,3-.72,1.45,1.14,1.32.42,1.45-.85.1-.87,1-1.65,1.53-2.47.8.59,2.31,1.2,2.29,1.76-.14,4.51,3.13,5.45,6.36,6,1.75.31,3.69-.49,5.55-.67a12.44,12.44,0,0,1,2.41.23c-.66.69-1.23,1.82-2,2a78.72,78.72,0,0,1-9.41,1.49c-1.49.14-2.28.44-2.05,2.07.32,2.2.46,4.42.95,6.57.33,1.48.23,2.79-1.28,3a3.15,3.15,0,0,1-2.58-1.62,33.35,33.35,0,0,1-.85-5.87Z"/><path class="cls-1" d="M78.74,75.92A7.13,7.13,0,0,1,81,76.6c2.52,1.84,5.25,3.51,6.29,6.77.52,1.65,1.35,3.21,1.8,4.88a6.71,6.71,0,0,1-.34,2.49c-1-.2-2.61-.15-2.81-.66-1.39-3.6-2.61-2.82-4.49-.31a3.59,3.59,0,0,1-4.61.77,6.59,6.59,0,0,1-3.88-5.37,21.29,21.29,0,0,1,.63-6.6C74.19,76,76.73,76.44,78.74,75.92ZM81,83.1c.31-1.93-.48-3.38-2.32-3.49-2.19-.14-2,1.85-2.11,3.3-.12,1.88,1.28,4.17,2.36,3.9C80.85,86.33,81.23,84.79,81,83.1Z"/><path class="cls-1" d="M114.18,88.29a9.36,9.36,0,0,1,6.18-9.21,6.6,6.6,0,0,1,1.17-.26c2.88-.36,7.75,3.56,8.21,6.42.24,1.57-.14,4,2.93,3.12.22-.06,1.34,1.49,1.16,1.91-.75,1.77-4.73,2.42-6,1-1.39-1.63-2.06-.84-3.37.18a10.15,10.15,0,0,1-5.22,2.24C116.14,93.85,114.19,91.46,114.18,88.29Zm9.73-6c-4.32-.42-5.39,2.81-5.73,5.68a2.08,2.08,0,0,0,3,2.13,6.91,6.91,0,0,0,4.56-5.35C126.06,83.22,126.17,81.6,123.91,82.27Z"/><path class="cls-1" d="M397.42,78.55c3.32,0,5.95,3.35,4.81,6.46-.93,2.54-1.72,5.39-4.91,6.37-.5.16-.85,1.3-1,2-.32,1.91-.37,3.88-.77,5.77a2,2,0,0,1-1.62,1.13,2.26,2.26,0,0,1-1.53-1.47c-.6-4.49-1.17-9-1.47-13.49A6.36,6.36,0,0,1,397.42,78.55Zm2.25,5-2.24-2a24.22,24.22,0,0,0-2.23,3.52c-.21.47.46,1.31.72,2Z"/><path class="cls-1" d="M190.87,77.19a11.83,11.83,0,0,1,.95,1.74c.84,2.47,1.48,5,2.49,7.42a4.78,4.78,0,0,0,2.48,2.24c.34.14,1.42-1.15,2-1.92,2.4-3.36,4.73-6.77,7.1-10.15a2.55,2.55,0,0,1,1-1,8.42,8.42,0,0,1,2-.26,4.74,4.74,0,0,1-.28,1.72c-1.39,2.42-2.88,4.78-4.33,7.16q-3.8,6.19-7.6,12.39c-.33.54-.61,1.26-1.11,1.51a11.14,11.14,0,0,1-2.6.66,17.47,17.47,0,0,1-.19-2.69c0-.4.51-.78.82-1.15,2.35-2.74,2.28-2.64-.5-4.76a7.73,7.73,0,0,1-2.48-3.32,33.74,33.74,0,0,1-1.57-7c-.1-.85.72-1.82,1.12-2.74Z"/><path class="cls-1" d="M305.82,99.84c-2,.26-3.95.43-5.88.83-1.2.24-2.41.55-2.62-1-.05-.41,1.38-1.3,2.24-1.51,3.52-.89,7.11-1.48,10.61-2.41,2.11-.57,2.27-1.54,1-3.31A48.85,48.85,0,0,1,308.05,88c-1.63-2.89-.27-7.72,2.66-9.17.75-.37,1.94.13,2.93.23-.2.89-.14,2-.66,2.64-1.94,2.35-2.1,4.09-.38,6.65a49.28,49.28,0,0,1,2.63,4.26c1.18,2.17.57,4.59-1.59,5.47-2.47,1-5.09,1.64-7.64,2.44Z"/><path class="cls-1" d="M256.74,87.3A35.73,35.73,0,0,1,256,82c0-1,.85-1.91,1.32-2.87a29.9,29.9,0,0,1,1.79,2.4,3.18,3.18,0,0,1,.21,1.4c.1,1.46.31,2.67,2.21,1.47.28-.18,1-.18,1.13,0,1.49,2.26,2.88.26,4.36,0a8.55,8.55,0,0,1,4.21.33,7.91,7.91,0,0,1,3.27,2.63c.52.72.27,2,.37,3-.94-.18-2.16,0-2.78-.59-2.91-2.57-3.66-2.55-5.92.68-1.47,2.1-2.28,2.14-4.45.36a1,1,0,0,0-1,.22c-.67,1.23-1.71,2.37-3,1.53-.79-.53-.9-2.15-1.22-3.3A8.79,8.79,0,0,1,256.74,87.3Z"/><path class="cls-1" d="M442.56,96.45a9.44,9.44,0,0,1-.06,2.61c-.19.61-.92,1.06-1.4,1.58-.53-.5-1.41-.94-1.5-1.51a52.57,52.57,0,0,1-.45-5.48,4.68,4.68,0,0,0,0-1.19c-.49-1.3-1.06-2.58-1.6-3.87-.68,1-1.36,2-2,3a22.18,22.18,0,0,1-1.8,2.79c-.55.61-1.57,1.43-2.1,1.27a2.74,2.74,0,0,1-1.58-2c.07-3.42.34-6.84.72-10.24.07-.69.92-1.29,1.42-1.93.38.62.8,1.24,1.14,1.89a2.68,2.68,0,0,1,.33,1.14c0,1.39.21,1.86,1.58.7,2.27-1.93,4.36-1.49,5.31,1.29,1.09,3.2,1.7,6.57,2.52,9.86Z"/><path class="cls-1" d="M231.54,95c-4.64-.13-6.35-1.88-6.2-6.51a64.81,64.81,0,0,1,.58-6.66,3.41,3.41,0,0,1,1-2.06,2.76,2.76,0,0,1,2.22-.48c.39.14.65,1.31.59,2-.17,2.12-.82,4.25-.69,6.34.07,1.15,1.19,3,2.11,3.14s2.53-1,3.32-1.94c.9-1.13,1.17-2.74,1.84-4.08a18.25,18.25,0,0,1,1.56-2.3c.68.6,1.4,1.17,2,1.83a2,2,0,0,1,.41,1.09C240.8,88.63,234.94,95,231.54,95Z"/><path class="cls-1" d="M212.47,93.53c-2.6.06-3.9-1.44-4.28-5-.33-3.17,3.07-8.27,6.14-9.22,3.68-1.13,6.31.8,6.6,4.83A8.83,8.83,0,0,1,212.47,93.53Zm5.26-9.67c-.28-.26-1.14-1.62-1.75-1.51-2.33.39-4.32,4.39-3.47,6.54.14.34.67.78,1,.75C215.7,89.43,217.64,87.15,217.73,83.86Z"/><path class="cls-1" d="M151.19,89.07c-2.46.07-3.17-.74-3-2.5.33-3,.48-6,.95-9,.12-.81,1.1-1.48,1.69-2.21.56.66,1.55,1.3,1.6,2,.15,2.08,1,2.18,2.59,1.39s2.64-.19,3.71,1.09c2.45,2.95,2.1,6.57,2.51,10,.06.48-1,1.32-1.71,1.55-.29.1-1.29-.88-1.41-1.48-.34-1.79-.33-3.65-.62-5.45s-1.25-2.27-2.53-.91c-1.06,1.12-1.62,2.69-2.48,4A10.9,10.9,0,0,1,151.19,89.07Z"/><path class="cls-1" d="M295,97.74c-.93-.95-2-1.56-1.91-2a3.58,3.58,0,0,1,1.38-2.36c.89-.57,2.18-.46,3.15-1,1.47-.74,2-1.86.44-3.14-1.42-1.14-2.88-2.24-4.31-3.39-2.06-1.66-2.11-2.53-.3-4.48a12.24,12.24,0,0,1,2.51-2.52c.79-.46,1.95-.29,2.94-.4-.07.85.19,2-.26,2.49-1.61,1.67-1.33,2.77.55,3.9A14.9,14.9,0,0,1,301.74,87c1.69,1.65,1.92,5.22.09,6.66A58.78,58.78,0,0,1,295,97.74Z"/><path class="cls-1" d="M416.52,89.62c0,3.55-3.62,7-7.49,7-2.88,0-5-2.39-5.07-5.71,0-4.25,2.53-7.26,6.2-7.27A6.1,6.1,0,0,1,416.52,89.62ZM408,91.37c.33.29.93,1.21,1.69,1.39,1.38.32,3.82-2.15,3.41-3.52A3.81,3.81,0,0,0,410.91,87C409.57,86.61,408,88.84,408,91.37Z"/><path class="cls-1" d="M338.5,89.8c0-2-.11-4,0-6a2.06,2.06,0,0,0-1.59-2.46c-.92-.36-2.19-1.42-2.2-2.18,0-1.47,1.11-2.29,2.83-2.12.38,0,1.17-.93,1.21-1.48.11-1.25-.37-2.58-.15-3.8a10.86,10.86,0,0,1,1.57-2.93,9,9,0,0,1,1.71,2.6,9.81,9.81,0,0,1-.23,3.3c-.36,3-.18,3.28,2.73,4.16.5.15.88.69,1.31,1-.47.36-1,1.07-1.39,1-2.87-.26-3.09,1.59-3.06,3.66.05,3.51.21,7,.19,10.52a7.74,7.74,0,0,1-.85,2.41c-.52-.71-1.31-1.35-1.5-2.15-.45-1.84-.62-3.76-.9-5.65Z"/><path class="cls-1" d="M373.5,93.59c-3.66,0-5.38-2.5-7.51-4.16-.25-.2.43-1.83.92-2.66s1.31-1.18,1.78-1.9A37.48,37.48,0,0,1,371,81a3,3,0,0,1,2.55-.87c.8.35,1.81,1.68,1.68,2.38a36.91,36.91,0,0,1-2,5.53c-.23.61-.35,1.27-.52,1.9a13.49,13.49,0,0,0,1.95.47c.53.06,1.13-.21,1.62-.07a6.69,6.69,0,0,1,1.5.94c-.38.47-.67,1.15-1.16,1.35A25,25,0,0,1,373.5,93.59Z"/><path class="cls-1" d="M139.55,84.83a50,50,0,0,1,2.08,5.83c.18.75-.6,1.74-.95,2.62-.94-.48-2.45-.74-2.72-1.46a15.88,15.88,0,0,1-.62-4.94,40.88,40.88,0,0,1,.23-5.42c.06-.5.71-.94,1.08-1.41.44.49,1.11.92,1.25,1.48a15.85,15.85,0,0,1,.25,3.09Z"/><path class="cls-1" d="M426.67,86.1a66.94,66.94,0,0,1-1.61,7.53,3.35,3.35,0,0,1-2.47,1.87c-1.64,0-1.58-1.45-1.18-2.7a48.07,48.07,0,0,1,1.78-5.19,6.24,6.24,0,0,1,1.91-2,1.47,1.47,0,0,1,1.32-.13C426.69,85.6,426.71,86.23,426.67,86.1Z"/><path class="cls-1" d="M286.51,89c.08.71.43,1.56.16,2.1a9.61,9.61,0,0,1-1.86,2c-.71-.71-2-1.41-2-2.11a28.86,28.86,0,0,1,.87-6.09c.1-.49.75-1,1.27-1.2.18-.07.93.61,1,1,.34,1.38.49,2.8.72,4.2Z"/><path class="cls-1" d="M143.32,74.2,142,75.43c-1.08-1.44-2.22-2.86-3.16-4.39a2.93,2.93,0,0,1,1.56-1.51C141.66,69.38,143.37,71.9,143.32,74.2Z"/><path class="cls-1" d="M290.6,77.69c.15,1.65-3.54,4.41-4.72,3.63a2.55,2.55,0,0,1-.66-2.18c.3-1.35,3.37-2.58,4.67-2A2.78,2.78,0,0,1,290.6,77.69Z"/><path class="cls-1" d="M426.56,72.37c.24.55.64,1,.62,1.48-.07,1.75-.74,3.21-2.77,3-.54,0-1.52-1.26-1.4-1.68C423.42,73.74,424.48,72.71,426.56,72.37Z"/><path class="cls-1" d="M469.63,99.85c-1.28,1-2,1.94-2.84,2.08-.54.1-1.91-1.32-1.82-1.49a21.13,21.13,0,0,1,2.21-3Z"/><path class="cls-1" d="M6.84,48.59,6,51a14.35,14.35,0,0,1-.26-2.51,13.19,13.19,0,0,1,.54-2.36Z"/></svg>