<svg id="_0" data-name="0" xmlns="http://www.w3.org/2000/svg" viewBox="0 0 531.37 531.37"><defs><style>.cls-1{fill:#fff;}</style></defs><path class="cls-1" d="M330.64,228.46c-.65,4.44-1.18,8.68-1.93,12.87a8.28,8.28,0,0,1-1.67,3.13c-2.25,3.12-6.24,2.71-8-.76-.93-1.84-1.84-3.7-2.81-5.53a4.48,4.48,0,0,0-.91-.94c-.36.36-.84.66-1,1.09a18.81,18.81,0,0,1-6.79,8.13c-2.38,1.58-5.91-.23-6.81-3.9a98.43,98.43,0,0,1-1.48-9.88,11.53,11.53,0,0,0-.15-1.18,8.27,8.27,0,0,0-.38-1.09,3.86,3.86,0,0,0-.76,1,18.56,18.56,0,0,1-1.05,3.65,2.92,2.92,0,0,1-2.31,1.27c-1.41-.23-.68-1.25-.47-2.22.58-2.73.89-5.52,2.92-7.67.55-.58,1.4-1.66,1.71-1.54a3.93,3.93,0,0,1,2.17,1.91,54.84,54.84,0,0,1,1.43,6.76c.35,2,.42,4.14.91,6.15.66,2.78,2.87,3.5,4.7,1.36s2.83-4.56,4.33-6.79a24,24,0,0,1,2.38-2.58,7.4,7.4,0,0,0,.82-1.11,9.4,9.4,0,0,1,1.07-1.8,4.74,4.74,0,0,1,1.64-.66,4.14,4.14,0,0,1,.31,1.53,12.22,12.22,0,0,0,1.14,8.1,6.3,6.3,0,0,0,1.16,2c.91.79,2.14,2,3,1.81s1.84-1.66,2.15-2.74c1-3.39,1.59-6.86,2.44-10.28a9.9,9.9,0,0,1,1.16-2.2Z"/><path class="cls-1" d="M199.57,178.85c.14-2,.17-4,.48-6a2.46,2.46,0,0,1,1.45-1.74,3.12,3.12,0,0,1,2.45.77,2.58,2.58,0,0,1,.38,2.34c-2.41,4.65-1.43,9,.82,13.35,1,2,3.1,2.59,4.47.91a27.21,27.21,0,0,0,3.77-7c.61-1.5.4-3.3.8-4.91a10.68,10.68,0,0,1,1.42-2.57c.49.51,1.2.94,1.44,1.55.85,2.18,1.5,4.44,2.32,6.64,1,2.81,1.66,5.95,3.37,8.28a9.51,9.51,0,0,0,7.75,3.77,3.81,3.81,0,0,1,1.06.29c-.25.34-.43.82-.76,1a7.62,7.62,0,0,1-9.32-1.75,72,72,0,0,1-4.39-7.07c-.32-.54-.56-1.13-.84-1.69-.32.49-.68,1-1,1.49-1.29,2.5-2.61,4.92-5.22,6.37a5.25,5.25,0,0,1-7.55-2.11C200.6,187.07,199.22,183.17,199.57,178.85Z"/><path class="cls-1" d="M247.12,287.87c0,4,.11,7.95,0,11.92a8.11,8.11,0,0,1-10.68,7.27c-5.07-1.52-9.6-3.83-12.68-8.34a6.73,6.73,0,0,1-.59-1.34c.62.09,1.4,0,1.84.3,1.84,1.36,3.54,2.91,5.37,4.29a10.47,10.47,0,0,0,9.77,1.5c2.13-.64,3.63-2,3.59-4.47,0-1,.12-2.08.11-3.11,0-3.22-.06-3.22-3.15-3.41-3.54-.21-6.94-5.26-5.57-9.07.93-2.59,2.85-4.85,4.51-7.12.38-.51,1.53-.44,2.33-.64a13.57,13.57,0,0,1-.66,1.92c-1.47,2.79-3.64,5.39-2.36,8.87a4.05,4.05,0,0,0,1.49,2c1.66,1,2.45.47,2.44-1.51a15,15,0,0,1,.18-4.25c.23-.82,1.41-1.36,2.16-2,.6.83,1.56,1.59,1.73,2.5a26.83,26.83,0,0,1,.07,4.75Z"/><path class="cls-1" d="M370.2,233.87q.53-11.56,1.07-23.13c0-.47,0-1.11.27-1.38a3.1,3.1,0,0,1,1.83-1c.3,0,1,1.08.89,1.6-1.2,8.47-.87,16.95-.34,25.44,0,.31-.06.7.09.94.63,1,1.32,2,2,3l2.59-2.76c.76-.82,1.5-1.66,2.27-2.45a16.74,16.74,0,0,1,2.56-2.43,7.94,7.94,0,0,1,2.47-.65,11.87,11.87,0,0,1,0,2.92c-.15.61-1,1-1.36,1.63-.7,1.13-.57,1.93.83,2.63a30.84,30.84,0,0,1,4.88,3.24,1.87,1.87,0,0,1,.27,1.66,1.45,1.45,0,0,1-1.34.53,33.78,33.78,0,0,1-5.38-2.5c-1.74-1.09-3-1.42-4.32.58a4.18,4.18,0,0,1-4.54,1.95,4.23,4.23,0,0,1-3.64-3.64c-.33-2-.56-4.08-.83-6.12Z"/><path class="cls-1" d="M226.13,239.9q-.81-4.44-1.63-8.88c-.11-.54-.54-1.13-.41-1.59a9.9,9.9,0,0,1,1.16-2.07,6.52,6.52,0,0,1,1.31,1.66c.53,1.5.84,3.08,1.28,4.61a3.34,3.34,0,0,0,.48.74c.11-.27.21-.55.33-.81a27.78,27.78,0,0,1,2-4.29c.82-1.26,2.26-1.83,3.32-.31a35.21,35.21,0,0,1,2.29,4.65c.27.56.61,1.08.92,1.62.35-.45.74-.87,1.06-1.35,1.17-1.74,1.81-3.92,4.27-4.51,2.7-.64,4.66-.1,6.14,2.4a44.15,44.15,0,0,1,2.52,5.9c.64,1.53,1.32,3.05,1.85,4.62a5.8,5.8,0,0,1-.06,1.94c-.7-.06-1.74.15-2-.24a13,13,0,0,1-1.62-3.12c-1.08-2.46-2-5-3.21-7.4-1-2-2.23-2.2-3.59-.41a33,33,0,0,0-2.92,5.41,14.66,14.66,0,0,1-.81,2.23,11.86,11.86,0,0,1-2.08,1.83,10.14,10.14,0,0,1-1.8-2.69c-.53-1.88-.58-3.88-1.06-5.78-.19-.75-1-1.36-1.49-2a8.73,8.73,0,0,0-1.23,2.11c-.67,2.62-1.11,5.3-1.83,7.9-.19.7-1.09,1.19-1.67,1.78a21.81,21.81,0,0,1-1.82-2.47c-.19-.33.07-.92.13-1.4Z"/><path class="cls-1" d="M181.88,357.67c0-.13.2-.74.42-1.33s.57-1.46.86-2.18a9.78,9.78,0,0,1,1.43,2.46c.49,2.15.71,4.37,1.13,6.54a4.7,4.7,0,0,0,.82,1.35l.79-1.1a36.57,36.57,0,0,1,3.15-4.47,3.5,3.5,0,0,1,5.84.56c.78,1.19,1.06,1.46,2.12.19,2.2-2.64,4.66-2.55,6.29.43,1.73,3.18,2.94,6.65,4.4,10,.54,1.23,1.21,2.4,1.71,3.65a7,7,0,0,1,.24,1.8c-.69-.18-1.76-.13-2-.56-1.18-2-2.1-4-3.16-6.06s-2.19-4-3.27-6c-.83-1.56-1.6-1.2-2.38,0a32.86,32.86,0,0,0-2.25,3.65c-.51,1.08-1.16,2-2.25,1.27-.74-.53-1.05-1.77-1.34-2.76-.13-.43.5-1.09.39-1.54a14.62,14.62,0,0,0-1.12-2.5c-.8.38-1.9.55-2.33,1.18a53.53,53.53,0,0,0-2.7,5,18.71,18.71,0,0,1-1.78,3.08c-1.28,1.58-2.87,1.24-3.4-.8a42.54,42.54,0,0,1-.74-5.2C182.46,362.25,182.21,360.2,181.88,357.67Z"/><path class="cls-1" d="M340.74,355.13c.25,5.67.77,11.26,3.5,16.4a5.15,5.15,0,0,1,.57,2.52c-.06,1.7-1.22,1.87-2.55,1.47a25.57,25.57,0,0,0-4.28-1.3c-.79-.08-1.67.76-2.51,1.18.86.59,1.66,1.55,2.59,1.7a24.64,24.64,0,0,0,4.53-.12c1.66,0,3.33-.07,5,0a4.51,4.51,0,0,1,1.24.41c-.3.44-.54,1.19-.91,1.26-3.32.63-6.69,1.68-10,1.52-2.44-.12-4.85-1.78-7.17-2.94-1.34-.67-1.31-1.7-.32-2.94a9,9,0,0,1,7-3.54c2.25-.07,2.38-.86,1.78-2.82-1.85-6-1.41-12.29-1.24-18.49,0-.66.89-1.29,1.36-1.94.47.65,1.28,1.26,1.34,1.94C340.86,351.3,340.74,353.22,340.74,355.13Z"/><path class="cls-1" d="M270,193.43a20.68,20.68,0,0,1-3.58.22,10.44,10.44,0,0,1-8.69-6.27,11,11,0,0,1,.57-11c2.7-4.42,7.62-5.28,12.42-2.65,6.62,3.61,8.5,10.65,4.71,17.25C274.11,193.17,272.26,193.73,270,193.43Zm-9.69-9.61a9.81,9.81,0,0,0,.46,2.29c1.5,3.7,4.89,4.28,8.25,4.92a3.27,3.27,0,0,0,3.83-2.13,16.6,16.6,0,0,0,1.3-6.2c-.08-2.75-1.25-5.38-4.07-6.46C264.44,174.08,260.38,177.27,260.26,183.82Z"/><path class="cls-1" d="M274.46,348.2q-.22,7-.42,14.06a5.63,5.63,0,0,0,.18,1.14c.23-.14.55-.21.69-.41,1-1.44,2-3.53,4-2.47a12.33,12.33,0,0,1,4.52,4.52c1.14,1.94,1.45,4.36,2.24,6.52.34.94,1.12,1.73,1.44,2.67a9.88,9.88,0,0,1,.18,2.51c-.69-.17-1.71-.11-2-.54a22.89,22.89,0,0,1-2.28-4.29c-.94-2.25-1.48-4.7-2.63-6.83s-2.52-2-3.61.19a15,15,0,0,0-1.86,4.62,9.47,9.47,0,0,0,.85,4.69c.57,1.29.84,2.55-.38,3.06-.66.28-2.41-.57-2.78-1.34-1.23-2.58-2.47-5.08-2.11-8.3.64-5.89.63-11.87.86-17.81,0-.53-.34-1.08-.3-1.6a5,5,0,0,1,.55-2.53,2.25,2.25,0,0,1,2.15-.17c.67.41,1,1.38,1.49,2.1Z"/><path class="cls-1" d="M298.64,295.26c-.82-.42-2.18-.67-2.48-1.37-.89-2.08-2-4.36-1.9-6.52.21-6.91.85-13.81,1.45-20.7a25.88,25.88,0,0,1,1.21-5.57c.22-.7,1.15-1.16,1.76-1.73a9.12,9.12,0,0,1,.37,2.33c-.67,7-1.43,13.93-2.12,20.9a9,9,0,0,0,.27,2.1,8.47,8.47,0,0,0,1.73-1c3.51-3.39,7.49-2.52,11.38-1.12,2.14.76,1,2.63.43,3.84a9.61,9.61,0,0,1-2.69,3c-2.24,1.78-4.59,3.43-6.95,5A10.53,10.53,0,0,1,298.64,295.26Zm7.55-11.59c-3.07,0-7.05,3.16-7.63,5.78a2.3,2.3,0,0,0,.35,1.93,2.07,2.07,0,0,0,1.92-.12c2.13-1.48,4.21-3.05,6.19-4.72a2.33,2.33,0,0,0,.75-2C307.54,284,306.52,283.83,306.19,283.67Z"/><path class="cls-1" d="M258.22,373.32c3.39.36,5.86-1.72,8.58-3.12a13.26,13.26,0,0,1,2-.66,6.68,6.68,0,0,1-1.17,1.69,27.39,27.39,0,0,1-4.48,3c-4.51,2.2-9,2.69-13.51-.34-.51-.35-1.51.1-2.27,0a26.39,26.39,0,0,1-5.28-.92c-.52-.17-.6-1.64-.88-2.52a9.4,9.4,0,0,1,2.05,0c.84.17,1.61.69,2.44.81,1.09.15,1.95-.24,1.7-1.6-.63-3.54,1.43-6.27,2.87-9.1a15.79,15.79,0,0,1,3.87-4.89c1.8-1.48,3.77-.24,3.75,2.2a18.1,18.1,0,0,1-4.1,11.47c-1.57,2-1.35,2.63,1.12,3.47A17.76,17.76,0,0,0,258.22,373.32Zm-2.8-11.49c-.25-.95-.39-1.45-.52-1.95-.44.29-1.07.48-1.28.89-1,1.91-1.93,3.88-2.81,5.87a1.11,1.11,0,0,0,.33,1,1,1,0,0,0,1-.22C253.31,365.52,254.42,363.56,255.42,361.83Z"/><path class="cls-1" d="M413.26,304.29c-5.85,0-10-4.12-9.73-8.48.26-4.82,1.46-9.49,4.92-13.1,2.19-2.28,4.58-3.3,7-.06a3.3,3.3,0,0,1,.05,4.36,38.42,38.42,0,0,1-5.63,5.09c-1.24,1-2.91,1.38-2.73,3.47a5.08,5.08,0,0,0,3.82,4.65c2.27.76,4.49.89,6.51-.79a16.87,16.87,0,0,1,2.15-1.5c.71-.43,1.48-.77,2.23-1.15-.33.71-.65,1.42-1,2.12A9.16,9.16,0,0,1,413.26,304.29Zm-.07-18.79-.32-.87c-.46,0-1.13-.2-1.34,0a45.38,45.38,0,0,0-2.91,3.69c-.08.11.25.52.39.78Z"/><path class="cls-1" d="M264.76,271.44c2.89.43,4.08,2.09,3.1,4.94a12,12,0,0,1-6.75,7.3,25.31,25.31,0,0,0-2.22,1.22,15,15,0,0,0,2,2.19c3.83,2.84,7.83,1.84,11.87.46a15.71,15.71,0,0,1,3-.44,11.19,11.19,0,0,1-2.47,2c-2.06.84-4.31,1.22-6.34,2.12-4,1.75-10.82-1.37-12.45-4.42a5.4,5.4,0,0,1-.59-3.81c1.3-3.77,3-7.43,6.62-9.63A35.66,35.66,0,0,1,264.76,271.44Zm-5.49,9.37c2.61-.59,4.36-1.82,5.25-4.06a5.39,5.39,0,0,0,.12-1.52c-.52,0-1.28-.2-1.53.06-1.45,1.5-2.8,3.1-4.13,4.71C258.88,280.11,259.18,280.56,259.27,280.81Z"/><path class="cls-1" d="M129.75,328.91c.34-2.64.45-4.65.9-6.58.28-1.21-.1-1.56-1.08-2.15-4.57-2.77-8.41-6.24-9.78-11.69a6.76,6.76,0,0,1,.27-2.36c.66.4,1.53.64,1.93,1.21,1.35,2,2.35,4.17,3.84,6a34.8,34.8,0,0,0,4.91,4.46,1.92,1.92,0,0,0,1.17-.85c.86-2.73,1.38-5.59,2.46-8.22a43.8,43.8,0,0,1,3.77-6.56,2.78,2.78,0,0,1,1.48-1.11,18.91,18.91,0,0,1,2.93-.35c-.38.75-.57,1.73-1.17,2.22-4.47,3.68-5.1,9.2-6.91,14.16-.15.43.21,1.5.51,1.57,1.56.39,1.3.7.23,1.53-2.62,2-3.35,9.46-1.38,12.17a3.64,3.64,0,0,1,.74,2.25c0,.39-1.22,1.08-1.62.93a3.56,3.56,0,0,1-2-1.71A40,40,0,0,1,129.75,328.91Z"/><path class="cls-1" d="M364.55,292.18l-.52-1.63c-.53.29-1.09.55-1.61.87-2.47,1.52-5,3.11-8,1.46-2-1.13-2.63-4.52-.93-7.41,1.17-2,3-3.56,4.57-5.31,0-.06.18-.07.2-.12,1.57-4.22,4.71-2.2,7.38-1.79,1.37.21,3,.94,2.43,2.55-.29.87-1.92,1.58-3.06,1.81-1.95.4-4,.22-6,.57-1.64.3-3.38,4.36-2.36,5.62a3,3,0,0,0,2.76.74,33.82,33.82,0,0,0,4.27-3.62c.59-.5,1.67-1.41,1.82-1.28a5.09,5.09,0,0,1,1.79,2.35,20.14,20.14,0,0,1,.28,4.27c0,1.16-.31,2.39,1.26,3a1.79,1.79,0,0,1,.37,1.66,2.57,2.57,0,0,1-1.93,1,4,4,0,0,1-2.49-1.45c-.54-.88-.47-2.13-.67-3.22Z"/><path class="cls-1" d="M325.06,294.61a9.12,9.12,0,0,1-6.9-4.18c-1.38-1.87-2.56-3.9-4.06-5.66-.9-1.06-1.44-2-.49-3.09s1.72-.2,2.47.57c.16.16,1.23-.18,1.42-.54.68-1.25,1.07-2.65,1.73-3.91a6.71,6.71,0,0,1,7.63-2.84c2.9,1.13,3.72,4.89,1.34,7.61a19.63,19.63,0,0,1-5.36,4.11c-1.74.92-1.79,1.79-.78,3.12a5.86,5.86,0,0,0,7.19,2c.3-.11.6-.41.86-.37a12.74,12.74,0,0,1,1.77.52c-.35.49-.62,1.27-1.07,1.4C328.84,293.9,326.81,294.25,325.06,294.61Zm1.64-15.28A1.64,1.64,0,0,0,324,278a21,21,0,0,0-2.88,4.67c-.1.17.37.91.65,1C323,283.89,326.67,280.55,326.7,279.33Z"/><path class="cls-1" d="M163.21,229a3.15,3.15,0,0,1,0-1.19c.39-.84.9-1.63,1.37-2.44a7.43,7.43,0,0,1,1.44,2.05,17.59,17.59,0,0,1,.45,3.77c.19,3.24,1.85,5.06,5.06,5.56a5.53,5.53,0,0,1,1.37.61c-.42.37-.8,1-1.27,1.06a6.6,6.6,0,0,1-5.82-1.27,2.43,2.43,0,0,0-2.32.12c-3.65,3-8.09,2.36-10.64-1.59-3.08-4.74-3-6.08.65-10.79.78-1,1.45-2.09,2.3-3a3.06,3.06,0,0,1,1.78-1,12.94,12.94,0,0,1,2.93.38c-.53.74-1.07,1.48-1.58,2.24a62.44,62.44,0,0,0-4.39,6.68c-.81,1.61,1.44,4.75,3.27,5.12,2.06.43,4.83-1.18,5.25-3.15a24,24,0,0,0,.31-3.07Z"/><path class="cls-1" d="M199.67,278.39c.1-5.59,4.59-8.91,9.68-6.9a6,6,0,0,1,4.15,4.95,50.06,50.06,0,0,0,.63,5.21,9.79,9.79,0,0,0,1.43,2.68c.36.6,1.25,1.41,1.1,1.67a2.55,2.55,0,0,1-1.81,1.3,3.09,3.09,0,0,1-2.36-1.12,19.72,19.72,0,0,1-1.18-3.84,10.17,10.17,0,0,0-.78-1.59,8.69,8.69,0,0,0-1.45,1.14,5.43,5.43,0,0,1-6.37,1.56C200.53,282.71,199.62,281.19,199.67,278.39Zm8-4c-2.58.05-4.57,1.88-4.17,3.51a3.22,3.22,0,0,0,2.1,2c1.65.29,4.67-2.51,4.27-4C209.61,275.07,208.05,274.63,207.63,274.37Z"/><path class="cls-1" d="M261.37,248.59c1.17-3.12,2.12-5.9,3.27-8.6.52-1.21.65-1.74-.87-2.17-3.56-1-5.13-3.87-5.65-7.26-.12-.82.79-1.79,1.22-2.69a10.69,10.69,0,0,1,1.85,1.62c1.07,1.45,1.91,3.09,3,4.5s2.33,1.36,3.21-.47,1.47-3.54,2.35-5.23a5.75,5.75,0,0,1,1.84-2.13,2,2,0,0,1,1.94,0c.33.28.3,1.35.05,1.9-.69,1.61-1.66,3.09-2.34,4.69-.43,1-1.8,2.09-.27,3.36.11.09-.2.88-.48,1.18a22.45,22.45,0,0,0-5.47,11.21c-.15.69-1.3,1.42-2.11,1.61C262.55,250.23,261.88,249.12,261.37,248.59Z"/><path class="cls-1" d="M148.34,285.52l-1.68-1.2a14.31,14.31,0,0,1,1.73-1.9c.4-.32,1.23-.14,1.56-.48a7.64,7.64,0,0,0,2.14-2.92c.15-.55-.94-1.75-1.73-2.18-2.93-1.58-6.28-2.56-8.06-5.7a3.71,3.71,0,0,1-.61-2.6c1.69-4.6,5.08-7.78,9.15-10.31.39-.24,1-.48,1.36-.31a15.29,15.29,0,0,1,2.09,1.63c-.47.44-.87,1.1-1.42,1.26-3.49,1-5.5,3.74-7.22,6.6-.42.69.11,2.57.83,3.21a16.7,16.7,0,0,0,4.68,2.74c3.11,1.31,4.82,3.93,4.22,6.88C154.84,283,151.77,285.49,148.34,285.52Z"/><path class="cls-1" d="M219,330.06c3.6-.21,5-2.28,6.41-4.52.47-.76,1.64-2,1.9-1.83a4.81,4.81,0,0,1,2.29,2.25c.81,2.24,1.12,4.66,1.92,6.9a29.14,29.14,0,0,0,2.35,4c.27.48.65,1.3.45,1.56-.35.45-1.22.95-1.66.8a4.24,4.24,0,0,1-2.41-1.6,51.73,51.73,0,0,1-2.27-6.21,16.26,16.26,0,0,1-.42-2.1c-.25-1.19-.69-1.35-1.43-.29-1.57,2.22-3.92,3.2-6.44,3.77-2.76.61-5-.39-6.15-2.55-.93-1.76-.36-4.69,1.41-6.38,2.38-2.27,4.93-4.34,8.55-4a8.09,8.09,0,0,1,1.4.38c-.38.38-.71,1-1.15,1.09-2.59.51-5,1.48-6.48,3.67a4,4,0,0,0-.45,3.28C217.21,329.19,218.54,329.7,219,330.06Z"/><path class="cls-1" d="M381.09,364.18c0,.24,0,.48,0,.72-.25,5.25.49,5.65,5.48,3.55a53.61,53.61,0,0,1,7.51-2.23c.48-.12,1.1.35,1.65.55a5.16,5.16,0,0,1-1.12,1q-5.26,2.49-10.56,4.9c-2.56,1.16-2.95,1.84-2.23,4.61a27.42,27.42,0,0,1,1.14,3.38c.08.66-.59,1.41-.92,2.12-.66-.44-1.65-.73-1.91-1.34-.6-1.43-.76-3.06-1.3-4.53a3.77,3.77,0,0,0-1.52-1.9c-1.69-1-1.61-2.35-.46-3.31a3.4,3.4,0,0,0,1.15-3.06c0-2.62.11-5.25.19-7.87a4.77,4.77,0,0,1,.29-2.1c.35-.6,1.13-.95,1.72-1.42a6.13,6.13,0,0,1,.68,1.65c.18,1.74.24,3.5.35,5.25Z"/><path class="cls-1" d="M173.68,181c-.7-4.56,5.13-7,9.17-5.12,3.27,1.52,6.58,3,6.72,7.19.14,4.62-.61,9-5.35,11.4-1.41.72-2.5,2.92-4.41,1.12a26.4,26.4,0,0,1-3.13-3.83C174.53,188.81,174,185.36,173.68,181Zm13.37,3.62a6.92,6.92,0,0,0-4-6.53c-3.83-1.64-7.25.6-6.69,4.7a28,28,0,0,0,2.41,7.91c1.36,2.94,1.55,2.77,4.15,1.11A9,9,0,0,0,187.05,184.61Z"/><path class="cls-1" d="M226.78,359.69c-.91,1.8-1.47,3.93-2.82,5.31s-1.15,2.55-1,4.06a27.54,27.54,0,0,1,0,4.54c0,.26-.77.76-1,.67-.8-.37-1.92-.77-2.17-1.44a35.83,35.83,0,0,1-1.84-6.67,63.43,63.43,0,0,1-.94-8.69c-.1-2.87,1.4-4.7,3.52-4.88a5,5,0,0,1,5.42,4.25c.17.85.28,1.73.41,2.59Zm-7.65-.67-.21.08.93,2.5c.35-.69.7-1.38,1-2.07a4.46,4.46,0,0,1,.27-.67,6.3,6.3,0,0,1,.62-.65,3.43,3.43,0,0,1,.59.68,13.67,13.67,0,0,1,.59,1.42c.09-.61.42-1.32.21-1.81a22.74,22.74,0,0,0-1.79-2.93c-.76,1-1.53,2-2.27,3C219,358.64,219.12,358.86,219.13,359Z"/><path class="cls-1" d="M171.87,152.62c-1.84,6.31-3.5,12.55-5.51,18.67-2.15,6.58-4.65,13-6.94,19.57-.34,1-.14,2.16-.62,3-.35.62-1.39.86-2.13,1.27-.27-.65-.92-1.41-.75-1.92,1.71-5.28,3.64-10.5,5.35-15.79,2.35-7.26,4.55-14.56,6.81-21.85a31.29,31.29,0,0,1,1.15-3.63c.23-.5,1-.74,1.54-1.1Z"/><path class="cls-1" d="M155,316.92c.45-.86,1-2.91,1.63-2.94,2.14-.08,1.12,2.14,1.66,3.3s.64,2.62,1.24,3.78c.37.73,1.35,1.65,2,1.61a4.84,4.84,0,0,0,2.45-1.55c.36-.33.27-1.1.58-1.54.62-.88,1.37-1.67,2.07-2.5a13.57,13.57,0,0,1,1.82,2.53c.81,1.89,1.3,3.92,2.1,5.82a6.52,6.52,0,0,0,5.51,4c.61.08,1.15.66,1.72,1-.68.57-1.36,1.63-2,1.62-2.41,0-4.83-.54-6.27-2.78a49.18,49.18,0,0,1-2.61-5c-.78-1.61-1.25-.49-1.77.17a5.33,5.33,0,0,1-5.45,2.23c-2.24-.45-3.1-2.33-3.57-4.36C155.67,320.78,155.4,319.16,155,316.92Z"/><path class="cls-1" d="M169.07,253.69c.71,1,1.34,1.58,1.46,2.22.72,3.74,1.43,7.49,1.88,11.27.21,1.67.78,2.24,2.4,2.06a21.64,21.64,0,0,1,3.32,0,14.83,14.83,0,0,1,1.87.29,14,14,0,0,1-1.64,1.26,7.3,7.3,0,0,1-2.59,1.19c-3.12.32-3.87,2.18-3.69,4.94a40.44,40.44,0,0,1,0,5.72A7.38,7.38,0,0,1,171,285c-.54-.65-1.43-1.24-1.54-1.95a40.73,40.73,0,0,1-.2-5.19c0-1.56.75-3.42-1.88-3.85-.47-.08-1.1-1.45-1-2.14a2.44,2.44,0,0,1,1.55-1.76c2.2-.16,2.16-1.49,1.89-3-.54-3.13-1.13-6.25-1.68-9.39a7,7,0,0,1-.19-2.13C168,255,168.48,254.59,169.07,253.69Z"/><path class="cls-1" d="M282.7,192.86c1-3.37.48-6.89,4.45-8.06.52-.15.73-1.32,1.07-2,1.62-3.35,4.07-3.76,6.38-.87a36.87,36.87,0,0,1,2.8,5c1.05,1.85,2.18,3.66,3.21,5.52a6.6,6.6,0,0,1,.45,1.64c-.63.07-1.6.43-1.84.16a59.22,59.22,0,0,1-4-5.17c-.76-1.1-1.21-2.42-1.94-3.55s-1.71-1.45-2.38.17c-.74,1.77-1.43,3.55-2.2,5.3a9.23,9.23,0,0,1-1.53,2.9,3.49,3.49,0,0,1-2.67,1.11C283.69,194.73,283.19,193.48,282.7,192.86Z"/><path class="cls-1" d="M129.14,228.09c-.22,5.21,3.94,7.88,8.23,6.55a34.39,34.39,0,0,0,4.61-2.25,7,7,0,0,1,1-.32c-.08.41,0,.93-.27,1.21-3.82,4.64-6.6,6.21-11.69,4.23-4.41-1.72-6.56-7-4.86-12.12.84-2.58,2.51-4.9,3.87-7.3a2.88,2.88,0,0,1,3.94-1.25c1.18.64,1.89,2.15,2.77,3.31,0,0-.33.59-.52.6-1.5.05-3.7-.59-4.35.15-1.32,1.51-1.85,3.73-2.62,5.69A4.49,4.49,0,0,0,129.14,228.09Z"/><path class="cls-1" d="M219.34,283.89c0-2.38-.14-4.77.08-7.13.07-.78,1.06-1.47,1.63-2.2a12.67,12.67,0,0,1,1,2.16,29.85,29.85,0,0,1,.45,3.13,11.45,11.45,0,0,1,1.61-2.56,4.55,4.55,0,0,1,2.73-1.4,2.93,2.93,0,0,1,2.11,1.76,35.9,35.9,0,0,1,.89,5.6,9.8,9.8,0,0,1,.2,3.08,12.06,12.06,0,0,1-1.41,2.83c-.73-.68-2-1.27-2.1-2.06-.26-1.43.18-3,.21-4.49a8.81,8.81,0,0,0-.44-2,6.43,6.43,0,0,0-1.22,1.59,37.5,37.5,0,0,0-1.47,5.3c-.26,1.38-.76,2.34-2.24,2.22s-2-1.09-2-2.5c0-1.11,0-2.23,0-3.35Z"/><path class="cls-1" d="M308.81,174.81c0-5.41,0-10.82,0-16.22a4.13,4.13,0,0,1,.6-2c.23-.4.84-.58,1.27-.86.23.38.64.74.67,1.14.37,4.52.87,9,.95,13.57.11,5.81.13,11.62,1.67,17.27a13.06,13.06,0,0,0,1.72,2.79,5.2,5.2,0,0,1,.82,1.65c.08.46-.25,1-.4,1.49a4.68,4.68,0,0,1-1.59-.55c-3-2.52-4.12-6-4.58-9.67-.35-2.85-.49-5.72-.72-8.59Z"/><path class="cls-1" d="M149.44,319.94c.13,2,.28,3.92.38,5.87.09,1.79-2.32,3.39-4.47,3.36a6.38,6.38,0,0,1-4.13-1.87c-2.82-3-2.73-11-.12-14.23,1.17-1.44,2.52-3.21,4.48-2.26a8,8,0,0,1,3.2,3.77c.74,1.61.81,3.51,1.18,5.29ZM147,320a39.45,39.45,0,0,0-.86-4.45c-.45-1.47-1.6-1.4-2.64-.64-2.88,2.12-2.88,8-.05,10.29,1.46,1.18,2.59.83,3-1C146.69,322.9,146.81,321.56,147,320Z"/><path class="cls-1" d="M240.41,331.89a26.54,26.54,0,0,1,.31-3.79c.14-.64.84-1.16,1.28-1.74a15.17,15.17,0,0,1,1,1.65,3.68,3.68,0,0,1,.21,1.17c.15,1.32.54,1.27,1.43.4,2.94-2.87,4.59-2.46,6,1.45,1.28,3.48,2.52,7,3.69,10.48A1.85,1.85,0,0,1,254,343a1.26,1.26,0,0,1-1.26,0,6.67,6.67,0,0,1-1.88-2.24c-1-2.44-1.64-5-2.54-7.44a6.35,6.35,0,0,0-1.26-1.57,8.74,8.74,0,0,0-1,1.53c-.55,1.4-.94,2.87-1.5,4.27a5.78,5.78,0,0,1-1.31,2.23,7.22,7.22,0,0,1-2.32.88,7,7,0,0,1-.65-2.14c0-2.21.25-4.42.4-6.64Z"/><path class="cls-1" d="M372.75,288.5c.66-1.63,1.84-4.79,3.24-7.84.24-.51,1.42-.59,2.16-.87a9.6,9.6,0,0,1,0,2.08c-.56,2.63-1.41,5.21-1.7,7.86-.11,1,1,2.13,1.57,3.2a13.48,13.48,0,0,0,2.34-2.31c1-1.56,1.93-1.83,3.07-.36a7.25,7.25,0,0,1,1.39,2.94c.36,1.88.36,3.82,2.43,4.87a1.71,1.71,0,0,1,.08,1.54,4,4,0,0,1-2.48,1c-.78-.12-1.51-1-2.08-1.7-.3-.37-.17-1.06-.29-1.6-.34-1.47-.7-2.24-2.62-1.31C375.89,297.87,372.81,295.24,372.75,288.5Z"/><path class="cls-1" d="M400.36,298.65c-1,1.46-1.67,3.24-2.95,4.07a44,44,0,0,1-7.84,3.8,2.45,2.45,0,0,1-2.12-1.14c-.15-.66.53-1.67,1.11-2.28s1.29-.52,1.93-.82a30.78,30.78,0,0,0,4.58-2.33,2.65,2.65,0,0,0,.6-2.34c-.75-2.83-1.79-5.57-2.6-8.39a5.85,5.85,0,0,1,1-5.85c.5-.54,2.1-.95,2.36-.66.63.7,1.36,2.16,1,2.76-2,3.61-.37,6.6,1.24,9.66C399.25,296.12,399.67,297.16,400.36,298.65Z"/><path class="cls-1" d="M347.75,235.16a11.86,11.86,0,0,1-.85,3.16,2.36,2.36,0,0,1-2.06.94c-.53-.14-1-1.21-1.12-1.93s.4-1.72.37-2.58a7.26,7.26,0,0,0-.57-3,2.56,2.56,0,0,0-1.82-1.24c-.44,0-1.16.77-1.42,1.35-1.76,3.89,1.32,8.79,5.59,9.09a7.4,7.4,0,0,1,1.81.6c-.48.6-.94,1.67-1.44,1.69-1.67.06-3.59.21-5-.52-4.3-2.24-5.94-8.56-3.64-12.81,1.72-3.18,4.15-3.52,6.93-1.24A8.28,8.28,0,0,1,347.75,235.16Z"/><path class="cls-1" d="M257,333.46a39.28,39.28,0,0,1,.69-4.48c.13-.49.88-.81,1.35-1.21a7,7,0,0,1,.74,1.53,12,12,0,0,1,.08,1.9c.18,3.13.19,3.13,2.78,1.75,3.66-2,7.14.38,7.51,5,.08,1.09.6,2.15.59,3.21a10.48,10.48,0,0,1-.76,2.71c-.83-.46-2.1-.72-2.39-1.4-.53-1.27-.39-2.8-.73-4.17-.17-.68-.76-1.71-1.24-1.75a2.88,2.88,0,0,0-2.19,1c-.73,1-.95,2.35-1.67,3.34a13.42,13.42,0,0,1-2.51,2.15,8.31,8.31,0,0,1-1.39-2.43C257.45,338.15,257.27,335.69,257,333.46Z"/><path class="cls-1" d="M300.76,368.78a18.53,18.53,0,0,1-2.43,3.79c-1.22,1.19-1.36,2.16-.08,3.08,1.5,1.08,3.19,1.87,4.75,2.85a10.16,10.16,0,0,1,1.4,1.31,6,6,0,0,1-1.47.89c-3.39.78-5.76-1.05-8-3.22a36.83,36.83,0,0,1-2.76-2.52,2.74,2.74,0,0,1-.56-2.07c.42-1.78,1.1-3.51,1.68-5.26a3.54,3.54,0,0,1,.24-.67c.91-1.67,1.7-3.88,4.05-3.34S299.79,366.61,300.76,368.78Z"/><path class="cls-1" d="M161.17,363.26a9.62,9.62,0,0,1,5.45-8.1,6.08,6.08,0,0,1,6.36.29c2.39,1.57,3.14,3.58,2.44,6.12a53.74,53.74,0,0,1-2.54,6.93c-.26.59-1.13,1-1.8,1.29-.19.08-1-.53-1-.78a3.64,3.64,0,0,1,.63-2.06c2.35-2.69,3.12-5.79,1.49-7.82-.63-.8-2.19-1.69-2.9-1.42-1.38.53-3.52.28-3.9,2.55-.16.91-.63,1.77-.88,2.67-.66,2.35-.14,3.26,2.19,4.06a4.25,4.25,0,0,1,.95.58,3.84,3.84,0,0,1-.77.74C163.34,370.14,161.05,368.4,161.17,363.26Z"/><path class="cls-1" d="M156.33,177a15.73,15.73,0,0,1-3-2.08c-3.11-3.5-4.44-7.87-5.53-12.28-1.23-5-2.3-10.05-3.33-15.11-.14-.72.37-1.57.57-2.36.58.52,1.5.95,1.69,1.59,1.23,4.19,2.18,8.47,3.45,12.65s2.65,8.13,4.2,12.11c.73,1.86,2.13,3.15,4.49,2.33.29-.1.74.27,1.12.42-.17.33-.24.79-.51,1C158.59,175.77,157.61,176.25,156.33,177Z"/><path class="cls-1" d="M191.2,222.6c-.22-2-.45-4.1-.65-6.15-.05-.55-.21-1.25,0-1.63a12.64,12.64,0,0,1,1.86-1.87,6.82,6.82,0,0,1,.91,1.94c.71,7.93,1.32,15.86,2,23.79.19,2,.43,4.17,2.8,5.17a2,2,0,0,1,.58,1.56c-.56.44-1.68,1.05-2,.82-1.3-1-3.17-2.19-3.42-3.56-1.21-6.61-2-13.31-2.88-20Z"/><path class="cls-1" d="M330.5,196.59c1.28-5.55,2.45-10.65,3.63-15.75.69-3,1.36-6.05,2.08-9.06.35-1.45.64-3.28,2.54-3.07.4,0,1,2.67.7,3.94-1.23,5.58-2.83,11.09-4.11,16.66a69.69,69.69,0,0,0-.85,7.11c-.15,1.19.12,3-1.82,2.58C331.86,198.84,331.28,197.51,330.5,196.59Z"/><path class="cls-1" d="M193.84,329.1c-.34-3.87.11-7.55,2.89-10.48a15.62,15.62,0,0,1,3.84-2.72,8.07,8.07,0,0,1,2.61-.39c.09.84.47,1.79.2,2.48s-1.12,1.95-1.88,2.1a6.82,6.82,0,0,0-5.1,6.61c-.17,3.47,1.61,5.87,4.53,6.68,2.7.75,4.93-.13,7.2-1.32a3.35,3.35,0,0,1,1.28-.13c-.15.48-.15,1.1-.47,1.42-2.56,2.62-9.84,3.44-13,1.47C193.82,333.47,194,331.22,193.84,329.1Z"/><path class="cls-1" d="M179.76,222.53c-.5-4.66-1-9.32-1.49-14a3.32,3.32,0,0,1,.11-1.64,8.43,8.43,0,0,1,1.27-1.56,6.37,6.37,0,0,1,.74,1.74q1.17,11.28,2.24,22.56c.2,2.14.16,4.31.5,6.42a13.15,13.15,0,0,0,1.43,3.34,11.26,11.26,0,0,1,.95,1.86c.06.26-.56,1-.79,1-.82-.11-2-.23-2.31-.76a13.39,13.39,0,0,1-1.81-4.63c-.67-4.73-1.07-9.49-1.58-14.23Z"/><path class="cls-1" d="M301.35,336.72a35.76,35.76,0,0,1,.43,4.61c0,.71-.87,1.4-1.34,2.1-.45-.63-1.21-1.22-1.29-1.9-.62-5.5-1.14-11-1.61-16.52a5.29,5.29,0,0,1,.42-2.77c.3-.59,1.25-.85,1.91-1.25.41.69,1.09,1.35,1.16,2.08a34.65,34.65,0,0,1-.22,3.78c0,1.18.33,1.52,1.52.77a8.75,8.75,0,0,1,9.39.61,3.69,3.69,0,0,1,.59.9c-.31.19-.6.5-.93.54-1.46.16-2.92.27-4.39.35C302.67,330.26,301.34,331.62,301.35,336.72Z"/><path class="cls-1" d="M279,335.21c.13-3.7,2.32-6.69,5-6.86,3.94-.25,7.56,2.25,8,5.63a5.27,5.27,0,0,1-2.75,5.59,15.77,15.77,0,0,1-7.12.89C280.1,340.33,278.87,337.78,279,335.21Zm3.24-.94c-.05,2,.75,2.81,2.29,2.82,1.27,0,4.21-2.36,4.18-3.3a2.45,2.45,0,0,0-2.76-2.61C283.79,331.18,282.18,332.77,282.2,334.27Z"/><path class="cls-1" d="M336,287.36c.15-5.51,2.88-9.2,7.44-9.71a5,5,0,0,1,1.84.56c-.4.48-.7,1.15-1.21,1.4-5.22,2.52-5.94,8.37-1.39,11.83,2.42,1.83,4.82.69,7.24-.1a6.28,6.28,0,0,1,1.69-.08c-.15.64-.07,1.51-.46,1.86-4.34,3.88-11.77,2.66-14.28-2.35A16.55,16.55,0,0,1,336,287.36Z"/><path class="cls-1" d="M186.27,280.91c-.33-2.52-.77-5-1-7.56a24.4,24.4,0,0,1,.31-4.66,1.12,1.12,0,0,1,.75-.76,1.07,1.07,0,0,1,.82.62c1,3.54,1.89.23,2.19-.18,1.83-2.62,4-3.08,6.36-1.06.33.29.7,1.11.57,1.25a2.09,2.09,0,0,1-1.43.72c-3.39-.17-4.2.38-4.59,3.81-.33,3-.43,6-.68,9-.09,1.06.09,2.43-1.65,2.31s-1.95-1.33-1.81-2.74c0-.23,0-.48,0-.71Z"/><path class="cls-1" d="M228,368.75c.08-6.61,5.43-10.32,11-8.2a27.87,27.87,0,0,1,3.91,1.71c.46.27.59,1.11.88,1.69a5,5,0,0,1-1.83.28c-1.37-.32-2.68-.92-4.06-1.26a4.25,4.25,0,0,0-4.66,1.7c-1.09,1.49-2.28,2.94-1.11,5.2.6,1.16.28,2.9.07,4.34-.08.46-1.16,1.07-1.77,1.07A2.05,2.05,0,0,1,229,374C228.48,372.08,228.24,370.11,228,368.75Z"/><path class="cls-1" d="M357.15,241.33a16.89,16.89,0,0,1-.62-2.74c-.08-1.15-.31-2.51.18-3.43,1.63-3.08,3.49-6.06,5.41-9a4.78,4.78,0,0,1,2.26-1.37c.37-.15,1.25.06,1.33.31a1.68,1.68,0,0,1-.25,1.5c-3.89,3.73-3.73,8.66-4.14,13.46a13.29,13.29,0,0,1-.95,3.88,2,2,0,0,1-1.73.68,2.33,2.33,0,0,1-1.54-1.15,5.8,5.8,0,0,1-.19-2.11Z"/><path class="cls-1" d="M154.45,371c2.35-.76,4.28-1.42,6.25-2,.36-.11.82.14,1.23.23-.23.36-.4.94-.71,1A73.39,73.39,0,0,1,151.15,373c-3.15.46-7.28-3.15-8-6.39-.41-1.92-.83-3.78,1-5.44,1.44-1.29,2.43-3.08,3.74-4.54.33-.38,1.09-.38,1.66-.55a5.33,5.33,0,0,1-.21,2c-.68,1.25-1.63,2.35-2.38,3.56a4.57,4.57,0,0,0,1.56,6.76A58.76,58.76,0,0,0,154.45,371Z"/><path class="cls-1" d="M306.94,378.56c1.1-2.78,2-5.66,3.38-8.32.87-1.71,2.55-1.88,4-.45a13.82,13.82,0,0,1,2.1,2.81,48.06,48.06,0,0,1,2.84,5.35,6.71,6.71,0,0,1,.06,2.54c-.91-.28-2.17-.28-2.67-.9a33.55,33.55,0,0,1-2.67-4.5,11.62,11.62,0,0,0-1-1.25,6.55,6.55,0,0,0-1,1.51,18.57,18.57,0,0,1-.55,2.55,5.51,5.51,0,0,1-1.87,2.23C308.2,381,307.35,380.36,306.94,378.56Z"/><path class="cls-1" d="M329.15,189.87a56,56,0,0,1-5.1-2.75c-2.8-1.88-5.36-4.07-6.43-7.44a6.73,6.73,0,0,1,.14-2.3c.81.27,2,.3,2.35.85,2.09,3.62,5.28,6,8.55,8.41.31.23.68.39,1,.59l1.77,1.12Z"/><path class="cls-1" d="M366.42,375.29c.22-1.37.38-2.76.7-4.12.09-.33.68-.55,1-.82.25.35.66.66.74,1,.52,2.55,1.1,5.11,1.37,7.69.07.69-.84,1.48-1.3,2.22-.68-.56-1.74-1-1.94-1.71a20.5,20.5,0,0,1-.38-4.25Z"/><path class="cls-1" d="M372.64,357.14c-1,.7-1.68,1.46-1.93,1.33a29.83,29.83,0,0,1-3.29-2.19l1.75-2.24Z"/></svg>