<svg id="_0" data-name="0" xmlns="http://www.w3.org/2000/svg" viewBox="0 0 531.37 531.37"><defs><style>.cls-1{fill:#fff;}</style></defs><path class="cls-1" d="M136.56,271.72c-.35-4.42-.75-9.17-1.07-13.92,0-.5.42-1,.64-1.56.5.39,1.38.72,1.45,1.18.47,3.06.92,6.13,1.09,9.22.41,7.31.6,14.63,1,21.94a20.14,20.14,0,0,0,1.17,4.83c.09.28,1,.58,1.32.44,2-.79,3.91-1.74,5.88-2.58.29-.12.72.07,1.08.12-.1.34-.09.86-.32,1-5,3.24-10.12,6.53-16.31,6.41-3.57-.06-6.88-1.62-8.19-5.48a6,6,0,0,1-.18-3.44,8,8,0,0,1,10.7-5c1.59.66,1.75-.06,1.74-1.38C136.53,279.71,136.56,275.89,136.56,271.72Zm-3.17,24.18c3.55.08,4.15-.62,3.19-3a28.53,28.53,0,0,0-2.57-4.47c-1.17-1.84-2.62-1-3.9-.18-1.51,1-2.43,2.63-1.28,4A23.81,23.81,0,0,0,133.39,295.9Z"/><path class="cls-1" d="M246.48,295c-4.64-1-8.9-1.67-12.85-4.84-2.83-2.27-3-3-1.27-5.9,2-3.34,3-7.25,6.67-9.57,3.93-2.5,9-1.16,10.26,3.23a6,6,0,0,1-.93,4.3c-1.85,2.81-4.79,4-8.08,4.55a3,3,0,0,0-2.07,1.56c-.17.46.66,1.75,1.3,2,3.33,1.3,6.6,3.13,10.41,2.06a2.43,2.43,0,0,1,.47-.08l2.83-.2a10.4,10.4,0,0,1-2.46,1.95A26.72,26.72,0,0,1,246.48,295ZM244,276.25a17.62,17.62,0,0,0-3.12,1c-.7.4-1.82,1.36-1.7,1.68a10.51,10.51,0,0,0,2.34,3.92c.32.31,2-.78,3-1.3a2.79,2.79,0,0,0,1-1c.5-.82,1.5-2.2,1.26-2.48A10.55,10.55,0,0,0,244,276.25Z"/><path class="cls-1" d="M339.42,278.93c.12,1.27.2,2.54.36,3.81.24,1.85.27,3.75,3.23,2.69a4.26,4.26,0,0,1,3.47,1c2.52,2.26,5.24,4.44,5.87,8.16.41,2.44-.51,6-2.36,7.1-2.34,1.41-4.49.81-6.68-.68-2.67-1.81-5.3-3.58-6.49-6.76-.21-.57-.62-1.48-.38-1.74,2.65-2.9,1.11-6.19.84-9.28-.51-5.79-1.31-11.55-1.89-17.33a6.27,6.27,0,0,1,.56-3,1.91,1.91,0,0,1,1.6-.94,2.08,2.08,0,0,1,1.1,1.6c.21,5.11.31,10.22.45,15.34Zm10.28,17.44c0-3.1-2.79-7.41-4.71-8.06-1.33-.44-2.2.07-2.3,1.55s-.12,3-.26,4.54c-.08.84-.67,2.27-.45,2.4,1.59.89,3.33,2,5,2C348.06,298.81,349.11,296.94,349.7,296.37Z"/><path class="cls-1" d="M204.33,271.42c0,4.6-.09,9.2,0,13.8a16.61,16.61,0,0,0,1,5.12c.34.93,1.35,2.14,2.19,2.26,1.49.2,3.68-2.19,3.31-3.43-.59-2,.24-2.53,1.92-3,.9-.25,1.57-1.22,2.43-1.73a12.61,12.61,0,0,1,2.05-.79c.22.93.44,1.85.63,2.78,0,.08-.25.2-.32.33-.87,1.44-3.14,2.56-1.38,4.67,1.11,1.33,1.15,3.53,3.37,4,.52.12.83,1.09,1.24,1.67-.78.27-1.78,1-2.3.73a17.89,17.89,0,0,1-4.44-3.05c-1.09-1.08-1.76-1.26-2.92-.18-1.68,1.57-3.75,2.62-6,1.79-2.59-.95-3.36-3.51-3.48-5.85-.29-5.87-.18-11.76-.26-17.65,0-1.67-.26-3.35-.15-5a5.84,5.84,0,0,1,1-2.81c.32-.48,1.22-.57,1.86-.84a12.38,12.38,0,0,1,.3,1.89c0,1.75,0,3.5,0,5.26Z"/><path class="cls-1" d="M129,223c-.81-6.87-1.61-13.73-2.46-20.6-.08-.69-.7-1.36-.65-2a11.21,11.21,0,0,1,.85-2.61c.63.57,1.71,1.07,1.82,1.73,1,6,1.8,12,2.58,18,.28,2.13.28,4.3.47,6.45a4.18,4.18,0,0,0,.53,1.19,5,5,0,0,0,.68-.93c2.2-5.33,2.8-4.53,7-.9,1.81,1.56,2.75,4.2,3.93,6.43a34,34,0,0,1,2.11,5.06,6,6,0,0,1-.13,2.16c-.73-.31-1.83-.43-2.11-1-1.1-2.11-1.88-4.39-2.91-6.54a28.65,28.65,0,0,0-2.52-4.32c-.83-1.16-1.87-1.27-2.51.28-.84,2.06-1.52,4.19-2.48,6.2-.39.82-1.33,2-2,1.92a2.91,2.91,0,0,1-2-1.91,72.27,72.27,0,0,1-.62-7.37c0-.4,0-.8,0-1.2Z"/><path class="cls-1" d="M323.49,210.21a66.69,66.69,0,0,1,1-7.08c.19-.79,1.37-1.36,2.1-2a13.51,13.51,0,0,1,.45,2.4c0,3.82-.15,7.64-.11,11.45a40.89,40.89,0,0,0,.5,5.63c.21,1.34.76,1.9,2.21.86,2.25-1.63,3.66-1.19,4.9,1.37.62,1.29.89,2.73,1.45,4.05,1,2.26.51,5.2,3.24,6.65.26.14.26,1.51.06,1.61-.73.34-2,.79-2.35.46a12.35,12.35,0,0,1-2.73-3.94c-.64-1.68-.66-3.59-1.1-5.37a2.5,2.5,0,0,0-1.15-1.64c-.37-.14-1.19.52-1.62,1-2.37,2.54-1.4,5.49-.91,8.36.07.38.52.78.45,1.08a29.61,29.61,0,0,1-1,2.83c-.83-.56-2-.94-2.42-1.72s-.34-2.16-.47-3.26c-.8-6.45-1.62-12.9-2.38-19.36a28.45,28.45,0,0,1,0-3.33Z"/><path class="cls-1" d="M450,302.21l8-3.74c.57-.27,1.09-.62,1.66-.86.17-.07.44.1.66.16-.07.2-.09.5-.23.6-3,2.08-4.94,5.5-8.85,6.47a10.71,10.71,0,0,1-13.12-8c-.66-3.23,1.17-5.75,2.59-8.24a24.08,24.08,0,0,1,4.86-5.76c1.92-1.74,3.56-.93,4,1.64.66,4.12-2.24,9.69-6.1,11.42-1.2.54-1.09,1.11-.65,2a7.38,7.38,0,0,0,6.88,3.66Zm-4-15.08c-1.07,1.57-1.95,2.86-2.8,4.18-.05.09.26.4.4.61.76-.84,1.54-1.66,2.24-2.55a3.37,3.37,0,0,0,.54-1.29C446.45,287.89,446.23,287.64,446,287.13Z"/><path class="cls-1" d="M414.39,300.44a12.7,12.7,0,0,1,2.09-.18c.42,0,.83.41,1.25.63-.32.38-.56.95-1,1.12a13.16,13.16,0,0,1-16.92-6.69c-.38-.79-1.31-1.28-1.81-2a11.66,11.66,0,0,1-2-3.8c-.12-.59,1.54-2.24,1.89-2.1,2.19.85,2.2-.81,2.79-2a10.3,10.3,0,0,1,1.72-2.55c1.94-2,4.17-2.44,5.7-1.19s2.38,5.2,1.23,6.73a30.09,30.09,0,0,1-4.54,4.83c-1.27,1.08-1.07,1.85-.23,3C407,299.41,410.28,300.48,414.39,300.44Zm-10.7-10c1.21-1.58,2.18-2.71,3-3.95.23-.36,0-1-.07-1.56-.49.17-1.19.19-1.44.54a26.78,26.78,0,0,0-2,3.49C403,289.13,403.37,289.56,403.69,290.4Z"/><path class="cls-1" d="M353.42,291.85c.15-4.54,6.23-9.55,10.49-8.54,2.48.59,3.55,4.34,1.71,6.75a53.45,53.45,0,0,1-4.59,4.82c-1.63,1.66-1.65,2.6.46,3.6,4.06,1.92,8.21,3.61,12.6.66.39-.26,1.07-.09,1.62-.12-.17.54-.17,1.31-.53,1.57-6.18,4.52-18.6,1.66-20.55-4.67C354.21,294.57,353.82,293.21,353.42,291.85Zm4,.26c.16.1.81.62.88.55,1.51-1.5,3-3,4.41-4.63a1.19,1.19,0,0,0,.14-1.09,1.29,1.29,0,0,0-1-.31C359.87,286.87,357.43,289.7,357.43,292.11Z"/><path class="cls-1" d="M96.77,214.62l3.25.2c-.12-1.24-.15-2.5-.38-3.72-.28-1.49-.92-2.92-1-4.41a8.78,8.78,0,0,1,.74-2.85c.65.76,1.58,1.42,1.89,2.29a53.94,53.94,0,0,1,1.41,5.53c.76,3,1.47,3.64,4.51,3.54,2.46-.08,4.91-.5,7.37-.53a16.81,16.81,0,0,1,3.76.79,13.18,13.18,0,0,1-3,1.52,63.74,63.74,0,0,1-8.64,1.5c-2,.17-2.77.81-2.33,2.76.81,3.66,1.67,7.3,2.41,11a10,10,0,0,1-.16,2.48c-.87-.54-2.26-.91-2.51-1.66-1-3-1.61-6.15-2.36-9.24-.09-.39-.07-.79-.13-1.19-.54-3.69-.55-3.68-4.18-4.3A3.16,3.16,0,0,1,96,218a26.68,26.68,0,0,1-2.07-2l2.57-1.71Z"/><path class="cls-1" d="M296,224.28s0-.6,0-1.15c-.05-1.26.53-2.19,1.75-1.95.62.13,1.2,1.18,1.49,1.94.78,2,1.1,4.26,2.16,6.1,1.22,2.13,2.51,2.05,4.18.29,1.82-1.92,2.23-1.81,3.5.53.79,1.46,1.28,4,3.37,3.31,1.4-.44,2.64-2.39,3.29-3.94,1-2.46,1.39-5.19,2.26-7.73.22-.63,1.3-1,2-1.43a6.66,6.66,0,0,1,.42,2.34c-.68,3.33-1.41,6.67-2.37,9.94a9.1,9.1,0,0,1-2.12,3.39c-2.67,2.87-5.88,2.33-7.83-1.06-.35-.62-1.45-1.35-2-1.21-5.32,1.35-9.38-1.41-9.92-6.94C296.09,226.08,296.07,225.44,296,224.28Z"/><path class="cls-1" d="M342.52,229.69c-.07-4,5-7.95,8.8-6.68.72.23,1.12,1.43,1.66,2.18-.59.33-1.17.71-1.79,1-.27.13-.63,0-.94.08-1.91.38-3.54,1.05-3.73,3.36-.18,2.13,1.2,3,2.9,3.5,2.14.68,3.52-.44,4.57-2.1.42-.66.48-1.57.93-2.19a24.75,24.75,0,0,1,2.28-2.42,17.49,17.49,0,0,1,1.24,3.58c.11.87-.49,1.82-.66,2.75-.53,2.92-.06,3.62,2.76,4.53a1.87,1.87,0,0,1,.95.89c.06.12-.39.61-.69.81a3.7,3.7,0,0,1-5.15-.83A4.1,4.1,0,0,0,351,236.6C347.4,237.5,342.09,234.81,342.52,229.69Z"/><path class="cls-1" d="M305.64,285.19a3.41,3.41,0,0,0-3.32,5.13,37.13,37.13,0,0,0,3.13,4.25c.29.41.71,1.18.56,1.37-.45.58-1.14,1.28-1.78,1.32a3.88,3.88,0,0,1-2.37-.84c-2.65-2-4.48-8.56-2.8-11.35a6.63,6.63,0,0,1,4.24-2.89c3.05-.35,5.79,1,8.36,2.87,4.59,3.38,3,8.51.5,11.59a3.34,3.34,0,0,1-4.88.63,2.25,2.25,0,0,1-.68-1.61c0-.37.63-.81,1.08-1,.89-.45,2.25-.52,2.7-1.22a8.32,8.32,0,0,0,1.24-4c.07-1.72-3-4-5.26-4.18C306.12,285.2,305.88,285.2,305.64,285.19Z"/><path class="cls-1" d="M417.76,285.86a31,31,0,0,1,.53-4.23c.15-.57.85-1,1.3-1.46.39.51,1,1,1.15,1.55.58,3,.88,6,1.61,8.92a21.48,21.48,0,0,0,2.18,4.37c1.25-1,2.75-1.82,3.69-3.06,1.52-2,2.64-4.34,4-6.49s2.54-4,3.91-5.93c.23-.32.94-.31,1.43-.45.08.5.4,1.12.21,1.46-1.93,3.43-4,6.8-5.92,10.22-.62,1.1-.94,2.39-1.63,3.44a23.59,23.59,0,0,1-3.34,4.27c-2.19,2.07-5.14,1.39-6.08-1.49C419.53,293.14,418.65,289.18,417.76,285.86Z"/><path class="cls-1" d="M372.18,219.16c-.9,3.78-1.58,7.05-2.47,10.26-.48,1.74.09,2.56,1.71,3,2.78.67,5.56,1.29,8.3,2.08.61.18,1,1,1.55,1.51-.62.39-1.27,1.16-1.85,1.11a73.24,73.24,0,0,1-8.74-1.24c-1.74-.38-2.36.24-2.56,1.74a32.26,32.26,0,0,1-.35,3.56,8,8,0,0,1-1.25,2.06c-.5-.74-1.3-1.44-1.43-2.24a11.37,11.37,0,0,1,.13-3.81c1-5.8,2.1-11.58,3.17-17.38a1,1,0,0,1,.13-.45c.68-.85,1.38-1.68,2.08-2.52Z"/><path class="cls-1" d="M175.7,236.79a14.27,14.27,0,0,1-2.57-1.73,23.78,23.78,0,0,1-2.24-3.08c-.43-.62-.82-1.26-1.23-1.89-.33.7-.69,1.4-1,2.12-1.41,3.41-2.69,3.82-5.77,1.77-1.68-1.11-3.53-2.29-3.11-4.65.46-2.55,1.52-4.88,4.16-6,1.4-.59,2.87-1.72,4.17-1.55.91.12,1.61,2,2.35,3.15s1.25,2.22,2,3.26c1.42,2.05,2.95,4,4.37,6.09a2.6,2.6,0,0,1,.51,1.66C177.31,236.23,176.49,236.4,175.7,236.79Zm-10.51-5.65c.51-.35.81-.44.87-.6.46-1.5.89-3,1.26-4.53a2.41,2.41,0,0,0-.92-.49,18.29,18.29,0,0,0-2.37,3.57C163.84,229.51,164.75,230.4,165.19,231.14Z"/><path class="cls-1" d="M250.78,239.69a1.78,1.78,0,0,1-.47-.08L246.79,238c1.12-.54,2.21-1.12,3.36-1.6a44.09,44.09,0,0,0,4.39-1.75c2.16-1.2,2.47-2.8.54-4.39a36.19,36.19,0,0,0-7.21-4.54c-3.31-1.61-3.59-2.49-.83-5a41.1,41.1,0,0,1,3.62-3.1c.46-.34,1.23-.25,1.85-.35,0,.67,0,1.34.05,2,0,.07-.09.13-.13.2-.71,1.11-2.24,2.91-2,3.22a15,15,0,0,0,4,2.91c2.25,1.36,4.07,3,4.73,5.69.77,3.1.33,4.63-2.4,6.29a50.13,50.13,0,0,1-5.77,2.62Z"/><path class="cls-1" d="M183.56,229.41c.11-2.38.11-4.78.39-7.14a3.71,3.71,0,0,1,1.49-2.18c.26-.2,1.26.49,1.85.89,3.27,2.25,6.17,5.49,10.85,3.87.28-.09.75.38,1.13.58-.27.43-.43,1-.82,1.25-3,1.62-6.07,2.71-9.46.93-1.87-1-2.21-.66-2.15,1.52.07,2.38.21,4.77.07,7.14,0,.74-.9,1.44-1.39,2.16-.51-.63-1.41-1.22-1.46-1.88-.18-2.36-.07-4.75-.07-7.13Z"/><path class="cls-1" d="M100.41,286.91c-1.71,2.33.32,4.66.88,7.2.19.84-.73,1.93-1.15,2.91-.78-.54-2.09-.95-2.27-1.64-.92-3.67-1.69-7.4-2.26-11.14-.5-3.28-.62-6.61-1-9.91-.16-1.4-.41-3.05,1.29-3.27.71-.09,2.12,1.4,2.38,2.38.72,2.81,1,5.73,1.48,8.62C100,283.53,100.16,285,100.41,286.91Z"/><path class="cls-1" d="M375.65,276.35c0-3.09,0-6.19,0-9.28a2.41,2.41,0,0,1,.54-1.54,5.23,5.23,0,0,1,1.56-.81c.24.51.74,1.06.67,1.53a71.94,71.94,0,0,0,.66,21.43c.58,3.45.75,7.17,4.22,9.45.34.22.15,1.58-.14,2.27a1.83,1.83,0,0,1-1.67.31c-1.33-1.49-3.22-3-3.59-4.73-1.3-6.12-2.05-12.36-3-18.55Z"/><path class="cls-1" d="M288.62,289.31c.6,2.8,1.27,5.59,1.75,8.41a5.75,5.75,0,0,1-.57,2.21c-.62-.48-1.62-.84-1.8-1.45-1.05-3.58-1.91-7.22-2.83-10.84-.06-.23,0-.6-.11-.69-3.19-2.14-1.05-5-.86-7.47a2.51,2.51,0,0,1,1.62-1.82c.62-.09,2,.9,2,1.33-.41,5.06,4,5.92,6.87,8.09.24.18.71.12.87.33a11.36,11.36,0,0,1,.84,1.58,4.27,4.27,0,0,1-1.67.29,34,34,0,0,1-4-1.41C289.17,287.27,288.28,287.32,288.62,289.31Z"/><path class="cls-1" d="M179.15,276.52c0-4.07,0-8.13,0-12.19a6,6,0,0,1,.77-1.94c.49.53,1.39,1,1.43,1.58.35,4.52.78,9,.71,13.57-.08,5.8.23,11.45,2.58,16.86.33.77.14,2.52-.32,2.73-1.35.63-1.69-.7-2.24-1.73C178.9,289.43,179.08,283,179.15,276.52Z"/><path class="cls-1" d="M95.73,257.56c1.43.89,3.26,1.5,4.13,2.77.54.78-.24,2.63-.75,3.87a2.27,2.27,0,0,1-1.85,1.16,34,34,0,0,1-6.66-2.12c-.78-.36-1.73-2.16-1.46-2.6a6.53,6.53,0,0,1,3-2.33,10.81,10.81,0,0,1,3.3-.24Z"/><path class="cls-1" d="M114.75,259.63a11.68,11.68,0,0,0,1.53,9.19c.26.42,0,1.17,0,1.77-.61,0-1.41.14-1.77-.18a5,5,0,0,1-1.79-2.41c-.57-3.34-.87-6.73-1.28-10.11a1.81,1.81,0,0,1,2-2.27c.5,0,.93,1.5,1.26,2.36A5.44,5.44,0,0,1,114.75,259.63Z"/><path class="cls-1" d="M235.18,228.73a24.26,24.26,0,0,1,.54-4.23c.19-.61,1.2-1.48,1.62-1.38a2.52,2.52,0,0,1,1.55,1.68,34.26,34.26,0,0,1,.11,5.55c0,.53-.43,1.42-.79,1.48a2.22,2.22,0,0,1-1.9-.53A11.22,11.22,0,0,1,235.18,228.73Z"/><path class="cls-1" d="M192.4,288.21a7.69,7.69,0,0,1,.07-2.59c.25-.67,1.08-1.11,1.65-1.65a6.22,6.22,0,0,1,.93,1.73c.26,1.46.24,3,.52,4.42s0,2.47-1.39,2.37c-.69-.05-1.46-1.3-1.88-2.17-.27-.56,0-1.39,0-2.11Z"/><path class="cls-1" d="M387.05,295.36l3.17-3.17a15.1,15.1,0,0,1,2.08,3.63c.11.44-1.47,1.92-2.15,1.84C389.21,297.56,388.38,296.42,387.05,295.36Z"/><path class="cls-1" d="M393.29,277.1c-1.11.78-1.94,1.79-2.59,1.69s-2-1.5-1.84-1.85c.38-.9,1.4-1.54,2.16-2.28Z"/><path class="cls-1" d="M196.28,270.77l-1.9,3.05c-.55-.67-1.65-1.48-1.53-2,.2-.81,1.17-1.49,1.92-2.07C194.9,269.65,195.6,270.3,196.28,270.77Z"/><path class="cls-1" d="M238.2,214.24c.61.82,1.35,1.44,1.24,1.72a7.19,7.19,0,0,1-1.45,1.76l-1.76-1.57Z"/></svg>