<svg id="_0" data-name="0" xmlns="http://www.w3.org/2000/svg" viewBox="0 0 531.37 531.37"><defs><style>.cls-1{fill:#fff;}</style></defs><path class="cls-1" d="M208.13,211.09a28.24,28.24,0,0,1-4.49-3.24,4,4,0,0,0-4-1.22,85,85,0,0,1-10.41,1.18c-3.48.12-4.27-1.15-3.89-4.59s1.3-6.72,3.69-9.37c2.25-2.49,5.57-3,7.71-1.18a5.53,5.53,0,0,1,.89,1.3,5.11,5.11,0,0,1-1.57.84,8.13,8.13,0,0,0-7.37,6.87c-.36,1.8.46,2.67,2.17,2.48,2.61-.29,5.22-.72,7.8-1.23.35-.07.82-1,.73-1.5-.17-.83-1.06-1.6-1-2.37a9.2,9.2,0,0,1,1.14-2.84,7.38,7.38,0,0,1,1.92,1.48c2.17,3.2,4.21,6.49,6.34,9.73.17.26.71.24,1,.47.61.49,1.15,1.06,1.71,1.59Z"/><path class="cls-1" d="M278,208.14c2.07-.71,4.14-1.43,6.22-2.1a2.82,2.82,0,0,1,1.07.07c-.09.21-.13.5-.28.59-3.13,1.88-5.83,4.71-10,4.28-3.79-.39-5.18-3.35-6.7-6.11a29.36,29.36,0,0,1-1.76-4.67,2,2,0,0,1-.08-1.38,78.31,78.31,0,0,1,4.9-8.85,8.19,8.19,0,0,1,4.41-2.89,7.23,7.23,0,0,1,4.87.67c1.64.93.87,2.81.49,4.38-1.1,4.52-3.33,8-8.21,9.13a1.75,1.75,0,0,0-.86,1.35C271.94,205.58,274.62,207.92,278,208.14Zm-5.9-10.53c2.89.11,7.07-4,7-6.38-.05-1.5-1-1.6-2.17-1.28-2.29.64-5.11,4-5.3,6.49C271.63,196.88,272,197.34,272.14,197.61Z"/><path class="cls-1" d="M297.08,185.74c3.2,0,6.54,2.5,6.57,5.38s-.63,6-4.75,6.65c-1.25.19-2.93.13-3.57.9s.09,2.34.05,3.57a18.12,18.12,0,0,1-.43,3.52c-.09.37-.88,1-1.1.85-.87-.39-2.2-.87-2.36-1.55a97,97,0,0,1-2.13-11.7C289,190,293.53,185.77,297.08,185.74Zm-2.21,9c3.12.06,5.37-1.3,5.33-2.78s-1.9-3-3.54-3-3.2,2.07-3,4C293.74,193.77,294.62,194.43,294.87,194.77Z"/><path class="cls-1" d="M320.82,182.72a34.94,34.94,0,0,1-.06,5.7c-.42,2.56,1.23,3,3,3.32,2.18.37,4.43.39,6.62.73a7.11,7.11,0,0,1,2.08,1.17c-.61.36-1.2,1-1.85,1-2.53.31-5.08.55-7.62.62-1.37,0-1.91.46-1.73,1.83.43,3.31.76,6.65,1.31,9.94.18,1.11.32,2.08-1,2.11-1,0-2.16,0-2.28-1.74-.27-4-.71-7.94-1.3-11.87-.12-.8-1.14-1.49-1.79-2.18s-2.8-1.61-.75-2.75c2.34-1.31,2.05-3.28,2.16-5.26a21.08,21.08,0,0,0-.09-2.63c-.1-1.45.67-2.5,2-2.39.64,0,1.18,1.4,1.77,2.16Z"/><path class="cls-1" d="M345.37,165.14c1.23,7,2.39,13.91,3.73,20.83.49,2.54,1.45,5,2.09,7.51a1.52,1.52,0,0,1-.54,1.33,2,2,0,0,1-1.73,0,4.33,4.33,0,0,1-1.44-2.1c-1.42-5.78-3-11.56-4-17.41a111.36,111.36,0,0,1-1-11.86,2.56,2.56,0,0,1,.22-1.63,13.15,13.15,0,0,1,2.07-1.67c.42.61,1.07,1.16,1.21,1.83A15.9,15.9,0,0,1,346,165Z"/><path class="cls-1" d="M160.23,174.2c-.16,4.14-2.31,6.58-5.76,6.52s-7.28-2.67-7.13-4.78c.26-3.57,4.41-7.51,7.78-7.39C159.12,168.7,160.38,170.1,160.23,174.2Zm-5.8,3.43,2.27-2.1c-.3-.24-.68-.75-.89-.69-1.12.34-2.21.82-3.3,1.26Z"/><path class="cls-1" d="M254.93,206.94h.48l3.67-.21c-1.13,1-2.11,2.41-3.43,2.89A12.55,12.55,0,0,1,244,208.34c-1.93-1.24-2.05-2.76-1.17-4.48,2.36-4.61,4.82-9.19,8.88-12.58a9.44,9.44,0,0,1,2.79-1.09c-.22,1.23.41,2.44-.73,3.73a88.22,88.22,0,0,0-6.29,8.33c-1.2,1.75-.8,3.22,1.43,3.78,2,.5,3.94.93,5.9,1.39Z"/><path class="cls-1" d="M228.4,206.51c1.78-.75,3.55-1.5,5.34-2.23a3.53,3.53,0,0,1,.81-.08,2.14,2.14,0,0,1-.18.65c-3.07,4.61-9,6.74-14.38,3.11-1.88-1.28-1-3.08-.19-4.47,2.76-4.73,5.65-9.39,8.57-14a5.31,5.31,0,0,1,2-1.54c.2-.11,1,.4,1,.57a9.58,9.58,0,0,1-.69,3.51c-1.84,3.35-3.93,6.56-5.86,9.86a27.59,27.59,0,0,0-1.34,3.1c1.17.39,2.33.81,3.52,1.15a3.64,3.64,0,0,0,1.18,0Z"/><path class="cls-1" d="M155.49,186.36a11.83,11.83,0,0,1,.82,1.68c1.9,6.09,3.75,12.19,5.67,18.28.22.72.59,1.7,1.17,2,1.55.71,1.75,1.59.89,2.92-.33.51-.8,1.51-.92,1.47-.91-.31-2.26-.63-2.54-1.32-1.41-3.55-2.67-7.17-3.74-10.84s-2-7.53-2.76-11.33a8,8,0,0,1,.46-2.77Z"/><path class="cls-1" d="M356.06,213.08c-.07,2.74-2.67,5.46-5.1,5.33-2.1-.1-4.66-2.92-4.58-5.06.05-1.43,3.79-4.18,5.58-4.09C354.12,209.35,356.1,211.21,356.06,213.08Z"/></svg>