<svg id="_0" data-name="0" xmlns="http://www.w3.org/2000/svg" viewBox="0 0 531.37 531.37"><defs><style>.cls-1{fill:#fff;}</style></defs><path class="cls-1" d="M142,191.23c-.8,0-1.6,0-2.39-.13-1.51-.19-3.1-.76-3.1-2.41,0-1.39.88-2.78,1.37-4.17.36.22,1,.46,1,.66-.1,1.89,1,2.33,2.56,2.28,4.28-.12,8.12-1.15,11.08-4.59,1.75-2,2.54-4.37,1.47-6.63-1.76-3.71-4.06-7.16-6.15-10.7-.13-.23-.47-.33-.71-.49-.11.42-.37.88-.28,1.26.39,1.79.48,3.43-1,4.85a4,4,0,0,1-6.6-1.41c-1.19-2.89-.18-7.91,2-10.12a3.81,3.81,0,0,1,5.21.16c3,3.63,6.23,7.15,8.57,11.18,5.4,9.27,1.37,15.44-8,19.21a35.17,35.17,0,0,1-5.05,1.26Zm2-25.47.37-.13-1.05-3c-.47,1.06-.94,2.12-1.4,3.18a.4.4,0,0,0,0,.24l1.29,2.83c.27-.87.55-1.75.8-2.63A1.47,1.47,0,0,0,144,165.76Z"/><path class="cls-1" d="M302.78,169.57c-2.16-.71-5.52-1.6-8.69-2.95-1-.43-1.56-2-2.1-3.21-.16-.35.45-1,.7-1.58.39.3,1,.53,1.12.92.74,2.07,2.73,2.08,4.3,2.57,4.91,1.53,9.53.88,13.38-2.71a7.61,7.61,0,0,0,1.52-8.83c-.39-.87-.86-1.71-1.3-2.56-.89-1.76-2-2.91-4-1.33a3.32,3.32,0,0,1-1.32.52c-2.22.47-4.63,1-6.32-.92s-.81-4.22.19-6.08a45.61,45.61,0,0,1,4.71-6.72c.43-.53,1.61-.45,2.45-.65a24.15,24.15,0,0,1-1,2.49c-1.09,2.17-2.34,4.26-3.34,6.47-.26.57.17,1.45.28,2.19a7.13,7.13,0,0,0,2.46-.45,2.9,2.9,0,0,0,.89-1.85c.11-.59-.33-1.33-.14-1.86a11.85,11.85,0,0,1,1.42-2.28,8,8,0,0,1,1.74,1.52c1.8,2.81,3.64,5.62,5.2,8.57,2.5,4.69,2.73,9.37-.54,13.93C311.85,168.37,308.06,169,302.78,169.57Z"/><path class="cls-1" d="M127.69,125.46c.35-3.74,4.19-8.34,7.28-8.63,1.83-.18,2.36.54,2.43,2.28a5.62,5.62,0,0,0,1.19,3.23c3.41,4,5.68,8.25,5.13,13.67a6.75,6.75,0,0,1-3.54,5.29c-5.37,3.4-11.34,5-17.47,6.1a3.61,3.61,0,0,1-2.55-.58,2.2,2.2,0,0,1,.1-2.12,7.1,7.1,0,0,1,2.65-.89c3.8-1,7.62-2,11.42-3a8.21,8.21,0,0,0,2.09-1.14c2-1.26,4.36-2.34,4.33-5.22a11.63,11.63,0,0,0-4.14-9,1.54,1.54,0,0,0-1,.69c-.87,3.4-3.65,4.51-6.24,2.28C128.58,127.68,128.24,126.45,127.69,125.46Z"/><path class="cls-1" d="M360.85,137q-1.05-9-2.11-18.07a6,6,0,0,0-.18-.94c-.37-1.34.11-2.4,1.47-2.39a2.55,2.55,0,0,1,1.8,1.68c.68,4.57,1.22,9.16,1.68,13.76.34,3.32.42,6.66.7,10,.46,5.38-1.41,7.44-6.72,7.33-.72,0-1.44,0-2.16,0-1.45,0-3.08-.26-3.08,1.93,0,1.39,2.12,3.15,3.62,2.73a22.55,22.55,0,0,0,4.41-2.17c1.12-.62,2.21-1.31,3.31-2a31.54,31.54,0,0,1-2,3.37c-1.7,2.21-3.36,4.44-6.69,4.35a7.94,7.94,0,0,1-7.08-4.14c-1.2-2,.57-5.64,3.44-6.69a16,16,0,0,1,4.89-.73c3.37-.09,3.82-.34,4.28-3.71a32.45,32.45,0,0,0,0-4.3Z"/><path class="cls-1" d="M193.36,160.35a13.58,13.58,0,0,1,5.78-11.06c2.33-1.78,5-1.11,7.33-.63.89.19,1.55,2.57,1.91,4,.72,2.93,1.13,5.94,1.74,8.89.32,1.51.94,2.53,2.48.87.25-.25.79-.23,1.2-.33,0,.45.18,1.07-.05,1.33-.95,1.08-1.88,2.58-3.11,2.95-1.64.49-2.67-1-3.27-2.53-.47-1.18-.88-2.4-1.39-3.56a6.38,6.38,0,0,0-.92-1.25,10,10,0,0,0-.91,1c-2.39,3.61-4.83,4.57-8.21,3.33A3.53,3.53,0,0,1,193.36,160.35Zm11.21-7.44c-.32-1.88-1.2-2.13-2.4-1.7-2.64.94-4,3.07-4.69,5.6-.23.84.31,1.89.5,2.84,1-.19,2.34-.06,2.79-.64A66.89,66.89,0,0,0,204.57,152.91Z"/><path class="cls-1" d="M261.75,121.5c.6-3.72,1-6.72,1.59-9.69a3.72,3.72,0,0,0-1.16-3.84c-3.42-3.2-4.84-7.61-6.83-11.67a2.22,2.22,0,0,1-.3-1.15,23.54,23.54,0,0,1,.45-2.34c.73.4,1.75.61,2.14,1.23,1.07,1.66,1.84,3.5,2.79,5.24.84,1.53,1.73,3,2.67,4.51a5.64,5.64,0,0,0,1.18,1,6.05,6.05,0,0,0,.69-1.46c.62-3.84,1.13-7.71,1.82-11.54.15-.78.94-1.45,1.43-2.16.31.88,1,1.8.88,2.63A217.52,217.52,0,0,1,265.48,117a14.06,14.06,0,0,0-.25,3.55c.06,1.52-.17,3-1.91,2.89C262.68,123.44,262.1,122,261.75,121.5Z"/><path class="cls-1" d="M52.31,137.52c.46-1.93.84-3.88,1.38-5.78.94-3.31,3-5.68,6.44-6.36,3.69-.73,6.69.73,9,3.63,3.81,4.72,5.18,9.93,3.46,15.89-1,3.48-5.05,6-8.57,5.11a16.86,16.86,0,0,1-2.53-.68,13,13,0,0,1-2-1.3c.88-.54,1.73-1.43,2.67-1.55a18.94,18.94,0,0,1,4.49.28,3.14,3.14,0,0,0,3.68-2.67c1.1-4.86.55-9.44-2.55-13.6-2.08-2.79-4.71-3.27-7.83-2.62-2.91.6-4.18,2.89-5,5.3-1.59,4.79-.38,9.27,2.07,13.5a11.62,11.62,0,0,1,.61,1.4,6.6,6.6,0,0,1-1.55-.77C53.28,144.71,52.4,141.33,52.31,137.52Z"/><path class="cls-1" d="M313.43,111.51c1.16-1,2.91-1.84,3.32-3.1a5.12,5.12,0,0,0-1.09-4.22A39.4,39.4,0,0,0,310,99.47c-2.68-2.09-3-4.15-1.1-7,1.22-1.86,2.26-3.84,3.51-5.68.37-.53,1.21-.73,1.83-1.09.17.64.64,1.4.45,1.91a40,40,0,0,1-2.32,5,3.06,3.06,0,0,0,.8,4.23c1.74,1.49,3.54,3,5.13,4.6a9,9,0,0,1,2.82,8c-.65,4-5.93,5.72-8.86,4.55a2.5,2.5,0,0,1-1.35-1.92c0-.53,1.11-1,1.73-1.5C312.88,110.86,313.16,111.18,313.43,111.51Z"/><path class="cls-1" d="M183.07,168.68c-4.11.09-6.58-2.62-9.29-4.79a1.3,1.3,0,0,1-.39-1.07A59.29,59.29,0,0,1,176,154c.59-1.34,2.29-2.42,3.73-3.1a2.94,2.94,0,0,1,3.95,1.27c1,1.57,2.27,3.15.69,5a38.63,38.63,0,0,1-4.09,4c-1.72,1.49-1.67,2.73.38,3.72.92.45,2,.61,2.89,1.09.55.29.9.94,1.34,1.43Zm-3.89-11.51,1.62-1.9c-.21-.13-.58-.39-.62-.35a19.13,19.13,0,0,0-1.37,1.72S179,156.92,179.18,157.17Z"/><path class="cls-1" d="M251.1,165.69l-1.33-.65c.44-.61.74-1.46,1.34-1.77a10.57,10.57,0,0,0,5.38-6c.77-2.18.16-3.33-2-3.88-2.54-.64-5.22-1.54-5.7-4.43a9.89,9.89,0,0,1,.79-6.11c1.42-2.42,3.7-4.35,5.74-6.37.49-.48,1.46-.49,2.2-.72a7.64,7.64,0,0,1-.76,2.66c-1.23,1.64-2.83,3-4.05,4.65-2.24,3-1.45,5.39,2,6.61.67.23,1.35.43,2,.66,2.82,1,3.56,2.14,3.41,5.14-.19,3.95-4.07,9-7.82,10.1A8.42,8.42,0,0,1,251.1,165.69Z"/><path class="cls-1" d="M189.28,115.58c.28-4.38,5.73-10.3,9.44-10.59a2.66,2.66,0,0,1,2.15,1.17c1.48,3.56,2.81,7.2,4.07,10.86a9.44,9.44,0,0,1,.08,2.82,11.78,11.78,0,0,1-2.48-1c-1-.73-6.09-1.76-7.31-1.63a15.74,15.74,0,0,1-4.7-.21C189.93,116.89,189.51,115.86,189.28,115.58Zm5.24-1.91.91.23c1-1.41,2-2.8,3-4.26.18-.28-.11-.84-.18-1.27-.44.1-1.05.06-1.29.34a32.67,32.67,0,0,0-2.72,3.6C194,112.58,194.4,113.21,194.52,113.67Z"/><path class="cls-1" d="M88.3,132.33c.39,2,.86,4.06,1.15,6.11a11.32,11.32,0,0,1,0,4,3.24,3.24,0,0,1-1.94,1.82c-.34.12-1.44-.86-1.65-1.52-1.18-3.64-2.18-7.34-3.25-11a25.82,25.82,0,0,1-1.07-3.66,6.24,6.24,0,0,1,.6-2.28A7.24,7.24,0,0,1,84,127.12a12.72,12.72,0,0,1,1.21,2.55c.4-.92.86-1.82,1.19-2.76.87-2.44,1.83-4.76,4.27-6.13,1.7-1,4.5-.62,5.66.86a1.72,1.72,0,0,1,.32,1.08c0,.15-.52.46-.71.4-1.54-.47-3.38-1.26-4.39.38a47.84,47.84,0,0,0-3.13,7.13,4.9,4.9,0,0,0,0,1.67Z"/><path class="cls-1" d="M239.73,160.5l1.87.91a7.7,7.7,0,0,1-1.63,1.51c-1.73.82-3.58,1.05-5.22-.16-5.75-4.25-6.95-11.52-.2-16.09a.72.72,0,0,1,.21-.12l4.33-1.33c.21,1.66.89,3.43.52,4.95-.43,1.79-1.75,3.38-2.73,5-.47.8-1.68,1.86-1.48,2.24a13.61,13.61,0,0,0,2.78,3.26c.26.25.92.09,1.39.13Zm-2.15-9.64-.64-.88c-.23-.09-.63-.3-.67-.25-.52.66-1,1.37-1.43,2.07,0,0,.35.33.43.29C236.05,151.71,236.81,151.28,237.58,150.86Z"/><path class="cls-1" d="M333.5,142.87c-.51,1.11-1,2.23-1.54,3.32a15.28,15.28,0,0,1-1.94,3.45,6.19,6.19,0,0,1-3.17,2.14,9.93,9.93,0,0,1-9.07-3.17c-.7-.74-.7-2.79-.22-3.89,1.8-4.11,6.78-6.81,11.3-6.49C332,138.46,333.17,139.73,333.5,142.87Zm-4.88-1.78c-3.59-.18-5.76,1-7.06,3.62-.57,1.13-.81,2.3.65,3.06,1.23.64,2.37,1.75,3.76.15.66-.74,1.84-1.09,2.37-1.89a10.34,10.34,0,0,0,1.49-3.77C329.9,141.84,328.75,141.21,328.62,141.09Z"/><path class="cls-1" d="M86.44,176a14.37,14.37,0,0,0-1.19,1.76,29.57,29.57,0,0,1-1.8,4.14c-1.34,2-2.47,1.92-3.33-.32-1.77-4.61-3.34-9.3-5-13.95a29,29,0,0,1-1.38-4.06c-.12-.65.44-1.43.69-2.15.63.45,1.61.78,1.83,1.38,1.57,4.26,3,8.59,4.46,12.86A6.26,6.26,0,0,0,82,177.18a12.53,12.53,0,0,0,.94-1.57c1.51-3.42,3.66-3.91,6-1a53.55,53.55,0,0,1,4.6,7.46c.19.32-.33,1.5-.58,1.52-.69,0-1.75-.08-2.07-.55-1-1.5-1.74-3.21-2.65-4.8A22.33,22.33,0,0,0,86.44,176Z"/><path class="cls-1" d="M116.48,182.88c1-.07,1.51-.11,2-.13h1.83c-.49.43-.92,1.09-1.49,1.26-4.28,1.22-8.43,1.34-12.19-1.67-.77-.62-1.94-.75-2.72-1.36a3.76,3.76,0,0,1-1.55-2.21c-.06-1,.39-2.23,2-2,.37.05,1-.48,1.23-.9a17.82,17.82,0,0,0,1.21-2.84c.6-1.73,2.2-3.12,3.5-2.4s2.37,2.78,2.82,4.44c.24.86-.87,2.29-1.66,3.2-1.16,1.33-1,2.38.43,3A39.37,39.37,0,0,0,116.48,182.88Z"/><path class="cls-1" d="M280.64,147.39a11.15,11.15,0,0,1-1.17.76c-2.45,1.14-4.86,2.41-7.39,3.33-1.57.57-2.1,1.31-2,3a13.48,13.48,0,0,1-.29,4.75c-.26.9-1.46,1.52-2.24,2.27a12.51,12.51,0,0,1-.67-2.88c0-2.75,1.06-5.68-1.94-7.71-.39-.26-.66-1.52-.41-1.78,2.44-2.62.72-4.86-.5-7.17a5,5,0,0,1-.86-1.89c0-.47.6-1.38,1-1.38.66,0,1.69.31,1.93.81a44.73,44.73,0,0,1,3,7c.58,1.89,1.75,2.13,3.27,1.85,2.18-.41,4.32-1,6.49-1.43a9.2,9.2,0,0,1,1.82,0Z"/><path class="cls-1" d="M240,102.45c-.59-3.12-1.2-6.24-1.78-9.36a5.33,5.33,0,0,1-.23-2.34,10.13,10.13,0,0,1,1.54-2.39c.51.64,1.28,1.21,1.47,1.94a65.77,65.77,0,0,1,1.56,7.48c.43,3,1.33,5.43,5,5.56a1.41,1.41,0,0,1,1,1,1.77,1.77,0,0,1-.87,1.22c-3.34,1.89-3.33,1.89-2.44,5.86a7.69,7.69,0,0,1,.07,3c-.07.43-.86.93-1.38,1a1.53,1.53,0,0,1-1.3-.76c-1-4-2-8.1-2.94-12.16Z"/><path class="cls-1" d="M345.23,146c0,.8,0,1.6,0,2.39-.07,4.11-2.2,5.33-5.71,3.29-2.94-1.7-4.91-7.86-3.48-10.9,1.17-2.5,3.27-4,5.09-3.56,2,.44,4.1,3.4,4.1,5.92,0,1-.12,1.9-.18,2.86Zm-2.91-.35c-.38-1.46-.66-2.77-1.09-4a1.44,1.44,0,0,0-1.05-.78,1.27,1.27,0,0,0-.95.81,16,16,0,0,0,.08,4.38c.16.76,1.2,1.32,1.84,2Z"/><path class="cls-1" d="M165,117.65c0,.56.13,1.24-.14,1.64-.46.69-1.29,1.77-1.77,1.68-.77-.15-2-1.21-2-1.73a24.61,24.61,0,0,1,1.78-7.53,4.27,4.27,0,0,1,7.25-.74c1.75,2.26,2.82,5.09,4,7.76a18.59,18.59,0,0,1,1.15,4.63c.08.61-.44,1.31-.68,2-.73-.43-1.86-.69-2.12-1.32-.72-1.75-1-3.7-1.62-5.49a18.75,18.75,0,0,0-2.12-4.22c-.42-.61-1.6-1.3-2.1-1.1a3.76,3.76,0,0,0-1.58,2.08,8.27,8.27,0,0,0-.22,2.36Z"/><path class="cls-1" d="M215,94.06c.76,5.74,1.49,11.49,2.3,17.22.14,1,.92,2.29-.64,2.44a3,3,0,0,1-2.29-1.78,83.18,83.18,0,0,1-1.72-10.86c-.36-4.59-.34-9.22-.46-13.84a6.64,6.64,0,0,1,.17-2.37,8.7,8.7,0,0,1,1.41-2c.46.66,1.25,1.3,1.31,2,.28,3,.36,6,.5,9.07Z"/><path class="cls-1" d="M220.3,149.21c-.79,2.55.46,2.93,2.32,2.67a13.36,13.36,0,0,1,1.65-.23,9,9,0,0,1,1.53.22,4.43,4.43,0,0,1-.63,1.41c-.78.77-1.63,1.91-2.57,2-2.85.35-2.81,2.31-2.87,4.33a9.89,9.89,0,0,1,0,2.37c-.16.56-.82,1-1.26,1.45-.38-.5-1.05-1-1.08-1.5-.2-3.53-.28-7.07-.38-10.6-.07-2.24-.21-4.48-.07-6.71.05-.8.82-1.55,1.27-2.33.5.65,1.27,1.22,1.44,1.94A48.57,48.57,0,0,1,220.3,149.21Z"/><path class="cls-1" d="M169,153.36a7.87,7.87,0,0,1-1.26.84c-3.43,1.24-4.5,3.16-4,6.83a32.25,32.25,0,0,1,.26,5.2,2.74,2.74,0,0,1-.81,1.61c-.84-.21-2.14-.51-2.34-1.1-1.21-3.61-2.22-7.29-3.16-11-.18-.7,0-2.21,1.32-1.37s1.91-.17,2.84-.61a18.8,18.8,0,0,1,4.56-1.57C167.12,152.09,167.93,152.84,169,153.36Z"/><path class="cls-1" d="M60.11,171.62a20.9,20.9,0,0,1,2.58,3.1,13.69,13.69,0,0,1,1.13,3.63c.73,3.51,2.78,4.52,6,3,.5-.24,1.26,0,1.89.1a18.35,18.35,0,0,1-.83,1.66c-.1.16-.43.17-.65.27-3.49,1.66-3.45,1.64-2.18,5.27A7.39,7.39,0,0,1,68,191a10.92,10.92,0,0,1-1.92-1.41c-1.81-2-3.56-4-5.26-6.1-.33-.4-.67-1.38-.5-1.53,2.36-2.16.23-4.08-.27-6.05a22.41,22.41,0,0,1-.88-2.2C59.15,173.24,59.64,172.66,60.11,171.62Z"/><path class="cls-1" d="M229.27,109.12c0-1.67-.07-3.34,0-5,0-.48.62-.93.95-1.4.47.37,1.3.68,1.35,1.1.47,3.53.85,7.07,1.09,10.62,0,.58-.75,1.21-1.16,1.81-.61-.63-1.63-1.21-1.73-1.92a34.78,34.78,0,0,1-.08-5.21Z"/><path class="cls-1" d="M150.87,113.19a12.15,12.15,0,0,1,1.39,2.16,65.53,65.53,0,0,1,2.14,7.6c.15.84-.8,1.88-1.25,2.83-.71-.48-1.88-.82-2.05-1.44a64.25,64.25,0,0,1-1.73-8.36C149.28,115.29,150.15,114.47,150.87,113.19Z"/><path class="cls-1" d="M106.66,129.26l.87-1.71a7.1,7.1,0,0,1,1.12,1.36,43.69,43.69,0,0,1,2.52,6.07c.27,1,0,2.73-.65,3.12-1.45.9-2.07-.58-2.36-1.74C107.58,134.06,107.17,131.72,106.66,129.26Z"/><path class="cls-1" d="M300.81,103.6c-.16,1.29,0,2.08-.37,2.5a3.73,3.73,0,0,1-2,1.26c-.3.06-1.09-.86-1.18-1.42a36.66,36.66,0,0,1-.4-4.91c0-.38.33-1,.6-1.1.56-.09,1.5-.06,1.7.28A28.33,28.33,0,0,1,300.81,103.6Z"/><path class="cls-1" d="M149.1,105.5c-.83-1.13-2-2.31-1.8-2.51a13.88,13.88,0,0,1,2.64-2.21c.53.89,1.39,1.75,1.45,2.67C151.42,104,150.16,104.6,149.1,105.5Z"/><path class="cls-1" d="M233.45,93.47c-1.07.64-1.61,1.2-2.18,1.24-1.4.1-2.46-.67-2.18-2.12.16-.78,1.13-1.41,1.74-2.11Z"/><path class="cls-1" d="M302.2,90.48c-1-1-2-1.8-1.95-1.85.78-1,1.68-1.91,2.56-2.85.55.55,1.66,1.32,1.55,1.59A17.18,17.18,0,0,1,302.2,90.48Z"/><path class="cls-1" d="M110.17,114.19c-.7.6-1.4,1.34-1.51,1.26a10.32,10.32,0,0,1-2.62-2.38c-.16-.25.9-1.32,1.4-2Z"/></svg>