<svg id="_0" data-name="0" xmlns="http://www.w3.org/2000/svg" viewBox="0 0 531.37 531.37"><defs><style>.cls-1{fill:#fff;}</style></defs><path class="cls-1" d="M169,90.44c-.54,1-.95,1.67-1.22,2.37-.63,1.58-.79,3.65-3.44,2.9-.14,0-.68.72-.77,1.16-.25,1.24-.27,2.54-.57,3.78s-.55,3-2.53,2.92-2.33-1.42-2.58-2.9c-.75-4.39-1.46-8.78-2.19-13.17a9.4,9.4,0,0,1-.4-2.57,9.61,9.61,0,0,1,1.09-2.47c.57.51,1.51.94,1.65,1.55.67,2.95,1.11,5.95,1.7,8.92a11.1,11.1,0,0,0,.84,2.07c.12-.66.26-1.31.36-2,.22-1.58.33-3.19.67-4.74.51-2.35,1.58-2.62,3.34-1.14a2.07,2.07,0,0,0,1.94.23c2.15-1.43,3.94-.46,5,1.14a102,102,0,0,1,5.21,9.6c.13.26-.46,1.29-.74,1.3-.8,0-2.05,0-2.35-.51-1.34-2.15-2.39-4.48-3.6-6.72A13.69,13.69,0,0,0,169,90.44Z"/><path class="cls-1" d="M99.92,93.52c.58-.84,1-1.94,1.79-2.42a3,3,0,0,1,2.57.17,14.52,14.52,0,0,1,3.13,2.89c.78.9,1.28.93,2,0,2.73-3.43,5.27-3.19,7.81.53a28.74,28.74,0,0,1,3.13,7.42c.25.8-.43,1.9-.69,2.85a12.15,12.15,0,0,1-2.18-2.31c-1.1-2-1.92-4.13-3-6.15a2.23,2.23,0,0,0-1.4-.8,3.47,3.47,0,0,0-1.08,1.87c0,1,.67,2.08.49,3a3.86,3.86,0,0,1-1.69,2.5c-.57.28-2-.36-2.51-1-1.32-1.66-2.33-3.57-3.51-5.36a5.48,5.48,0,0,0-1-.91c-.23.46-.66.93-.66,1.39,0,1.82.3,3.64.23,5.45,0,.71-.71,2-1.06,2a3.27,3.27,0,0,1-2.27-1.14Q97.34,99.74,95,95.77c-.35-.61,0-1.65.06-2.49.71.32,1.43.6,2.11,1,.26.14.39.53.65.68.66.4,1.37.73,2,1.09l.74-2.11Z"/><path class="cls-1" d="M70.68,81.81c.6,1.91,1.3,3.79,1.79,5.73s.76,4,1.17,6a11,11,0,0,0,.61,2A7.54,7.54,0,0,0,75.08,97c.3-.42.63-.84.91-1.28,1.69-2.62,3.07-2.86,5.65-1.15,3.21,2.13,4.56,5.42,5.73,8.83.46,1.35.75,2.76,1.08,4.15a5.87,5.87,0,0,1,.08,1.11c-.45,0-1.06.16-1.31-.07a7.19,7.19,0,0,1-1.54-2c-1.3-2.52-2.41-5.15-3.82-7.61a3.5,3.5,0,0,0-2.41-1.55c-.47,0-1.33,1.3-1.5,2.12a18.92,18.92,0,0,0-.41,5c.07,1.32-.46,2.12-1.57,2.11-.52,0-1.33-1-1.52-1.7-1.59-5.91-3-11.89-4.63-17.79C69,84.05,67.54,81.08,66.67,78a43.92,43.92,0,0,1-1-6.8c0-.26.42-.71.73-.82s.89.1,1,.31c1.35,3.64,2.65,7.31,4,11Z"/><path class="cls-1" d="M127.94,95.87a27,27,0,0,1,0-3.82,3.58,3.58,0,0,1,1.13-1.9c.14-.15,1,.45,1.49.64s1.13.28,1.67.47c.85.31,2,.44,2.46,1.07,1.31,1.88,1.92,1,2.66-.37a28.27,28.27,0,0,1,2.11-3.46c2.13-2.77,4.36-3,6.3-.29a39.72,39.72,0,0,1,3.87,8.07c.16.42-.74,1.58-1.4,1.91a2.21,2.21,0,0,1-2-.5,7.67,7.67,0,0,1-1.15-2.58,30,30,0,0,0-1-3.17c-.91-1.86-1.62-1.93-2.76-.23a59,59,0,0,0-3.32,5.5c-1.49,2.79-2.43,3.08-4.93,1.34-.14-.1-.75.13-.83.33-.28.66-.22,1.55-.65,2a3.08,3.08,0,0,1-2.1,1,2.15,2.15,0,0,1-1.4-1.53,34.33,34.33,0,0,1-.06-4.54Z"/><path class="cls-1" d="M325.33,130.59a8.62,8.62,0,0,0-1.93,1.76c-2,3.43-5.67,4.45-9,2.27a9.86,9.86,0,0,1-4.82-9.29,40.14,40.14,0,0,1,1.68-7.67c.15-.55,1-.9,1.51-1.34.4.62,1.08,1.22,1.15,1.87a7.23,7.23,0,0,1-.43,3c-1.59,4.36-.16,7.52,3.06,9.77a3.34,3.34,0,0,0,5-1.5c.41-1.1.43-2.34.79-3.47a15.18,15.18,0,0,1,1.42-3.06,1.7,1.7,0,0,1,1.35.35,6.27,6.27,0,0,1,.61,2.28c.23,1.94,1.2,2.6,3.12,2.18.57-.12,1.27.34,1.9.53-.39.53-.68,1.28-1.21,1.57a32.23,32.23,0,0,1-3.63,1.51Z"/><path class="cls-1" d="M384.52,132.55c-.4,0-.9-.16-1.18,0-3.23,2.15-5-.75-7-2.18-1.85-1.29-1.74-4.47,0-6.47a7.11,7.11,0,0,1,10.6-.29,10.93,10.93,0,0,1,1.68,2.31C390.72,129.9,389,132.66,384.52,132.55Zm-4.09-4.22,2.61-2.87c-.74-.46-1.63-1.41-2.2-1.25-.74.21-1.4,1.24-1.72,2.06C379,126.63,379.78,127.35,380.43,128.33Z"/><path class="cls-1" d="M394.66,130.53a39,39,0,0,1-.67-4.88,12,12,0,0,1,.77-3.18,9,9,0,0,1,2.35,1.7c1,1.39,1.27,0,1.61-.38,2.25-2.28,4.36-3.08,6.45-1.49,1.53,1.16,2.49,3.18,3.43,5a28.92,28.92,0,0,1,1.64,4.72c.36,1.12.28,2.09-1.11,2.41a1.8,1.8,0,0,1-2.5-1.45,32.34,32.34,0,0,0-1.79-5.68c-1.44-3-3-3.09-4.6-.17-1,1.78-1.24,3.93-2,5.83-.37.89-1.28,2.28-1.83,2.22-1.6-.15-1.9-1.65-1.91-3.09A12.57,12.57,0,0,1,394.66,130.53Z"/><path class="cls-1" d="M425,121.29c-.84,2-1.95,4.85-3.33,7.58-.27.54-1.61.54-2.46.79.06-.85-.19-1.92.23-2.51,3.76-5.34,1.78-11.28-1.31-15.8-1.05-1.53-2.5-1.49-4-.49a7.79,7.79,0,0,1-2,1.18,1.9,1.9,0,0,1-1.66-.34,2.14,2.14,0,0,1-.07-1.73,5.68,5.68,0,0,1,9.52-2.08C422.32,110.27,424.94,116.7,425,121.29Z"/><path class="cls-1" d="M276.5,126.07c-.24,1.49-.58,3-.69,4.46-.09,1.27-.62,2.19-1.85,1.8a3.12,3.12,0,0,1-1.76-2.05c-.35-1.85-.25-3.79-.42-5.68a14,14,0,0,0-.53-2.07c-.44-1.85.34-2.68,2.23-2.61a2.5,2.5,0,0,0,1.68-.63c1.89-1.87,4-1.84,5.33.46s2.25,4.74,3.32,7.13a14.12,14.12,0,0,1,1.05,2.89,8.32,8.32,0,0,1-.23,2.3c-.72-.34-1.75-.5-2.11-1.08a37.53,37.53,0,0,1-2.11-4.54,6.66,6.66,0,0,0-.78-1.73,30.27,30.27,0,0,0-2.42-2.24c-.29,1-.59,2.06-.87,3.09a1.85,1.85,0,0,0,0,.47Z"/><path class="cls-1" d="M291.72,112.74c.63,1,1,1.37,1.1,1.8a17.24,17.24,0,0,1,.14,2.39c.11,2.66.8,3.28,3.44,3a12.53,12.53,0,0,1,1.88-.32c.49,0,1.35.36,1.36.59,0,.54-.21,1.4-.6,1.6a17.82,17.82,0,0,1-4.62,1.81c-1.59.28-2.07,1-1.85,2.4.35,2.27.84,4.53,1.15,6.81a7.73,7.73,0,0,1-.33,2.14c-.7-.4-1.86-.67-2-1.21a71.68,71.68,0,0,1-1.71-8.34c-.2-1.37-.08-2.52-1.75-3.21a1.77,1.77,0,0,1,.28-3.22c1.61-.52,1.67-1.58,2-2.85A19.61,19.61,0,0,1,291.72,112.74Z"/><path class="cls-1" d="M349.05,118l2.75-2.72c.4.83,1.12,1.64,1.16,2.48.23,4.53,1.59,5.72,6.34,5.37a4.55,4.55,0,0,1,1.65.56,4.49,4.49,0,0,1-1,1c-1.2.59-2.44,1.13-3.69,1.62s-1.52,1-.95,2.19a12.62,12.62,0,0,1,1.37,3.28,3,3,0,0,1-1,2.08,1.89,1.89,0,0,1-1.61-.51C352.38,128.39,350.78,123.35,349.05,118Z"/><path class="cls-1" d="M426.86,143.21c-.65.61-1.51,2-2.63,2.26-.86.21-2.13-.85-3.08-1.53-.54-.37-.68-1.3-1.22-1.68-1.67-1.22-1.36-2.6-.36-3.91a2.64,2.64,0,0,1,3.91-.75C425.43,138.76,426.55,140.27,426.86,143.21Z"/><path class="cls-1" d="M370,123.71c.47,2.61,1,5.22,1.42,7.83.2,1.11.43,2.22-1.09,2.73s-2.21-.52-2.24-1.64c-.14-4.54-.17-9.09,0-13.63,0-.67,1.1-1.32,1.69-2a12.8,12.8,0,0,1,.56,2.08c.15,1.5.19,3,.27,4.53Z"/><path class="cls-1" d="M338.92,122.5a5.82,5.82,0,0,1,.78,1.3c.46,1.68.76,3.41,1.26,5.08.37,1.24,1.22,2.39,1.34,3.64s-.46,2.37-.73,3.56a19.69,19.69,0,0,1-2.42-1.35,2.28,2.28,0,0,1-.5-1.31c-.48-2.82-1-5.64-1.32-8.49-.08-.79.56-1.67.88-2.51Z"/><path class="cls-1" d="M201.36,98.83c-.16,0-.37.1-.47,0-3-2-4.55.25-6.4,2a4.15,4.15,0,0,1-2.59.75c-.37,0-1.16-.92-1.07-1.25a3.15,3.15,0,0,1,1.27-1.92c2.23-1.15,4.57-2.06,6.84-3.11,1.53-.71,2.94-1.37,3.95.75C203.66,97.72,203.17,98.7,201.36,98.83Z"/><path class="cls-1" d="M262.93,127.44a35.49,35.49,0,0,1,2,4.36c.3,1,.41,2.8,0,3-1.42.7-2.59-.12-3-1.66-.71-2.43-1.41-4.86-2-7.33-.11-.49.51-1.14.79-1.71a15.62,15.62,0,0,1,2.58,1.49c.29.24.1,1.06.12,1.61Z"/><path class="cls-1" d="M371,116a34.87,34.87,0,0,1-4.19-2.3,2.25,2.25,0,0,1-.45-2,2.47,2.47,0,0,1,1.55-1.51c.54-.09,1.28.58,1.82,1,.77.65,1.42,1.43,2.14,2.15.49.49,1,1,1.51,1.43Z"/><path class="cls-1" d="M341.79,109.49a36,36,0,0,1,2,4.26c.09.27-1,1.35-1.43,1.31-1.75-.15-3.06-1.25-3-3C339.47,111.27,340.73,110.58,341.79,109.49Z"/><path class="cls-1" d="M261.16,106.46c.72,1.08,1.38,2,1.93,2.94a14.58,14.58,0,0,1,.82,2,11.17,11.17,0,0,1-2.41-.45,4,4,0,0,1-1.8-1.43,2.54,2.54,0,0,1,0-1.94C259.8,107.18,260.46,107,261.16,106.46Z"/><path class="cls-1" d="M188.14,102.1c-1.26.56-2,1.23-2.66,1.1s-1.25-1-1.87-1.57A11,11,0,0,1,186,99.75C186.27,99.65,187.09,100.9,188.14,102.1Z"/></svg>