<svg id="_0" data-name="0" xmlns="http://www.w3.org/2000/svg" viewBox="0 0 531.37 531.37"><defs><style>.cls-1{fill:#fff;}</style></defs><path class="cls-1" d="M314.78,177.74c-.54-4.35-1.18-8.69-1.59-13.05s-.63-8.52-.76-12.79c0-1,.66-2,1-3.07a19.77,19.77,0,0,1,.88,2.94c1.14,7.87,2.21,15.75,3.35,23.62a5.5,5.5,0,0,0,.82,1.57,6.68,6.68,0,0,0,1.05-1.56c.54-1.67.76-3.45,1.43-5.05,1.49-3.62,4.27-4.1,6.31-.86,1.93,3.06,3.13,6.58,4.76,9.84a35.74,35.74,0,0,0,2.14,3,8.83,8.83,0,0,1,.65,1.81c-.8.23-2.1.89-2.34.62a25.55,25.55,0,0,1-3.19-4.65c-1.26-2.38-2.22-4.92-3.47-7.31a2.88,2.88,0,0,0-2-1.32c-.39,0-1,1.06-1.29,1.76-1.21,3.39-2.3,6.83-3.49,10.23-.1.28-.7.66-.89.58-.83-.38-2.12-.76-2.28-1.39-.55-2.11-1.41-1-2.32-.47-6.29,4-12.59,2.23-16.15-4.35a10.07,10.07,0,0,0-2.22-2.4c-1.6-1.44-1.49-2.78.2-4.12a3.2,3.2,0,0,0,.78-2c.39-3,1-5.83,3.48-7.88s4.47-1.27,5.34,1.72c.82,2.83-.16,5.38-1.12,7.88a43.73,43.73,0,0,1-2.62,4.65,1.79,1.79,0,0,0,0,1.31c1.42,3.46,8.79,5.82,12,3.74a10.86,10.86,0,0,0,2.12-2.62Zm-11.17-11.53c-.53-.9-.74-1.7-1.17-1.84a1.66,1.66,0,0,0-1.45.82,27.15,27.15,0,0,0-1.31,5.22c-.13,1.07.77,1.2,1.31.39C302,169.32,302.76,167.73,303.61,166.21Z"/><path class="cls-1" d="M196.72,79.67c-3.17-.22-8.53-2.42-12.5-7.41a3.52,3.52,0,0,1-.93-2.33c.13-.84,1-1.56,1.5-2.33.41.65.85,1.29,1.25,2a8.43,8.43,0,0,0,.87,1.63c5.27,5.53,11.61,6.28,18.52,4.48,3.32-.86,5.54-5.62,4.86-10.23-.42-2.87-1.55-5.63-2.17-8.49-.37-1.76-.77-1.2-1.65-.35-3,2.94-6,3.27-9.25,1-1.71-1.17-2.6-2.62-1.8-4.87,1.69-4.83,3.71-9.39,8.66-11.72.83-.39,2-.07,3-.08-.63.86-1.07,2.12-1.91,2.5-3.81,1.76-5.27,5.16-6.54,8.72-.56,1.57,1.28,3.4,3.07,3.21a4.3,4.3,0,0,0,4.09-4.65,6,6,0,0,1,0-1.9c.21-.59.68-1.4,1.17-1.51a1.93,1.93,0,0,1,1.62.92A44.72,44.72,0,0,1,210.57,54c1,3.83,2.27,7.66,2.73,11.57C214.31,74.26,208.56,80.13,196.72,79.67Z"/><path class="cls-1" d="M448.83,100.68c-3.51-.19-7-.59-9.41-3.53-.36-.43-.13-1.35-.18-2,.5.24,1,.48,1.48.74.69.37,1.36,1,2,1.07,3.08.12,6.29.61,9.22-.06,5.81-1.32,7.07-5.85,5.31-11.72-1-3.26-2.49-6.37-3.61-9.6a4.88,4.88,0,0,1,1.65-5.8,5.63,5.63,0,0,1,6.11-.57c.72.35.92,1.76,1.36,2.68a6.65,6.65,0,0,1-2.36.49c-2.37-.42-3.56,1-2.71,3.66.95,2.93,2.27,5.75,3.13,8.7A16.37,16.37,0,0,1,460,95.5c-1.74,4.33-5.85,4.67-9.76,5.17A11.52,11.52,0,0,1,448.83,100.68Z"/><path class="cls-1" d="M279.6,183.39A40.51,40.51,0,0,1,275,182.1c-1.5-.64-1.25-1.77-.13-2.55,1.28-.89,2.56-1.67,4.35-.65s7.72-.77,9.13-2.44c.83-1,.24-1.64-.65-1.63-2.86,0-5.8-1.25-8.59.69a6.63,6.63,0,0,1-3.23.63,2.14,2.14,0,0,1-2.6-2.14q-.4-10-.7-20c0-.46.47-.93.72-1.4.43.51,1.19,1,1.23,1.54.4,5.22.71,10.46,1,15.7.14,2.51.67,2.61,3,2.59a100,100,0,0,1,11.31.91c.91.1,2.19-.44,2.49,1.42.45,2.78.31,3.89-2.36,5C286.48,181.2,282.85,182.27,279.6,183.39Z"/><path class="cls-1" d="M395,62.3c-.47,3.91-2.87,6.91-5.76,9.61-.63.6-1.48,1-2.07,1.6s-1.83,2.1-1.67,2.29a17.69,17.69,0,0,0,3.35,3,5.76,5.76,0,0,0,1.82.53,9.51,9.51,0,0,1-1.69,1c-3.46,1.1-5.06.17-6.4-3.29a4.88,4.88,0,0,0-2.1-2.19c-1.23-.7-2.58-1.17-2.06-3s1.54-1.55,2.81-.84c.1.06.76-.54.87-.92.88-3.13,1.61-6.31,2.55-9.42.81-2.71,4.81-4.56,7.34-3.57C394.3,58,394.79,59.93,395,62.3Zm-10,6.1c.06,1.37.25,2.11,1.67,1.25,2.82-1.7,4.2-4.46,5.41-7.3.24-.57-.26-1.67-.74-2.25-.26-.3-1.32-.2-1.86.06C386,61.85,386.25,65.59,385.08,68.4Z"/><path class="cls-1" d="M431.49,134.5c.6-4.53,1.83-8.71,5.52-11.75,2.3-1.89,4.69-2,6.46-.31a5.12,5.12,0,0,1,.3,6.93,37.07,37.07,0,0,1-6.47,5.46c-1.68,1.12-1.61,1.89-.37,3.09,1.71,1.65,4.08,1.73,6.33.41a8,8,0,0,1,2.46-.52c-.45.83-.69,1.95-1.39,2.45-2.84,2-5.78,3.16-9.26,1.07C432.36,139.7,431.71,137.29,431.49,134.5Zm4.06-2.63c2.06-.23,6.24-4,6.33-5.71a1.73,1.73,0,0,0-1.19-1.21c-2.82,0-5.69,3.25-5.54,6.12C435.16,131.38,435.45,131.67,435.55,131.87Z"/><path class="cls-1" d="M153.49,130.39c-3.42-.16-5.46-1.6-6.71-4.17-.82-1.69-1.37-1.6-2.16.07a26.75,26.75,0,0,1-2.71,4.47c-1.34,1.79-3.1,1.55-4.58.26a9.77,9.77,0,0,1-2.75-3.5c-1.57-4-2.87-8.21-4.25-12.33-.42-1.28-.65-2.76,1-3.15.47-.11,1.65,1.35,2,2.28,1.15,3.2,1.92,6.54,3.15,9.71.63,1.63,1.86,3.9,3.81,3.17,1.42-.53,2.4-2.71,3.18-4.35.52-1.07.21-2.52.51-3.74s1.12-1.76,2.06-.39c.71,1,1.26,2.19,2,3.2a44.9,44.9,0,0,0,4.09,5.17c1,1,2.3,1.2,3-.66a4.05,4.05,0,0,1,1-1.32,1,1,0,0,1,.77-.34,1,1,0,0,1,.49.71C157.59,127.52,155,130.39,153.49,130.39Z"/><path class="cls-1" d="M374.51,164.55c.43-3.61.83-7.1,1.25-10.58a3.17,3.17,0,0,1,.38-1.61,33.82,33.82,0,0,1,2.54-2.54,12.37,12.37,0,0,1,.21,3.18,39.14,39.14,0,0,0-.3,15.77,8,8,0,0,1-.65,3.79c-.07.2-1.47.2-2.09-.07-1-.43-1.78-1.34-2.77-1.71a2.43,2.43,0,0,0-2.14.4,2.52,2.52,0,0,0,0,2.12c.95,2.35,4.25,3.89,7.44,3.66a4.61,4.61,0,0,1,1.82.14,1.39,1.39,0,0,1,.14,1.24c-1.63,1.65-7.46,1.43-10.54-.33a6.48,6.48,0,0,1-3-6.76c.28-1.42,3.49-4.21,5.14-4.08C374.12,167.35,375.63,167.24,374.51,164.55Z"/><path class="cls-1" d="M307.18,69.48c.38,1.57.79,3.14,1.09,4.73a1.57,1.57,0,0,1-.57,1A8.76,8.76,0,0,1,304.86,74c-.37-.3-.11-1.36-.13-2.07-.08-2.3-.14-4.61-.24-6.91a4.17,4.17,0,0,0-.34-1.38c-1.14-2.74-2.87-3.16-4.38-.66s-2,5.29-3.19,7.89c-.27.64-1.32,1.49-1.77,1.36a3.74,3.74,0,0,1-1.87-1.78c-.27-.46,0-1.24.07-1.87.52-4.09,1-8.2,1.58-12.29.28-2,.69-3.91,1.07-5.86a2.08,2.08,0,0,1,.45-1.08,11.84,11.84,0,0,1,1.68-1,5.52,5.52,0,0,1,.36,1.73c-.41,3-.92,6-1.34,9a6.57,6.57,0,0,0,.21,1.74,7.81,7.81,0,0,0,1.14-1.08c1.68-2.4,4-2.55,6.81.35C307.48,62.57,307.67,66,307.18,69.48Z"/><path class="cls-1" d="M403.52,118.42c-.42,3.33-1.07,5.88-3.78,7.41a17,17,0,0,0-2.58,2.09c-.53.46-1.52,1.28-1.45,1.39a6,6,0,0,0,2,2.23c2.52,1.33,5.06,1,7.54-.33a7.1,7.1,0,0,1,1.94-.37c-.4.51-.69,1.29-1.21,1.5-2.64,1-5.28,2.3-8,2.74a4.53,4.53,0,0,1-5-3,44,44,0,0,1-2.07-8.76c-.18-1.54.58-3.24,1.11-4.81.11-.34,1.08-.33,1.59-.59a5.55,5.55,0,0,0,1.49-1c2.6-2.77,5.11-3.14,7.17-.86A9.18,9.18,0,0,1,403.52,118.42Zm-6.8,6.45c2.41,0,5-2.73,4.73-5.05-.17-1.47-1.08-2-2.55-1.45-1.95.77-2.66,2.5-3.46,4.22S395,124.89,396.72,124.87Z"/><path class="cls-1" d="M431.92,62.93c-.35,2.07-.58,3.49-.84,4.9-.35,1.88,0,3.44,1.77,4.53,1.36.82,2.62,1.8,3.93,2.69a4.41,4.41,0,0,1,1.19,6.4c-2.4,3.59-6.23,4.81-10.07,5.86-.72.2-1.75-.74-2.64-1.16.47-.68.79-1.63,1.44-2,1.85-1,3.85-1.74,5.76-2.64a8,8,0,0,0,2-1.31c1.72-1.57,1.59-2.4-.35-3.7a72.92,72.92,0,0,1-6.75-4.8c-.54-.46-.58-2-.31-2.85.55-1.73,1.58-3.3,2.21-5,.45-1.22.17-2.16-1.51-2.21a6.83,6.83,0,0,1-3-.77,4.83,4.83,0,0,1-2-2.07c-.16-.35.67-1.66,1.11-1.7a5.82,5.82,0,0,1,3.07.63,12.25,12.25,0,0,1,3,2.46A24.08,24.08,0,0,1,431.92,62.93Z"/><path class="cls-1" d="M238.17,65.48c1.16-5.09,1.68-11.33,6.28-16,2-2,4-2.39,5.51-1.18s1.86,3.66.74,5.71c-1.92,3.55-3.78,7.13-8,8.68-.77.29-1.18,2.48-1.11,3.76,0,.66,1.44,1.74,2.26,1.78,1.35.05,2.72-.63,4.1-.93a5,5,0,0,1,1.34,0c-.22.4-.33,1-.67,1.16a32.86,32.86,0,0,1-4.11,2.26C241.29,72.13,238,69.82,238.17,65.48Zm5.12-6.94c.37-.16.56-.18.64-.29,1.45-1.93,2.91-3.85,4.3-5.83.15-.21-.09-.71-.14-1.07-.42.12-1,.11-1.22.39q-1.92,2.74-3.67,5.6C243,57.6,243.25,58.08,243.29,58.54Z"/><path class="cls-1" d="M275.8,68.82a5.17,5.17,0,0,0-1.61,0c-3,.91-4.85,0-5.85-3-.16-.45-.27-.91-.43-1.36-.43-1.2-.71-2-2.19-.64a11.44,11.44,0,0,1-4.45,2.05,4.29,4.29,0,0,1-5-1.91,5.16,5.16,0,0,1-.38-5.64c1.82-3.48,7.37-6.14,11.21-5.34a3.92,3.92,0,0,1,1.11.67c-.24.38-.39,1-.74,1.11-.77.37-1.71.4-2.46.8a42.77,42.77,0,0,0-5.45,3.17A2.39,2.39,0,0,0,259,61a3.22,3.22,0,0,0,2.38,1.11c3.55,0,5.2-2.65,6.58-5.39.51-1,.69-2.48,2.11-1.81.68.31,1.05,1.76,1.14,2.73.22,2.58.15,5.18.31,7.77.09,1.33.77,2,2.27,1.57,1.66-.5,2.07.49,2,1.9Z"/><path class="cls-1" d="M333.51,80.29c-.31,0-.93.1-1.24-.15a9.18,9.18,0,0,1-1.34-1.66,14.87,14.87,0,0,1,1.48-.77c3.52-1.39,7.14-2.56,10.53-4.21,1.83-.9,1.53-1.81-.29-2.78-2.9-1.54-6.23-2.46-8-5.71-1.39-2.57-1-4.61,1.61-5.87a29.73,29.73,0,0,1,5.36-1.91,4.29,4.29,0,0,1,2.53.31c.46.17.71.9,1.06,1.38a11.63,11.63,0,0,1-1.41.71,41.38,41.38,0,0,0-4.3,1.37c-1.92.88-2.17,2.12-.57,3.47a63.09,63.09,0,0,0,6.2,4.4c3.58,2.36,3.58,4.77.31,7.46S337.62,79.85,333.51,80.29Z"/><path class="cls-1" d="M172.33,163.74a7.66,7.66,0,0,0-1-.05c-1.27.07-2.54.17-3.8.25a19.48,19.48,0,0,1,3.78-1.08c2.37-.19,3-1.73,2.88-3.61-.39-4.83-.93-9.66-1.58-14.46-.18-1.37-.51-3,1-3.12.91-.08,2.64,1.4,2.84,2.41a72.86,72.86,0,0,1,.83,8.9c.15,2,.3,4.05.42,6.08a2.45,2.45,0,0,1-.11,1.15c-1.75,3.87-1,7.92-1,11.94,0,2,1,1.77,2.32,1.23s2.71-1.17,4.1-1.66c.36-.13.84.1,1.27.17a3.89,3.89,0,0,1-.65,1.13c-1.57,1.33-3.25,2.52-4.75,3.9a12,12,0,0,0-1.63,2.48c-.18.3-.34.61-.51.92-.22-.25-.45-.51-.66-.77a6.39,6.39,0,0,1-1.23-1.61,6.72,6.72,0,0,1-.31-2.45c0-.42.64-.83.61-1.22-.28-3.23-.57-6.46-1-9.67-.07-.45-1.07-.77-1.64-1.16Z"/><path class="cls-1" d="M336.21,120.45c0,1.46,0,2.82,0,4.18a6.23,6.23,0,0,0,.22,1.11,5.94,5.94,0,0,0,.84-.63c1.52-1.72,2.86-1.88,4.34-.14a61.37,61.37,0,0,1,4.18,5.8c.22.32.08.88.11,1.32-.44,0-1,.24-1.3,0a25.82,25.82,0,0,1-3.52-3.07c-1.16-1.31-1.67-.77-2.14.47a16.93,16.93,0,0,1-1.6,4,3.21,3.21,0,0,1-2.71,1.05c-.6-.13-1.3-1.52-1.33-2.37-.16-6.51,0-13-.29-19.53-.1-2.67-1-5.3-1.38-8-.09-.72.62-1.55,1-2.32.59.54,1.54,1,1.68,1.65a59.76,59.76,0,0,1,1.11,7C335.74,114.2,336,117.38,336.21,120.45Z"/><path class="cls-1" d="M252.88,115.28c-.64,2.51-1.21,4.65-1.72,6.8-1.13,4.87-2.16,9.76-3.39,14.59-.35,1.37-.16,3.94-2.41,3.39-2.41-.59-.63-2.62-.41-4,.47-3,1.11-5.92,1.71-8.87.28-1.35.36-2-1.6-2-4.86.16-8.77-3-9-7.06,0-.85.71-1.75,1.1-2.62.6.52,1.22,1,1.8,1.57,1.58,1.5,2.95,3.34,4.78,4.42,2.14,1.28,4.33-.16,4.91-2.62a19.9,19.9,0,0,1,1.34-4.08c.28-.57,1.19-.83,1.81-1.23Z"/><path class="cls-1" d="M360.7,135.1c3-.76,5.92-1.53,8.88-2.27a4.32,4.32,0,0,1,1.08,0,4.65,4.65,0,0,1-.84.71c-3.45,1.73-6.48,4.55-10.63,4.46a7.53,7.53,0,0,1-4.15-1.17,9.76,9.76,0,0,1-1.46-14.22c1.09-1.23,2.31-2.06,3.94-1.08,1.8,1.08,3.25,2.59,2.64,4.83a18.28,18.28,0,0,1-2.24,4.13c-.44.75-1.48,2-1.36,2.11a19.36,19.36,0,0,0,3.13,2.29c.23.14.62,0,.94,0Z"/><path class="cls-1" d="M352.13,83.31A33.18,33.18,0,0,1,348,82.19c-.6-.24-1-1.08-1.43-1.65a7.78,7.78,0,0,1,2.08-.88c2-.21,4,.06,5.89-.45A11.3,11.3,0,0,0,359,76.59c2.11-1.92,1.22-4.28-1.47-5.21a33.8,33.8,0,0,1-6.28-3.14,2.37,2.37,0,0,1-.53-2.2c2.66-3.13,5.25-6.45,9.51-7.55.52-.13,1.18.28,1.77.44a8,8,0,0,1-1,1.3c-1.76,1.58-3.65,3-5.3,4.69s-1.14,2.55,1,3.11,4,.91,5.11,3c1.94,3.57,1.59,6.76-1.75,9-2.33,1.55-5.06,2.49-7.62,3.7Z"/><path class="cls-1" d="M413.79,62c-1,1.22-2.11,2.35-3,3.63-1.64,2.36-3.78,4.62-4.56,7.26-.84,2.82,1.58,4.91,3.71,6.69A8,8,0,0,1,411,80.94c-.58,0-1.34.3-1.69,0A29.8,29.8,0,0,1,404,76.5c-1-1.16-1.36-1.41-2.52-.47q-2.67,2.19-5.54,4.12a3.5,3.5,0,0,1-2.22.57,6.3,6.3,0,0,1-2-1.12,9.46,9.46,0,0,1,1.44-1.75c2.57-2,5.23-3.84,7.79-5.83a2.08,2.08,0,0,0,.55-1.6,20,20,0,0,0-.69-3.75c-.72-2.53.25-4.18,2.59-5.08a4.69,4.69,0,0,1,1.71,0,15.15,15.15,0,0,1-.16,1.51,28.08,28.08,0,0,0-.89,4.08c-.09,1.78.93,1.81,2,.79,2.15-2,4.23-4.11,6.35-6.16a2.26,2.26,0,0,1,.78-.48C413.35,61.32,413.54,61.65,413.79,62Z"/><path class="cls-1" d="M124.56,130.09a62.73,62.73,0,0,0-6.27-2.36c-4.13-1.09-3.81-4.6-4.55-7.63-.8-3.3-1.82-6.54-2.74-9.8a5.83,5.83,0,0,1-.51-1.79,5.1,5.1,0,0,1,.73-1.63c.43.29,1.1.47,1.26.87,1.07,2.72,2,5.48,3,8.23.21.6.27,1.25.44,1.87.26.91.55,1.8.83,2.71.73-.47,1.44-1,2.2-1.4,1.72-1,3.47-1.17,5.09.16,1.3,1.06,2.53,2.2,3.73,3.36,1.62,1.59,2.43,3.8,1.31,5.61C128.45,129.37,126.23,129.49,124.56,130.09ZM123,127l3.38-1.44c-.78-.93-1.56-1.86-2.35-2.78-.1-.12-.22-.28-.36-.3-1.14-.24-2.64-1-3.34-.52-1.06.69-1.56,2.23-2.31,3.42,1.15.46,2.29.94,3.44,1.38A11.23,11.23,0,0,0,123,127Z"/><path class="cls-1" d="M322.42,73.55c-4.08-.27-6.37-1.71-7.63-5.24a2,2,0,0,1,.47-1.45c1-1.4,2.19-2.64,3-4.12a9.59,9.59,0,0,1,7.23-4.82A2.93,2.93,0,0,1,329,59.68a3.38,3.38,0,0,1-.36,2.93c-2.06,2.17-4.39,4.09-6.61,6.11-.44.4-.81.87-1.22,1.31.56.21,1.14.64,1.67.59,1.81-.15,3.61-.48,5.42-.71a6.11,6.11,0,0,1,1.2.08c-.2.39-.3,1-.61,1.14C326.5,72,324.45,72.76,322.42,73.55Zm-1.81-7.17.83.54,3.85-4.77c-.28-.2-.57-.59-.84-.57-1.57.1-3.92,2.56-4,4.18A1.7,1.7,0,0,0,320.61,66.38Z"/><path class="cls-1" d="M251.55,182.94c1.75-.57,3.69-1.24,5.65-1.81a7.59,7.59,0,0,1,1.85,0c-.39.52-.69,1.35-1.19,1.49a85.37,85.37,0,0,1-10.58,2.68c-2.89.43-7.92-4.36-7.08-6.93,1.14-3.48,1.29-7.92,6-9.36,2-.62,3.11-.26,3.82,1.83.94,2.76,0,5-1.9,7a18.09,18.09,0,0,1-1.78,1.61c-1.43,1.16-.76,1.95.52,2.39S249.73,182.5,251.55,182.94ZM248,172.74l-1-1.06c-1,1.25-2,2.5-3,3.78,0,0,.51.65.82.68C246.54,176.27,247.92,174.93,248,172.74Z"/><path class="cls-1" d="M218.38,155.05a4.12,4.12,0,0,1,0-1.65,15.67,15.67,0,0,1,1.58-2.18c.12.73.23,1.46.35,2.19.79,4.77,1.56,9.55,2.4,14.31.37,2.11.94,4.18,1.33,6.28.32,1.68,1.07,1.61,2.28.82,2.6-1.7,3-1.51,4.88,1.07a11.3,11.3,0,0,0,2.68,2c.35.25.92.5,1,.81a1.63,1.63,0,0,1-.56,1.21,3,3,0,0,1-4.58-.43c-1.55-2.17-2.79-1.46-4.23,0a2.31,2.31,0,0,1-4-1.21c-1.18-7.7-2.23-15.41-3.32-23.12Z"/><path class="cls-1" d="M411.93,165.42c2.21.73,5.66,1.85,9.08,3,.28.1.64.67.57.89-.11.38-.59,1-.85.93a12.37,12.37,0,0,1-3.18-.74,12.78,12.78,0,0,0-13.72,2.6c-2.31,2.33-3.14,5.29-3.5,8.43a18.08,18.08,0,0,1-.46,3.31c-.16.53-1,1.26-1.41,1.19a2.33,2.33,0,0,1-1.62-1.31C394.68,175.2,401.67,166,411.93,165.42Z"/><path class="cls-1" d="M321.19,131.17c.71,2.25,1.53,4.47,2.06,6.77.19.84-.34,1.84-.54,2.77-.68-.49-1.81-.88-2-1.49-.79-3.31-1.3-6.67-2-10-.89-4.48-1.89-8.94-2.73-13.44a7.44,7.44,0,0,1,.47-2.5c.66.5,1.65.86,1.9,1.51.77,2,1.28,4.1,1.85,6.17a7.65,7.65,0,0,0,9.49,5.62,5.32,5.32,0,0,1,1.82.21c-.39.5-.68,1.21-1.2,1.47-2.13,1.09-4.29,2-6.81,1.07C321.67,128.65,321.44,128.94,321.19,131.17Z"/><path class="cls-1" d="M173.58,120a13.11,13.11,0,0,1-2.54,1.65,37,37,0,0,1-4.2.79c-2.78.42-3.25,1.18-2.51,3.82a35.35,35.35,0,0,1,1.17,5.36c.09.73-.53,1.54-.83,2.31-.48-.6-1.18-1.13-1.39-1.82-.66-2.1-1.15-4.25-1.66-6.39a2.09,2.09,0,0,0-2.26-1.92c-1.48,0-2.43-1.36-1.42-2.46,2.63-2.88.73-5.46-.14-8.1a9.14,9.14,0,0,0-1.63-2.9,1.42,1.42,0,0,1,.57-2.47,2.13,2.13,0,0,1,2,.73c1.25,2.81,2.39,5.69,3.38,8.61.86,2.53,2.09,3.41,4.8,3,1.47-.24,2.94-.54,4.42-.71A9.36,9.36,0,0,1,173.58,120Z"/><path class="cls-1" d="M439.31,84.58c.52-2.55.79-4.45,1.32-6.28a2.27,2.27,0,0,0-.84-2.88,2.51,2.51,0,0,1-.92-2.1c.2-.56,1.35-.74,2.06-1.14a4.85,4.85,0,0,0,1.65-1.09c1.23-1.73,2.23-3.63,3.52-5.31a3.68,3.68,0,0,1,2.26-1.1,2.2,2.2,0,0,1,1.72.79c.21.28-.08,1.18-.41,1.59-1,1.24-2.18,2.31-3.12,3.58-1.73,2.33-1.33,3.28,1.39,3.88,1.09.23,2.15.57,3.23.86-1.1.49-2.21,1.43-3.29,1.39C444,76.62,443.09,78.83,443,82a5.41,5.41,0,0,1-.31,2.1,24.4,24.4,0,0,1-1.64,2.78Z"/><path class="cls-1" d="M232.53,130.51c-2.36-.75-3.12-2.7-4-4.53-2.76-5.91-2.77-12.38-3.71-18.65-.49-3.29-.9-6.6-1.29-9.91a3.1,3.1,0,0,1,.36-1.74,7.72,7.72,0,0,1,1.39-1.41,6.54,6.54,0,0,1,.88,1.83c.46,3.31.67,6.65,1.25,9.93,1.1,6.11,2.31,12.19,3.67,18.24.29,1.28,1.47,2.36,2.22,3.54.34.52,1,1.25.86,1.57C234,129.88,233.16,130.12,232.53,130.51Z"/><path class="cls-1" d="M202.19,124.43c-.79,4.29-1.26,6.61-5.29,6.62-3.64,0-7.42-3.38-7.54-6.85-.1-3.06,3.21-6.12,6.63-6.13C198.93,118.06,202.17,121.39,202.19,124.43Zm-5.06.31c2.55.53,2.33-.64,1.79-1.57-.39-.67-1.35-1.57-1.88-1.47-1.34.25-3.12.66-3.76,1.63-1.09,1.68.27,3.31,1.52,4.52.47.45,1.44.39,2.19.55a12.9,12.9,0,0,1-.11-1.76C196.91,126,197.05,125.32,197.13,124.74Z"/><path class="cls-1" d="M206.39,152.85a5.36,5.36,0,0,1,.55,1.25c.57,3.85,1.47,7.7,1.54,11.56.07,4.81,4.06,5.66,7.32,4.9.22-.06.43-.29.65-.29.64,0,1.29,0,1.94.06-.47.41-.88,1-1.43,1.19a58.91,58.91,0,0,1-5.92,1.74c-1.33.3-1.9.63-1.49,2.21a75.19,75.19,0,0,1,1.39,7.91c.06.37-.49.82-.75,1.24-.42-.41-1.09-.75-1.2-1.23-.61-2.47-1.08-5-1.58-7.46-.31-1.55-.37-3.15-2.12-4-.33-.17-.21-1.47-.11-2.22.18-1.33.77-2.64.71-3.94-.14-3.32-.57-6.62-.82-9.93a4.61,4.61,0,0,1,.39-1.84C205.58,153.62,205.94,153.36,206.39,152.85Z"/><path class="cls-1" d="M289.46,126.16c0-2.38-.09-4.77.06-7.15a7.57,7.57,0,0,1,1.08-2.41,25.84,25.84,0,0,1,1.47,2.17,4.21,4.21,0,0,1,.3,1.39c.16,1.21.63,1.55,1.73.79,2.09-1.45,3.95-.68,5.19,1.1,1.62,2.33,2.89,4.91,4.29,7.39a8.62,8.62,0,0,1,.77,1.73,21.11,21.11,0,0,1,.43,2.1c-.9-.31-2.17-.36-2.63-1-1.19-1.66-2-3.63-3-5.39-2.05-3.35-2.77-3.36-5-.28a3.29,3.29,0,0,1-.9,1.1c-.91.49-2,1.27-2.84,1.1-.58-.12-.88-1.63-1.31-2.51Z"/><path class="cls-1" d="M340.33,179.62a1.6,1.6,0,0,0-.95.08c-3.82,1.57-5.65.76-6.59-3.26a7.68,7.68,0,0,1,1.83-7.51c2-2.08,5.27-2.24,6.82.13a20.88,20.88,0,0,1,2.93,7.08C344.92,178.72,343.74,179.65,340.33,179.62Zm1.7-4.24a20.55,20.55,0,0,0-2.13-3.72c-.49-.57-2.22-1-2.45-.72a6.2,6.2,0,0,0-1.47,3.34c-.06.84.73,2.33,1.39,2.49a12.61,12.61,0,0,0,4.21-.25C341.72,176.5,341.79,176,342,175.38Z"/><path class="cls-1" d="M362.08,150.45c.16,1.48.39,3.61.63,5.74.52,4.66.92,9.34,1.63,14a45.45,45.45,0,0,0,1.92,6.11,2.76,2.76,0,0,1,.11,1.8c-.33.63-1.07,1.46-1.61,1.45s-1.36-.87-1.55-1.51a49.84,49.84,0,0,1-1.85-7.65c-.74-5.83-1.27-11.7-1.78-17.56a14.44,14.44,0,0,1,.35-4.24c.14-.61.93-1.08,1.43-1.61.28.7.57,1.4.81,2.12A5.8,5.8,0,0,1,362.08,150.45Z"/><path class="cls-1" d="M210.88,124.73c-.57-2.12-1.28-4.22-1.64-6.37-.16-1,.38-2.07.6-3.12.76.75,1.95,1.38,2.18,2.27.35,1.3.8,1.58,2.09,1.85a7.84,7.84,0,0,1,3.48,2.31c2.17,2.19,4.18,4.54,6.19,6.87a1.7,1.7,0,0,1,.09,1.29c-.8.29-2,.84-2.43.5-1.6-1.39-2.94-3.08-4.41-4.63a18.67,18.67,0,0,0-1.57-1.36,7,7,0,0,1-.79,1.81c-.88,1.09-1.88,2.06-2.84,3.08-.62-1.39-1.24-2.77-1.87-4.16Z"/><path class="cls-1" d="M275.81,68.85c1.13-5.45,2.21-10.92,3.42-16.35a20.55,20.55,0,0,1,1.58-4.41c.28-.59,1.09-.92,1.65-1.38a7.5,7.5,0,0,1,.28,2.36c-.46,2.33-1.16,4.63-1.66,7-.56,2.64.57,3.89,3.38,3.84,1.82,0,3.65-.19,5.46-.12.58,0,1.13.6,1.7.93-.47.35-.92,1-1.42,1a91.71,91.71,0,0,1-9.21.63c-1.16,0-1.65.17-1.74,1.24-.13,1.66-.17,3.32-.35,5a20.06,20.06,0,0,1-.58,2.47l-2-1.91a2.36,2.36,0,0,0-.48-.29Z"/><path class="cls-1" d="M221,62.87c0-3.24-.06-6.47.06-9.7,0-.63.79-1.22,1.2-1.83a16.43,16.43,0,0,0,1.76-2.7c1.45-3.57,3.7-5.92,7.87-5.61a10.89,10.89,0,0,1,1.73.42A8.48,8.48,0,0,1,232,45.22c-1.08.69-2.36,1.07-3.45,1.74-3.4,2.1-3.26,5.68-3.68,9-.4,3.2-.87,6.38-1.42,9.56-.08.46-.7.83-1.08,1.25-.52-.51-1.27-.94-1.51-1.56a7.18,7.18,0,0,1-.06-2.37Z"/><path class="cls-1" d="M394,171.84a25.44,25.44,0,0,1-3.19,2.35c-1.15.58-1.75,1.15-.6,2.19s2.65,2.11,3.91,3.24a9.38,9.38,0,0,1,1.18,1.64c-.73.32-1.55,1-2.16.88a13.5,13.5,0,0,1-7.19-4.81,16.94,16.94,0,0,0-3.05-2.22c-.63-.49-1.17-1.08-1.75-1.63.68-.65,1.31-1.79,2-1.85,1.55-.13,2.51-.39,3.41-1.92a4,4,0,0,1,3.63-1.21C391.5,168.89,392.45,170.39,394,171.84Z"/><path class="cls-1" d="M418.38,142.15c1.79-5.16,3.31-10,5.18-14.75,1.32-3.32,3.1-6.46,4.7-9.66a7.25,7.25,0,0,1,1.36-2.23,14.77,14.77,0,0,1,2.73-1.53,12.2,12.2,0,0,1-.93,2.73c-4.31,7-6.82,14.73-9.29,22.48-.3,1,0,2.14-.35,3.05a2.73,2.73,0,0,1-1.92,1.22C419.47,143.52,418.93,142.67,418.38,142.15Z"/><path class="cls-1" d="M159.35,170c.11,2-2.63,4.31-4.53,3.73s-.89-1.79-.46-2.86a8.74,8.74,0,0,0,.27-1.37c-.5.17-1.14.2-1.48.53-2,1.88-1.44,4.26,1,5.33a5.21,5.21,0,0,1,1.19,1c-.53.4-1,1.07-1.61,1.14a4.79,4.79,0,0,1-4.95-4.66c.12-2.74.77-5.19,3.6-6.48S159.18,167,159.35,170Z"/><path class="cls-1" d="M280.68,126.84a42.64,42.64,0,0,1-1.21,5.78c-.25.75-1.44,1.18-2.21,1.75-.51-.71-1.36-1.37-1.47-2.14-.37-2.67-.54-5.38-.67-8.08a5.61,5.61,0,0,1,.51-2.29,1.34,1.34,0,0,1,1-.72,1.38,1.38,0,0,1,1,.73,9.13,9.13,0,0,1,.27,1.62c.17.74.41,1.46.62,2.19.19-.73.36-1.46.59-2.17a6.75,6.75,0,0,1,.57-1.1c.35.36,1,.71,1,1.09a26.3,26.3,0,0,1-.24,3.3Z"/><path class="cls-1" d="M411.19,121.56c.85-2.16,1.58-4.09,2.4-6,.1-.23.64-.28,1-.42a3.8,3.8,0,0,1,.26,1.07c0,1.19-.14,2.38-.26,3.57-.33,3.33,1.9,5.22,4.08,7.08.33.28,1.16-.12,1.74,0a8.14,8.14,0,0,1,1.61.57c-.26.44-.43,1-.82,1.29a5,5,0,0,1-7.17-1.28A39.3,39.3,0,0,1,411.19,121.56Z"/><path class="cls-1" d="M416.12,79c.59-2.59,1.26-5.6,2-8.61a1.41,1.41,0,0,1,.45-.81c.73-.5,1.52-.91,2.28-1.35a8.79,8.79,0,0,1,.07,2.65c-.89,3.19-2.42,6.22-1.49,9.73.14.53-.77,1.34-1.19,2a10,10,0,0,1-1.63-1.54A6.88,6.88,0,0,1,416.12,79Z"/><path class="cls-1" d="M281.16,113.27c-.38,3-.67,5.35-1,7.73,0,.14-.32.24-.48.37a2.19,2.19,0,0,1-.33-.59c-.3-2.18-.49-4.36-2.74-5.69-.27-.16.05-2.29.48-2.45a6.75,6.75,0,0,1,3.21.09A1.5,1.5,0,0,1,281.16,113.27Z"/></svg>