<svg id="_0" data-name="0" xmlns="http://www.w3.org/2000/svg" viewBox="0 0 531.37 531.37"><defs><style>.cls-1{fill:#fff;}</style></defs><path class="cls-1" d="M197.71,162.73a12,12,0,0,1,.69,1.28c.61,1.48-.21,3.67-1.62,4a2.65,2.65,0,0,1-3.33-2c-.39-1-.68-2.13-1.11-3.15a6,6,0,0,0-1-1.23,6.68,6.68,0,0,0-.94,1.21c-1.13,2.33-2.16,4.72-3.34,7-.26.51-1,1.15-1.46,1.07s-.95-.85-1.21-1.42a34.52,34.52,0,0,1-2.18-5.24c-.86-3.13-1.48-6.32-2.13-9.5-.07-.38.24-1.18.49-1.22,2.36-.47,2.11-2.55,2.73-4.12.22-.55.87-.93,1.32-1.39.17.57.58,1.2.48,1.72-.35,1.8,0,2.11,1.94,1.79,2.54-.43,5.35-.9,7.43,1.45.91,1,1.85,1.38,3.09.65s2.2-.08,2.58,1.11c1.31,4.16,2.57,8.32,3.75,12.51a2.16,2.16,0,0,1-1.81,2.88c-1.59.25-1.52-1.16-1.69-2.28-.42-2.65-.9-5.29-1.41-7.93a4.56,4.56,0,0,0-.64-1.21,9.94,9.94,0,0,0-.42,1.38C197.81,160.86,197.8,161.59,197.71,162.73Z"/><path class="cls-1" d="M143.38,176.15a32.72,32.72,0,0,1-13.19-3.3,7.67,7.67,0,0,1-2.19-1.8,5,5,0,0,1-.65-1.57,4.72,4.72,0,0,1,1.73.28c3.9,2.56,8.34,3.26,12.79,3.15a47,47,0,0,0,10-1.83,4.25,4.25,0,0,0,3.43-4.09,38.36,38.36,0,0,0-.16-4.28c-.13-1.85-.39-3-2.85-1.78a4,4,0,0,1-4.94-1.43c-1.2-1.55-1-3.08,0-4.65a14.94,14.94,0,0,0,1.5-2.71c1.14-3,4.11-2.87,6.43-3.82a.9.9,0,0,1,.8.37,7,7,0,0,1,1.18,2.56c.45,5.38.75,10.78,1.12,16.17.3,4.42-3.48,6.61-7.27,7.57A77.78,77.78,0,0,1,143.38,176.15Zm10.3-19.71c-.38-1.66-.68-3-1-4.38a43.13,43.13,0,0,0-2.55,3.78,1.73,1.73,0,0,0,.33,1.66,2.43,2.43,0,0,0,1.94.24C152.94,157.56,153.3,156.86,153.68,156.44Z"/><path class="cls-1" d="M62.83,33.57a10.66,10.66,0,0,1,.77,1.9c.79,4,1.55,8,2.28,11.94,1,5.48,2,11,3,16.45a5.3,5.3,0,0,0,.67,1.32c.27-.37.68-.71.78-1.12.58-2.35,1.41-4.72,4.17-4.87,3-.16,4.69,2.24,5.93,4.55a34.36,34.36,0,0,1,2.1,6.08c.44,1.36.82,2.74,1.2,4.12A13.13,13.13,0,0,1,84,75.47c-.71,0-1.58.33-2.1,0a3.92,3.92,0,0,1-1.22-1.9c-1.2-3-2.26-6.08-3.58-9-.32-.7-1.57-1.57-2.16-1.42a3.32,3.32,0,0,0-1.77,2.09c-.95,3-1.66,6.13-2.55,9.18a6.75,6.75,0,0,1-1.14,1.7c-.63-.61-1.67-1.15-1.81-1.86-.71-3.84-1.13-7.73-1.79-11.58-1.21-7-2.56-14-3.78-21.09a53.41,53.41,0,0,1-.63-6.19c0-.58.45-1.18.7-1.77Z"/><path class="cls-1" d="M158.72,64.78c-.45-1.75-.83-3.52-1.38-5.24-.13-.4-.79-.63-1.2-.94a4.85,4.85,0,0,0-.58,1.22c-.32,2-.42,4.13-.92,6.13-.2.82-1.2,1.46-1.83,2.18-.5-.86-1.05-1.69-1.47-2.59-.86-1.81.27-4.53-2.75-5.48-.44-.14-.39-2.53-.17-3.82.1-.62,1.15-1.59,1.68-1.53.73.08,1.42.93,2.06,1.52a4,4,0,0,1,.58,1,8.53,8.53,0,0,0,.8-1c1.56-2.69,2.92-2.8,4.84-.36,1.77,2.25,1.72,2.22,3.2-.32a12,12,0,0,1,2.21-2.76c2.08-1.92,3.75-1.55,5.67.55,3.14,3.44,3.68,7.82,4.7,12,.08.33-.89,1.25-.95,1.22-.9-.57-2.16-1.08-2.5-1.94-1-2.38-1.26-5.06-2.37-7.35-1.18-2.45-2.76-2.44-4.15-.07a20.61,20.61,0,0,0-1.81,5.3c-.34,1.3-.16,2.77-.66,4-.35.84-1.45,1.38-2.21,2.06-.39-.83-.83-1.64-1.15-2.5a3.18,3.18,0,0,1,0-1.18Z"/><path class="cls-1" d="M109.31,169.07c.45,10.6-4.45,13.25-12.06,13.39-5.34.09-9.82-2.41-14-5.54-.4-.3-.51-1-.75-1.49.56.07,1.31-.07,1.64.24,3.54,3.35,8,3.65,12.47,3.69a22.61,22.61,0,0,0,4.92-.83,5.71,5.71,0,0,0,4.93-5.66,32.08,32.08,0,0,0-.52-7.58c-.14-.76-1.57-1.56-2.55-1.81-1.43-.36-3,0-4.47-.38-2.79-.62-3.89-2.76-2.95-5.44A12.69,12.69,0,0,1,97.73,154c.45-.57,1.63-.56,2.49-.81a13.21,13.21,0,0,1,.06,2.26,24.6,24.6,0,0,0-.63,3.71c0,.61.94,1.18,1.44,1.77.49-.52,1.28-1,1.41-1.58.22-1.06-.08-2.24.1-3.32a2.64,2.64,0,0,1,1.17-1.64c.26-.15,1,.4,1.49.76a2.69,2.69,0,0,1,1,1.26C107.54,161.42,108.7,166.45,109.31,169.07Z"/><path class="cls-1" d="M447.21,116.56l12.66-3a11.26,11.26,0,0,1,1.39-.34,2.67,2.67,0,0,1,.88.23c-.19.29-.33.72-.6.84a51,51,0,0,1-6.21,2.4c-3.95,1-7.68,2.93-12,2.72a21,21,0,0,1-9.73-2.94c-2.73-1.61-2.71-3.45-.19-5.37a9.45,9.45,0,0,1,6.73-1.91c2,.15,2.61-.7,2.65-2.66a75.24,75.24,0,0,1,.76-10c.18-1.22,1.24-2.35,2.08-3.38.31-.39,1.11-.39,1.69-.56a6.18,6.18,0,0,1,.19,1.69c-.49,3.12-1.1,6.23-1.56,9.35a5,5,0,0,0,.25,2.75c1.08,2.2-.26,4.31-.08,6.45a3.2,3.2,0,0,1-1.63.39c-1.57-.23-3.1-.76-4.67-.86-.76-.06-1.56.58-2.34.91.66.58,1.24,1.49,2,1.69C441.87,115.66,444.31,116,447.21,116.56Z"/><path class="cls-1" d="M39.79,58.74c1,.24,1.44.41,1.91.47,2.37.27,3.15-.72,2.61-3-.63-2.72-1.26-5.44-1.64-8.2-.1-.75.72-1.62,1.12-2.43a9.88,9.88,0,0,1,2.06,1.83c.34.52.06,1.41.19,2.1.23,1.25-.07,2.75,1.89,3.15.44.09.77,1.56.85,2.43.26,2.64.67,2.93,3.1,1.87,1.24-.54,2.44-1.19,3.71-1.61.5-.16,1.16.18,1.75.29-.38.4-.69.94-1.15,1.17a47.9,47.9,0,0,0-5,2.3,3.3,3.3,0,0,0-1.41,2.56c.28,2.17-.42,4.81,2.46,6.13.49.22.3,2,.32,3.14s-.07,2.32-.13,3.48c-.08,1.62-.13,3.25-.31,4.86,0,.28-.82.76-1,.67-.79-.42-2-.89-2.15-1.57-1-3.53-1.68-7.13-2.47-10.71-.05-.23-.05-.48-.08-.72-.69-4.71-.69-4.71-5.34-4.51-.32,0-.71.13-.94,0-.78-.48-1.5-1-2.25-1.58Z"/><path class="cls-1" d="M337.19,106.22c.43,6.72-3.11,10.22-9.72,9.73a5,5,0,0,0-1.19.19,6.2,6.2,0,0,0,.63,2.16c1.33,1.65,5.37,2.27,7.58,1.23,1.94-.9,3.81-2,5.74-2.88a3.94,3.94,0,0,1,1.26-.13,5.24,5.24,0,0,1-.67.93c-1.58,1.48-3.19,2.92-4.77,4.41-2.79,2.63-11.2,1.65-13.24-1.67a4,4,0,0,1-.41-2.72A28.44,28.44,0,0,1,331.68,102a5.41,5.41,0,0,1,4-1.38c.75.18,1.09,2.36,1.49,3.68A7.07,7.07,0,0,1,337.19,106.22Zm-2.32-.78c-.06-.16-.28-.71-.49-1.26-.51.2-1.21.25-1.48.63-1.77,2.41-3.5,4.86-5.12,7.38-.89,1.38.3,1.23,1,1C332.27,112.08,334.84,109.92,334.87,105.44Z"/><path class="cls-1" d="M283.15,161.17c-.14,4.07.37,4.51,3.09,3.68,1.64-.5,3.2-1.24,4.85-1.7a5.44,5.44,0,0,1,2.06.28c-.34.48-.57,1.13-1,1.42q-5,3-10,5.9a1.54,1.54,0,0,1-1.45-.34c-.56-.81-1.5-2.18-1.21-2.62,2.52-3.85,1.2-8.26,2.08-12.33,1.22-5.58,2.09-11.24,3.33-16.82a13.39,13.39,0,0,1,2.24-4.14c.84-1.28,1.74-1.13,2.59.13,2.78,4.12,2.66,13.13-.32,17-.28.36-.88.49-1.33.72-.19-.47-.59-1-.51-1.42.33-1.87.93-3.7,1.18-5.58a53.61,53.61,0,0,0,.3-5.68c0-.24-.3-.5-.46-.75-.28.25-.71.44-.83.75-.92,2.41-2.13,4.78-2.58,7.29C284.19,152.08,283.67,157.24,283.15,161.17Z"/><path class="cls-1" d="M274.89,107.71c-.46-.74-.75-1.74-1.42-2.17a14.87,14.87,0,0,0-3.26-1.19c-.25.78-.81,1.6-.7,2.32.43,3,1.1,5.9,1.59,8.86a47.3,47.3,0,0,1,.63,5.56c0,.34-1.11,1.1-1.24,1a7.66,7.66,0,0,1-2.48-2.27c-2.4-4.59-2.53-9.77-3.6-14.71-.47-2.16-1.26-4.25-1.67-6.42a4,4,0,0,1,.41-3c.94-1,2.19-.91,2.67.75.84,3,2.93,4.27,5.81,4.94a6.62,6.62,0,0,1,5.43,5.67,1.76,1.76,0,0,1-2.26,2.08c-.28-.09-.39-.69-.58-1Z"/><path class="cls-1" d="M28.73,120.32c.51-1.19.71-2.84,1.6-3.42.71-.47,2.69,0,3.37.71a62.43,62.43,0,0,1,7.13,8.79c1.4,2.18-.47,5.28-3.58,6.52a16.48,16.48,0,0,1-4.54,1c-3.7.33-4.89-2.16-5.73-5.17-1-3.67-2.33-7.26-3.37-10.93-.67-2.35-1.15-4.77-1.59-7.18a5.68,5.68,0,0,1,.43-1.94c.5.52,1.26,1,1.44,1.56,1.05,3.58,1.91,7.22,3,10.79.23.78,1.06,1.37,1.62,2,.35-.8.7-1.6,1-2.4Zm5.12,9.89a6.69,6.69,0,0,0,1.17-.06c3-.61,4.13-2.84,2.4-5.34A42.07,42.07,0,0,0,33,119.9c-1-1.06-1.72-.7-1.88.65-.23,2.06-.31,4.13-.53,6.19C30.2,130.05,30.28,130.17,33.85,130.21Z"/><path class="cls-1" d="M231.45,56.75c0-2.22-.1-4.44,0-6.65a12,12,0,0,0-2.43-8c-.33-.45.06-1.42.12-2.15,1,.19,2.56.1,2.78.61A33.27,33.27,0,0,1,234,47.34a33.81,33.81,0,0,1,.42,6c0,1.5.78,2.06,2.09,1.9,3.52-.43,6.18,1.22,8.45,3.58.53.55.83,2.16.44,2.61A14.06,14.06,0,0,1,241,65.33a25.82,25.82,0,0,1-7.32,1.79,2.83,2.83,0,0,1-2.19-1.7c-.17-.7.67-1.76,1.29-2.47a1.82,1.82,0,0,1,1.63-.13c2.35,1,4.36-.07,6.39-.93,1.32-.55,1.44-1.8.46-2.42A11.62,11.62,0,0,0,236.8,58c-.74-.12-1.6.61-2.41.94C232.06,59.88,231.06,59.2,231.45,56.75Z"/><path class="cls-1" d="M235.16,104.82c.35,2.3-1,3.79-3.25,4.32-1.66.4-1.85,1.18-1.49,2.55.67,2.6,1.38,5.19,1.92,7.81.14.64-.33,1.4-.52,2.1-.74-.4-1.88-.63-2.16-1.25A103.85,103.85,0,0,1,224.55,108c-.57-1.84.19-4.15.59-6.21a19.93,19.93,0,0,1,1.44-3.95,6.12,6.12,0,0,1,1-1.26,5.18,5.18,0,0,0,.9.91,8,8,0,0,0,1.85.86C233.53,99.33,235.07,101.27,235.16,104.82Zm-6.56-.58,1.75,1.92c.59-.72,1.55-1.41,1.65-2.19.06-.51-1.13-1.18-1.76-1.77Z"/><path class="cls-1" d="M101.16,63.94c.5,3,1,5.9,1.5,8.85.3,1.77,1,3.2,3,3.46.4,0,.74.49,1.11.74a4.69,4.69,0,0,1-.89,1.25c-1.78,1.2-3.34.5-4.29-1.06A31.53,31.53,0,0,1,99.33,72c-.47-1.22-.75-1.71-2.06-.56-2.12,1.86-4.63,3.34-7.55,2a4.15,4.15,0,0,1-2.19-2.75,12.16,12.16,0,0,1,2.53-9c1.77-2.14,3.42-2.59,6.17-1.74,1,.3,2.08,1.19,2.83-.45.07-.15,1.31-.09,1.41.14.59,1.33,1,2.75,1.46,4.13ZM90.51,68.71c.17.24.53,1.2,1.2,1.57s2.11.68,2.61.28c2.27-1.83,4-4.12,3.87-7.25,0-.47-.63-1.29-1-1.32C93.18,61.66,90.72,64,90.51,68.71Z"/><path class="cls-1" d="M190.45,212.64l8.25-3c.47-.16,1-.26,1.44-.39-.27.36-.53.74-.81,1.09-3.68,4.68-8.64,5.46-14.12,4.56a6.6,6.6,0,0,1-5.54-5.5c-.06-.37-.21-.89-.48-1-2.28-1.23-1.35-2.09.2-3.12.59-.39.86-1.25,1.27-1.9a64.64,64.64,0,0,1,4.26-6.48c.92-1.09,2.64-2,4-.51a3,3,0,0,1,.07,4.46c-1.61,1.75-3.12,3.6-4.78,5.32-2.11,2.19-1.94,3.65.88,4.87A49.59,49.59,0,0,0,190.45,212.64Z"/><path class="cls-1" d="M414.91,150.12c-.1-1.93-.3-3.87-.22-5.79,0-.58.84-1.13,1.29-1.69a7.4,7.4,0,0,1,.76,1.78c1,7.82,1.87,15.65,2.84,23.47a5.32,5.32,0,0,0,.79,1.53,17.81,17.81,0,0,0,1.16-1.44c.16-.25.08-.67.25-.91.44-.62,1-1.19,1.46-1.77.49.5,1.19.91,1.44,1.51.83,2.06,1.41,4.22,2.27,6.27s1.94,3.93,2.87,5.92a8.3,8.3,0,0,1,.43,1.75c-.63-.09-1.63.05-1.85-.31-1.35-2.11-2.55-4.31-3.73-6.52-.5-1-.82-2-1.23-3a30.38,30.38,0,0,1-1.85,2.86,24,24,0,0,1-2.25,2.14c-.56-.84-1.5-1.62-1.63-2.52-1-7.26-1.93-14.54-2.86-21.81-.06-.48-.11-.95-.16-1.43Z"/><path class="cls-1" d="M259.77,63.49c-4.76.59-8.18-2.07-11.58-4.74a1.71,1.71,0,0,1-.63-1.15c.05-3.8,3.53-8.74,7.26-9.81a5.31,5.31,0,0,1,4.08.62c1.56,1.17,1.1,3,0,4.47a35.76,35.76,0,0,1-3.72,4c-.87.8-.88,1.2,0,2a8.1,8.1,0,0,0,8.33,2c1.29-.35,2.81-1.53,4.09.16a20.32,20.32,0,0,1-3.76,2.06A18.29,18.29,0,0,1,259.77,63.49Z"/><path class="cls-1" d="M180.23,106.16c.16,2.51.25,5,.52,7.52.06.55.79,1,1.18,1.55s.65,1,1,1.48c-.57.32-1.29,1-1.7.89a7.45,7.45,0,0,1-2.69-1.73c-1-1.05-1.57-1.41-2.76-.07-2.25,2.54-5.26,3.16-7.73,1.7a2.92,2.92,0,0,1-1.26-2.36c1.62-5,3.73-9.84,8.26-13a7.57,7.57,0,0,1,1.86-.72,6.27,6.27,0,0,1,.12,2.18,9.58,9.58,0,0,1-1.32,2c-1.53,2.31-3.08,4.61-4.51,7-.3.49-.15,1.26-.21,1.91a5.87,5.87,0,0,0,2.06-.29,9.49,9.49,0,0,0,4.3-6.3,7.56,7.56,0,0,0,.17-1.9c0-1.26-.35-3,1.45-2.84.73.06,1.31,1.89,2,2.91Z"/><path class="cls-1" d="M121.49,195.23c-.48,5.23-2.9,8.44-5.54,11.57-.65.78-1.68,2.14-1.42,2.59a6.75,6.75,0,0,0,3.08,3,4.28,4.28,0,0,0,5.06-1.67c.21-.28.64-.38,1-.57,0,.43.06,1-.16,1.25-2.9,3.74-7.9,5.72-11.24.2-.88-1.44-1.91-1.3-3.26-1a5.33,5.33,0,0,1-2.08-.37c.44-.51.78-1.21,1.33-1.48,1.84-.91,2.39-2.31,2.26-4.3-.28-4.23.58-8.2,4.09-10.93,1.23-1,3.29-1.76,4.65-1.4C120.35,192.4,121,194.5,121.49,195.23ZM119,197c0-2.06-.83-2.55-2.56-1.61a7.94,7.94,0,0,0-3.6,8.78c.06.24,1.18.53,1.5.32A10.25,10.25,0,0,0,119,197Z"/><path class="cls-1" d="M293.89,107.28c-.15.18-.53,1-1.19,1.36a15.72,15.72,0,0,1-4.47,1.55c-1.79.26-1.58,1-1,2.19a15.28,15.28,0,0,1,1.51,4,7.74,7.74,0,0,1-.29,4.4c-.68,1.3-2.06.46-2.59-.58a30.19,30.19,0,0,1-1.63-4.47c-.63-2-1-4-1.79-5.92-1.36-3.37-.21-6.69.23-9.93.36-2.6,3-3.25,5.23-1.8C290,99.44,293.69,104.67,293.89,107.28Zm-6.4-.79.16.63c1.1-.65,2.61-1.07,3.16-2s-3.76-5.11-4.76-4.72c-2,.78-1.07,2.7-1.12,4.13S285.05,107.64,287.49,106.49Z"/><path class="cls-1" d="M360.75,111.3c0-1.76-.09-3.52,0-5.27,0-.6.61-1.17.94-1.76.42.57,1.13,1.11,1.21,1.72.35,2.68.44,5.39.77,8.07.11.88.45,2.09,1.07,2.43s1.72-.3,2.45-.76a15,15,0,0,0,2.3-2.07c1.75-1.72,3.16-1.7,4.91,0,.64.63,1.39,1.16,2.09,1.73.35-.94.76-1.86,1-2.82.55-1.83,1-3.7,1.55-5.51.15-.46.71-.78,1.08-1.17a4.75,4.75,0,0,1,.32,1.47q-.86,6.39-1.85,12.74c-.09.55-.72,1.47-1,1.43a3.84,3.84,0,0,1-2.26-1,26.72,26.72,0,0,1-2.11-3.16c-.89-1.3-1.86-1.66-3.07-.28a8.09,8.09,0,0,1-2.49,2.2c-1.28.56-3,1.27-4.08.79a6,6,0,0,1-2.67-3.58c-.45-1.63-.1-3.49-.1-5.24Z"/><path class="cls-1" d="M58.57,122.64c1,2.88,2,5.75,2.86,8.64a5.75,5.75,0,0,1,0,1.71c-.55-.14-1.31-.1-1.6-.46a18.76,18.76,0,0,1-2.86-4c-.72-1.58-1.22-1.65-2.6-.67-3.8,2.72-6.5,2.68-9.28.15-2.17-2-3.39-8.15-1.67-10.46.9-1.21,2.66-1.83,4.11-2.55.25-.12.92.61,1.4,1-.28.37-.48.9-.85,1.1-2.37,1.29-3.48,2.89-2.57,5.91.42,1.4,2.57,2.74,4.19,3.2,2.06.58,3.82-.86,4.86-2.69a32.18,32.18,0,0,0,1.1-3.4,18.06,18.06,0,0,1,1.47-2.45,25.27,25.27,0,0,1,2.11,3c.24.46-.09,1.22-.17,1.84Z"/><path class="cls-1" d="M311.77,56.55a8.27,8.27,0,0,1-3.31,6.33,7.2,7.2,0,0,1-4.63,1.45c-1.36-.17-2.64-1.58-3.82-2.6-4.12-3.58-3.19-10.46,1.51-13.21C306,45.92,311.79,49.82,311.77,56.55Zm-10.84-.61c-.08,3.6,2.07,4.37,5,4.61,1.6.13,2.73-2.15,2.69-5.13,0-2.41-1.75-4.54-3.65-4.51S300.92,53.46,300.93,55.94Z"/><path class="cls-1" d="M212.84,53c-.77,2.39-1.49,4.58-2.16,6.79-.3,1-1.24,2.11.55,2.71.08,0,.06,1-.12,1.09-3.41,1.64-3,5.12-3.93,8,0,.14,0,.32-.05.47-.37,1.12-.63,2.63-2.25,2.1a1.76,1.76,0,0,1-.95-2.78c.28-.53.09-1.31.35-1.86,1.6-3.31,1.17-5.57-2-8.09-2-1.59-2.69-5.07-3.61-7.81-.23-.67.9-1.8,1.41-2.72a9.43,9.43,0,0,1,1.75,1.89c1.19,2.22,2.12,4.57,3.36,6.76.81,1.43,1.68,1.53,2.36-.33a69.6,69.6,0,0,1,3-6.73c.22-.45,1-.64,1.49-.95Z"/><path class="cls-1" d="M256.11,166.44a9.4,9.4,0,0,1,1.66-.15,10.28,10.28,0,0,1,1.65.34c-.42.52-.75,1.35-1.28,1.5-4.43,1.2-9.2.31-11.42-4.28-.68-1.4-.55-3.3-.45-4.95a8.21,8.21,0,0,1,5.21-7.58c1.29-.53,3.82-.62,4.35.11a8.59,8.59,0,0,1,1.53,5.64c-.25,1.68-1.79,3.31-3.08,4.66-.95,1-2.46,1.81-1.63,3.21.55.93,2.12,1.27,3.23,1.88ZM248.79,160c.11.29.39,1.08.73,1.85a1.19,1.19,0,0,0,.76-.22c1.53-2,3.14-3.92,4.49-6,.84-1.3-.09-1.87-1.37-1.82C250.75,153.89,248.79,156.32,248.79,160Z"/><path class="cls-1" d="M86.17,139.19c.49,5.37.92,10.74,1.48,16.1a20.46,20.46,0,0,0,1.07,4.26c.1.31.74.61,1.14.62.6,0,1.22-.38,1.8-.32a4.34,4.34,0,0,1,1.45.74,8,8,0,0,1-1.28.76,52.46,52.46,0,0,0-5.59,2.06c-1.86,1-3.41.38-5-.4a3.64,3.64,0,0,1-.74-6.36,7.52,7.52,0,0,1,1.18-.82c3.4-2,3.61-2.19,2.67-6.06A21.08,21.08,0,0,1,85,138.71c.15-.5.68-.9,1-1.34L87,139Zm-2.5,19a10.25,10.25,0,0,0-.9,1.35,11.61,11.61,0,0,0,2.28,1.69c.23.12.79-.42,1.2-.65Z"/><path class="cls-1" d="M239.76,110c.52-1.82.91-3.69,1.58-5.45.59-1.56,2-1.79,3.4-1.22.79.33,1.71.72.43,2a4.58,4.58,0,0,0,1.46,7.54c1.49.69,2.44.56,2.47-1.43a4.18,4.18,0,0,1,.68-2.38c.65-.83,1.42-1.06,2.14.32,1.38,2.66,3,5.18,4.52,7.78.2.35.32,1.1.14,1.23-.36.28-1.1.52-1.41.33-1.3-.82-2.4-2.3-3.77-2.58s-3,.89-4.5.85A7.76,7.76,0,0,1,239.76,110Z"/><path class="cls-1" d="M380.78,171.6a18.71,18.71,0,0,0,3.48-2.53c1-1.16,1.55-.85,2,.23a29.59,29.59,0,0,1,1.34,4.29c.4,1.74.62,3.5,2.91,3.82.34.05.92,1,.83,1.08-.37.53-.9,1.24-1.45,1.31a3.7,3.7,0,0,1-4.07-2.26,13.53,13.53,0,0,0-1-2.4,2,2,0,0,0-1.66-.73c-5.32,1.84-8.63-.62-8.19-6.34a13.46,13.46,0,0,1,4.47-9c.49-.46,1.82-.77,2.19-.46,1,.85-.08,1.46-.51,2.28a30.53,30.53,0,0,0-2.95,7.31C377.76,169.93,379.16,171.14,380.78,171.6Z"/><path class="cls-1" d="M140.12,92.61a7.33,7.33,0,0,1,1.25,2.11c.77,4.23,1.38,8.49,2.1,12.72a12.55,12.55,0,0,0,.81,2.16,9.42,9.42,0,0,0,1.84-1.28c1.93-2.15,3.4-2.17,5.06.28,1.42,2.09,2.59,4.35,3.91,6.51.56.94,1.3,1.79,1.76,2.77a5.59,5.59,0,0,1,.14,2c-.56-.07-1.26,0-1.65-.27a7.1,7.1,0,0,1-1.87-2c-.69-1.16-1.14-2.45-1.74-3.66-1.66-3.42-2.42-3.58-5.42-1.2a4.81,4.81,0,0,1-1.17.81c-.76.3-1.91.91-2.28.62a4.44,4.44,0,0,1-1.35-2.55c-.32-1.62-.25-3.32-.48-5-.56-3.92-1.21-7.82-1.77-11.73a10.89,10.89,0,0,1,.14-2.2Z"/><path class="cls-1" d="M282,65.78a7,7,0,0,1-1.07-2.09,2.16,2.16,0,0,1,.81-1.74c1.83-1.12,3.78-2.05,5.68-3.06a14.14,14.14,0,0,0,1.67-.91c1.82-1.36,1.72-1.94-.36-2.89a27.09,27.09,0,0,1-4.64-2.39c-.64-.47-1.26-2-1-2.57a51.31,51.31,0,0,1,4.48-6.59c.3-.38,1.38-.15,2.1-.2a5.82,5.82,0,0,1-.5,1.82c-3.62,5.27-3.58,5.43,2.45,7.45,2.88,1,3.48,3.26,1.49,5.69a13.71,13.71,0,0,1-7.06,4.94,14.33,14.33,0,0,0-3.39,2Z"/><path class="cls-1" d="M232.39,168.93l-2.16-2.11a11.3,11.3,0,0,1,2.49-2.09c1.79-.77,3.85-1,5.55-1.88,1.31-.7,1.52-1.9-.25-2.85a61.15,61.15,0,0,1-5.41-3.53c-1.35-.93-1.49-2.27-.19-3.12,2.79-1.81,5.41-4.42,9.28-3.11.36.13.71.23,1.07.34-.3.3-.56.73-.92.88-1.32.55-2.71.95-4,1.52a9.62,9.62,0,0,0-1.65,1.18,9.74,9.74,0,0,0,1.66,1.83c1.3.86,3.31,1.22,3.95,2.38a5.43,5.43,0,0,1,0,4.72c-1.14,1.73-3.12,3-4.93,4.18C235.72,168,234.25,168.27,232.39,168.93Z"/><path class="cls-1" d="M115.74,65.44l-5.73.45c.2,1.9.38,3.8.6,5.7.12.94.41,1.88.46,2.82a5.67,5.67,0,0,1-.41,1.67c-.54-.35-1.36-.59-1.57-1.08A17.43,17.43,0,0,1,108,71.1c-.75-4.3-1.56-8.6-2-12.93-.14-1.37.75-2.86,1.17-4.29,2,.69,1.37,2.45,1.58,3.85.28,1.82.49,3.64.77,5.45a4,4,0,0,0,.49,1,2.85,2.85,0,0,1,.64-.57c1-.48,2.07-1.29,3.11-1.28,3.73,0,7.47.31,11.21.57a4.39,4.39,0,0,1,1.41.66c-.45.37-.85,1-1.34,1.07-3.06.48-6.13.84-9.2,1.23Z"/><path class="cls-1" d="M214,171.4c1.07-2.81,1.82-5.08,2.78-7.25.69-1.54.18-1.81-1.29-2.09a21,21,0,0,1-5.06-1.81c-.4-.19-.32-1.36-.46-2.07a7.83,7.83,0,0,1,2.42-.25c1.13.24,2.16,1,3.29,1.2,2.24.46,3.85-.12,5-2.51a24.55,24.55,0,0,1,4.09-5.51c.34-.38,1.4-.13,2.14-.17a5.44,5.44,0,0,1-.26,1.75c-2.65,5-5.41,10-8,15a5.19,5.19,0,0,0-.44,3c.23,1.53.18,3-1.58,2.95C215.66,173.64,214.82,172.19,214,171.4Z"/><path class="cls-1" d="M311.62,122.35c-.86-.59-1.7-.88-1.76-1.28a2.36,2.36,0,0,1,.72-1.77c.74-.69,1.73-1.13,2.55-1.75,1-.76,1.27-1.49-.27-2a6.11,6.11,0,0,1-1.78-.66c-1.4-1-2.63-2.14-1.27-3.92,2.53-3.32,5.17-6.57,7.81-9.81.27-.33.88-.37,1.33-.55,0,.58.14,1.29-.12,1.73-1.4,2.31-3,4.51-4.38,6.82-1.53,2.54-1.16,3.07,1.76,3.31a16.41,16.41,0,0,1,2.94.79c-.51,1.65,1.41,3.73-1.09,5.06C315.85,119.55,313.79,121,311.62,122.35Z"/><path class="cls-1" d="M185.44,63.39c1.1-.88,2.07-1.68,3.07-2.45.52-.41,1.38-1.19,1.58-1a3.68,3.68,0,0,1,1.33,1.81c.77,2.38,1.42,4.81,2.08,7.23.09.33.09,1,0,1-.71.26-1.67.74-2.17.46a3.9,3.9,0,0,1-2-2.18c-.49-2.42-1.64-2.76-3.86-2.16a7.53,7.53,0,0,1-4.41-.15c-3.39-1.26-4.11-4.84-1.23-6.94,2-1.44,4.6-2,7-2.82.35-.12,1,.57,1.48.89-.31.48-.52,1.16-1,1.41-.83.45-1.92.48-2.67,1a14.07,14.07,0,0,0-2.16,2.32Z"/><path class="cls-1" d="M322.78,170.8c-3.42-.2-5.15-2.25-4.44-5.22,1-4,2.27-7.84,6-10.2a3.88,3.88,0,0,1,1.46-.79,15,15,0,0,1,2.49.19c-.41.7-.67,1.64-1.28,2.05-2.77,1.86-4.82,4.21-5.3,7.59a7.62,7.62,0,0,0,.6,2.55,8.83,8.83,0,0,0,2.63-1.55c.72-.88.89-2.2,1.53-3.19a2.57,2.57,0,0,1,1.75-.91c.24,0,.76,1,.82,1.5.14,1.49.12,2.89,2.15,1.36.29-.22.88,0,1.32,0a8.94,8.94,0,0,1-.6,1.15C329.59,168.78,325.61,169.35,322.78,170.8Z"/><path class="cls-1" d="M101.27,193.94c1.36.75,3,1.57,4.56,2.58.35.23.3,1.1.43,1.67-.56-.07-1.25,0-1.64-.25a5.58,5.58,0,0,0-5.33-1.08c-.69.23-1.72.77-1.76,1.26-.08.71.58,1.5,1,2.25.06.12.25.18.38.27,1.2.9,3.35.67,3,3.27-.37,3.3-.89,6.49-4.08,8.14a42.87,42.87,0,0,1-7.2,2.51c-.33.1-.84-.39-1.27-.61.41-.59.68-1.44,1.23-1.71,1.79-.84,3.73-1.37,5.52-2.22a6.53,6.53,0,0,0,2.31-2c1.45-2,1.14-3-.81-4.56a13.22,13.22,0,0,1-3.1-3.1,3.26,3.26,0,0,1,1.61-5C97.58,194.82,99.16,194.53,101.27,193.94Z"/><path class="cls-1" d="M128.2,121.61c-2.38-2.56-4.76-1.11-7.25-.73a4,4,0,0,1-4.31-2.75c-.59-1.46-1.44-2.83-2.16-4.24-.22-.43-.64-1-.51-1.29a13.17,13.17,0,0,1,1.4-2.12c.49.39,1.2.68,1.43,1.19a18.08,18.08,0,0,1,1.09,3.36c.74,2.93,3,3.83,5.09,1.8,1.26-1.2,2-1.2,3.12,0,1.48,1.64,3,1.44,4.13-.3a48.45,48.45,0,0,0,2.27-4.35,43.13,43.13,0,0,1,2.16-3.88c.18-.26,1-.19,1.5-.08a1.14,1.14,0,0,1,.27,1c-1.63,3.43-3.19,6.9-5.05,10.21C130.85,120.36,129.42,120.8,128.2,121.61Z"/><path class="cls-1" d="M397.45,116.78c-.08-1.59.27-3.37,2.59-4.06,1.34-.4,1.93,0,1.46,1.36-.82,2.28-.58,4.32,1.4,5.76,1.11.8,3.78-1.06,5.21-3.4,1.59-2.58,1.89-2.46,3.74-.24,1.38,1.67,3.31,2.88,5,4.3l1.55,1.34c-.71.16-1.51.61-2.12.43a16.27,16.27,0,0,1-4.94-2c-1.44-1.06-2.06-.78-3,.44a8.76,8.76,0,0,1-3.07,2.56C401.43,124.85,397.36,121.63,397.45,116.78Z"/><path class="cls-1" d="M406.86,177.11c1-.6,3-1.78,4.93-2.94.52-.31,1.06-.56,1.59-.83-.1.63,0,1.55-.33,1.83-2.45,1.87-4.82,4-7.57,5.27a5.73,5.73,0,0,1-7.88-5.76,38.69,38.69,0,0,1,3.49-12.82c.29-.67,1.4-1,2.14-1.44a8.66,8.66,0,0,1,.13,2.47c-.73,2.85-1.72,5.63-2.4,8.49C400,175.36,401.52,177.14,406.86,177.11Z"/><path class="cls-1" d="M64.33,127.45c.19-4.07.33-7.17.48-10.27a1.48,1.48,0,0,1,.08-.71c.7-1.11,1.44-2.19,2.18-3.28.28,1.15.62,2.3.82,3.46a4.12,4.12,0,0,1-.2,1.66c-.6,2.16.08,2,2,1.62,1.69-.38,3.64.24,5.45.55,2.43.42,4.85,1,7.26,1.49a3.92,3.92,0,0,1,1.12.66c-.45.19-.92.57-1.35.53-2.46-.22-4.9-.63-7.36-.81s-5.24,0-6.64,2.57A15.21,15.21,0,0,0,67,129.73c-.08.49.46,1.06.45,1.58a11.86,11.86,0,0,1-.48,2.15c-.53-.47-1.37-.84-1.55-1.41A46.69,46.69,0,0,1,64.33,127.45Z"/><path class="cls-1" d="M301.2,107.17c1.41,1.27,3.3,2.29,4.13,3.86,1.18,2.25,1.55,4.9-.44,7.18-.47.54-.9,1.12-1.34,1.68-2.31,3-2.44,2.94-4.43-.19a7,7,0,0,0-1.56-1.45c-2.55-2.06-2.22-8.59,1.8-10.15.44-.18.9-.31,1.35-.46Zm2.73,6.79-2.47-2.72c-.73.86-1.86,1.63-2.1,2.62a1.89,1.89,0,0,0,2.12,2.42C302.24,116.18,302.87,115,303.93,114Z"/><path class="cls-1" d="M367.52,158.68l1.49,1.07c-.36.44-.62,1.08-1.08,1.29-2.57,1.19-3,2-2,4.55a14.09,14.09,0,0,0,1.56,2.64c.6.89,2,1.89,1.8,2.53a9.2,9.2,0,0,1-2.39,4.45,24,24,0,0,1-6,3.73c-.69.33-1.87-.41-2.83-.66.51-.79,1-1.62,1.55-2.35.22-.28.74-.3,1.06-.52,1.5-1,3.37-1.8,4.38-3.2,1.38-1.91-1-3.17-1.71-4.7-2-4.35-1.38-6.66,2.56-8.32C366.33,159,366.79,158.9,367.52,158.68Z"/><path class="cls-1" d="M210.19,192.55c0,3.31,0,6.63,0,9.94,0,.57-.59,1.12-.91,1.68-.63-.62-1.73-1.17-1.82-1.87a60.21,60.21,0,0,1-.45-7.36c0-1.35.25-2.7.25-4.05,0-2.63-1.89-3.95-4.46-3.2a32.35,32.35,0,0,1-3.9,1.09,7.82,7.82,0,0,1-2.38-.38c.32-.74.44-1.77,1-2.17,2.79-2,6.05-2.83,9.25-1.61s3.61,4.16,3.37,7.21c0,.24,0,.48,0,.72Z"/><path class="cls-1" d="M385.81,114.25a20.67,20.67,0,0,1,2.22-4.32c1.28-1.64,3.26-1.36,4.39.41a10.53,10.53,0,0,1,1.57,7.94c-.13.63-.23,1.26-.37,1.88-.23,1-.45,2.85-.73,2.86a7.79,7.79,0,0,1-4.24-.71C386.19,120.73,386,118,385.81,114.25Zm6,1.2c-.54-.88-1-1.63-1.47-2.38-.4.76-1.14,1.54-1.11,2.28a9.38,9.38,0,0,0,1.1,2.85Z"/><path class="cls-1" d="M160.23,206c.46-1.74.83-3.51,1.44-5.2.16-.43,1.09-.59,1.66-.87a5.59,5.59,0,0,1,.42,1.69c-.11,1.58-.44,3.15-.52,4.73s-.15,3.08,1.65,3.84a3.34,3.34,0,0,0,4.36-1.42c1.34-2.14,2.21-4.56,3.43-6.79a17.16,17.16,0,0,1,2.12-2.59c-.18,1-.34,2.06-.56,3.08a22.05,22.05,0,0,1-1.18,4.77,19.67,19.67,0,0,1-3.47,5.33c-3.23,3.26-7.73,1.81-8.69-2.67a32.11,32.11,0,0,1-.35-3.81Z"/><path class="cls-1" d="M190.5,123.76c-.45-.61-.83-.9-.94-1.28A45.7,45.7,0,0,1,188,116c-.16-1.33.68-2.77.6-4.14-.17-2.92-.7-5.82-.93-8.74,0-.62.53-1.29.82-1.94a6,6,0,0,1,1,1.62c.64,2.7,1.27,5.4,1.7,8.14.35,2.21,1.26,2.92,3.53,2.56a23.65,23.65,0,0,1,4.29-.23c.47,0,.92.53,1.39.82-.38.44-.68,1.12-1.14,1.26-1.44.45-2.95.7-4.43,1-3.33.7-3.33.7-3.27,4a7.51,7.51,0,0,1-.09,1.9A5.87,5.87,0,0,1,190.5,123.76Z"/><path class="cls-1" d="M342.78,169.19a15.75,15.75,0,0,1-.56,3c-.53,1.3-1.21,3.46-2,3.56-2.1.26-4.32-.4-6.49-.75-.18,0-.46-.62-.4-.69.34-.38.74-.9,1.19-1a25.4,25.4,0,0,1,2.62,0,2.59,2.59,0,0,0,2.71-2.46,2.63,2.63,0,0,0-1.81-3.16c-4.87-2.12-5.45-6.71-1.3-9.94a4.64,4.64,0,0,1,1.74-.43,9.38,9.38,0,0,1,.25,1.56,2.68,2.68,0,0,1-.3,1.13c-1.24,2.79-1,3.87,1.75,5C342.16,165.8,343.17,167,342.78,169.19Z"/><path class="cls-1" d="M57,156.73c.1-1.27-.09-2.18.27-2.66a9.83,9.83,0,0,1,2.24-1.69,18.8,18.8,0,0,1,.53,2c.26,1.63.39,3.29.75,4.91,0,.21,1.39.5,1.62.26.88-.9,1.48-2.06,2.3-3,.4-.48,1.16-1.13,1.56-1A2.68,2.68,0,0,1,67.74,157c.53,1.37.44,3,2.43,3.43.36.08.91,1.22.74,1.47-.38.59-1.26,1.41-1.71,1.29a5.19,5.19,0,0,1-2.91-1.73c-1.07-1.71-1.62-.84-2.3.13a14.14,14.14,0,0,1-1.4,2.17,2.48,2.48,0,0,1-4.33-1C57.65,160.59,57.31,158.38,57,156.73Z"/><path class="cls-1" d="M266.78,163c1.43-7,2.79-14,4.38-21,.28-1.2,1.54-2.19,2.35-3.27a23.79,23.79,0,0,1-.09,3.78c-1.14,6.26-2.4,12.5-3.55,18.76a14.93,14.93,0,0,0,.24,2.54,5.11,5.11,0,0,1-.31,2.43c-.23.4-1.56.71-1.83.45a4.77,4.77,0,0,1-1-2.2,4.09,4.09,0,0,1,.1-1.42Z"/><path class="cls-1" d="M425.41,102.59c.72,6.31,1.45,12.62,2.13,18.93a7.84,7.84,0,0,1-.26,1.83c-.61-.38-1.64-.65-1.76-1.15a41.28,41.28,0,0,1-1.63-8.37c-.22-5.65,0-11.32.06-17a3.36,3.36,0,0,1,.34-1.61c.24-.4.81-.61,1.23-.91a4.12,4.12,0,0,1,.42,1.27c.05,2.31,0,4.62,0,6.94Z"/><path class="cls-1" d="M127.42,153.7c.31-.52-.1-2.5,1.65-.69a1.65,1.65,0,0,0,1.45.05c2.33-1,4.55-.58,5.56,1.67a59.56,59.56,0,0,1,2.67,8.34c.11.39-.47,1-.74,1.48-.5-.28-1.28-.45-1.45-.87a24.46,24.46,0,0,1-.81-3.22,12,12,0,0,0-.86-2.68,9.41,9.41,0,0,0-1.65-1.76c-.63.73-1.29,1.45-1.89,2.21-.19.24-.21.62-.38.88-.41.63-.87,1.23-1.32,1.84-.53-.69-1.33-1.31-1.52-2.09A44.65,44.65,0,0,1,127.42,153.7Z"/><path class="cls-1" d="M327.65,54.82c-1.59,2.44-2.67,4.69-4.29,6.44-3.12,3.37-6.54,6.46-9.87,9.64a3,3,0,0,1-1.59,1,3.48,3.48,0,0,1-2.15-.67c-.21-.16.11-1.33.49-1.81a18.34,18.34,0,0,1,2.13-1.88l13.31-12.2a3.72,3.72,0,0,1,1.18-.67C327,54.56,327.28,54.72,327.65,54.82Z"/><path class="cls-1" d="M132.86,212.54c-.09-1.9-.31-3.8-.22-5.69s-.36-3.66,1.57-5.08c1-.71,1-2.54,1.88-3.53A23.83,23.83,0,0,1,140,195c.22-.17.74.07,1.13.12-.12.33-.15.76-.37,1a14.63,14.63,0,0,0-4.52,12.76,11,11,0,0,1-.81,4.4c-.22.66-1.09,1.09-1.66,1.63l-1.53-2Z"/><path class="cls-1" d="M48.23,166.61c.36,3.54.75,7.07,1,10.61,0,.51-.39,1.06-.6,1.6-.4-.39-1.11-.75-1.15-1.17-.34-3.15-.65-6.3-.78-9.46-.15-3.86-.13-7.72-.15-11.59a4.38,4.38,0,0,1,.36-1.21c.37.32,1,.6,1.07,1,.2,2,.24,4,.33,5.94.08,1.43.16,2.87.23,4.3Z"/><path class="cls-1" d="M116,162.46a54.82,54.82,0,0,1,.62-5.65c.1-.48,1.13-.76,1.74-1.13a5.71,5.71,0,0,1,.45,2c-.34,2-1.43,4.08.63,5.88.18.16,0,1.18-.12,1.19-.74,0-1.75.26-2.18-.13A6.26,6.26,0,0,1,116,162.46Z"/><path class="cls-1" d="M50.11,145.6c-.43.15-1,.54-1.29.42a6.5,6.5,0,0,1-2.53-1.43c-.35-.38-.23-1.46,0-2.07s1-.67,1.48-1c.25.45.51.89.73,1.35.35.71.68,1.43,1,2.15Z"/><path class="cls-1" d="M212,214.73c.77,1,1.49,1.78,1.39,1.93a11.61,11.61,0,0,1-2.13,2.13c-.05.05-1.17-.89-1.09-1.08A23.09,23.09,0,0,1,212,214.73Z"/><path class="cls-1" d="M123.16,149.65c-1,.79-1.49,1.42-1.69,1.33a33.91,33.91,0,0,1-3.24-1.77c.46-.31,1-1,1.37-.88A23.66,23.66,0,0,1,123.16,149.65Z"/></svg>