<svg id="_0" data-name="0" xmlns="http://www.w3.org/2000/svg" viewBox="0 0 531.37 531.37"><defs><style>.cls-1{fill:#fff;}</style></defs><path class="cls-1" d="M47.45,60.65c.66-3.89-.24-8.93,3.24-12.92.36-.42.64-1,1.1-1.23a11.41,11.41,0,0,1,2.37-.42c-.15.63-.1,1.4-.46,1.86-3.06,3.9-3.5,8.41-3.23,13.11.14,2.48,1.38,3.7,3.94,3.8,5.1.18,10.76-3.23,12.11-7.59.38-1.25,0-2.77-.16-4.15-.15-1.1-.72-2.06.94-2.67s2,.54,2.44,1.46a4.78,4.78,0,0,1,.53,2A13.77,13.77,0,0,0,76.76,65.5c.81.54,2,.51,2.9.91a6.4,6.4,0,0,1,1.46,1.22c-.56.43-1.11,1.22-1.68,1.24-3.8.09-6.48-2.16-8.89-4.73a14.7,14.7,0,0,1-1.43-2.7c-.26-.44-.7-1.08-1.06-1.07s-.92.54-1.19,1c-3.22,5.13-8.39,6.74-13.9,7.28C49.73,69,47.45,65.61,47.45,60.65Z"/><path class="cls-1" d="M105.06,67.45c-7.35-.24-9.57-4.72-9.6-11.3,0-3.41.71-6.75,3.9-9,2.94-2.12,5.8-2.55,8.11-.75a7.7,7.7,0,0,1,2.54,9,13.06,13.06,0,0,1-6.28,7.21,5,5,0,0,0-1,.9,6.61,6.61,0,0,0,1.31.84c3.19,1.1,6.12.19,8.93-1.31,2.25-1.21,4.44-2.51,6.67-3.73a4.49,4.49,0,0,1,1.12-.29,4.79,4.79,0,0,1-.6,1,24.44,24.44,0,0,1-11.3,6.4C107.58,66.75,106.32,67.11,105.06,67.45ZM98.27,55.57c.46,3.19,2.72,5.25,4.68,3.88A10.1,10.1,0,0,0,107.58,53c.4-2.19-.73-3.72-2.49-4.72s-3.2-.08-4.06,1.36A61,61,0,0,0,98.27,55.57Z"/><path class="cls-1" d="M398.41,55.77A11.39,11.39,0,0,1,404,45.92c2.87-1.7,5.34-1.34,7.46,1.17a21.94,21.94,0,0,1,4.91,9.15c1.33,5.53-2.34,10.73-7.92,10.84C401.88,67.22,398.43,63.94,398.41,55.77Zm2.91.2c.56,2.14.81,3.64,1.33,5,1.13,3,3.55,2.48,6,2.22,2.91-.3,4.24-1.56,4.5-4.48.28-3.26-1.09-5.94-2.94-8.35a3.65,3.65,0,0,0-6,0A35,35,0,0,0,401.32,56Z"/><path class="cls-1" d="M231.35,72.62c.42-1.75.71-3.55,1.3-5.25s-.2-2.85-1.27-4.13a54.27,54.27,0,0,1-5.64-7.59c-2.17-3.78-3.87-7.84-5.84-11.74-.62-1.23-.92-2.43.59-2.92.5-.17,1.73.73,2.09,1.42,2.65,5.14,5.06,10.4,7.76,15.51.86,1.61,2.36,2.88,3.57,4.3.6-1.43,1.22-2.86,1.79-4.3,1.83-4.58,3.6-9.19,5.47-13.75a6.9,6.9,0,0,1,1.57-2.33c.42-.39,1.22-.36,1.85-.53.1.66.48,1.43.27,2-2.38,6-5.07,11.84-7.21,17.89-1.44,4.08-2.08,8.44-3.23,12.64-.2.69-1.16,1.18-1.76,1.76a12.26,12.26,0,0,1-1.32-1.74c-.14-.27.12-.76.2-1.15Z"/><path class="cls-1" d="M154.35,104.45c.47-2.21.89-4.43,1.45-6.62.09-.38.77-.62,1.17-.93a10,10,0,0,1,.54,1.43,11.83,11.83,0,0,1,0,1.2,7.15,7.15,0,0,0,.28,1.08,8.71,8.71,0,0,0,1-.58,6.24,6.24,0,0,0,.68-.68c2.92-2.94,5.38-2.6,7.44,1,1.55,2.73,1.55,2.73,3.43.32,2.18-2.8,3.37-2.93,5.63-.16,1.7,2.08,3,4.48,4.58,6.7.58.83,1.39,1.5,2,2.33a10.81,10.81,0,0,1,.87,1.92c-.87.12-2.09.66-2.54.29a29.21,29.21,0,0,1-4-4.36c-.93-1.19-1.57-2.59-2.44-3.83-.32-.47-1-1.07-1.39-1s-.87.8-1.16,1.33a31.67,31.67,0,0,1-2.25,4.19,3.63,3.63,0,0,1-2.65,1.32c-.53,0-1.22-1.37-1.44-2.23-.42-1.6-.43-3.32-.86-4.92s-1.35-1.65-2.68-.67c-2.44,1.8-2.63,4.6-3.56,7.11a10.08,10.08,0,0,1-1.84,2.35,11.92,11.92,0,0,1-1.8-3,12.67,12.67,0,0,1,.11-3.57Z"/><path class="cls-1" d="M309.11,110.23c-1-.41-1.61-.59-2.16-.88-1.6-.84-2.78-2.73-5.05-1.93-.16.06-.95-.84-.86-1a25.94,25.94,0,0,1,2.28-4.49,63.05,63.05,0,0,1,5.25-6.71c1.81-2,5.73-2,7.91-.5,1.82,1.28,2,3.7,0,5.56s-4.23,2.91-6.35,4.36a16.65,16.65,0,0,0-1.52,1.26c.79.37,1.6,1.08,2.38,1a19.49,19.49,0,0,0,3.65-.91,2.25,2.25,0,0,1,.87.13c-.13.26-.18.65-.39.76C313.1,108.05,311,109.18,309.11,110.23Zm4.58-14.41c-.65.76-5.9,3.86-5.82,4.05.22.52,2.6,1.57,3,2a45.23,45.23,0,0,0,3.57-4.15A6.37,6.37,0,0,0,313.69,95.82Z"/><path class="cls-1" d="M454.07,93.07c-1.36,3-2.71,6-4.05,8.93q-3.9,8.7-7.76,17.43c-.32.72-.33,1.57-.71,2.24a6.13,6.13,0,0,1-1.69,2,1.69,1.69,0,0,1-1.54-.5,3.86,3.86,0,0,1,0-2.4c1.58-3.66,3.26-7.27,4.94-10.88.56-1.19.48-1.82-.86-2.62-3.33-2-6.16-4.56-7.25-8.51a8.87,8.87,0,0,1-.45-3A2.13,2.13,0,0,1,436,94.33c.35-.12,1.2.42,1.44.87,1.26,2.36,2.39,4.79,3.58,7.19A6.45,6.45,0,0,0,442,104c2.16,2.33,2.84,2.2,4.11-.59s2.62-5.8,4.1-8.61a11.64,11.64,0,0,1,2.43-2.59,3.21,3.21,0,0,1,1-.45C453.78,92.15,453.91,92.58,454.07,93.07Z"/><path class="cls-1" d="M28.69,60.09c.37,1.45.74,2.91,1.09,4.37a14.83,14.83,0,0,1,.67,3.24,9.2,9.2,0,0,1-.75,2.56c-.83-.63-2-1.09-2.4-1.92-1.42-3.26-2.44-6.7-3.87-10s-3.05-6.08-4.6-9.11c-.28-.57-.82-1.16-.78-1.71A10.42,10.42,0,0,1,18.86,45a8.64,8.64,0,0,1,1.46,1.64c1.37,2.68,2.63,5.43,4,8.13a9.27,9.27,0,0,0,1.14,1.46,9.06,9.06,0,0,0,.74-1.66A26.41,26.41,0,0,1,30.62,45c2.3-3.14,7.37-3.49,8.75.61a12.71,12.71,0,0,0,1.06,2A13.65,13.65,0,0,1,38,46.47c-2.27-1.67-5.16-1-6.31,2.08-1.39,3.67-2.29,7.52-3.4,11.3Z"/><path class="cls-1" d="M132.52,62.48a6.9,6.9,0,0,1-4.92,7,82,82,0,0,1-9.33,2c-.61.1-1.36-.61-2-1,.55-.59,1-1.47,1.66-1.73,3-1.14,6-2,8.94-3.17,2.55-1.07,2.48-2.33.33-4.15-2-1.69-4.19-3.34-5.56-5.47-3.83-6-.38-11.07,5.18-13.56a1.37,1.37,0,0,1,.71-.12c.81.16,1.62.37,2.43.55a8.32,8.32,0,0,1-1.78,1.6c-3.44,1.64-5.5,4.71-4.5,7.49a13.5,13.5,0,0,0,5.42,7A19.15,19.15,0,0,1,132.52,62.48Z"/><path class="cls-1" d="M182.54,62c.34-4.11.59-7.43.93-10.74.05-.47.52-.89.79-1.34.26.44.54.87.77,1.32a9.25,9.25,0,0,1,.39,1c.32-.29.68-.56,1-.88a23.89,23.89,0,0,1,2.71-2.95c3.11-2.4,5.34-2.17,7.29,1.21a30,30,0,0,1,2.5,7.36c.85,3.19,1.52,6.44,2.14,9.68.12.62-.39,1.36-.6,2.05-.65-.24-1.63-.28-1.89-.74a13.33,13.33,0,0,1-1.55-4c-.52-2.65-.78-5.34-1.18-8a6.16,6.16,0,0,0-.5-2.07c-.7-1.27-1.56-2.45-2.35-3.67-1.28,1-3,1.72-3.72,3a38,38,0,0,0-2.34,6.91c-.18.59,0,1.4-.37,1.82a25.83,25.83,0,0,1-2.66,2.45C183.33,63.51,182.78,62.49,182.54,62Z"/><path class="cls-1" d="M165.86,48.86c4.69.15,9.44,5.19,6.87,10a84.87,84.87,0,0,1-4.58,8.26c-1.9,2.76-3.28,2.6-5.35.07a20.73,20.73,0,0,0-2.06-1.58c-3.62-3.41-3.85-12.83,1.65-15.38C163.51,49.66,164.7,49.3,165.86,48.86Zm4.7,7.39c0-3.27-2.44-5-5.58-4.24-4.12,1-4.75,7.52-2.69,10.26.86,1.14,2.31,1.85,3.47,0A16.34,16.34,0,0,1,167.44,60c.15-.18.94-.11.95-.06.39,2.09,1,.5,1.14,0C170,58.71,170.23,57.47,170.56,56.25Z"/><path class="cls-1" d="M288.12,63c-3.89-.13-6.74-1.38-8.91-4.18-.49-.63-1.56-.79-2.31-1.24a8.51,8.51,0,0,1-1.21-1.05c.39-.31.75-.82,1.2-.91,1.41-.27,1.57-1.16,1.72-2.41.45-3.57,2-6.54,5.5-8.07a4.07,4.07,0,0,1,5.13,1.68c1.3,1.83,1.42,4.11-.06,5.48a33.66,33.66,0,0,1-5.1,3.86c-1.43.9-1.2,1.59-.14,2.5,3,2.61,6,2.51,9.51-.2.47-.37,1.28-.32,1.93-.47a7.94,7.94,0,0,1-.87,1.6A9.78,9.78,0,0,1,288.12,63Zm-5.87-9.25c1.5,0,4.8-3.43,4.5-4.64a1.68,1.68,0,0,0-1.33-.81c-1.37,0-3.9,3.55-3.58,4.91C281.9,53.4,282.16,53.59,282.25,53.7Z"/><path class="cls-1" d="M456.64,86.86q.47-8,1-15.93c0-.47-.07-1.12.19-1.37a9.44,9.44,0,0,1,1.88-1.17c.35.61,1.05,1.27,1,1.81a7.54,7.54,0,0,0,1,5.39C463.63,78.9,463,82.52,462,86c-.6,2.15-1.31,4.27-1.83,6.44a3.79,3.79,0,0,0,.06,2.54c1,1.85-.48,2.85-1.18,4a2,2,0,0,1-1.84.19,4.3,4.3,0,0,1-1.06-2.62c.21-3.25.67-6.48,1-9.72Z"/><path class="cls-1" d="M271.89,42l1.77,1.46c-.56.49-1.05,1.28-1.68,1.42-4.26.94-6.58,4-8.39,7.56-.83,1.62,1.37,4.62,3.85,5.6.82.32,1.68.53,2.48.88,1.93.84,2.77,2.91,1.52,4.59-2.47,3.34-5.63,5.89-9.88,6.52-.88.12-1.89-.69-2.84-1.07.63-.74,1.12-1.77,1.91-2.16,1.82-.87,3.93-1.17,5.65-2.16,2.55-1.47,2.41-2.5-.14-3.77a19.19,19.19,0,0,1-2.54-1.34c-4.14-2.92-4.72-5.85-1.45-9.75A66.06,66.06,0,0,1,269.41,43,9,9,0,0,1,271.89,42Z"/><path class="cls-1" d="M215.69,51.51c.72,4.22,1.39,8.44,2.21,12.64a15,15,0,0,0,1.34,2.77c.2.48.44,1.43.3,1.5a2.59,2.59,0,0,1-1.88.43,3,3,0,0,1-1.57-1.61,56.77,56.77,0,0,1-2.3-9.13c-1.13-9.79-2-19.61-2.89-29.43-.07-.71.69-1.49,1.07-2.23.57.57,1.55,1.09,1.64,1.73.78,5.51,1.43,11,2,16.59.25,2.22.34,4.45.5,6.67Z"/><path class="cls-1" d="M284.61,103.59c0-2.46,0-4.93,0-7.39a4,4,0,0,1,.7-2c.18-.29.84-.4,1.25-.34.22,0,.48.59.5.93.07,1.19,0,2.4.07,3.59a7,7,0,0,0,.36,1.47,5.22,5.22,0,0,0,.76-1.63c.29-3.79,2.55-6.48,5.07-8.93,2.17-2.12,4.36-2.14,6.08-.29.44.47.43,1.36.63,2.06a5.84,5.84,0,0,1-2.05,0c-1.66-.7-3.78-.31-4.43,1.31-1.45,3.66-2.86,7.36-3.94,11.14-.75,2.65-.88,5.48-1.39,8.21-.09.49-.91,1.3-1.06,1.23-.78-.37-2-.88-2.08-1.51a46.64,46.64,0,0,1-.42-6.16c0-.56,0-1.12,0-1.68Z"/><path class="cls-1" d="M263.32,98.71c-.17-4.5,1.31-8.15,5.59-10.16A3.74,3.74,0,0,1,274.45,92a1.8,1.8,0,0,1-.65,1.37c-.3.16-1-.18-1.37-.51-1.64-1.63-3.27-1.38-4.7.58-1.67,2.3-1.49,4.91-1.12,7.37.52,3.44.52,7.39,4.42,9.16a22.55,22.55,0,0,0,4.91,1l2.39.45a7.07,7.07,0,0,1-1.62,1.41c-5,2.07-8.92.58-11.09-4.52a93,93,0,0,1-2.94-9.43Z"/><path class="cls-1" d="M212.23,106.05c-1.59-.14-3.1-.25-4.6-.44-1.28-.16-1.86.45-1.67,1.61.29,1.72.89,3.39,1.09,5.12a7.55,7.55,0,0,1-.66,2.6c-.72-.58-1.87-1-2.09-1.77-.73-2.41-.49-5.37-1.8-7.31-2.12-3.13.06-6.13-.74-9.14a86.8,86.8,0,0,1-1.53-9.42,2.6,2.6,0,0,1,.09-1.42,9.89,9.89,0,0,1,1.11-1.59c.43.52,1.11,1,1.23,1.56a99,99,0,0,1,2,11.26c.31,3.8,1.87,5.38,5.58,6.16a40.08,40.08,0,0,1,3.91,1,6,6,0,0,1,1.34.77,7,7,0,0,1-1.4.79A9.74,9.74,0,0,1,212.23,106.05Z"/><path class="cls-1" d="M315.59,54.3a60.13,60.13,0,0,1,1.6-6c.23-.61,1.4-.87,2.15-1.29.09.7.44,1.49.24,2.09a18.3,18.3,0,0,0,.43,12c1.07,3.17,3.18,3.94,5.48,1.54,2.12-2.21,3.67-5,5.45-7.49.32-.45.53-1,.89-1.4a.9.9,0,0,1,.84-.19c.17,0,.31.5.28.75-.59,4-1.82,7.81-4.81,10.79-2.69,2.69-6.38,4.44-8.92,1.65a6,6,0,0,1-1.56-2.32C316.89,61.14,316.31,57.85,315.59,54.3Z"/><path class="cls-1" d="M430.54,103.33a17.4,17.4,0,0,1,2.38-.76,5,5,0,0,1,1.63.2c-.25.54-.37,1.36-.79,1.56a11.9,11.9,0,0,1-3.4,1c-7.77,1-6.22-.45-6.93,7.65a10.06,10.06,0,0,1-.36,2.59c-.16.43-.9.65-1.38,1-.28-.49-.8-1-.81-1.46,0-2.53.14-5.07.12-7.6a23.67,23.67,0,0,0-.47-3.21c0-.31-.21-.69-.09-.92,2.08-4.08.59-8.51,1.29-12.72.22-1.31.4-2.62,2-2.21,1.39.34,2.13,1.35,1.79,3.08-.52,2.64-.63,5.37-1.12,8s1.34,3.06,3.18,3.46C428.37,103.16,429.18,103.18,430.54,103.33Z"/><path class="cls-1" d="M398.59,100.37c-.95,5.22-1,10.41-5.67,13.76-1.93,1.37-4,1.24-4.78-1a74.61,74.61,0,0,1-2.56-9.4,50.39,50.39,0,0,1-.84-7.37,4.17,4.17,0,0,1,.81-2.39,1.87,1.87,0,0,1,1.64-.07,8.64,8.64,0,0,1,.67,2.55c.75,4.2,1.26,8.45,2.29,12.58.55,2.22,1.78,2.27,2.9.1,1.46-2.8,2.46-5.84,3.69-8.76a14.31,14.31,0,0,1,1-1.72C398.07,99.3,398.38,99.94,398.59,100.37Z"/><path class="cls-1" d="M384.15,66.62c0-3,0-6,0-9.06a12.46,12.46,0,0,0-.54-2.27c-.13-.61-.49-1.36-.27-1.83,1.73-3.73.25-7.34-.2-11a9.74,9.74,0,0,1,.54-2.89c.93.69,2.29,1.19,2.7,2.11a7.56,7.56,0,0,1,.19,3.94c-.5,3.33.61,7,2.91,8.19a12.38,12.38,0,0,0,3.17.63,8,8,0,0,1,1.24.46c-.34.36-.63,1-1,1a18.68,18.68,0,0,1-4,.54c-1.21,0-1.68.19-1.62,1.58.15,3.4.16,6.82,0,10.23,0,.63-.9,1.23-1.39,1.84a9.69,9.69,0,0,1-1.36-1.87c-.2-.45,0-1.08.05-1.63Z"/><path class="cls-1" d="M355.09,96.65c-.1,4.13,4.22,7.33,8.33,6.31a5.82,5.82,0,0,1,2.06.27c-.48.48-.87,1.15-1.45,1.42-2.13,1-4.34,1.5-6.66.49-1.48-.64-2.29-.21-2.2,1.53.17,3.25-1.06,6.59.73,9.77.19.34-.79,1.33-1.22,2-.6-.49-1.68-1-1.71-1.48-.39-7.62-.69-15.25-.85-22.88,0-.77.93-1.56,1.44-2.34a11.74,11.74,0,0,1,1.27,2.29A11.7,11.7,0,0,1,355.09,96.65Z"/><path class="cls-1" d="M89.27,63.12c-2.27,0-3.32-1-3.68-2.69-.94-4.42-1.88-8.85-2.73-13.29-1.09-5.7-2.09-11.41-3.13-17.12-.19-1-.6-2.2,1-2.45s1.5.93,1.7,2C83.91,38,85.43,46.5,87.12,54.92c.46,2.3,0,5.43,3.6,5.95.13,0,.34.84.21,1A14.55,14.55,0,0,1,89.27,63.12Z"/><path class="cls-1" d="M346.2,63l-3.56-.36c-2.77-.3-4.11-1.41-4.84-4.14a16.44,16.44,0,0,1-.77-3.95,3.53,3.53,0,0,1,1.07-2.32,29.46,29.46,0,0,1,3.1-2.09c1.81-1.32,3.52-1.34,4.59,0,1.69,2.15,1.24,3.41-1.79,5-.88.45-2.75.16-2.17,1.79a4.89,4.89,0,0,0,2.71,2.94c2,.48,4.14.11,6.23.13a13.43,13.43,0,0,1,1.67.24c-.28.39-.47,1-.85,1.15-1.71.74-3.47,1.36-5.21,2Z"/><path class="cls-1" d="M137.31,117.44c-.92-1-2.35-2-2.68-3.16-1.35-4.89-2.36-9.87-3.5-14.82-.81-3.56-1.65-7.11-2.41-10.68a27.05,27.05,0,0,1-.47-4c0-.38.4-.79.62-1.19.43.27,1.14.46,1.25.83q.88,2.84,1.51,5.75c1.48,6.84,2.89,13.7,4.39,20.55a8.3,8.3,0,0,0,1.16,2.6,2,2,0,0,0,1.37.76c.64,0,1.68-1.61,1.8.2.06.82-1.16,1.73-1.85,2.57-.12.14-.45.12-.68.17Z"/><path class="cls-1" d="M298.87,65.65c0-3.57-.05-6.35,0-9.13a5.4,5.4,0,0,1,.79-1.81A19.1,19.1,0,0,1,301,56.3a16.06,16.06,0,0,1,.86,1.77A16.82,16.82,0,0,0,303,56.3c.68-1.35,1.16-2.8,1.93-4.09,1.69-2.8,4.38-3.47,7.43-3.1a3.6,3.6,0,0,1,1.17.65c-.21.28-.37.76-.63.81-4.35.85-6,4.33-7.42,7.85-1,2.35-1.51,4.87-2.56,7.18a3.41,3.41,0,0,1-2.56,1.49C299.74,67.11,299.11,65.9,298.87,65.65Z"/><path class="cls-1" d="M335.51,99.2c-2.55,2.5-.21,2.35.57,3.12a16.91,16.91,0,0,1,3.42,4.12c.3.61-.89,2-1.4,3a20.37,20.37,0,0,1-2-1.28,1.87,1.87,0,0,1-.49-1.06c-.4-2.24-1.4-2-3-1a7,7,0,0,1-3.51,1.16,2.36,2.36,0,0,1-2.06-3.71,31.16,31.16,0,0,1,5.33-5C332.83,98.23,334.08,98.89,335.51,99.2Z"/><path class="cls-1" d="M189.79,106.47c.39-4.67.76-8.21.94-11.77,0-.62-.84-1.24-1.09-1.92s-.55-1.73-.24-2a12.34,12.34,0,0,1,2.73-1.63c.3.56.83,1.11.85,1.67.09,3.31,0,6.62.08,9.93.06,3.55.26,7.11.28,10.66a2,2,0,0,1-1.11,1.39c-.25.12-1.17-.45-1.27-.85C190.41,109.78,190,107.59,189.79,106.47Z"/><path class="cls-1" d="M462.21,119.85c-.12,3.1-.75,3.77-3.35,3.63-2.2-.12-3.72-2.47-3.61-5.59.09-2.65.94-3.4,3.75-3.29C461.21,114.68,462.35,116.54,462.21,119.85Z"/><path class="cls-1" d="M372,103c-.26,2.72-.57,4.86-.65,7-.05,1.24.36,2.49.39,3.73a3.25,3.25,0,0,1-.57,2.1,2,2,0,0,1-1.92.31,2.58,2.58,0,0,1-.91-2c.25-3.34.66-6.67,1-10a2.22,2.22,0,0,1,.36-1.13c.52-.61,1.15-1.13,1.73-1.69C371.67,102,371.91,102.76,372,103Z"/><path class="cls-1" d="M405.24,103.43c.4,1.74.87,3.47,1.16,5.23a2.37,2.37,0,0,1-.49,1.84,1.7,1.7,0,0,1-1.68,0,3.15,3.15,0,0,1-1.19-1.92c-.14-2.84-.15-5.7,0-8.54,0-.55.92-1.06,1.41-1.59a5.94,5.94,0,0,1,1.09,1.76,17.8,17.8,0,0,1,.05,3.1Z"/><path class="cls-1" d="M147.79,87.9c-.61,1.63-1,2.9-1.59,4.11-.13.28-.93.58-1.11.45a5.08,5.08,0,0,1-1.93-1.89c-.44-1.17,1.69-3.76,3-3.69C146.71,86.91,147.25,87.55,147.79,87.9Z"/><path class="cls-1" d="M150,107.64a21,21,0,0,1-1.58,2.92c-.09.12-1.6-.37-1.72-.78a6.49,6.49,0,0,1-.12-3.3c.2-.71,1.18-1.21,1.81-1.8Z"/><path class="cls-1" d="M407.41,85.42l3.4,3.54c-.45.42-1.15,1.29-1.31,1.2-1.36-.77-2.62-1.71-3.91-2.6Z"/><path class="cls-1" d="M372,94.14l3.1,2.16c-.79.57-1.66,1.69-2.34,1.58-.94-.16-1.74-1.23-2.59-1.91Z"/><path class="cls-1" d="M217.32,39c-.18-.42-.63-1-.5-1.23a12.7,12.7,0,0,1,1.63-1.9c.28.28.85.67.79.83a14.59,14.59,0,0,1-1.05,2Z"/></svg>