<svg id="_0" data-name="0" xmlns="http://www.w3.org/2000/svg" viewBox="0 0 531.37 531.37"><defs><style>.cls-1{fill:#fff;}</style></defs><path class="cls-1" d="M178.84,150.34c-.36-2.22-.61-4.47-1.13-6.66-.19-.81-1-1.47-1.55-2.2a10.39,10.39,0,0,0-1.44,2.24c-.36,1-.25,2.24-.63,3.27a23.54,23.54,0,0,1-1.65,2.75,26.22,26.22,0,0,1-1.27,2.73,12,12,0,0,1-2.1,1.84,9,9,0,0,1-1.63-2.12,21.84,21.84,0,0,1-.61-3.28,3.23,3.23,0,0,0-.6-1.27c-.57-.76-2.48-.31-1.91-2.15.9-2.89.78-6.31,3.93-8,.31-.16,1.67.7,1.8,1.27.53,2.16,1.34,1.52,2.35.45,2.54-2.67,5.59-2.53,7.53.5.83,1.3,1.54,1.49,2.91.91,3.87-1.66,5.86-.69,7,3.46.58,2.07.84,4.22,1.31,6.32.18.82.64,1.59.75,2.42a15.86,15.86,0,0,1-.1,2.66c-1-.15-2.18,0-2.8-.53s-.83-1.79-1.15-2.75c-.58-1.79-1.05-3.61-1.72-5.37-.19-.51-.89-.83-1.36-1.24a7.77,7.77,0,0,0-1,1.44,28.3,28.3,0,0,0-1.49,4c-.32,1.24-.85,2.27-2.19,1.79-.84-.31-1.43-1.31-2.14-2Z"/><path class="cls-1" d="M313.52,156.12c-3.9.32-6.61-2.18-9.55-3.92a2.78,2.78,0,0,1-.51-2.67A73.74,73.74,0,0,1,308.8,142c.41-.51,1.94-.86,2.29-.55,1.53,1.37,1.45.24,1.46-.79,0-4,0-8,.13-11.93a16.28,16.28,0,0,1,1.09-4.58c.18-.49,1.06-.72,1.62-1.07a6.24,6.24,0,0,1,.66,1.9c0,3.81-.55,7.66-.19,11.42a74.42,74.42,0,0,0,2.47,12.51,6.64,6.64,0,0,1-1.17,6.24C316.52,155.91,314.77,155.81,313.52,156.12Z"/><path class="cls-1" d="M206.94,206.77c-.72-1.62-1.38-3.27-2.22-4.82-.11-.21-1.22-.08-1.73.17-1.46.7-2.76,1.89-4.27,2.26-3.78.93-5.42-.82-4.27-4.53a47.46,47.46,0,0,1,3-7.18,3.84,3.84,0,0,1,2.28-1.4c.43-.13,1.18.39,1.55.82.15.18-.3.9-.52,1.36-.83,1.7-1.74,3.36-2.47,5.1-.19.45.16,1.12.26,1.69a5.44,5.44,0,0,0,1.72-.93c.37-.42.27-1.21.53-1.76a6.35,6.35,0,0,1,1.44-2.25c.24-.2,1.34.48,1.91.93,4.18,3.34,6.38,7.57,5.78,13.07-.34,3.12-2.5,4.81-5,5.87a52.29,52.29,0,0,1-9.93,3.28c-3.52.72-6.82-.78-9.54-2.93-.7-.55-.39-2.58-.22-3.89.06-.44,1.15-1,1.77-1,.39,0,1.24,1,1.13,1.38-.54,1.57.52,2,1.52,2.09a35,35,0,0,0,7.52.08,23.18,23.18,0,0,0,6.07-2.11A5.89,5.89,0,0,0,206.94,206.77Z"/><path class="cls-1" d="M108.86,148.36c.65-7,1.08-13.94,2-20.76.45-3.22,3.31-5.3,5.36-4.82s3.93,3.57,3.46,6.43a41.76,41.76,0,0,1-2.28,7.68c-.61,1.62-1.59,2.9-3.84,2.17-1.06-.34-1.39.22-.9,1.52a6.67,6.67,0,0,1,.16,4c-.36,1.22-.14,1.53.93,1.78,2.51.58,4.42-.81,6.5-1.8a20.68,20.68,0,0,1,3.36-1,27.32,27.32,0,0,1-2.09,2.33c-2.18,2-4.28,4.06-7.51,4.27-.36,0-1,1.25-.89,1.72a10.21,10.21,0,0,0,1.59,2.44c.38-.6.8-1.18,1.12-1.81a5.24,5.24,0,0,0,.33-1.19,3.78,3.78,0,0,1,.84.69c1,1.43.36,4.14-1.28,5.28-1.81,1.25-3.17.33-3.91-1.25C110.68,153.62,109.85,151,108.86,148.36ZM117.2,130a6.32,6.32,0,0,0-.16-1.78,9.68,9.68,0,0,0-1.14-1.67l-1.42,1.13c-1.47,1.21-.51,2.38,0,3.57.39.86.72,1.74,1.07,2.62.49-1,1-1.88,1.43-2.84A3.55,3.55,0,0,0,117.2,130Z"/><path class="cls-1" d="M263.53,240.8c.42-5.23.91-12.22,1.63-19.18.14-1.31,1.25-2.51,1.91-3.77,1.9,1,.61,2.55.58,3.84-.21,9.08-.53,18.16-.72,27.24-.06,3-1,3.61-3.92,2.28a10.13,10.13,0,0,0-3.89-.83,2.07,2.07,0,0,0-1.54,1.35,2.3,2.3,0,0,0,1.2,1.71c3,1.44,5.9.83,8.7-.82.52-.3,1.32-.12,2-.16A6.72,6.72,0,0,1,268.4,254c-2.93,2.38-6.41,3.12-10.08,3.13-3,0-5-2.29-5-5.49,0-2.08,2.94-4.71,5.2-4.69l.48,0C263.57,247.16,263.57,247.16,263.53,240.8Z"/><path class="cls-1" d="M146.39,248.61a2.82,2.82,0,0,0,0-.92c-.25-.64-.58-1.25-.88-1.87a10.17,10.17,0,0,0-1.08,1.48c-1,2-1.86,4-2.94,6-.37.64-1.36,1.52-1.83,1.4a3.48,3.48,0,0,1-2.26-1.74c-1.22-3.87-.31-7.74.63-11.52.15-.63,1.39-1,2.13-1.48a10.27,10.27,0,0,1,.25,2.18c-.17,1.75-.52,3.47-.71,5.21a4,4,0,0,0,.38,1.32,4.65,4.65,0,0,0,.93-.89c.79-1.3,1.53-2.62,2.25-4a2.62,2.62,0,0,1,4.7-.28,6.64,6.64,0,0,1,.5,1.08c.78,1.89,1.41,1.66,2.64.18,1-1.24,2.71-2.81,4-2.75,2.07.08,3.43,2.06,4.16,4.13,1.19,3.37,2.42,6.74,3.56,10.13.15.44.12,1.25-.16,1.47a1.58,1.58,0,0,1-1.52,0,10.54,10.54,0,0,1-2.06-3c-1-2.51-1.67-5.15-2.62-7.68-.62-1.63-1.7-2.17-2.93-.47a22.53,22.53,0,0,0-2.13,3.43c-.75,1.57-1.64,3.51-3.47,2.77-1.08-.43-1.45-2.62-2.13-4Z"/><path class="cls-1" d="M212.88,191.48c0-5-.06-8.48,0-11.93,0-.66.62-1.31,1-2,.65.6,1.65,1.09,1.87,1.81a15.82,15.82,0,0,1,.22,3.79c.14,4.22.23,8.44.44,12.65a6.59,6.59,0,0,0,.88,2.11c.42-.53.87-1,1.26-1.61.88-1.3,1.64-2.69,2.62-3.92s2-.92,2.91.29a17.24,17.24,0,0,1,3.28,8.32c.22,1.48.83,2.9,1.05,4.37a10,10,0,0,1-.29,2.64c-1-.5-2.43-.77-2.79-1.55-.64-1.4-.58-3.1-.86-4.66a20.71,20.71,0,0,0-.74-3.25,6.35,6.35,0,0,0-1.17-1.57,6.54,6.54,0,0,0-1.23,1.3c-.66,1.27-1,2.83-1.87,3.85a8,8,0,0,1-3.67,2.07c-.29.08-1.48-1.68-1.64-2.68C213.52,197.69,213.15,193.81,212.88,191.48Z"/><path class="cls-1" d="M108.48,198.34c.44-4.89.93-9.55,4.81-13,2.11-1.89,4.55-2.27,6.44-.7a5.67,5.67,0,0,1,1.25,7.13c-1.84,2.75-3.19,5.94-6.68,7.19a1.47,1.47,0,0,0-.63,1.29,2,2,0,0,0,1,1.36c2.52.76,5,.81,7.3-.82,1.1-.79,2.19-1.59,3.35-2.28.33-.2.86-.07,1.3-.09a4.43,4.43,0,0,1-.3,1.11c-2.15,3.5-8.76,6.14-12.78,5.12C110.76,203.93,108.4,200.92,108.48,198.34Zm3.22-3.22c.66.19,1.46.7,1.84.48a9.84,9.84,0,0,0,4.9-5.53,1.81,1.81,0,0,0-2.69-2.37C112.89,189,112.63,191.87,111.7,195.12Z"/><path class="cls-1" d="M148.44,104.88c3.31.07,3.36.06,3-3.18-.51-4.4-1.14-8.79-1.69-13.19a9.25,9.25,0,0,1-.14-3.3,3,3,0,0,1,1.79-1.9c.52-.14,1.93.87,1.91,1.31-.08,1.55,2.27,3.39-.41,4.71-.21.1-.27.7-.23,1,.62,5.28,1.25,10.56,1.92,15.84a3.4,3.4,0,0,0,.65,2c1.79,1.55.74,3-.44,3.74a25.88,25.88,0,0,1-7.4,3.51c-3.48.83-6.29-2.72-5.1-6.13C143.23,106.62,145.14,104.34,148.44,104.88Zm-.73,2.76c-.4.47-1.76,1.31-1.86,2.29-.2,1.93,1.67,2.33,3.13,2.39,1.09,0,2.76.32,2.85-1.65C151.91,108.86,150.6,107.65,147.71,107.64Z"/><path class="cls-1" d="M307,94.28a30.93,30.93,0,0,0,2,13.6c.77,2,1.62,2.11,2.8.47,1.68-2.35,3.07-4.9,4.83-7.18.49-.63,1.83-.6,2.78-.87a6.66,6.66,0,0,1-.05,2.49,15.66,15.66,0,0,1-2.3,3.57c-1.3,1.54-.81,2.78.42,3.93.75.7,1.7,1.21,2.43,1.92A8.53,8.53,0,0,1,321,114c-.74.32-1.55,1-2.21.89a7.38,7.38,0,0,1-3-1.42c-1.25-.92-2.18-1.28-3.48.09-1.45,1.55-4.49.75-5.48-1.61a35.83,35.83,0,0,1-2.63-8.63c-.49-3.36-.24-6.82-.3-10.24a1.59,1.59,0,0,1,.17-.93c.7-1,1.47-1.85,2.2-2.76.24,1,.52,2,.69,3A12.3,12.3,0,0,1,307,94.28Z"/><path class="cls-1" d="M349.8,161.23c-3-.93-6.38-2-9.73-3.06-1.41-.46-1.2-1.57-.33-2.17a29.88,29.88,0,0,1,4.8-2.49,1.45,1.45,0,0,1,1.27.64c.15.38-.18,1-.43,1.44a10.67,10.67,0,0,1-1.06,1.37,5.42,5.42,0,0,0,1.69.74,71.22,71.22,0,0,0,7.59.09c.78,0,1.5-1,2.25-1.49-.49-.48-.88-1.19-1.46-1.39a29.91,29.91,0,0,0-6.26-1.79c-2.32-.27-3.68-1.28-3.28-3.55.93-5.21.24-10.27-.87-15.36-.18-.83.36-1.83.56-2.75.63.68,1.69,1.29,1.81,2a63.67,63.67,0,0,1,1.28,11.38c-.08,3.46,2,4.63,4.36,5.92,1.81,1,3.76,1.77,5.48,2.88,2.68,1.75,2.41,5-.59,6.11C354.84,160.56,352.57,160.7,349.8,161.23Z"/><path class="cls-1" d="M34.81,63.23c.14-3.57,1.09-7.33,4.77-9.83,2.66-1.81,4.76-1.32,6.34,1.47,2.25,4-.42,9.48-5.12,10.67a9.77,9.77,0,0,0-2.08,1.12,22.81,22.81,0,0,0,1.72,1.82c4.31,3.71,8.49,2.19,12.66-.33a5,5,0,0,1,1.26-.37,10.39,10.39,0,0,1-.87,1A14.48,14.48,0,0,1,40.41,72.3C36.15,71.45,35.06,70.19,34.81,63.23Zm9-5.65c-.61-.18-1.85-.84-2.12-.56a30.29,30.29,0,0,0-3.35,4.41c-.08.14.56,1.08.94,1.14C40.71,62.79,43.82,59.72,43.8,57.58Z"/><path class="cls-1" d="M291.27,242l1.94-1.76c.49.66,1.3,1.28,1.41,2,.55,3.33,1.22,6.56,3.37,9.32a3.6,3.6,0,0,0,4.81,1.22,5.18,5.18,0,0,1,3.58-.34c2.17.89,3.21,0,3.83-1.79,1.43-4.12,2.75-8.28,4.11-12.43.15-.45.2-1.13.5-1.28a7,7,0,0,1,2-.39,6.16,6.16,0,0,1,.2,2.14c-.34,1.17-1.09,2.22-1.43,3.38-1.12,3.87-2,7.8-3.22,11.65-1.26,4.11-2.47,4.55-6.5,2.8a2.57,2.57,0,0,0-1.55-.24c-6,1.54-6.93,1.39-9.78-4.07C293,249.28,292.41,245.77,291.27,242Z"/><path class="cls-1" d="M307.38,197.25a14,14,0,0,1-.31-3.18c.1-.61.72-1.15,1.11-1.72.45.45,1.17.82,1.31,1.35.56,2.07.91,4.19,1.38,6.28.6,2.63,1.43,2.92,3.5,1.27,3.24-2.6,4.16-2.48,6.67.92.85,1.16,1.68,2.32,2.5,3.51s1.35.82,1.7-.32c.24-.76.42-1.54.61-2.31.91-3.7,1.79-7.39,2.74-11.07.11-.45.59-.8.9-1.19a5.08,5.08,0,0,1,.28,1.55c-.36,2.76-.9,5.5-1.17,8.27-.19,1.92,0,3.88-.07,5.81-.16,2.48-1.83,4.44-3.6,4.63a2.17,2.17,0,0,1-2.6-1.46c-.69-1.58-1.66-3.05-2.51-4.57-1.07-1.9-2.17-1.79-3.72-.36-2.66,2.46-5,2.62-6.8.18-1.1-1.5-1.39-3.64-1.89-5.54A6.72,6.72,0,0,1,307.38,197.25Z"/><path class="cls-1" d="M385.7,116c2.73-1.36,5.46-2.75,8.21-4.09a16.53,16.53,0,0,1,2-.65c-.33.58-.52,1.35-1,1.71a21.17,21.17,0,0,1-4.6,3c-2.17.86-3.7,2.76-6.55,2.7-4-.08-6.75-1.87-9.19-4.63a11.26,11.26,0,0,1-1.45-2.15c-.28-.53-.71-1.39-.5-1.71a83.1,83.1,0,0,1,5.29-7.29,2.77,2.77,0,0,1,4.07-.54c1.54,1.2,2.25,2.85,1.37,4.66a39.53,39.53,0,0,1-3,4.71c-.31.46-1.14,1-1.05,1.21.34.67.86,1.52,1.49,1.73a36.66,36.66,0,0,0,4.69.91Z"/><path class="cls-1" d="M240.61,67.91a5,5,0,0,0-3.76-4.85c-3.17-.7-6.44-1.1-9.52-2.06s-3.06-1.83-.88-3.88S231,53,233.38,50.94c.33-.29.94-.25,1.42-.36-.05.43,0,1-.2,1.28a30.6,30.6,0,0,1-3.26,4.22c-1.23,1.22-1.54,2.07.3,2.71a8.43,8.43,0,0,0,3.24.64c5.38-.43,8.88,4.09,8.7,9.14-.25,7-5.18,10.44-10.61,9.76-.75-.1-1.39-1-2.08-1.49.77-.44,1.53-1.23,2.33-1.27A8.08,8.08,0,0,0,240.61,67.91Z"/><path class="cls-1" d="M99,240.54q-.61-6.89-1.22-13.78a17.17,17.17,0,0,1-.18-3.57c.06-.6.78-1.13,1.21-1.69.32.54.87,1.06.93,1.63.5,4.83.85,9.68,1.36,14.51a26.85,26.85,0,0,0,1,3.87l2-3c2-3,4.32-3.16,6-.05,1.27,2.31,1.8,5,2.8,7.5.53,1.31,1.38,2.49,2,3.77.17.33.3,1,.15,1.12-.54.39-1.57,1-1.76.8a9.75,9.75,0,0,1-2.52-3.12c-1-2.41-1.63-5-2.52-7.44a6.54,6.54,0,0,0-1.29-1.59,9.23,9.23,0,0,0-1.06,1.49c-.83,1.9-1.52,3.85-2.41,5.71-.32.68-1.32,1.73-1.54,1.63-.84-.41-1.92-1.1-2.14-1.9a44,44,0,0,1-.91-5.89Z"/><path class="cls-1" d="M372.72,161c-1.55-.48-3.65-.67-5.2-1.69-5.74-3.74-5-11.56,1.07-14.87a2.69,2.69,0,0,1,3.43.4c3.27,2.81,2.92,7.12-.75,9.76a18.94,18.94,0,0,0-1.61,1.5l2.13,1a7.7,7.7,0,0,0,6.24.3c.49-.19,1.28.43,1.93.67-.39.56-.68,1.44-1.19,1.6C377,160.22,375.07,160.52,372.72,161Zm-4.12-8.24c1-1.68,1.75-2.93,2.44-4.21,0,0-.67-.68-.94-.62-1.73.38-2.26,1.81-2.57,3.31C367.48,151.51,367.94,151.87,368.6,152.78Z"/><path class="cls-1" d="M165.37,199.43a19.45,19.45,0,0,1,1.28-4.09c.38-.67,1.63-.86,2.49-1.27a11.47,11.47,0,0,1,.86,2.64c.08.75-.43,1.54-.44,2.31a9.21,9.21,0,0,0,.47,2.15,8.77,8.77,0,0,0,2.57-.69c1.92-1.23,2.05-3.39,2.54-5.39a27.37,27.37,0,0,1,1.66-4,37.08,37.08,0,0,1,3,3.43c.75,1.11,1.15,2.45,1.79,3.64.85,1.58,1.51,3.5,4,2.73.27-.08.93.23,1,.44a1.75,1.75,0,0,1-.3,1.27c-1.66,2.11-4.26,1.92-6.29-.51-.82-1-1.48-2.1-2.21-3.16a32.12,32.12,0,0,1-2,3.25c-2.12,2.76-5.71,3.71-8.18,2.66S166.11,201.43,165.37,199.43Z"/><path class="cls-1" d="M266.1,97.68v8.69c0,1.2.51,1.16,1.3.57a8.11,8.11,0,0,1,2.14-1.49c1.86-.57,3.12.43,3.73,2.11.68,1.86,1.1,3.81,1.69,5.7a6.91,6.91,0,0,0,1.1,2.55c.69.78,1.89,1.43.58,2.39a2.31,2.31,0,0,1-3.56-.57,15.15,15.15,0,0,1-1.1-2.89c-.05-.14,0-.32-.06-.47-.5-1.54-1-3.07-1.51-4.6-1,1.07-2.05,2.08-3,3.21a2.69,2.69,0,0,1-3.28,1.15c-1.56-.51-1.11-1.55-1.09-2.68.09-5.57.08-11.13.11-16.7a34.74,34.74,0,0,1,.11-3.82c0-.43.63-.8,1-1.2.36.36,1,.68,1,1.08C265.64,93.13,265.87,95.58,266.1,97.68Z"/><path class="cls-1" d="M287.77,201.66c.06,5.11-1.57,6.33-5.44,5.37a2.88,2.88,0,0,0-1.55.19c-4.38,1.58-8.13-.51-9.12-5.11s1.8-9,6.2-9.71c3.45-.52,5.66,1.86,7.46,4.21A22.09,22.09,0,0,1,287.77,201.66Zm-3.31,0c0-3.23-2.65-6.05-5.58-6.07-1.63,0-3.91,2.3-3.83,3.87.21,4,1.59,5.31,5.3,5.2C282.43,204.55,284.49,203.05,284.46,201.62Z"/><path class="cls-1" d="M392,204.21c2-.93,3.91-1.88,5.89-2.78a4.68,4.68,0,0,1,1.26-.2,4.09,4.09,0,0,1-.58,1c-1.69,1.6-3.15,3.79-5.16,4.61-5,2-9-.64-11.26-5.07a.86.86,0,0,1-.08-.45c.23-2.43,5.28-8.21,7.85-8.71,1.05-.21,2.69-.21,3.23.42,1,1.21,1.87,3,.61,4.58a29.78,29.78,0,0,1-3.83,3.41c-.56.48-1.16.93-1.74,1.4.8.42,1.58.9,2.41,1.26a3.31,3.31,0,0,0,1.18,0Z"/><path class="cls-1" d="M321.81,247.49a7,7,0,0,1,.19-2.14,5.73,5.73,0,0,1,1.26-1.3,5.8,5.8,0,0,1,1,1.34c.57,1.65,1,3.35,1.57,5,.1.32.46.56.7.84a8,8,0,0,0,.59-1c.55-1.21.8-2.67,1.65-3.62,2.4-2.68,5.41-2.36,6.9,1a73.47,73.47,0,0,1,3.07,9.74,14,14,0,0,1,.57,3.74c0,.53-.7,1.07-1.08,1.61-.45-.4-1.15-.72-1.3-1.21-.67-2.2-1.15-4.46-1.75-6.68a21.22,21.22,0,0,0-1.4-4.3c-.46-.88-1.52-1.45-2.32-2.15-.57.74-1.45,1.4-1.65,2.22-.52,2.23-.65,4.55-1.14,6.79-.15.69-.92,1.71-1.45,1.75-.76,0-2.08-.52-2.28-1.11C323.69,254.41,322.73,250.71,321.81,247.49Z"/><path class="cls-1" d="M144.6,45.6c0,6.26-.06,12.53,0,18.79,0,3.26.31,6.51.45,9.76a2.27,2.27,0,0,1-.26.77c-.19-.22-.5-.42-.56-.67a35.75,35.75,0,0,1-.94-4.87c-.63-8.7-1.32-17.4-1.66-26.12-.14-3.56.26-7.26,2.61-10.25.71-.91,2-1.35,3-2,.61,1,1.55,1.86,1.75,2.9a29.65,29.65,0,0,1,.48,6.17c-.06,2.84-.3,5.68-.61,8.51-.07.65-.7,1.23-1.07,1.85a6.26,6.26,0,0,1-.74-2c.07-3.5.34-7,.38-10.49a7.65,7.65,0,0,0-.89-2.48c-.52.78-1.33,1.5-1.5,2.35-.49,2.57-.74,5.19-1.08,7.78Z"/><path class="cls-1" d="M251.42,143a52.38,52.38,0,0,1-.72,6.15c-.64,2.8-1.95,3.29-4.7,2.86a7.51,7.51,0,0,0-4,.81c-3.05,1.41-5.5.63-6.58-2.51s-2.07-6.34-2.9-9.56c-.15-.58.68-1.41,1-2.13.6.36,1.52.58,1.72,1.08.83,2.13,1.36,4.38,2.15,6.53,1.17,3.16,2,3.42,5,2.08a5.08,5.08,0,0,1,3-.47c2.05.5,2.63-.58,2.83-2.19.26-2.13.32-4.28.69-6.38.13-.78.87-1.46,1.33-2.18a9.7,9.7,0,0,1,1,2.31,26.83,26.83,0,0,1,0,3.59Z"/><path class="cls-1" d="M186,249.76c-.17-5.23,4.13-8,7.4-8.85,1.4-.35,3.1,1.68,2.72,3.11-.06.24-1.09.53-1.23.38-1.63-1.75-3.19-.78-4,.57a8.52,8.52,0,0,0-1,4.81c.13,1.27,3.35,1.08,4.51-.4.92-1.15,1.43-2.62,2.31-3.82a11.42,11.42,0,0,1,2.17-1.83,6.77,6.77,0,0,1,1.13,2c.23,1.4.15,2.86.27,4.28.15,1.78.75,3.07,3,2.64.51-.1,1.11.29,1.66.45-.37.44-.66,1-1.13,1.31-2.9,1.71-4.95,1-6.08-2.19-.47-1.34-.88-1.78-2-.51a24.29,24.29,0,0,1-2.6,2.35c-1.4,1.18-5,.17-6.23-1.86A11.14,11.14,0,0,1,186,249.76Z"/><path class="cls-1" d="M204.53,151.27c3.56,0,6.06-2.06,8.66-3.89a7.43,7.43,0,0,1,1.25-.56,4.33,4.33,0,0,1-.3,1.43c-3.46,5.46-11,8.55-17.19,3.59a28.87,28.87,0,0,1-2.82-2.17,2.55,2.55,0,0,1-.76-2,2.32,2.32,0,0,1,1.86-1.16c1.69.17,2.1-.81,2.73-2a11.23,11.23,0,0,1,2.67-3.24,2.93,2.93,0,0,1,2.49-.66,2.82,2.82,0,0,1,1.09,2.4,35.59,35.59,0,0,1-1.5,4.7c-.29.91-.84,2-.58,2.73C202.3,150.9,203.69,151,204.53,151.27Z"/><path class="cls-1" d="M368.38,204.72c-.78-1.55-1.65-3.07-2.31-4.67-.3-.75-.58-2.11-.21-2.43,2.33-2,1.52-4.56,1.33-6.91-.2-2.53-.92-5-1.22-7.54-.09-.82.22-2.26.74-2.47,1.58-.65,2.08.72,2.26,2,.52,3.44,1.14,6.88,1.35,10.35.28,4.41,1,5.32,5.46,5.61.56,0,1.08.65,1.62,1-.36.54-.63,1.39-1.12,1.55a7.26,7.26,0,0,1-3.25.42c-2.06-.3-2.32.67-2.08,2.31a12.54,12.54,0,0,1,.25,3.49c-.1.65-.94,1.2-1.44,1.79a9.94,9.94,0,0,1-1.9-2.06c-.3-.55-.06-1.4-.06-2.12Z"/><path class="cls-1" d="M186.35,58.2c-.27-3.8-.6-7.6-.77-11.4,0-.68.56-1.39.86-2.08a7.57,7.57,0,0,1,1,2.12c.59,4.56,1.08,9.13,1.62,13.69.19,1.62,1.36,1.26,2.37,1s2.29-.61,3.45-.82c.26,0,.61.36.92.56a5.51,5.51,0,0,1-.66.62c-1.82,1.25-3.72,2.42-5.45,3.79a3.29,3.29,0,0,0-.7,2.12c-.22,2.22-.19,4.47-.53,6.66-.1.72-1,1.32-1.58,2a6.79,6.79,0,0,1-.88-2.25,61.79,61.79,0,0,1,.37-6.66c.16-1.52-.25-2.35-1.84-2.73-1.32-.31-2.39-1.18-1.88-2.78a1.87,1.87,0,0,1,2.76-1.37c.16.06.92-1.46,1.4-2.25Z"/><path class="cls-1" d="M274.93,139a31.45,31.45,0,0,0-.46,4.63c0,.74.61,1.9,1.17,2.06a2.83,2.83,0,0,0,2.18-1c2.1-2.43,3.06-2.35,4.4.58.4.87.84,1.72,1.21,2.59.56,1.28,1.23,2,2.74,1.14.4-.22,1.19.25,1.8.41a4.55,4.55,0,0,1-.6,1.32c-3.31,3.44-4.53,3.27-7-1-.53-.93-.87-1-1.81-.34-3.8,2.49-6.83,1-7.27-3.45a42,42,0,0,1-.38-4.74,5.07,5.07,0,0,1,.86-2.67,2.32,2.32,0,0,1,1.94-1C274.37,137.74,274.75,138.71,274.93,139Z"/><path class="cls-1" d="M339.29,107.38a40.25,40.25,0,0,1,2.49-5.38c1.24-2,3.5-2.14,5.43-.77,3.84,2.71,4.34,11.2.83,14.4-.34.31-.87.72-1.21.64-1.24-.28-2.07-.18-2.29,1.32a1.64,1.64,0,0,1-1.37.35c-1-.81-2.37-1.64-2.7-2.73C339.8,113,339.72,110.53,339.29,107.38Zm8.67,1.36-.35-.34a17.12,17.12,0,0,0-.79-3.41c-.67-1.5-2-1.65-3-.53-1.85,2.14-2.05,6.91-.24,9.1.26.32,1.54.35,1.69.1C346.26,112.09,347.08,110.4,348,108.74Z"/><path class="cls-1" d="M74.06,62.33a43,43,0,0,1,1.56-5.69A4.51,4.51,0,0,1,81.12,54c1.78.65,2.69,2.79,2.43,5.19-.32,3-1.37,5.32-4.34,6.56a2.13,2.13,0,0,0-.24,2c1.42,1.41,3,2.67,5.29,1.92a3.35,3.35,0,0,1,1.31.12,4.48,4.48,0,0,1-.78,1.05c-3.63,2.65-7.91,1.24-9.27-3.07C75,66,74.57,64.24,74.06,62.33Zm7.2-4c-.22-.25-.69-1.22-1.12-1.2-2.28.11-2.36,2.19-2.89,3.76-.1.3.45,1.13.82,1.22C79.35,62.38,81,60.55,81.26,58.3Z"/><path class="cls-1" d="M164.52,122.14c-2.77,0-6-3.27-5.9-5.89.16-4.09,3.47-8.09,6.6-8s7.16,3.2,7.16,5.57C172.38,118.43,168.81,122.2,164.52,122.14ZM166.31,111a4.74,4.74,0,0,0-4.41,3.78c-.25,1,.76,2.34,1.41,3.41.16.27,1.19.28,1.66,0,.73-.34,1.26-1.08,2-1.49,1.38-.81,2.79-1.85,2.19-3.5C168.78,112.31,167.28,111.77,166.31,111Z"/><path class="cls-1" d="M264,153.24c-3.2-.27-5.5-1-6.39-3.61a16.77,16.77,0,0,1-1.28-6.44c.27-3.62,4.58-5.58,7.84-3.9,4.42,2.28,5.84,8.56,2.64,12.22A9.82,9.82,0,0,1,264,153.24Zm-4.15-7.75-.5.3c.65,1.07,1.08,2.41,2,3.12.7.55,2.73.68,2.93.33a9,9,0,0,0,.81-3.89,2.93,2.93,0,0,0-.88-2.1c-.7-.62-1.93-1.41-2.55-1.16-.78.31-1.22,1.57-1.74,2.46C259.72,144.79,259.82,145.17,259.8,145.49Z"/><path class="cls-1" d="M129.67,238.41c-.74,3.17-1.42,5.47-3.7,7-.72.48-1.83,1.57-1.69,1.94a9.6,9.6,0,0,0,2.23,2.88c.35.35,1.13.25,1.54.57a6.43,6.43,0,0,1,1.08,1.46,4.78,4.78,0,0,1-1.59.69c-3.54,0-6-2.71-7.1-6.08-1.34-3.9,0-6.87,1.86-9.9a3.47,3.47,0,0,1,4.35-1.55C128,236,128.85,237.54,129.67,238.41Zm-5.18,4.14c.72-1.1,1.3-1.9,1.76-2.77.06-.12-.5-.57-.78-.86-.55.8-1.14,1.58-1.63,2.42C123.76,241.49,124.12,241.89,124.49,242.55Z"/><path class="cls-1" d="M146.69,201.33c.2-1.17.36-2.35.59-3.51.41-2,1.11-4,3.39-4.48s4.69,0,5.66,2.08a10.51,10.51,0,0,1,.39,5.9c-.55,3-3.51,4-5.82,5.42-1.4.83-4-1.72-4.11-4a8.52,8.52,0,0,1,.13-1.42Zm6.33-3.49-.92-1.19c-.69,1.21-1.43,2.39-2,3.65-.1.2.5.72.77,1.1Z"/><path class="cls-1" d="M267.35,200.58c-.82,2.29-2,3.76-4.12,3.59s-2.34,1-2,2.61a10.7,10.7,0,0,1,.7,2.75,3.23,3.23,0,0,1-1.17,2.36c-1.19.63-1.91-.21-2.05-1.48-.1-.95-.18-1.89-.3-2.84-.29-2.34-.2-4.75-2.43-6.47-.6-.46-1-2.34-.68-2.66,2.66-2.48.55-5.09.43-7.61,0-.3-.39-.64-.32-.88.26-.88.63-1.72,1-2.58.56.65,1.43,1.22,1.63,2,.82,3,1.43,6,2.13,9.08.53,2.3,2.43,3.08,5.56,2.32A10.8,10.8,0,0,1,267.35,200.58Z"/><path class="cls-1" d="M283.75,253.7c-.16,1.28,0,2.45-.47,3.11s-1.74,1.06-2.65,1.56a16.15,16.15,0,0,0-1.09-2c-.38-.52-.89-1.23-1.42-1.3-5.52-.75-7.49-5-4.5-9.9a3.45,3.45,0,0,1,5.63-.84A13.2,13.2,0,0,1,283.75,253.7ZM278,252.51c1.08-1.2,2.09-2,2-2.25a32.74,32.74,0,0,0-2.56-3.45c-.49.73-1.45,1.54-1.35,2.18C276.25,250,277.11,250.94,278,252.51Z"/><path class="cls-1" d="M223.32,233.84c.48,6.88.92,14.43,1.6,22,.13,1.41,1.21,2.73,1.84,4.1.25.55.81,1.39.62,1.64a2.35,2.35,0,0,1-1.8.94c-2.08-.39-3-2-3.21-3.94-.55-5.62-1.12-11.23-1.39-16.86-.21-4.17,0-8.36.09-12.54a3.53,3.53,0,0,1,.36-1.62c.24-.41.77-.66,1.17-1,.24.38.67.74.69,1.13C223.36,229.5,223.32,231.33,223.32,233.84Z"/><path class="cls-1" d="M337.57,199.75c0-.32-.18-.7-.06-.94.52-1.06,1.12-2.07,1.68-3.1.48.92,1,1.83,1.43,2.77a12,12,0,0,1,.5,1.68,13.44,13.44,0,0,0,.79-1.62c.88-2.62,2.06-5,4.63-6.38a4.51,4.51,0,0,1,2.23-.54,6.7,6.7,0,0,1,2.05.78c-.49.51-1,1-1.48,1.55L345,198.76a4.65,4.65,0,0,0-1.48,3.88c.18,2.22-.59,4.55-1.15,6.78-.13.52-1.21,1.27-1.62,1.14-.85-.26-2.08-.95-2.2-1.62-.5-3-.67-6.13-1-9.19Z"/><path class="cls-1" d="M67,60.42c.31-2.19.61-4.39,1-6.58,0-.28.47-.49.72-.74A2.62,2.62,0,0,1,69,54c-.14,3.71-.27,7.43-.49,11.14a31.62,31.62,0,0,1-.6,5.14c-.2.91-.79,2.26-1.44,2.41-1,.22-2.64-.12-3.1-.81a25,25,0,0,1-2.86-6.19c-1.08-3.47-1.87-7-2.72-10.58a4,4,0,0,1,.06-1.87,1.51,1.51,0,0,1,.87-1c.3,0,.87.38,1,.73A26.72,26.72,0,0,1,61,56.29c1,3.43,2,6.88,3,10.31a5.9,5.9,0,0,0,1,1.49,6.9,6.9,0,0,0,1-1.64c.57-2,1-3.94,1.51-5.92Z"/><path class="cls-1" d="M210.59,104.59c0,.24,0,.47-.05.71-.26,5.46.15,5.3,4.73,4.83.63-.06,1.34.72,2,1.1-.47.4-.92.83-1.41,1.19a1.57,1.57,0,0,1-.69.18c-3.21.36-5.91,1.22-6,5.27,0,.41-1.24.81-1.9,1.22-.2-.6-.68-1.27-.55-1.78.58-2.26.86-4.24-2-5.16-.4-.13-.79-1.19-.68-1.7s.85-1.35,1.32-1.35c1.8,0,2.13-1,2.11-2.44,0-2.37-.12-4.74.05-7.1.06-.74.89-1.41,1.36-2.12.47.49,1.24.93,1.34,1.49.34,1.85.45,3.75.64,5.63Z"/><path class="cls-1" d="M251.68,99c-.14,2.49-.22,4.15-.33,5.81s.79,2.72,2.41,2.45c2.05-.35,4-1.14,6-1.67a7.51,7.51,0,0,1,1.71,0,9,9,0,0,1-.55,1.27c-1.48,2.43-3.87,3.42-6.51,3.92a2.79,2.79,0,0,0-2.59,2.35c-.17.73-1.2,1.26-1.84,1.89-.71-.81-2-1.55-2.06-2.43-.63-4.71.55-9.35,1-14,.05-.54.94-1,1.44-1.52Z"/><path class="cls-1" d="M133.43,156.83a8.61,8.61,0,0,1-7-4,4.87,4.87,0,0,0-.9-1.07c-2-1.62-1.93-1.58.21-2.74.58-.32.9-1.36,1.09-2.12.74-3.14,1.84-4.25,4.7-4.51,2.24-.19,3.56,1.41,2.6,3.46a14.7,14.7,0,0,1-2.63,3.62c-1.56,1.7-1.6,2.92.31,4.15a15.83,15.83,0,0,0,3.3,1.29,12.07,12.07,0,0,0,1.5.31,6.57,6.57,0,0,1-1.43,1.45A4.88,4.88,0,0,1,133.43,156.83Z"/><path class="cls-1" d="M132.53,192.28a22.76,22.76,0,0,0,1.37,3.38c1.37,2.28,2.88,4.49,4.38,6.7.92,1.34,2,2.61,2.89,3.95.29.41.62,1.09.46,1.41s-1,.81-1.34.67a7.08,7.08,0,0,1-2.9-1.82,52.47,52.47,0,0,1-3.06-5.32,14.27,14.27,0,0,0-1.06-1.43,13.63,13.63,0,0,0-1.56,1.26c-.31.34-.31,1-.65,1.25-.65.49-1.77,1.29-2.1,1.06-.71-.46-1.59-1.67-1.41-2.28a81.91,81.91,0,0,1,3.23-8.92c.27-.63,1.31-.94,2-1.39l.45,1.19Z"/><path class="cls-1" d="M84.22,125.88c.27-.31.63-1.1,1.13-1.2s1.21.64,1.37,1.14c1.73,5.45,3.34,10.93,5.06,16.38a14.71,14.71,0,0,0,1.45,2.74c.88,1.51,1.9,3,2.63,4.54a2.13,2.13,0,0,1-.51,2,2.09,2.09,0,0,1-2,.06,7.36,7.36,0,0,1-2.24-3c-2.32-7.24-4.48-14.54-6.69-21.82C84.34,126.57,84.32,126.41,84.22,125.88Z"/><path class="cls-1" d="M153.53,145.42c.14-1.87-.14-3.7,2.42-3,.15,0,.64-.58.73-1,.67-2.61,0-3.65-2.6-5.42a3.45,3.45,0,0,1-1.13-2.92A3.84,3.84,0,0,1,155.2,131c.73-.27,2.31,0,2.58.57a6.54,6.54,0,0,1,.22,3.29c-.08,1.2-.6,2.4-.51,3.56.29,3.85.88,7.68,1.11,11.53a3.63,3.63,0,0,1-1.44,2.7,2.72,2.72,0,0,1-2.49-.81A53.29,53.29,0,0,1,153.53,145.42Z"/><path class="cls-1" d="M92.65,241c.85-.32,1.87-.74,2.91-1.09.23-.08.55.09.82.15-.11.19-.18.45-.34.55-1.58,1-3.08,2.41-4.8,2.82-2,.46-1.91,1.21-1.33,2.62a9.5,9.5,0,0,1,1,2.9c0,.69-.63,1.42-1,2.13-.58-.49-1.44-.86-1.69-1.48A37.46,37.46,0,0,1,87,245.25a3.41,3.41,0,0,0-.43-1.34c-3.23-3.58-1.29-8.07-2.1-12.07-.09-.44.83-1.24,1.43-1.62.34-.22,1.38,0,1.44.16a3.74,3.74,0,0,1,.07,2.12C86,236.91,88.39,241.09,92.65,241Z"/><path class="cls-1" d="M209.87,230.25a.65.65,0,0,1,0-.24l1.26-2.83c.53.94,1.56,1.9,1.52,2.83-.27,7.78,1.07,15.36,2.79,22.87.25,1.12,1.52,2,2.32,3,.31.38.64.74,1,1.11-.55.35-1.09,1-1.65,1-2,0-2.93-1.51-3.42-3.13a53,53,0,0,1-1.93-7.81c-.79-5.57-1.33-11.19-2-16.79Z"/><path class="cls-1" d="M364,113.07a29.71,29.71,0,0,0-.53-3.59,5.74,5.74,0,0,0-1.18-1.67c-.52.45-1.29.8-1.51,1.37-.67,1.68-1,3.5-1.72,5.16-.27.64-1.22,1-1.87,1.49-.54-.76-1.65-1.62-1.54-2.27a48.05,48.05,0,0,1,2-7.73c.21-.58,1.49-.79,2.3-1.12.19-.08.46.07.7.06,4-.13,5.34,1.07,5.81,5,.13,1.1.41,2.18.47,3.28s.4,2.57-1.5,2.64S363.86,114.45,364,113.07Z"/><path class="cls-1" d="M91.93,69.38a57,57,0,0,1,.87-7.54A8.33,8.33,0,0,1,95.28,58c1.48-1.33,3.8-.6,4.54,1.66A81.14,81.14,0,0,1,102,69.36c0,.25-.66.94-.78.89-.57-.26-1.4-.62-1.53-1.1-.46-1.75-.65-3.58-1-5.37a2.81,2.81,0,0,0-.5-1.31A16,16,0,0,0,96.43,61a12.48,12.48,0,0,0-.67,2c-.41,2.58-.67,5.17-1.18,7.72-.13.63-1,1.1-1.54,1.64-.36-.68-.77-1.34-1.06-2-.1-.25.08-.62.13-.93Z"/><path class="cls-1" d="M182.33,109.14a16.82,16.82,0,0,1,3.62,2.23,12.26,12.26,0,0,1,2.51,4c.29.71-.24,1.75-.4,2.64a27.35,27.35,0,0,1-2.81-1c-.27-.12-.3-.71-.53-1-.68-1-1.4-1.91-2.11-2.86a22.77,22.77,0,0,0-2,3c-.8,1.73-1.31,3.7-3.7,3.69a2.35,2.35,0,0,1-1.34-1.08c1.47-2.84.85-6.74,4.26-8.59C180.53,109.85,181.28,109.59,182.33,109.14Z"/><path class="cls-1" d="M289.64,113.18a46.13,46.13,0,0,1,.93-6.05c.32-1.07,1.24-2.63,2-2.71a4.13,4.13,0,0,1,3.23,1.65,31,31,0,0,1,2.29,5.45,17.29,17.29,0,0,1,1.14,2.85,8.35,8.35,0,0,1-.23,2.4,11.2,11.2,0,0,1-1.81-.57c-2.1-1.07-1.89-3.31-2.54-5.12a7.58,7.58,0,0,0-.55-1,4.67,4.67,0,0,0-.54,1.1c-.3,1.51-.08,3.47-2.55,3C290.41,114.09,289.89,113.37,289.64,113.18Z"/><path class="cls-1" d="M143.34,152.49c-.36-1.9-1.09-3.8-1-5.68a54,54,0,0,1,1.27-9c.12-.55,1.46-.85,2.24-1.27a7.24,7.24,0,0,1-.07,2.24c-1.22,3.39-.64,4.32,2.83,4.19.62,0,1.24-.31,1.85-.28a10.08,10.08,0,0,1,1.89.48c-.49.44-1,.9-1.46,1.31-.17.13-.46.09-.69.15-4.59,1.25-5.74,3.27-4.64,7.94a5.33,5.33,0,0,1,.07,2.38,2,2,0,0,1-1.67.26,10.92,10.92,0,0,1-1.35-2.45Z"/><path class="cls-1" d="M291.79,133.5c.45,4.08.95,8.15,1.29,12.24a7.78,7.78,0,0,1-.68,2.51c-.72-.58-1.82-1-2.06-1.78a22.86,22.86,0,0,1-.89-5.15c-.35-4.1-.66-8.2-.82-12.31,0-.9.63-1.82,1-2.73.69.81,1.71,1.53,2,2.46a26.26,26.26,0,0,1,.58,4.72Z"/><path class="cls-1" d="M248,83.54c-1-.62-1.94-.91-2.15-1.48a2.65,2.65,0,0,1,.71-2.06c3-3.42,6.07-6.74,9.07-10.14.94-1.07,1.68-2.32,2.61-3.39a4.31,4.31,0,0,1,1.47-.73,4.44,4.44,0,0,1-.36,1.65c-2,2.76-4.18,5.41-6.14,8.21-1.28,1.82-2.26,3.85-3.44,5.74A22.16,22.16,0,0,1,248,83.54Z"/><path class="cls-1" d="M173.57,55.71s.38-.73.79-.76a1.63,1.63,0,0,1,1.24,1c.68,2.45,1.18,4.94,1.79,7.4.53,2.14,1.2,4.25,1.63,6.4.13.62-.33,1.35-.52,2-.69-.25-1.75-.33-2-.81a14.3,14.3,0,0,1-1.11-3.83C174.77,63.51,174.23,59.9,173.57,55.71Z"/><path class="cls-1" d="M197.21,105.59c.25-2.92.41-5.84.79-8.74.08-.59.95-1.08,1.46-1.61.46.55,1.27,1.07,1.32,1.66a33.44,33.44,0,0,1-.08,5c-.1,1.57-.37,3.14-.45,4.72-.05,1,.5,2.42-1.12,2.23-.74-.08-1.4-1.3-2-2.1-.17-.24,0-.76.08-1.16Z"/><path class="cls-1" d="M111.17,97a1.23,1.23,0,0,0-.41,0c-1.33.19-3.44,1.23-3.57-.64-.09-1.36,1.64-3.08,2.93-4.2.76-.66,2.67-1,3.33-.49a4.74,4.74,0,0,1,1.86,3.57C115.05,97.14,113.15,97.25,111.17,97Z"/><path class="cls-1" d="M113.38,107.45a7.47,7.47,0,0,1,1,1.58c1,3.08,1.9,6.17,2.75,9.27a2.62,2.62,0,0,1-.32,1.57,5,5,0,0,1-2.58-.5c-.54-.37-.69-1.38-.87-2.14-.63-2.55-1.28-5.1-1.71-7.68-.11-.66.53-1.45.83-2.18Z"/><path class="cls-1" d="M215.87,67c0-2.13-.07-4.27,0-6.4a6.36,6.36,0,0,1,.85-2c.4.54,1.07,1.05,1.15,1.64.32,2.27.45,4.57.64,6.86.1,1.26-.46,2.77,1.35,3.39.16,0,.29.89.14,1a5.07,5.07,0,0,1-2.15,1.28c-.44.06-1.35-.75-1.46-1.29A35,35,0,0,1,216,67Z"/><path class="cls-1" d="M151.7,67c-1.1-.19-2.2-.37-3.28-.59-2.37-.5-2.81-1.21-2-3.43a7.93,7.93,0,0,1,1.12-1.68c.35.46.69.92,1,1.38.89,1.17,3.9,1.38,6.07.42a6,6,0,0,1,1.51-.65c.21,0,.77.57.73.77C156.6,64.41,152.91,67,151.7,67Z"/><path class="cls-1" d="M355.72,203.37c0-1.59-.09-3.32,0-5.05.05-.58.64-1.12,1-1.68.41.42,1,.78,1.19,1.28.38,1.28.52,2.63.82,3.93.18.83.54,1.62.71,2.45s.48,1.84.12,2.24a3.08,3.08,0,0,1-2.41.93c-.6-.11-1.23-1.1-1.51-1.82A6.35,6.35,0,0,1,355.72,203.37Z"/><path class="cls-1" d="M131,70.79l-1.49,1.36c-.57-.65-1.61-1.28-1.62-2-.09-3.17.07-6.35.23-9.53a5.34,5.34,0,0,1,.72-1.64,5.45,5.45,0,0,1,.88,1.48c.29,1.64.44,3.31.64,5S130.73,68.59,131,70.79Z"/><path class="cls-1" d="M103.75,145.39c.33,1.62.73,3.24,1,4.88a8.94,8.94,0,0,1-.26,2.21c-.82-.52-2.09-.87-2.37-1.6a31.28,31.28,0,0,1-1.15-5.34c-.32-1.64.29-3,1.91-3.21.42-.06,1.09,1.75,1.65,2.7Z"/><path class="cls-1" d="M280.56,112.92c.16-1.41.25-2.83.54-4.2a1.65,1.65,0,0,1,1.15-1,1.29,1.29,0,0,1,1.09.69,57.82,57.82,0,0,1,.8,7.17c0,.49-1.19,1-1.84,1.53a7.43,7.43,0,0,1-1.39-1.84,7.8,7.8,0,0,1-.05-2.37Z"/><path class="cls-1" d="M222.52,51.69A7.08,7.08,0,0,1,221.07,53a15.07,15.07,0,0,1-2.44.77c-.27-.93-1-2.21-.69-2.71a8.26,8.26,0,0,1,3.22-2.62c1.41-.66,3.36,1.35,2.9,2.85-.12.4-.62.68-.95,1Z"/><path class="cls-1" d="M279.6,98.74a30.19,30.19,0,0,1,1.71-4.15,2,2,0,0,1,1.77-.66c.34.06.71,1,.75,1.56a13.29,13.29,0,0,1-.14,3.73c-.12.52-1.19,1.3-1.6,1.18A10,10,0,0,1,279.6,98.74Z"/><path class="cls-1" d="M106.06,134.79c-.56,1.61-.81,3.17-1.64,4.29-.3.4-2.18,0-3-.48-1.12-.69-.87-1.8.29-2.43a29.85,29.85,0,0,1,3.61-1.61C105.58,134.45,106,134.78,106.06,134.79Z"/><path class="cls-1" d="M353.79,265.19c-1.06-1.27-2.28-2.1-2.22-2.81a3.13,3.13,0,0,1,1.95-2.3c2-.19,1.52,1.8,1.75,3C355.35,263.47,354.6,264.06,353.79,265.19Z"/><path class="cls-1" d="M359.55,183.93c1,1.34,2.1,2.14,2.12,3s-1.13,1.49-1.76,2.24c-.76-.71-2-1.32-2.16-2.16S358.67,185.33,359.55,183.93Z"/><path class="cls-1" d="M176.18,48.6a11.59,11.59,0,0,1-2.05-2.18c-.12-.21.82-1,1.28-1.55L177.88,47Z"/><path class="cls-1" d="M133.58,51.32a12.62,12.62,0,0,1-3.23,1.3c-.41,0-1.36-1.11-1.25-1.39.27-.66,1-1.58,1.58-1.56C131.45,49.7,132.19,50.48,133.58,51.32Z"/></svg>