<svg id="_1" data-name="1" xmlns="http://www.w3.org/2000/svg" viewBox="0 0 531.37 531.37"><defs><style>.cls-1{fill:#fff;}</style></defs><path class="cls-1" d="M385.78,475.33c.74,6-5.93,10.37-12.54,8a33.75,33.75,0,0,1-14.11-9.89,15.75,15.75,0,0,1-1.78-3.26c-.07-.15.09-.42.15-.64a3.63,3.63,0,0,1,1,.41c3,2.39,5.87,5.05,9.08,7.16a15.74,15.74,0,0,0,10.64,2.56c2.84-.33,3.88-1.33,3.82-4.17a44,44,0,0,0-3.7-15.73c-.21-.51-1.57-.88-2.31-.77-2.77.43-3.93-.17-5-2.7a12.82,12.82,0,0,1-.16-10.25,3.31,3.31,0,0,1,.78-1.42,7.06,7.06,0,0,1,1.88-.72,8.59,8.59,0,0,1,.29,1.72c-.08,2.58-.26,5.16-.32,7.75,0,.52.18,1.31.55,1.52a4.63,4.63,0,0,0,2.32.56,2.75,2.75,0,0,0,.46-1.77c-.2-1.25-.87-2.45-.91-3.69a14.65,14.65,0,0,1,.52-4.9c.49-1.57,1.65-1.53,2.8-.31a7.55,7.55,0,0,1,2.13,6.85c-.87,3.62.8,6.55,1.47,9.76Q384.3,468.37,385.78,475.33Z"/><path class="cls-1" d="M314.41,354.62c.25,3,.49,6,.77,9.06a4.85,4.85,0,0,0,.46,1.21c.23-.29.5-.57.7-.88,1.09-1.72,2.51-3,4.67-2.7a5,5,0,0,1,4,4,42.45,42.45,0,0,1,1.3,7.51c.06.74-.84,1.57-1.31,2.36-.61-.69-1.57-1.29-1.77-2.09-.55-2.14-.65-4.4-1.21-6.54a2.85,2.85,0,0,0-1.88-1.71c-.47-.09-1.4.86-1.74,1.53-.73,1.49-1.12,3.15-1.86,4.64-.34.66-1.36,1.62-1.75,1.49a6.3,6.3,0,0,1-2.23-1.86c-.22-.23-.09-.77-.18-1.16-.17-.67-.39-1.34-.59-2-.48.43-.9,1-1.46,1.26-2,.79-4.09,2-6.14,2s-2.18.71-2,2.16c.12.93.71,1.89.57,2.75a9.79,9.79,0,0,1-1.41,2.74c-.53-.6-1.41-1.14-1.53-1.81a59.79,59.79,0,0,1-1.23-9.2,46.85,46.85,0,0,1,.88-8.66c.12-.75,1.12-1.37,1.71-2a7.36,7.36,0,0,1,.86,2c.16,1.75.16,3.51.16,5.27a3.77,3.77,0,0,0,5.54,3.48,25.8,25.8,0,0,0,3.39-2.24,1.1,1.1,0,0,0,.51-.74c.05-2.29,0-4.6.07-6.89.15-3.16.37-6.33.72-9.47.07-.62.87-1.16,1.33-1.73a5.93,5.93,0,0,1,.76,1.8c.09,2.15,0,4.31,0,6.46Z"/><path class="cls-1" d="M473.47,434.7c-5.25.9-9.52-2.17-14-4.48-.14-.07-.05-1,0-1a4.64,4.64,0,0,1,1.85-.06c2.74.76,5.42,1.84,8.2,2.39,3.91.77,7.58-.56,10.95-2.35a4.68,4.68,0,0,0,2-3.5,63.26,63.26,0,0,0-.88-8.76c-.17-1.31-.7-1.45-1.64-.42a15.71,15.71,0,0,1-2.42,1.94c-1.91,1.43-3.82,1-5.53-.29-1.54-1.12-1.49-2.77-.68-4.31a63,63,0,0,1,4.35-7.64c1.51-2.11,3.39-1.93,5.23,0a13.33,13.33,0,0,1,3.24,7c.87,4.38,2,8.69,1.32,13.24-.94,6-3,8-9.09,8.22C475.48,434.73,474.6,434.7,473.47,434.7Zm5.88-24.46a3.29,3.29,0,0,0,0-1,15.32,15.32,0,0,0-.56-1.74c-.49.33-1.14.55-1.42,1a34.84,34.84,0,0,0-2.47,4.58c-.51,1.21.2,1.74,1.45,1.71C478.52,414.76,479.46,413.42,479.35,410.24Z"/><path class="cls-1" d="M261.53,484.34c-2.75-.69-5.55-1.27-8.24-2.16a2.58,2.58,0,0,1-.9-2.34,7.81,7.81,0,0,1,2.23-2.69,5.59,5.59,0,0,1,1.84-.69c.17.73.72,1.69.45,2.16-1.16,1.95.47,2,1.37,1.84a34.46,34.46,0,0,0,6.88-1.71c2.18-.83,3-2.59,2.35-5.05-.65-2.62-1-5.33-1.43-8-.19-1.17-.58-1.37-1.52-.56a14.19,14.19,0,0,1-3,2.27,3,3,0,0,1-4.4-2.17c-1-4,1.38-9.86,4.89-11.91a9.72,9.72,0,0,1,2.64-.64,17.16,17.16,0,0,1-.79,2.39c-1.16,2.33-2.45,4.59-3.54,6.94a2,2,0,0,0,.3,1.92,2,2,0,0,0,1.91-.19,43.52,43.52,0,0,0,3-3.47,6.37,6.37,0,0,1,1.69-1.77c1.19-.6,2.2-.15,1.91,1.31-1,5,.44,9.8,1.32,14.65C271.26,478.67,268.87,483.92,261.53,484.34Z"/><path class="cls-1" d="M473.56,370.82c.19,2.3.42,4.59.53,6.88s-1.14,3-3.33,2.4a23,23,0,0,0-4.66-1,3,3,0,0,0-2.31,1.11c-.26.37.29,1.6.79,2.16,2.21,2.5,4.94,2.12,7.67,1.06,1.69-.66,3.31-1.51,5-2.23a3.14,3.14,0,0,1,1.11,0,3,3,0,0,1-.5.95c-2.78,2.18-5.68,4.12-9.4,4.22-2.31.06-4.6.75-6.68-1.32-1.71-1.7-3-3.92-2.49-5.78s2.5-2.94,5.18-2.88c6.57.13,6.62.13,6.65-6.62,0-2.87-.2-5.74-.37-8.61,0-.68.1-2.25-1.09-.46-.27-.19-.76-.35-.79-.57-.32-2.82-.69-5.64-.8-8.47,0-.87.7-1.78,1.08-2.67.64.62,1.66,1.14,1.84,1.87a100.71,100.71,0,0,1,2.16,10.47c.45,3.15.48,6.36.69,9.54Z"/><path class="cls-1" d="M417.24,445c-.22,2.47-.3,4.15-.54,5.81-.29,2,.62,2.49,2.43,2.37,3.08-.2,6.17-.26,9.25-.37a3,3,0,0,1,1.19.15c.8.34,1.56.77,2.34,1.17a9.27,9.27,0,0,1-2.48,1.38c-3.47.69-7,1.18-10.47,1.81-1.5.27-2.62,2.64-2.67,4.84s-.37,4.36-.54,6.54c-.09,1.1-.18,2.21-1.74,1.9a2.15,2.15,0,0,1-2-2.69c.31-2.05.52-4.11.77-6.17.05-.39.31-.91.14-1.16-2.7-4.13.59-8,.5-12-.05-2.14-.25-4.27-.22-6.41a4.22,4.22,0,0,1,.75-2.53c1-1.22,2.22-.85,2.55.72C416.88,442.15,417.08,444,417.24,445Z"/><path class="cls-1" d="M228.28,377.14c-4.28-.47-7.22-4.33-6-8.25,1-3.15,2.61-5.81,6.24-6.61a2.24,2.24,0,0,0,1.25-1.8c-.46-5-1.16-10-1.63-14.94a15.25,15.25,0,0,1,.55-3.67c.67,1.06,1.77,2.05,1.93,3.17.91,6.3,1.48,12.65,2.43,18.95.32,2.1,1.8,4.05,2,6.14a5.81,5.81,0,0,1-1.71,4.23C232,375.64,230,376.25,228.28,377.14Zm2.06-7.76.42-.11a12.85,12.85,0,0,0-1.13-2.91c-.23-.33-1.42-.36-1.94-.08-2.2,1.16-2.81,5.3-.88,6.8.76.59,2.21.42,3.32.32.2,0,.35-1.39.39-2.14A11,11,0,0,0,230.34,369.38Z"/><path class="cls-1" d="M197,464.08c0,2.81.06,5.63-.05,8.44,0,.69-.63,1.35-1,2-.78-.44-1.94-.69-2.27-1.35a18,18,0,0,1-1.63-4.95c-.67-3.85-1.13-7.73-1.64-11.6a3.34,3.34,0,0,1,.18-1.63c.15-.37.61-.63.94-.93.28.34.72.65.81,1,.39,1.63.67,3.28,1,4.92a9.58,9.58,0,0,0,.45,1.27c.19-.39.4-.77.55-1.17.58-1.48,1.11-3,1.71-4.44.83-2,2.36-1.85,4-1.13,2.77,1.24,4,3.76,5.13,6.35,1.24,2.85,2.39,5.74,3.7,8.56.32.69,1.12,1.16,1.7,1.72l1.69,1.6c-1,.53-2,1.52-2.95,1.45a3.76,3.76,0,0,1-2.44-2c-1.5-3.15-2.69-6.43-4.1-9.62a16.12,16.12,0,0,0-2.15-3.68c-1.36-1.67-2.86-1.29-3.43.85a37.07,37.07,0,0,0-.67,4.24Z"/><path class="cls-1" d="M220.58,445l3.75,17.71c.07.3.32.61.29.89-.1,1.06-.29,2.11-.44,3.17-1-.34-1.9-.65-2.83-1-.35-.15-.63-.7-.94-.69-1.16,0-2.31.2-3.47.31.54.93.86,2.15,1.65,2.73,2.8,2.09,5.68,1.31,8.54-.09a5.84,5.84,0,0,1,2-.19c-.4.59-.66,1.42-1.21,1.73a45.4,45.4,0,0,1-5.57,2.7c-3.11,1.24-7.81-.49-9.42-3.33-1.41-2.47,1.35-7.56,4.22-7.82,3.17-.28,3.2-.38,2.74-3.45-.62-4.26-1.15-8.53-1.69-12.8a3.42,3.42,0,0,1,.12-1.89A11.23,11.23,0,0,1,220,441a13.69,13.69,0,0,1,1.26,2.23,4.13,4.13,0,0,1-.12,1.65Z"/><path class="cls-1" d="M168.22,459.68a37.81,37.81,0,0,1,1.51-5.94c1.1-2.66,3.68-3.6,6.28-4.21a3.17,3.17,0,0,1,2,.48c.51.3.8.95,1.2,1.44a13.5,13.5,0,0,1-1.62.46c-2.34.37-5.13,2.5-5.47,4.43-.49,2.82-1.13,5.64,1.77,7.84,1.59,1.2,2.73.71,3.21-.67a13,13,0,0,0,.27-4.6c-.06-1.4-.46-2.8-.48-4.21,0-.47.68-1,1-1.44.44.4,1.09.71,1.29,1.21,1.11,2.8,1.88,5.77,3.24,8.43,1.19,2.33,3,4.34,4.54,6.5.4.57.73,1.2,1.1,1.8-.82.05-1.94.46-2.39.07a28.51,28.51,0,0,1-5-5c-1.15-1.61-1.87-1.39-2.86-.14s-1.19,3.41-3.75,2.88c-2.78-.58-4.1-2.62-5.15-4.83C168.44,463,168.5,461.44,168.22,459.68Z"/><path class="cls-1" d="M418.82,406.88c.4,4.09.76,8.18,1.24,12.25.07.62.72,1.15,1,1.76a16.27,16.27,0,0,1,.67,1.54c-.57.12-1.19.45-1.69.32-2.26-.59-3.1-2.5-3.84-4.45a11.44,11.44,0,0,1-.26-1.16c-.19-.76-.39-1.52-.58-2.28-.48.51-.94,1-1.44,1.51-2.16,2.08-6.21,1.16-8-1.81-2.12-3.6-.41-10.56,3.11-12.66,2-1.22,4.13-.9,5,.79.47.94.82,1.65-.84,1.9-4,.61-5.34,2.76-4.31,6.58.22.82,1,2,1.57,2.08a3.5,3.5,0,0,0,2.88-1.05,44.26,44.26,0,0,0,2.66-6c.06-.14,0-.33.06-.47.53-1.38,1.08-2.76,1.63-4.14,2.09.91,1.5,2.89,1.76,4.51a3,3,0,0,1-.06.72Z"/><path class="cls-1" d="M311.16,447.67c.85,1,1.41,1.43,1.58,2,.47,1.42.67,2.93,1.16,4.34a14.45,14.45,0,0,0,1.84,4,2.8,2.8,0,0,0,2.59.71c2.45-1.09,4.13.17,5.81,1.51a32.63,32.63,0,0,1,2.7,2.69c1.08,1.11,1.85,1,2.35-.53,1.05-3.26,2-6.54,3.27-9.72a9,9,0,0,1,2.45-3.33c.35-.32,1.51.25,2.31.41-.32.59-.64,1.18-1,1.77A22.64,22.64,0,0,0,334.5,455c-1.31,4.24-2.13,8.61-4.91,12.33-1.23,1.64-2.09,1.81-3.32.43s-2.4-2.94-3.57-4.44-2.24-1.71-3.84-.49c-2.11,1.62-4.09,1.29-5.5-1a18.73,18.73,0,0,1-1.94-4.81,29,29,0,0,1-1.1-5.59C310.23,450.42,310.77,449.32,311.16,447.67Z"/><path class="cls-1" d="M132,362.42c.28-.45.69-1.81,1.27-1.89,1.52-.2,1.46,1.07,1.8,2.33a27.24,27.24,0,0,0,3,6.45c.7,1.18,1.55,1.11,2-.44a12.09,12.09,0,0,1,1.52-2.51c.69.58,1.4,1.15,2.07,1.76.3.26.5.63.79.9.75.71,1.52,1.41,2.29,2.11.74-1,1.83-1.83,2.16-2.92,1.17-3.8,2-7.72,3.13-11.52a22.61,22.61,0,0,1,2.31-4.18,40.75,40.75,0,0,1-.38,4.42c-.78,4.15-1.51,8.32-2.62,12.39a11,11,0,0,1-2.93,5.19c-1.72,1.53-3.2.88-4.41-1.17-.8-1.34-1.35-2.51-2.8-.33-1,1.55-4,1.26-5.29-.47A18.7,18.7,0,0,1,132,362.42Z"/><path class="cls-1" d="M304.83,419.59c-1.68-.35-4.35-.49-6.61-1.54a5.52,5.52,0,0,1-2.77-4.06c.12-6.88,2.57-12.89,8.09-17.34a2.88,2.88,0,0,1,1.92-.76,10.47,10.47,0,0,1,2.54,1.2c-.62.56-1.28,1.07-1.86,1.66a37,37,0,0,0-4.64,4.92,22,22,0,0,0-2.39,5.71c-1.09,3.47.9,6.79,5.58,6.56,3.73-.18,7.42-.08,10.82-2,.3-.16.84.11,1.27.17-.25.7-.29,1.67-.78,2C313,418.46,309.44,419.29,304.83,419.59Z"/><path class="cls-1" d="M308.68,457.84c-1,2.76-1.76,5.59-3,8.23-.68,1.49-2.14,1.95-3.86,1.09-1.21-.61-2.79-.61-3.81-1.4a9.36,9.36,0,0,1-3.14-3.84c-1.23-3.48-.86-6.93,1.87-9.74,1.77-1.82,4-2.9,6.47-2,2.74,1,4.19,3.3,4.89,6.05a6.19,6.19,0,0,1,0,1.43Zm-3.37.9c0-2.88-1.86-5.85-3.33-6.07-1.83-.28-3.31.93-4.1,3.92a14.39,14.39,0,0,0,.05,4.34c0,.21.43.4.66.6.18-.23.37-.44.53-.68.48-.7.95-1.41,1.42-2.11.38.79.77,1.58,1.13,2.38a8.83,8.83,0,0,0,.23.92,14.41,14.41,0,0,0,.85,1.34c.49-.34,1.24-.56,1.43-1A34.38,34.38,0,0,0,305.31,458.74Z"/><path class="cls-1" d="M270.85,420.18c-3.3.67-5.08-1.93-6.75-4.13-.67-.89-.54-3.05.1-4.11a24.22,24.22,0,0,1,5-6,13.57,13.57,0,0,1,5.37-2.2c.63-.16,1.82.64,2.22,1.31a2.42,2.42,0,0,1-.6,2.2c-2.47,2.16-5.1,4.13-7.59,6.27a1.67,1.67,0,0,0,0,1.64c1.29,1.71,4.87,2.62,6.94,1.79s3.84-1.79,5.82-2.55c.54-.2,1.3.15,2,.25-.16.46-.2,1.21-.5,1.34q-4.87,2.17-9.84,4.16A6.59,6.59,0,0,1,270.85,420.18Z"/><path class="cls-1" d="M416.66,371.15c2.1.87,2.27-.18,2.62-1.52a19.37,19.37,0,0,1,2.13-5.22c1-1.54,6.07-1.55,7.6-.27s1.69,4.95-.14,6.69a45.27,45.27,0,0,1-4.62,3.29c-.81.6-2.19,1.44-2.11,2a5.74,5.74,0,0,0,1.92,2.76c.46.44,1.37.36,2,.66a9.64,9.64,0,0,1,1.58,1.15c-.52.42-1,1.06-1.56,1.22a5.67,5.67,0,0,1-7.08-4.66c-.23-1.52-.62-2.56-2.34-2.71a2.49,2.49,0,0,1-1.47-.75,3,3,0,0,1-.65-1.56A12.22,12.22,0,0,1,416.66,371.15Zm9.88-5.08c-1,.22-1.83.15-2.05.48a25.19,25.19,0,0,0-2.16,4c-.13.31.39.9.61,1.36a25,25,0,0,0,2.9-2.29,5.24,5.24,0,0,0,1.19-2.23C427.14,367,426.7,366.46,426.54,366.07Z"/><path class="cls-1" d="M236,413a44.94,44.94,0,0,1,2.07-6.31c1.43-2.84,4.69-2.78,6.16,0,.7,1.36.89,1.71,2.1.3,1.36-1.59,3.08-.78,4,.68,1.31,2.06,2.17,4.4,3.4,6.51a14.67,14.67,0,0,0,2.41,2.65,16.15,16.15,0,0,0,1.35,1.13c-.61.43-1.23,1.24-1.83,1.22A5.14,5.14,0,0,1,251,416c-.73-1.59-1.36-3.22-2.08-4.81-.14-.31-.49-.52-.75-.77a4.92,4.92,0,0,0-.46,1c-.19,1-.24,2.07-.51,3.06-.17.61-.68,1.65-1,1.62a2.64,2.64,0,0,1-1.93-1,30.91,30.91,0,0,1-1.51-4.21,13.44,13.44,0,0,0-.64-1.78c-.15-.3-.55-.48-.83-.71a4,4,0,0,0-.48.78c-.43,1.35-.85,2.72-1.25,4.08-.23.82.13,2.31-1.44,1.74C237.3,414.66,236.69,413.69,236,413Z"/><path class="cls-1" d="M293.59,368.42c0,1.34,0,2.69,0,4,0,1.1-.25,2.58,1.74,1.54.13-.07.84.68.83.69-.85,1.1-1.58,2.54-2.72,3.06-.51.23-1.87-1.38-2.82-2.19a1,1,0,0,1-.23-.67c-.09-2-1.14-1.91-2.55-1.2-2.68,1.35-5.37,1.73-7.68-.65a4.67,4.67,0,0,1-1.42-2.81c-.06-3.14,4.18-7.82,7.26-8.13.71-.07,1.48.52,2.22.8a14.58,14.58,0,0,1-1.35,1.66c-1.31,1.21-2.95,2.17-3.92,3.6-1.07,1.58.19,3.34,1.93,2.68,2.05-.77,3.78-2.38,5.65-3.62l2.36-1.57,1.28,2.64Z"/><path class="cls-1" d="M340.34,362c-.52,3.22-1.2,6.31-4.89,7.58-1.18.41-.59,2.84,1,3.88.79.52,1.73.8,2.52,1.31.33.2.46.72.68,1.09-.38.22-.78.66-1.15.64-3.48-.18-6.82-1.33-7.7-5.66a13.78,13.78,0,0,1,2.87-11.52c1.12-1.48,2.58-2.39,4.53-1.71C340.28,358.35,340.34,360.13,340.34,362Zm-2.63.44-.93-1.53c-.74,1.07-1.53,2.11-2.16,3.24-.13.24.33.8.51,1.22Z"/><path class="cls-1" d="M387.91,384.52c-.52-.42-1.2-.7-1.34-1.15-.21-.65-.32-1.69.05-2.09a25.3,25.3,0,0,1,3.62-3c.83-.61,1.81-1,2.66-1.58a8.05,8.05,0,0,0,1.21-1.26c-.48-.25-.95-.54-1.45-.75-4.08-1.72-5.69-5.14-4.37-9.3.61-1.91,3.48-4.19,5.4-4.16a4.53,4.53,0,0,1,1.48.6,5,5,0,0,1-.59,1.31,18.88,18.88,0,0,1-1.71,1.63c-2.32,2.17-2.16,4.55.52,6.33.91.6,2.08.82,3,1.42s2.31,1.45,2.28,2.14a6,6,0,0,1-1.68,3.58,12.9,12.9,0,0,1-3.5,2c-1.6.84-3.47,1.29-4.09,3.37C389.29,383.94,388.56,384.13,387.91,384.52Z"/><path class="cls-1" d="M362.15,403.75c-.49,3.83-.19,3.95,3.67,2.83,2-.59,3.93-1.67,5.92-2.45a3.27,3.27,0,0,1,1.33.11,4.42,4.42,0,0,1-.72,1.08c-3.19,2.58-6.18,5.46-10.4,6.42-.5.12-1,1.16-1.11,1.83-.21,1.57,0,3.2-.27,4.76-.12.77-.88,1.43-1.35,2.14-.57-.72-1.54-1.4-1.63-2.18a12.92,12.92,0,0,1,.49-3.76c.32-1.77.55-3.37-1.34-4.64a1.76,1.76,0,0,1,.24-3.16c2.6-.83,1.78-2.82,2-4.43.11-.91-.48-1.89-.4-2.81,0-.66.69-1.26,1.06-1.89.58.41,1.51.72,1.67,1.25A42.22,42.22,0,0,1,362.15,403.75Z"/><path class="cls-1" d="M325.47,402.62a56.19,56.19,0,0,0,1.18,5.8,3.49,3.49,0,0,0,3.72,2.76,3.84,3.84,0,0,0,3.6-3c.59-1.73,1-3.51,1.57-5.25.09-.3.44-.52.67-.78a3.47,3.47,0,0,1,.39.95c.36,3.69.3,7.38-2.2,10.37a7.35,7.35,0,0,1-3.8,2.09c-2.14.5-6.67-2.18-7.09-4.31-.71-3.56-1-7.2-1.39-10.81a3.9,3.9,0,0,1,.82-2.17,1.7,1.7,0,0,1,1.3-.73,1.63,1.63,0,0,1,1,1.06c.3,1.29.42,2.61.62,3.92Z"/><path class="cls-1" d="M193.85,375.7a3.06,3.06,0,0,1-3.65-2.57c-.39-1.67-1-1.41-2.08-.56-3.21,2.49-5.51,2.54-8.47.5-1.93-1.34-1.7-3.29-1.14-5a16.4,16.4,0,0,1,2.73-4.21c.13-.17,1-.06,1.24.2s.12.87,0,1.3a17.49,17.49,0,0,0-.7,3.69c.1,1.81,1.33,2.31,3,1.52a6.59,6.59,0,0,0,4.08-5.18c.12-.76,1-1.41,1.46-2.12a8.8,8.8,0,0,1,1.62,2.34c.48,1.67.6,3.44.94,5.16.3,1.46.86,2.48,2.6,1.31a4.76,4.76,0,0,1,1.82-.33,6.09,6.09,0,0,1-.59,1.65C196,374.42,195.91,376.28,193.85,375.7Z"/><path class="cls-1" d="M460.66,415.68a4.29,4.29,0,0,1,0,1.19c-.23.79-.57,1.56-.86,2.33a9,9,0,0,1-1.76-2.51c-.55-2.05-.69-4.22-1.17-6.3-.15-.63-.86-1.14-1.32-1.7a6.4,6.4,0,0,0-1.13,1.67c-.73,2.5-1.26,5.06-2,7.54-.22.69-1.1,1.67-1.6,1.63s-1.43-.91-1.74-1.6a5.34,5.34,0,0,1-.21-2.56c.23-2.53.48-5.06.89-7.56.23-1.39.13-3.5,2.72-2.25.25.12.74-.18,1.08-.36,2.68-1.38,4.22-1.05,5.25,1.72s1.6,5.76,2.36,8.65Z"/><path class="cls-1" d="M354.12,450.06c.13-.29.48-1,.83-1.76.7.57,1.92,1.08,2,1.72.39,3,1.39,1.61,2.42.47,1.39-1.55,3-1.55,3.93.17a34.18,34.18,0,0,1,2.73,7,43.13,43.13,0,0,1,1.24,6.77c.07.59-.52,1.25-.8,1.88-.49-.39-1.26-.68-1.41-1.17-.83-2.63-1.52-5.31-2.24-8a6,6,0,0,0-.22-1.16c-.37-.67-.85-1.29-1.28-1.92a8,8,0,0,0-1.27,1.81c-.49,1.34-.75,2.77-1.16,4.14-.51,1.73-1.41,2-2.67.72a4,4,0,0,1-1-2.05C354.78,456,354.51,453.33,354.12,450.06Z"/><path class="cls-1" d="M139.49,406.49c-.54-2.3-1.14-4.59-1.6-6.9a7.58,7.58,0,0,1,.23-2.14c.64.46,1.49.79,1.87,1.41a16.52,16.52,0,0,1,.88,2.71c.34.9.39,2.11,2,1.66.48-.13,1.37.65,1.84,1.2,1,1.23,1.23.62,1.89-.41,1-1.5,2.44-3.91,3.55-3.83,2.24.17,2.59,2.84,3,4.83a28.35,28.35,0,0,1,.66,5.19c0,.62-.67,1.26-1,1.88-.52-.48-1.37-.89-1.52-1.48-.42-1.68-.56-3.44-.83-5.17a4.78,4.78,0,0,0-.33-.83c-.3.2-.74.33-.86.61a25.66,25.66,0,0,1-1,2.67,23,23,0,0,1-2.11,2.64l-1.86-2.35c-.28-.35-.49-.81-.84-1-.14-.09-.72.28-.89.56-.67,1.07-1.21,2.63-2.76,1.75-.64-.37-.65-1.85-.94-2.82Z"/><path class="cls-1" d="M434,413.66l-1.29-.22c-3.64-.74-3.67-.74-4,3.05-.12,1.51.05,3-.08,4.54a7.86,7.86,0,0,1-.81,2.08c-.47-.62-1.23-1.2-1.34-1.88-.31-2-.23-4-.54-6a46.22,46.22,0,0,0-1.31-4.7c-.11-.43-.32-1.08-.12-1.29,2-2.2.56-4.76.88-7.11a7.77,7.77,0,0,1,1.35-2.41,12.81,12.81,0,0,1,1.5,2,6.74,6.74,0,0,1,.26,1.89c.64,4.48,2.48,6.27,7,6.91a8.23,8.23,0,0,1,1.55.56,7.52,7.52,0,0,1-1.15,1.35A18.63,18.63,0,0,1,434,413.66Z"/><path class="cls-1" d="M212.09,347.17c.29,6.95.58,14.12.92,21.29,0,.58.5,1.14.56,1.73a9.19,9.19,0,0,1-.07,2.87c-.06.29-1.31.68-1.55.48-.72-.62-1.66-1.48-1.7-2.28-.24-4.77-.24-9.56-.34-14.33-.11-5.1-.27-10.2-.34-15.3,0-1.42-.66-3.11,1.25-3.94a19.62,19.62,0,0,1,1.22,3.76A51.42,51.42,0,0,1,212.09,347.17Z"/><path class="cls-1" d="M391.69,409.72q.88,2.34,1.76,4.68c.86-1.3,1.81-2.56,2.56-3.92,2.14-3.86,3-8.43,6.46-11.57a10.27,10.27,0,0,1,1.19-1.1c.18-.11.57.13.86.21a2.83,2.83,0,0,1-.21.6,31.73,31.73,0,0,0-2.64,4.37c-1.3,3.19-2.23,6.53-3.51,9.73a40,40,0,0,1-3.12,6.12,1.9,1.9,0,0,1-3.25.31,8.68,8.68,0,0,1-2.05-4.09,73.34,73.34,0,0,1-.27-9.5c0-.59.74-1.18,1.14-1.77.37.5.93,1,1.06,1.52.32,1.38.45,2.81.65,4.22Z"/><path class="cls-1" d="M160.24,367.06c.11-3.29,3.3-6,7-5.87,3,.08,5.66,2.65,5.51,5.42-.17,3.15-3.81,7.14-6.34,7.13S159.42,370,160.24,367.06Zm5.52,2.58c2.39.06,3.93-1.34,3.91-3.36,0-1.35-.55-2.27-2.12-2.26-2.45,0-4,1.34-4.07,3.61C163.46,369.36,164.22,370.2,165.76,369.64Z"/><path class="cls-1" d="M402,370.12c.13-6.45,4.18-9.59,9.16-7.52,2.11.87,2.52,2.26,1,3.92a18.57,18.57,0,0,1-3.27,2.63c-1.42,1-2.89,1.76-2.35,3.9a2.78,2.78,0,0,1-.2,1.4c-.24.78-.57,1.53-.86,2.29-.89-.7-1.8-1.38-2.65-2.13-.18-.16-.12-.61-.17-.92C402.41,372.36,402.17,371,402,370.12Z"/><path class="cls-1" d="M350.73,396.67c0,4,0,8.44,0,12.9,0,.77.46,1.55.42,2.32-.05,1-.17,2.57-.65,2.73-1.35.46-2.27-.6-2.39-1.94-.24-2.94-.41-5.88-.48-8.83-.14-6-.24-11.92-.21-17.88,0-.75.83-1.49,1.28-2.24.47.58,1.28,1.13,1.34,1.74C350.37,389,350.51,392.6,350.73,396.67Z"/><path class="cls-1" d="M211,402.81a9.75,9.75,0,0,1,.35-3.23c.31-.7,1.5-1,2.29-1.48a8.3,8.3,0,0,1,.63,2.35c-.06,2.5-.53,5-.39,7.49s1.55,3,3.84,2.26a4.77,4.77,0,0,1,1.51,0,4.7,4.7,0,0,1-.74,1.56c-.36.35-1.06.32-1.52.59-2.55,1.49-2.66,2.29-.77,4.8.19.25.5.48.55.76a14.17,14.17,0,0,1,.07,1.85c-.78-.09-2,.12-2.27-.31a10.66,10.66,0,0,1-2.25-4.41,6.49,6.49,0,0,0-2.95-4.59,5.58,5.58,0,0,1-1.54-2.44,1.18,1.18,0,0,1,1.5-1.68c2.49.86,1.88-.78,1.86-2C211.11,403.91,211,403.51,211,402.81Z"/><path class="cls-1" d="M284.86,451.74a19.27,19.27,0,0,1,3,.59c.36.12.51.82.76,1.26-.54.19-1.15.65-1.61.53-2.92-.75-4.86.33-5.27,3.4a37.54,37.54,0,0,0,0,5.71c0,2.1.19,4.2.13,6.3,0,.3-1.18.92-1.37.78-.89-.65-2.15-1.42-2.33-2.33-.77-3.9-1.21-8,.34-11.72C279.53,453.73,281.36,451.4,284.86,451.74Z"/><path class="cls-1" d="M264.19,370.81c.24-1.41.49-3.22.89-5,.1-.45.68-.79,1-1.18.23.45.48.89.69,1.36s.39,1,.58,1.45a7.5,7.5,0,0,0,.95-1.25c.6-1.29,1-2.69,1.69-3.92,1.25-2.25,3.71-2.53,5.05-.68.65.9.87,1.65-.67,1.62-2.14-.05-3.22.74-3.63,3.07a56.65,56.65,0,0,1-2.64,9.16c-.31.86-1.44,1.43-2.2,2.13a11.63,11.63,0,0,1-1.68-2.8A17.49,17.49,0,0,1,264.19,370.81Z"/><path class="cls-1" d="M359.52,363.92a50.4,50.4,0,0,0-5,1.74c-1.61.75-2.3,2-2.31,4a20.08,20.08,0,0,1-1.35,5.92,2,2,0,0,1-1.67.94,2.35,2.35,0,0,1-1.43-1.4c-.85-2.31,2.2-10.68,4.13-12.18,2.51-1.95,5.22-.83,7.82-.67a18.18,18.18,0,0,1,4.17,1.28l-4.12,1.06Z"/><path class="cls-1" d="M434.74,377.72c-.05-2.59.9-3.5,3.7-3.89a4.21,4.21,0,0,0,1.72-1.15c1.37-1.17,2.56-1.54,3.57.46,1.28,2.54,2.72,5,3.92,7.58.24.52-.16,1.87-.56,2a2.39,2.39,0,0,1-2.21-.47,24.86,24.86,0,0,1-1.62-3.89c-.88-2.11-1.41-2.21-3-.57-.54.56-.87,1.35-1.45,1.86s-1.83,1.61-2.26,1.4c-.81-.4-1.28-1.53-1.82-2.4C434.62,378.43,434.74,378,434.74,377.72Z"/><path class="cls-1" d="M166.88,419.71c-1.64-.12-2.23-1.93-1.59-3.33,2.74-6,5.39-12,8.22-17.91a14.45,14.45,0,0,1,2.6-3c-.08,1.24.14,2.59-.29,3.69-2.48,6.28-5.09,12.52-7.71,18.75A9.35,9.35,0,0,1,166.88,419.71Z"/><path class="cls-1" d="M408.84,462.81c-.67.57-1.22,1.42-1.87,1.49a2.25,2.25,0,0,1-1.78-1.19c-1.38-3.09-2.63-6.24-3.8-9.42-.17-.46.34-1.17.54-1.76,1.05.46,2.61.63,3.06,1.43a49.24,49.24,0,0,1,2.53,6.38C407.88,460.67,408.3,461.57,408.84,462.81Z"/><path class="cls-1" d="M438.45,412.16a17.6,17.6,0,0,1,.36-3.68,10.45,10.45,0,0,1,1.7-2.54,12.89,12.89,0,0,1,.87,2.56c.21,1.81.12,3.67.38,5.47.19,1.36.82,2.66,1.11,4a9.14,9.14,0,0,1-.06,2.21c-.73-.05-1.84.18-2.12-.2a11.41,11.41,0,0,1-1.84-3.69A23.78,23.78,0,0,1,438.45,412.16Z"/><path class="cls-1" d="M349.76,461.71a14.07,14.07,0,0,1-1.68,2.53c-.14.14-2-.71-2.09-1.27-.56-3.42-.9-6.87-1.17-10.33,0-.46.68-1.21,1.2-1.39.34-.13,1.13.41,1.41.85a6.77,6.77,0,0,1,.59,2C348.57,456.5,349.11,458.86,349.76,461.71Z"/><path class="cls-1" d="M374.57,414.16c.31-2.9.46-5.62.94-8.27.15-.81,1.18-1.46,1.8-2.19a7.68,7.68,0,0,1,.74,2.21c0,1.51-.29,3-.32,4.53,0,2.37.11,4.75.06,7.12a5.56,5.56,0,0,1-.75,1.76c-.61-.37-1.58-.61-1.75-1.12A26.1,26.1,0,0,1,374.57,414.16Z"/><path class="cls-1" d="M227.62,406c.13,2.19.17,4.4.46,6.57.1.74,1,1.35,1.27,2.1s.52,1.84.27,2c-.62.4-2,.71-2.23.4-1-1.17-2.15-2.57-2.24-3.94a48.83,48.83,0,0,1,.53-8.52c.08-.76.77-1.45,1.19-2.18.34.79.73,1.57,1,2.38a3.64,3.64,0,0,1,0,1.19Z"/><path class="cls-1" d="M164.41,407.74c-1.78-1-3.68-1.95-5.38-3.16-.37-.26-.36-1.74,0-2.19a2.65,2.65,0,0,1,2.22-.45,3.73,3.73,0,0,1,1.93,1.33c1.24,1.56,2.57.86,4,.44a6.78,6.78,0,0,1,1.75,0c-.16.72-.09,1.77-.54,2.1A25.8,25.8,0,0,1,164.41,407.74Z"/><path class="cls-1" d="M111.05,375.27l-1.76,1.9c-.71-.7-1.72-1.27-2.08-2.12a61.25,61.25,0,0,1-2.33-7c-.15-.52.32-1.22.5-1.84.58.24,1.45.31,1.7.74,1.28,2.29,1.22,5.34,4,6.82C111.16,373.83,111.05,374.34,111.05,375.27Z"/><path class="cls-1" d="M105.41,353.92c.74.88,2,1.75,2.3,2.87.47,1.73-1.26,1.64-2.37,1.83a14.69,14.69,0,0,1-3.55.3c-.79-.07-2.06-.51-2.21-1-.27-1-.44-2.36,1.38-2.63A33.63,33.63,0,0,0,105.41,353.92Z"/><path class="cls-1" d="M378.38,394.8c1.12,1.29,1.7,1.66,1.79,2.13.32,1.65.46,3.34.68,5-.69-.05-1.81.13-2-.19a17.65,17.65,0,0,1-1.66-4.48C377.08,396.68,377.83,395.9,378.38,394.8Z"/><path class="cls-1" d="M348.5,445.42c-2.2-.41-3.72-1.26-4-3.26a2.64,2.64,0,0,1,1.17-2c.26-.18,1.26.48,1.77.94a11.31,11.31,0,0,1,1.57,2c.3.44.79,1.08.65,1.41S348.8,445.22,348.5,445.42Z"/><path class="cls-1" d="M405.15,442.84a23.39,23.39,0,0,1-2.81-3.79c-.15-.3,1.21-1.35,1.87-2.06,1,1.52,1.94,3,2.85,4.6C407.07,441.62,406.18,442.16,405.15,442.84Z"/><path class="cls-1" d="M443,402.38c-.8-.55-2.07-1-2.42-1.78a3.15,3.15,0,0,1,.76-2.77c1-1,1.62,0,2,1,.2.49.66.88.87,1.37a2.59,2.59,0,0,1,.27,1.52C444.41,402,443.72,402.06,443,402.38Z"/><path class="cls-1" d="M229.6,396.76c-.28.32-.56.85-.73.81a6.89,6.89,0,0,1-2.63-.84,2.22,2.22,0,0,1-.52-1.89,1.8,1.8,0,0,1,1.26-1.15c.4-.06,1,.55,1.32,1A18.9,18.9,0,0,1,229.6,396.76Z"/></svg>