<svg id="_1" data-name="1" xmlns="http://www.w3.org/2000/svg" viewBox="0 0 531.37 531.37"><defs><style>.cls-1{fill:#fff;}</style></defs><path class="cls-1" d="M280.19,294.66a5.76,5.76,0,0,1,3.54-5,62.24,62.24,0,0,1,6.2-2.43c.46-.16,1.09.17,1.64.28-.32.48-.53,1.15-1,1.4a41.35,41.35,0,0,1-4.31,2c-1.54.64-3,1.35-2.48,3.39a4.45,4.45,0,0,0,5.06,3.37,6.2,6.2,0,0,0,4.69-5.67,8.52,8.52,0,0,1,1.19-2.5,22.54,22.54,0,0,1,1.81,1.85,2.31,2.31,0,0,1,.42,1.33c0,4.82,2.41,8.46,5.8,11.59,1,.93,2.21,1.83-.11,2.68-.25.09-.38,1.06-.24,1.51a19.67,19.67,0,0,1,1.16,2.53,6.28,6.28,0,0,1-.49,2.32c-.84-.38-2.08-.54-2.46-1.19-2.16-3.7-4.11-7.52-6.12-11.31-1.3-2.46-1.32-2.5-3.41-.76s-4.32,2.24-6.84.94C282.24,300,280.14,296.77,280.19,294.66Z"/><path class="cls-1" d="M208.12,210.68c-.5-5.46-1-11.17-1.54-16.88a39.81,39.81,0,0,1-.19-5c0-.6.61-1.18.94-1.78.31.55.85,1.08.91,1.65.82,7.13,1.52,14.28,2.39,21.4.23,1.93,1.07,3.77,1.4,5.7a21.92,21.92,0,0,1,.06,3.89c-.75-.07-1.73.12-2.22-.27-1.16-.95-2-2.29-3.15-3.23a2.6,2.6,0,0,0-2.26-.32,2.68,2.68,0,0,0-1.41,1.9c0,.63.76,1.47,1.4,1.86,4.28,2.64,8.36,1.65,12.36-.79a5.25,5.25,0,0,1,1.63-.36,4.7,4.7,0,0,1-1,1.27c-2.64,1.62-5.15,3.86-8,4.57a8.42,8.42,0,0,1-8.21-2.84c-1.27-1.45-2.84-2.9-1.48-5.24,1.54-2.65,3.65-3.86,6.42-3.44C208,213.06,208.17,212.9,208.12,210.68Z"/><path class="cls-1" d="M106.58,155.61a54,54,0,0,1,1.77-6.25c.28-.69,1.55-1,2.36-1.45,0,.8-.07,1.61-.17,2.41-.18,1.4-.43,2.79-.61,4.19-.43,3.29-.37,6.74-1.38,9.83-1.32,4-4.07,4.21-6.68.86-.54-.69-1.17-1.31-1.75-2-1-1.15-1.9-2-2.86.15a6.68,6.68,0,0,1-2.12,2.22,2.87,2.87,0,0,1-4.4-1.22c-1.83-3.78-3.46-7.66-5.29-11.45-.83-1.72.35-2.56,1.4-3,1.57-.65,1.34,1,1.72,1.83,1.39,3.19,2.79,6.37,4.33,9.49a2.17,2.17,0,0,0,1.76.8c.42,0,1-.72,1.17-1.23,1.19-3.49,2.17-2.85,4.94-1.22a16.33,16.33,0,0,1,2.67,2.71c1.43,1.43,2.57,1.13,3-.89s.47-3.79.69-5.69Z"/><path class="cls-1" d="M233.77,300.73c.24-3.39-1.27-5.9-3.11-8.23-.17-.21-1,0-1.4.12-.24.08-.36.5-.53.77-1.81,2.95-2.38,3.07-5.33,1.13-2-1.31-2.31-3.44-.65-5.57a15.6,15.6,0,0,1,2.77-2.61c.36-.28,1-.17,1.52-.24a6,6,0,0,1-.53,1.59c-.34.51-1.22.83-1.29,1.32a6.69,6.69,0,0,0,.47,2.29c.55-.29,1.31-.44,1.6-.89,1.41-2.18,2.78-2.42,4.49-.64,4.74,4.93,5.69,11.14,3,17.42-1,2.28-3,3.25-4.85,3.89a16.49,16.49,0,0,1-13.82-1.36,10.85,10.85,0,0,1-2.92-2,2.37,2.37,0,0,1-.16-2.2c.72-1.25,1.16-.09,1.69.4,4.18,3.89,11.56,4.44,16.22,1.12A7,7,0,0,0,233.77,300.73Z"/><path class="cls-1" d="M446.2,120.5c.2.78.56,1.38.41,1.78-2.89,7.57-2.57,15.64-3.67,23.49a16.44,16.44,0,0,0,.49,4.12c1-.68,2.06-1.35,3.06-2a6,6,0,0,0,1.29-1.06c2.1-2.59,4.28-2,5.47,1.57.57,1.73.69,3.6,1.11,5.39.32,1.3.07,3.67,2.62,1.73a.61.61,0,0,1,.65,1c-.83.63-1.94,1.84-2.53,1.64a5.68,5.68,0,0,1-3-2.53c-.68-1.35-.66-3.07-.91-4.63-.34-2.22-1.42-1.93-2.7-.79s-2.41,2.32-3.7,3.39A6.81,6.81,0,0,1,442.3,155c-1.46.4-2.6,0-2.39-1.88.68-6.18,1.39-12.35,2.08-18.52.35-3.09.56-6.2,1.11-9.25a13.63,13.63,0,0,1,1.85-3.8C445.12,121.25,445.53,121.06,446.2,120.5Z"/><path class="cls-1" d="M476.36,157c4-1.19,8-2.39,11.95-3.55a8.42,8.42,0,0,1,1.52-.18,10,10,0,0,1-1,1.17c-5.63,4.94-12.1,6.05-19.19,4.09-3.63-1-6.05-3.28-6.58-7.06-.49-3.4,1.29-6,3.84-8a4.44,4.44,0,0,1,3.68-.6c.86.33,1.55,1.88,1.75,3a7.18,7.18,0,0,1-2.18,7c-1.47,1.32-.7,2.14.61,2.55,1.73.53,3.56.76,5.35,1.12Zm-6.42-9.18-1.25-1.5c-.73,1-1.46,2-2.14,3.11a3.11,3.11,0,0,0,.8.69C468.2,149.44,469,148.69,469.94,147.83Z"/><path class="cls-1" d="M363.14,158.63c-1.23-.75-2.64-1.7-4.13-2.49a2.36,2.36,0,0,0-1.88-.27c-3.72,2.19-7,.88-7.75-3.33a48.24,48.24,0,0,1,.65-18.77,4.13,4.13,0,0,1,1.31-2.09,1.85,1.85,0,0,1,1.74,0c.29.21.26,1.13.12,1.65a38.58,38.58,0,0,0-.42,18,2.66,2.66,0,0,0,1.71,1.76c.61.09,1.55-.66,2-1.29.67-.86,1-2,1.6-2.92.25-.41.79-1,1.15-.92a1.8,1.8,0,0,1,1.19,1,20.93,20.93,0,0,1,.92,3.23c.66,2.82,2,3.83,4.89,3.65a7,7,0,0,1,1.85.41,5.73,5.73,0,0,1-1.32,1.21C365.8,157.87,364.71,158.13,363.14,158.63Z"/><path class="cls-1" d="M432,142c.23,2.46.44,4.92.71,7.37a6.59,6.59,0,0,0,.51,1.45,9.47,9.47,0,0,1,1.18-.71c.72-.31,2-.93,2.11-.75a10.88,10.88,0,0,1,1.61,3.3,12.9,12.9,0,0,1-2.18,1.13,12.5,12.5,0,0,0-1.78,1c-1.95,1.45-3.4,1-3.69-1.39-.5-4-.78-8.08-1-12.13-.13-2.15-.13-4.08-2.91-4.7-1.34-.3-1.22-2.19.42-2.82s1.5-1.61,1.42-2.92c-.17-2.6-.26-5.21-.21-7.81,0-.71.68-1.41,1.05-2.12.39.61,1.05,1.19,1.13,1.84.39,3.24.66,6.49.89,9.74.12,1.6.85,2.18,2.43,2.27a32.21,32.21,0,0,1,5.42.87c.59.14,1.05.8,1.58,1.22a7.31,7.31,0,0,1-1.89.79,16.11,16.11,0,0,1-3.33,0c-3.57-.32-3.57-.34-3.38,3.11,0,.4,0,.8,0,1.2Z"/><path class="cls-1" d="M451.59,204.34c-.5-2.12-1-4.24-1.49-6.38a2.54,2.54,0,0,1,.24-1.53,29.46,29.46,0,0,1,1.86-2.92,6.41,6.41,0,0,1,1-.93,4,4,0,0,1,.54,1.17c.4,4.35,2.58,5.58,6.14,3.19,1.66-1.12,1.61.52,2.29,1a13.54,13.54,0,0,1,1.24,1c.13-.5.27-1,.38-1.5a4.69,4.69,0,0,1,.09-.94c.54-1.19,1.13-2.36,1.71-3.53a24.43,24.43,0,0,1,.57,3.35c.13,3.66.66,4,4.06,2.54a15,15,0,0,1,3-.65,21.61,21.61,0,0,1-2.15,2.13,16.76,16.76,0,0,1-2.51,1.35c-1.93,1-2.89,2.4-2.27,4.67a3.85,3.85,0,0,1-.12,2.07c-.13.39-.75.91-1.1.87a1.69,1.69,0,0,1-1.19-.94,8,8,0,0,1-.27-2.36c0-1.51-.25-2.83-2.08-3.25a1.78,1.78,0,0,1-1.21-1.06c-.37-2.1-1.35-1.63-2.58-.8a2.62,2.62,0,0,1-1.55.53c-2.41-.26-2.88.9-2.47,3a17.11,17.11,0,0,1,.39,4c0,.58-.74,1.14-1.14,1.7-.55-.54-1.44-1-1.58-1.64a23.57,23.57,0,0,1-.25-4Z"/><path class="cls-1" d="M355.12,259.47c-4.42.16-6.93-3-6.19-7.34.69-4-.37-8.39-.68-12.61-.17-2.37-.45-4.73-.54-7.1,0-.57.48-1.16.73-1.74.39.55,1,1,1.11,1.64.63,4.41,1.15,8.84,1.72,13.26a7.5,7.5,0,0,0,.34,2.1,1.43,1.43,0,0,0,1.34.37c2.74-2.15,3.82-2.25,5.9.52a14.15,14.15,0,0,1,3,6.23C362.16,257.39,358.75,259.45,355.12,259.47Zm.85-2.73c1-.89,2.59-1.74,3.09-3,.61-1.58-.57-3.1-2.21-3.68a3.52,3.52,0,0,0-2.29.56c-.17.09-.12,1.11.13,1.5.87,1.31.19,1.64-.95,1.94a1.82,1.82,0,0,0-1.05,1c-.07.18.48.75.86.94A15.91,15.91,0,0,0,356,256.74Z"/><path class="cls-1" d="M345.24,196c.29-2.85.56-5.71.91-8.57a4,4,0,0,1,.69-2.21A7.81,7.81,0,0,1,349.2,184a7.48,7.48,0,0,1,0,2.46,26.73,26.73,0,0,0-.32,17.33,4.64,4.64,0,0,0,2.21,2,18.57,18.57,0,0,0,3.61-3.8c.46-.69,0-2,.32-2.8a8.55,8.55,0,0,1,1.76-2.09c.48.66,1.29,1.28,1.37,2a16.77,16.77,0,0,1-.27,3.79c-.33,2.59.73,3.94,3.31,4.26a9.07,9.07,0,0,1,1.56.49c-.48.61-.87,1.61-1.47,1.76-1.65.4-3.41,1-5-.46-1-.92-1.85-1.22-3.22,0-2.54,2.22-6.55.52-7.1-2.95-.53-3.27-.69-6.61-1-9.92Z"/><path class="cls-1" d="M247.81,147.83c-.49,1.11-.89,2.06-1.35,3-3.31,6.78-6.61,13.57-10,20.29-.31.61-1.43.81-2.17,1.21-.14-1-.68-2.2-.33-3a52.21,52.21,0,0,1,3.61-6.71c.77-1.26.35-1.59-.84-1.93a9.74,9.74,0,0,1-6.48-5.57c-1.29-2.82-2.63-5.62-3.89-8.46a4.48,4.48,0,0,1-.47-2.07,6,6,0,0,1,.81-1.8c.6.39,1.48.65,1.75,1.2,1.34,2.7,2.32,5.6,3.82,8.2a25.16,25.16,0,0,0,4.45,5.48c1.79,1.69,2.62,1.37,3.78-.89,1.23-2.41,2.4-4.84,3.66-7.24a9.49,9.49,0,0,1,1.66-2.31,1.83,1.83,0,0,1,1.46-.18C247.51,147.09,247.67,147.61,247.81,147.83Z"/><path class="cls-1" d="M392.73,143.76l1.67.88c-.54.3-1.07.64-1.63.9-3.11,1.43-5.68,3.35-5.88,7.13,0,.76.28,2.06.74,2.22.84.29,2.33.29,2.81-.25a72.42,72.42,0,0,0,4.35-5.87c.74-1,1.53-2,2.3-3a35.5,35.5,0,0,1,1.13,4c.18,1.09-.15,2.26.06,3.34.38,2,1.59,2.38,3.23,1.27a4.45,4.45,0,0,1,1.05-.34c.05.37.27.85.12,1.1-.66,1.09-1.21,2.61-2.21,3.06-1.8.8-3.52-.21-4.45-1.87s-1.63-1.35-2.75-.13a7,7,0,0,1-3.06,2.11c-4.52,1.23-6.89-1.05-6.37-5.9C384.29,148.19,388.56,143.85,392.73,143.76Z"/><path class="cls-1" d="M117.44,190c.91,6.91,1.8,13.83,2.77,20.74a7.36,7.36,0,0,0,1.05,2.07,12.75,12.75,0,0,0,1.9-1.58c2-2.46,3.49-2.63,4.86.13a50.8,50.8,0,0,1,3.2,9.4c.24.92,2.05,2.51-.18,3.09-1.93.5-1.62-1.52-2-2.6-.69-2.19-1.17-4.46-1.89-6.64-.44-1.33-1.19-2.18-2.42-.49a14.29,14.29,0,0,1-2,2.08c-1.92,1.73-4,1.16-4.38-1.34-.85-5.17-1.57-10.36-2.23-15.56-.34-2.75-.45-5.53-.65-8.31a2.75,2.75,0,0,1,.09-1.41,15.46,15.46,0,0,1,1.5-1.86l1.31,2Z"/><path class="cls-1" d="M180.44,204.65a12.75,12.75,0,0,0-.61,1.35c-1,3.17-2,6.34-2.89,9.52a43.11,43.11,0,0,1-1.6,5.69,4,4,0,0,1-2.66,2.22c-.91,0-2.08-1.08-2.81-2-1.25-1.52-2.13-3.34-3.36-4.87s-2.84-1.51-3.72.36c-.69,1.47-1.89,2-3,1.55a4.61,4.61,0,0,1-2.41-2.52,48.09,48.09,0,0,1-1.71-7.42c-.12-.68.43-1.48.67-2.22.54.44,1.35.77,1.58,1.34.71,1.75,1.22,3.58,1.77,5.4.5,1.66,1.41,1.95,2.85,1,2.54-1.67,3.9-1.55,6,.63,1,1,1.78,2.22,2.7,3.31a14.64,14.64,0,0,0,1.28,1.21,7.28,7.28,0,0,0,1.14-1.67c1-2.9,1.84-5.87,2.92-8.74a29.45,29.45,0,0,1,2.35-4.39,1.36,1.36,0,0,1,1-.47C180,204,180.22,204.38,180.44,204.65Z"/><path class="cls-1" d="M182.29,154.39c0-.16-.08-.35,0-.48.53-1.12,1-3.1,1.63-3.18,1.93-.22,2,1.67,2.07,3.07.17,2.53.31,4.89,3.46,5.69,1.45.36.86,1.55-.1,1.67a7.66,7.66,0,0,1-4.09-.45,3.26,3.26,0,0,0-3.3.14c-1.19.61-2.5,1-3.68,1.63-2.46,1.3-4.54.6-6.22-1.27-1.87-2.08-1.67-4.63-.74-7,1.14-2.95,5.8-5.75,8.61-5.36a4.28,4.28,0,0,1,1.3.65,4.31,4.31,0,0,1-.86,1c-1.16.7-2.4,1.27-3.57,2-2,1.16-3.16,3.35-2.5,4.88.76,1.8,2.24,2.27,4.13,1.93,2.64-.48,3.94-1.77,4-4.18A4.2,4.2,0,0,0,182.29,154.39Z"/><path class="cls-1" d="M427.23,201.82c.33-1.33.64-3,1.19-4.54a1.45,1.45,0,0,1,2.87.25,8.82,8.82,0,0,1-.19,3.51c-.54,1.84-.29,3.11,1.69,3.73a3,3,0,0,0,4.14-2.08c.54-1.82.74-3.73,1.32-5.54a9.18,9.18,0,0,1,1.63-2.29,13.39,13.39,0,0,1,1,2.42c.54,2.87.73,5.84,1.52,8.64.73,2.56,2.16,3,4.71,2.24a3.5,3.5,0,0,1,1.07,0c-.13.41-.14.92-.4,1.21-2.5,2.78-6.5,1.68-7.86-2.13-.14-.37-.11-.82-.28-1.16a14.81,14.81,0,0,0-1-1.51,5.92,5.92,0,0,0-1.15,1.44c-1.22,3.31-4.19,4.34-7,2.28A8.16,8.16,0,0,1,427.23,201.82Z"/><path class="cls-1" d="M414.82,213.44c-3.11.29-6.05-3.93-7-7.47a67.09,67.09,0,0,1-1.51-7.49c-.62-4,4.68-9.25,8.54-8.4,1,.21,1.74,1.47,2.52,2.31.09.1-.26.9-.5,1a9.61,9.61,0,0,1-2.15.08c-2.08,0-3.27.82-4,2.93-1.23,3.71-1.5,7.35.49,10.73.74,1.25,2.59,2.69,3.81,2.59s2.8-1.7,3.75-3a41.41,41.41,0,0,0,2.79-5.28c.15-.28.58-.41.88-.61.07.35.28.74.19,1q-.87,2.73-1.87,5.42a26.72,26.72,0,0,1-1.57,3.69A4.31,4.31,0,0,1,414.82,213.44Z"/><path class="cls-1" d="M254.1,219.59c-3.12-.33-3.83-2.43-4.51-4.31a43.4,43.4,0,0,1-1.15-5.37,7,7,0,0,0-.4-1,4.74,4.74,0,0,0-1,.83,11.09,11.09,0,0,0-1.88,3c-.7,2.52-2.59,3.11-4.73,3.12-1.88,0-4.1-2.27-4.43-4.16-.59-3.36-1.23-6.73-1.72-10.11a7,7,0,0,1,.51-2.29c.48.61,1.2,1.15,1.39,1.83.81,2.91,1.23,5.95,2.24,8.78,1.13,3.18,2.59,3.34,5.14,1.09a12.8,12.8,0,0,0,3.87-6.92,4.19,4.19,0,0,1,.73-1.7c.88-1.07,1.76-1.21,2,.46.47,2.9.76,5.83,1.32,8.71a16.5,16.5,0,0,0,1.56,4.2c.21.42,1.07.59,1.67.71a5.18,5.18,0,0,0,1.51-.11,5.94,5.94,0,0,1-.56,1.4A24.13,24.13,0,0,1,254.1,219.59Z"/><path class="cls-1" d="M263.43,157.85c.7-2.93,1.13-5.28,1.87-7.53.24-.72,1.29-1.17,2-1.74a9.86,9.86,0,0,1,.35,2.38c-.16,1.66-.61,3.29-.74,4.94-.16,2.08.61,3.88,2.66,4.59s3.41-.44,4.28-2.15c.79-1.55,1.35-3.21,2.12-4.77.28-.58.84-1.35,1.33-1.39s1.27.57,1.59,1.1a14.63,14.63,0,0,1,1.5,3.47c.41,1.52.77,2.92,2.61,3.31.28.07.72.84.61,1a2.89,2.89,0,0,1-1.26,1.28c-1.8.73-3.3-.14-4.24-2.3-.19-.42-.4-.83-.6-1.25-.36.38-.86.7-1.06,1.16-1.37,3.09-4.08,4.17-7.1,4.42a4.07,4.07,0,0,1-3.13-1.32A34.48,34.48,0,0,1,263.43,157.85Z"/><path class="cls-1" d="M259.69,197.6c.36-.82.65-2.68,1.39-2.89a5.68,5.68,0,0,1,4.18.67c4.24,2.77,4.5,6.61,1.29,10.44a5.51,5.51,0,0,0-.72,3.66c.18,2.22.78,4.42,1.07,6.64.06.47-.44,1-.69,1.52-.63-.37-1.68-.61-1.83-1.12-1.28-4.26-2.43-8.55-3.53-12.86C260.38,201.82,260.13,199.93,259.69,197.6Zm2.54,2a14.84,14.84,0,0,0,2.45,1.64c.18.08,1.1-.92,1-1a26.79,26.79,0,0,0-1.88-2.4Z"/><path class="cls-1" d="M384.2,289.73a21.45,21.45,0,0,1-4.48-1.46,3.85,3.85,0,0,1-1.6-2.81c-.05-1,.8-2,1.26-3.07a9.35,9.35,0,0,1,1.82,2.21c.6,1.56,1.64,2,3.16,1.95,1.16,0,2.32.31,3.48.28a1.86,1.86,0,0,0,1.3-.9c1-1.89,1.88-3.86,2.88-5.76.26-.48.85-.79,1.28-1.18.28.45.81.91.78,1.33a8.7,8.7,0,0,1-.66,3.4c-2.66,5.09-5.48,10.09-8.21,15.14a14,14,0,0,0-1.26,2.83c-.4,1.44-1.38,1.94-2.46,1.22a2.62,2.62,0,0,1-.4-2.5c1.47-2.91,3.19-5.7,4.82-8.54C386.69,290.52,387.37,289.21,384.2,289.73Z"/><path class="cls-1" d="M239.18,272.34c.26-.29.63-1,1-1a1.75,1.75,0,0,1,1.43.88,32.13,32.13,0,0,1,.38,3.29c.74,4.65,1.52,9.28,2.31,13.92a7.78,7.78,0,0,0,.47,1.3,6.87,6.87,0,0,0,1.06-1.1c.58-.95,1-2,1.6-2.93,1.49-2.12,3.32-2.07,4.32.27a59.54,59.54,0,0,1,1.94,6.38c.35,1.14.5,2.48,1.22,3.32s1,1.6-.05,2a2.32,2.32,0,0,1-2.1-.82,56.77,56.77,0,0,1-2-5.85c-.07-.22,0-.51-.08-.71-.42-.91-.88-1.8-1.32-2.7a25.87,25.87,0,0,0-1.62,2.16,33.61,33.61,0,0,1-1.85,3.34,10,10,0,0,1-2.32,1.66c-.49-.83-1.3-1.61-1.42-2.49-.74-5.6-1.31-11.22-2-16.83A37.55,37.55,0,0,0,239.18,272.34Z"/><path class="cls-1" d="M253.64,153a4.22,4.22,0,0,0-4.63,2.64,5,5,0,0,0,.88,5.59,5.47,5.47,0,0,1,1.16,2.6c-1.54,1.09-2.41-.09-3.21-1.26-.09-.13-.23-.22-.32-.35-1.36-1.94-3.13-3.82-2-6.46,1.4-3.14,4.88-5.49,8-5a17.46,17.46,0,0,1,6.06,2.37c1.72,1,2.27,2.87,2,5-.74,5.19-7.15,9.92-12.1,8.69-.69-.17-1.23-.92-1.85-1.41.67-.14,1.33-.29,2-.42,1.06-.2,2.31-.1,3.16-.63a21.63,21.63,0,0,0,5.14-4.1c1.12-1.35,1.79-3.51.36-5.08-1.12-1.22-2.86-1.89-4.32-2.8Z"/><path class="cls-1" d="M183.89,213.59a11.85,11.85,0,0,1,5-7.81c1.42-1,3.15-1.75,4.53-.14a3.65,3.65,0,0,1-.14,5,48.85,48.85,0,0,1-4.24,4.51c-1.51,1.38-.84,2.17.63,2.37a45,45,0,0,0,5.81.14l1.05,0c0,.15,0,.4-.12.44-2.34,1-4.64,2.66-7,2.81C185.8,221.18,183.65,218.22,183.89,213.59Z"/><path class="cls-1" d="M341.28,248c.37,2.86.77,6.2,1.24,9.53.23,1.63,1,2.37,2.57,1.17a2.67,2.67,0,0,1,1.06-.21c-.18.36-.28.85-.58,1.05-.93.65-1.31,2.82-3.08,1.29a24.44,24.44,0,0,1-2.45-2.63,3.24,3.24,0,0,1-.5-1.08c-.42-1.14-.69-1.7-1.76-.29a4.37,4.37,0,0,1-6.17,1c-.64-.45-1.28-1.92-1-2.46,1.65-3.31,3.08-6.88,6.68-8.7a9.91,9.91,0,0,1,2.45-.8C341,245.57,341.83,245.9,341.28,248Zm-2.46,3.93-.57-1.91c-.43.16-1,.19-1.27.5a24.23,24.23,0,0,0-2.16,3.07c-.09.15.41.66.64,1Z"/><path class="cls-1" d="M192.82,273.36A15,15,0,0,1,194,276c1.1,4.4,2.19,8.81,3.11,13.25.36,1.73.83,2.17,2.62,1.52a3.78,3.78,0,0,1,3.19.71,36.43,36.43,0,0,1,3.81,4.55c.69.85,1.39,1.69,2.08,2.55.53.67,1.81,1.21.46,2.25-1,.79-2,.9-2.83-.36a65,65,0,0,0-4-5.33,10.59,10.59,0,0,0-2.4-1.64c-.41.88-.87,1.73-1.19,2.63s.66,2.75-1.21,2.36c-.9-.19-1.92-1.77-2.15-2.86-1.34-6.52-2.48-13.08-3.64-19.63a13.35,13.35,0,0,1,0-2.45Z"/><path class="cls-1" d="M330.41,153.54a7.78,7.78,0,0,1,3.58-7.67,2.8,2.8,0,0,1,3.93.18,17.86,17.86,0,0,1,3.18,4.87c.69,1.64.63,3.58,1.1,5.33.67,2.49-.94,3.61-2.7,4.26-4.78,1.79-8.53-.71-9-5.81C330.41,154.15,330.41,153.59,330.41,153.54Zm8.09-1.28.42-.4c-.92-1.07-1.66-2.73-2.8-3.08-1.78-.54-2.26,1.18-2.46,2.7a7.83,7.83,0,0,1-.22.93c-.39,1.45,1,4.46,2.49,5.43,1.87,1.23,3.31.09,4.75-.89.26-.18.33-.63.48-1l-.86.18c-2,.39-2.61-.22-2.18-2.28C338.24,153.35,338.37,152.81,338.5,152.26Z"/><path class="cls-1" d="M293.38,249.48a6.09,6.09,0,0,1-.19-2.09,2.72,2.72,0,0,1,1.23-1.55c.25-.13,1.08.48,1.38.94a2.14,2.14,0,0,1,0,1.5c-.28,1.06-.78,2.08-1,3.15-1,4.41-1.87,8.85-2.93,13.25-.7,2.84-3.3,3.45-5.36,1.36a5.37,5.37,0,0,1-1.28-1.71c-1.79-4.74-3.55-9.49-5.17-14.29a2.66,2.66,0,0,1,.92-2.16,2,2,0,0,1,1.9.34,4.26,4.26,0,0,1,1,2.76c-.63,4.32,1,7.91,3.38,11.25,1.4,2,2.91,1.51,3.72-1.31,1.06-3.73,1.8-7.56,2.68-11.35Z"/><path class="cls-1" d="M383.31,209.64c2.49-.35,4.37-.63,6.25-.85a2.89,2.89,0,0,1,1,.28c-.24.24-.45.6-.75.72a48.11,48.11,0,0,1-5.89,2.29c-2.94.79-6.64-1-8.38-3.79a10.73,10.73,0,0,1-1.59-2.5,3.72,3.72,0,0,1,.41-2.54c.91-1.58,2.07-3,3.11-4.53.31-.44.48-1.12.9-1.33a31.54,31.54,0,0,1,3.43-1.32c.43,1.21,1.24,2.45,1.18,3.64a6.05,6.05,0,0,1-1.53,3.81c-1.41,1.34-2.49,3-1.76,4.48C380.21,209,382.33,209.24,383.31,209.64Z"/><path class="cls-1" d="M334.76,285.73c2.38-.62,2.77,1.08,2.81,2.86.08,3.63,1.08,6.57,4.91,7.85.46.15.72.91,1.08,1.39-.48.2-1.05.68-1.43.56a23.92,23.92,0,0,1-4.22-1.75,4.92,4.92,0,0,1-1.55-1.76c-.79-1.25-1.37-1.05-2.37-.11a5.86,5.86,0,0,1-7.8.56,2.93,2.93,0,0,1-.89-2.4C326.4,289.05,329.92,285.27,334.76,285.73Zm0,3.43c-.37-.19-1.1-.86-1.5-.7a14.08,14.08,0,0,0-4.09,2.27c-1.21,1.09-.63,2.36,1,2.72C331.51,293.73,334.82,291,334.8,289.16Z"/><path class="cls-1" d="M404.29,160.06c.15-3.09-.39-6.42.6-9.21,1.46-4.15,1.75-8.33,2.18-12.57.08-.82,1-1.56,1.5-2.33.44,1,1.24,1.9,1.26,2.87a30.48,30.48,0,0,1-.58,5.45c-.25,1.66-.1,3,1.72,3.7s3.64,1.64,5.45,2.49a5,5,0,0,1,.89.64c-.26.26-.53.76-.78.75-1.91,0-3.94.23-5.69-.34-1.92-.63-2.56-.47-2.78,1.59-.29,2.84-.79,5.66-1.34,8.47-.1.5-.86.88-1.32,1.31a7.14,7.14,0,0,1-1.14-1.4,3.73,3.73,0,0,1,0-1.42Z"/><path class="cls-1" d="M379,259.28a9.88,9.88,0,0,1-1.65-.47c-2.82-1.26-5.08-3.51-8.27-4.24a1.46,1.46,0,0,1,0-2.89c2.44-.54,2.41-2.3,2.67-4a6.08,6.08,0,0,1,4.19-5c1.14-.45,1.77-.11,1.63,1.08a30.63,30.63,0,0,1-1,6.07c-1.23,3.83.21,6.4,4.12,6.85.87.09,1.73.28,2.6.42-1,.68-1.94,1.4-3,2A4,4,0,0,1,379,259.28Z"/><path class="cls-1" d="M104.19,264c-3.7-.68-4.65-.63-6-4.27-.51-1.41-1-2.09-2.53-1.3a1.07,1.07,0,0,1-.69.18c-1.11-.34-2.21-.74-3.32-1.12.89-.67,1.69-1.73,2.68-1.94a4.67,4.67,0,0,0,4-3.53c1.07-3.44,4-4.83,7.25-5.45.77-.14,1.74.75,2.62,1.16a7.12,7.12,0,0,1-1.12,2.16c-1.47,1.34-3.1,2.49-4.65,3.73-1.36,1.09-2.47,2.32-1.92,4.27s.88,4.38,3.71,4.74a10,10,0,0,1,1.81.58Z"/><path class="cls-1" d="M195.05,161.12c0-2.92-.05-5.15,0-7.37,0-1.34-.13-3.06,2.18-1.76.28.16,1-.21,1.36-.5,2.49-2,5.29-1.79,6.88,1.11A88.06,88.06,0,0,1,210,163.32c.17.43-.47,1.16-.74,1.76-.49-.26-1.24-.4-1.44-.8-1-1.91-1.72-3.91-2.61-5.85a27.61,27.61,0,0,0-2.09-4,2.44,2.44,0,0,0-1.93-1c-.56.1-1.2,1-1.38,1.64-.51,1.92-.61,4-1.29,5.8-.28.76-1.57,1.28-2.5,1.58C195.81,162.54,195.17,161.3,195.05,161.12Z"/><path class="cls-1" d="M315.4,154.55c.57-1.77.82-3.76,1.82-5.25s2.63-3.5,4.65-2.53c2.75,1.32,5.55,3.17,5.49,6.85a12.06,12.06,0,0,1-.95,4.85c-1.43,3-2.86,3.58-5.72,3a6.21,6.21,0,0,1-4.73-5.37c0-.47-.06-1-.08-1.43Zm9.28-.32c0-1.91-1.59-4-3-4s-3.47,2.65-2.95,4.84a6.12,6.12,0,0,0,2.93,3.33C322.63,158.94,324.67,156.06,324.68,154.23Z"/><path class="cls-1" d="M486.77,194a54.49,54.49,0,0,1-3.18,5.92c-.85,1.23-1.55,2.29-.63,3.64s1.88,2.16,3.61,1.55c.47-.17,1.1.11,1.65.18-.31.57-.47,1.34-.94,1.67-3.08,2.12-5.93,1.39-7.73-2-.74-1.39-1.23-2.87-3-3.38-.54-.15-.9-1-1.34-1.48.71-.41,1.5-1.26,2.12-1.15,1.65.28,1.72-.56,2.07-1.78a38.73,38.73,0,0,1,2.06-4.51c.6-1.37,1.7-1.86,2.89-1.21A12.2,12.2,0,0,1,486.77,194Z"/><path class="cls-1" d="M78.63,170.16c-3.69-.06-6.09-2.92-6.41-6.84q-.47-5.55,5.14-7.22c2.38-.71,5,.61,6.53,3.23,1.3,2.28.58,4.72-2,7.17-.25.24-2.71.91-.07,1.49-.1.38-.08,1-.3,1.11C80.41,169.6,79.2,170,78.63,170.16Zm-1.1-4.78c2.13,0,3.94-1.72,3.94-3.42s-2.06-3.82-3.43-3.72-2.94,2.15-2.88,4.13C75.22,164.06,75.51,165.65,77.53,165.38Z"/><path class="cls-1" d="M144.6,225.55a9.45,9.45,0,0,1-8.37-6.09c-1-3.35.68-9,3.47-10.48,1-.52,3.34-.55,3.61,0a10.29,10.29,0,0,1,1.3,5.43c-.12,1.27-1.55,2.52-2.6,3.56-1.7,1.7-1.67,2.09,0,3.82,1.17,1.21,2.06,2.6,4,2.27.37-.05.79.27,1.19.42-.34.29-.63.71-1,.84A8.65,8.65,0,0,1,144.6,225.55Zm-2-13.16a8.52,8.52,0,0,0-1.18-.55c-.77,1.11-1.49,2.25-2.22,3.39.23.11.62.37.67.31C140.78,214.59,141.6,213.6,142.64,212.39Z"/><path class="cls-1" d="M366.79,280.77c-.25-2.66-.56-5.33-.71-8a6.36,6.36,0,0,1,.63-2,7,7,0,0,1,1.33,1.93c.9,3.22,1.75,6.44,2.42,9.71a4.79,4.79,0,0,0,3.88,4,10,10,0,0,1,2.66,1.86,11.42,11.42,0,0,1-3.24.78c-3.43-.23-3.45-.29-2.51,3.07a12,12,0,0,1,.65,1.78c.08.83.21,2.21-.19,2.42-1.32.71-2-.29-2.3-1.51-.75-3.07-1.54-6.14-2.21-9.23-.34-1.54-.45-3.12-.66-4.68Z"/><path class="cls-1" d="M160.71,145.81a3.37,3.37,0,0,1,1.19,0,13.31,13.31,0,0,1,1.69.93c-.5.31-1,.83-1.49.89-5.26.59-7.78,4.24-9.62,8.59-.66,1.57,1.14,3.73,3.29,4.24a9.66,9.66,0,0,0,7.31-.87c.32-.18.81,0,1.22-.05-.12.5-.08,1.17-.4,1.48-2.52,2.45-9.33,3.07-12.45,1.28a4.42,4.42,0,0,1-2.29-4.4C149.53,152.47,155,145.77,160.71,145.81Z"/><path class="cls-1" d="M276.25,256.71c.37,1-1,2.86,1.48,2.82.12,0,.39.43.34.53-.75,1.36-1.29,3-2.42,3.93-.64.53-2.5.28-3.38-.29-4.56-2.91-6.27-10.63-3.61-15.38a2.65,2.65,0,0,1,4.54-.45A12.15,12.15,0,0,1,276.25,256.71Zm-2-1.89a10.48,10.48,0,0,0-.83-3.2c-.39-.71-1.6-1-2.44-1.44-.39.88-1.18,1.8-1.1,2.64a24.68,24.68,0,0,0,1.25,5.54c.25.73,1.11,1.26,1.7,1.88a12.38,12.38,0,0,0,1.1-2.14A20.71,20.71,0,0,0,274.24,254.82Z"/><path class="cls-1" d="M105.5,226.25c-5.73.08-8.92-4.71-7.82-10a44,44,0,0,1,3.47-9.61,9.32,9.32,0,0,1,3.52-3.32c.4-.26,1.56.66,2.37,1a6.15,6.15,0,0,1-1.26,1.24c-3.72,2-4.45,5.64-5.13,9.22-1,5.09.18,7.06,5,8.59,1.11.36,2.55-.1,3.78-.42a13.55,13.55,0,0,0,2.28-1.27,13.52,13.52,0,0,1,1.69-.6,15.57,15.57,0,0,1-1.19,1.37,16.26,16.26,0,0,1-2.16,1.82c-1.37.91-2.8,1.71-4.2,2.56Z"/><path class="cls-1" d="M114.38,260.61c.11-4.23,3.53-8.17,7.58-8.63.38,0,.82.26,1.23.41-.25.41-.4,1-.75,1.23-1.55,1.17-3.4,2-4.66,3.46a5,5,0,0,0-.74,3.73c.08.53,1.92,1.38,2.57,1.12a10,10,0,0,0,3.59-2.71c.67-.79.63-2.16,1.25-3,.39-.55,1.4-.67,2.14-1a6.78,6.78,0,0,1,.55,1.84c0,1.11-.39,2.23-.3,3.32.06.71.72,1.36,1,2.08a16.14,16.14,0,0,1,.56,1.83,6.74,6.74,0,0,1-1.83.16,1.85,1.85,0,0,1-1.11-.84c-.65-1.15-1.29-1-2.33-.41a15,15,0,0,1-4.2,1.49A3.77,3.77,0,0,1,114.38,260.61Z"/><path class="cls-1" d="M492.2,204.63c.35-2,.6-4.09,1.08-6.09a5.23,5.23,0,0,1,6.26-4.16,60.9,60.9,0,0,1,7.19,1.66c.84.26,1.47,1.22,2.19,1.86a7.39,7.39,0,0,1-2.72.07,11.8,11.8,0,0,0-7.69-.41c-1.77.49-2.93,1.5-3,3.22-.15,2.43.06,4.88.13,7.33a17.09,17.09,0,0,1,.08,3.27c-.11.68-.8,1.26-1.24,1.88-.62-.72-1.68-1.39-1.77-2.17a55.13,55.13,0,0,1-.09-6.43Z"/><path class="cls-1" d="M320.74,295.05a25.39,25.39,0,0,1-3.19-1.89c-.81-.67-1.25-.7-1.84.19a8.42,8.42,0,0,1-1.7,2c-2.49,2-5.48,1.27-6.07-1.83-.53-2.74-.26-5.64-.24-8.46,0-.32.73-.63,1.12-.94.34.46.94.9,1,1.38.1,1.33-.06,2.67-.08,4,0,1.75.61,3.61,2.4,3.43,1.1-.11,2.15-1.92,3-3.14a16,16,0,0,0,1.35-3.26c.88,1,1.72,2.09,2.64,3.08a24.24,24.24,0,0,0,2.15,2c.72.61,1.51,1.13,2.27,1.68Z"/><path class="cls-1" d="M188.61,236.38c.2.52.41,1,.6,1.55,1,2.88,2.39,5.7,3,8.68.38,1.89,1.06,2.76,2.77,3.3a8.65,8.65,0,0,1,2.18,1.57c-.74.47-1.46,1.28-2.24,1.35-1.43.13-1.79.8-1.61,2a47,47,0,0,1,.7,4.67c0,.75-.6,1.51-.93,2.27-.66-.55-1.76-1-1.9-1.68-.33-1.62.19-3.48-.36-5-1.34-3.63-1.2-7.4-1.68-11.12-.22-1.76-1.3-3.4-1.83-5.14a4.81,4.81,0,0,1,.25-1.94Z"/><path class="cls-1" d="M392.25,233.5c.81,6,1.51,11.94,2.51,17.86.27,1.63,1.48,3.09,2.19,4.66a6.54,6.54,0,0,1,.28,1.62c-.58-.07-1.45.07-1.68-.25-1.18-1.63-2.86-3.28-3.15-5.11-1.06-6.66-1.67-13.39-2.33-20.1a9.57,9.57,0,0,1,.55-3.52c.15-.49.82-.82,1.25-1.22.3.48.81.95.85,1.45.11,1.51,0,3,0,4.54Z"/><path class="cls-1" d="M254.15,268.7c1.32-5.33,2.44-10.22,3.76-15,1.23-4.51,2.55-9,4.1-13.4.46-1.32,1.81-2.33,2.75-3.48a25.18,25.18,0,0,1-.49,3.91c-2.37,8.49-4.82,17-7.2,25.46-.21.74.09,1.64-.16,2.36a6.78,6.78,0,0,1-1.36,1.72C255,269.65,254.51,269.08,254.15,268.7Z"/><path class="cls-1" d="M306.27,198.68a7,7,0,0,1,2.35.35,2.17,2.17,0,0,1,.75,1.52c0,.26-.72.76-1.14.8a6.68,6.68,0,0,0-6,7.58c.38,3.15,4.25,5.86,7.67,5.34.55-.08,1.09-.28,1.64-.35.87-.1,1.74-.14,2.61-.21a19,19,0,0,1-2.22,1.58c-3.55,1.89-7,1.19-10.2-.78-2.4-1.47-3.41-4.75-2.28-7.89s2.62-5.83,5.63-7.45A7.7,7.7,0,0,1,306.27,198.68Z"/><path class="cls-1" d="M305.15,132.58a10.16,10.16,0,0,1,.89,2.28c.8,6.14,1.36,12.31,2.34,18.42.38,2.34,1.72,4.51,2.47,6.81a6.45,6.45,0,0,1-.1,2.3,5.26,5.26,0,0,1-1.92-.67c-3-2.76-2.73-6.62-3.24-10.18-.82-5.65-1.52-11.32-2.18-17-.08-.63.45-1.31.69-2Z"/><path class="cls-1" d="M166.06,249.08c0,2.14-.09,4.29.05,6.43,0,.69.67,1.35,1,2a8.72,8.72,0,0,0,1.85-1.65c1.37-2.23,2.56-4.57,3.89-6.83a18.79,18.79,0,0,1,1.74-2.17,16.76,16.76,0,0,1-.5,2.86c-1.05,3-2.11,5.93-3.35,8.82-.76,1.78-2.07,3-4.28,2.73s-2.79-2.11-2.83-3.85c-.1-4.33-.71-8.78,1.66-12.81a10,10,0,0,1,.8-1,5.48,5.48,0,0,1,.29,1.46c-.11,1.35-.33,2.69-.5,4Z"/><path class="cls-1" d="M340.42,207.19c-.9,1.46.53,4.25-2.33,5.32-2.25.86-4.9.34-6-1.27-2.13-3.12-2.3-6.51-.42-8.65,1.53-1.74,3.34-2.74,5.7-1.88C339.09,201.34,340.51,204.26,340.42,207.19Zm-1.53-1.43c-1.27-1-2.05-2.21-2.86-2.24-2.46-.07-2.43,2.06-2.62,3.76s.84,3.39,2.2,2.88S337.6,207.61,338.89,205.76Z"/><path class="cls-1" d="M328.42,208a47.16,47.16,0,0,1-2.44,4.79c-.32.49-1.42.49-2.16.71.1-.84-.1-2,.37-2.45,2-2,1.8-4.13,1-6.4a4.07,4.07,0,0,0-7.57,2.94,24.78,24.78,0,0,0,2.19,3.36c.29.43.53.9.79,1.36a5.81,5.81,0,0,1-2,0c-2.14-.81-4-5.38-3.22-7.62,1.06-3,3.17-4.82,5.7-4.89s5.07,1.94,6.19,4.84C327.62,205.55,327.92,206.52,328.42,208Z"/><path class="cls-1" d="M348.2,269a14.57,14.57,0,0,1,1.06,2.45c1.12,5.79,2.07,11.61,3.31,17.37.42,2,1.59,3.75,2.24,5.68a11.92,11.92,0,0,1,.26,2.95c-.89-.48-2.25-.74-2.59-1.47a35.43,35.43,0,0,1-2.69-7.53c-1-5-1.67-10-2.44-15a13,13,0,0,1-.05-2.86C347.32,270.16,347.69,269.82,348.2,269Z"/><path class="cls-1" d="M66.51,260.69l3.54-.42c-1.59.84-3.1,2.17-4.78,2.44-4.68.74-7.49-3.18-5.85-7.56A29,29,0,0,1,67,244.07,4.16,4.16,0,0,1,68.6,243a11.35,11.35,0,0,1,2.35-.22,10.37,10.37,0,0,0-1.53,1.15,30.51,30.51,0,0,0-3.1,3.73,73.43,73.43,0,0,0-3.88,6.79C60.59,258.12,62.42,260.84,66.51,260.69Z"/><path class="cls-1" d="M212.37,254.31c.8-2.32,1.52-4.68,2.46-6.95a12.17,12.17,0,0,1,1.91-2.51c.21,1,.83,2.18.55,3-1.89,5.81-3.93,11.57-6,17.29-.18.48-1.26.62-1.92.92-.18-.68-.68-1.46-.49-2,1.11-3.32,2.38-6.58,3.6-9.85Z"/><path class="cls-1" d="M138.05,261.42c-1.51-.56-1.81.35-1.66,1.73a13.32,13.32,0,0,1,.22,1.65c0,.91.07,2.58-.16,2.63-1.83.37-1.73-1.33-1.9-2.35-.45-2.74-.6-5.54-1-8.29-.19-1.32-.83-2.57-1-3.89a5.61,5.61,0,0,1,.57-2.11c.59.51,1.5.91,1.69,1.53.56,1.89.44,3.91,2.57,5.2,1.63,1,3,1.26,4.64.35a4.71,4.71,0,0,1,1.23-.29,4.81,4.81,0,0,1-.26,1.5C141.88,261,141,261.43,138.05,261.42Z"/><path class="cls-1" d="M321.88,238.86c.41,4.68.69,9.37,1.3,14,.17,1.25,1.36,2.34,2,3.53a9.64,9.64,0,0,1,.53,1.42c-.51.12-1.23.52-1.49.32-1-.79-2.41-1.61-2.72-2.7a36,36,0,0,1-1.47-8.42c-.16-3.7.18-7.42.37-11.13,0-.39.41-.77.63-1.15.27.34.7.65.79,1,.23,1,.31,2,.45,3Z"/><path class="cls-1" d="M413.64,272.88l1.29-3a23.28,23.28,0,0,1,1.45,3.48c.68,2.94,1.13,5.93,1.81,8.87a12.14,12.14,0,0,0,1.28,2.51c.31.61.59,1.23.88,1.84-1,.08-2.35.6-2.78.17a9.68,9.68,0,0,1-2.58-4.12C414.3,279.74,414.13,276.69,413.64,272.88Z"/><path class="cls-1" d="M212.43,254.24c-3,2-5.93,2.28-9.07.35-2.39-1.46-2.92-3.86-3.3-6.3-.07-.45.84-1.52,1.14-1.46a2.72,2.72,0,0,1,1.73,1.26c1.1,2.2,2.26,4.28,5,4.64a4.81,4.81,0,0,0,2.57-.11c2.28-1.12,2,.33,1.87,1.69Z"/><path class="cls-1" d="M85.66,245.91l2.19,2.55c-.56.27-1.4.38-1.64.82a10.34,10.34,0,0,0-1.49,3.88c-.16,2.66.14,5.34.14,8,0,.46-.57.93-.88,1.39-.43-.48-1.18-.92-1.24-1.44-.5-4.17-.84-8.38.67-12.43C83.75,247.79,84.67,247.11,85.66,245.91Z"/><path class="cls-1" d="M150.62,251.62c.27,2.58.58,5.15.8,7.74.06.64,0,1.61-.34,1.89a2,2,0,0,1-1.94,0c-.38-.3-.37-1.25-.32-1.9.14-2,.45-3.95.54-5.93,0-.49-.48-1-.81-1.49a22.21,22.21,0,0,1-1.91-2.68,1.65,1.65,0,0,1,.48-1.57c.53-.28,1.71-.35,1.92,0a30,30,0,0,1,1.92,3.85Z"/><path class="cls-1" d="M359.17,287.22a24.68,24.68,0,0,1-.11-3.54c.05-.6.58-1.15.89-1.72.39.43,1.06.83,1.12,1.31.27,1.87.26,3.77.5,5.65a10,10,0,0,0,.92,3.58c.63,1.13.45,2-.54,2.25a2.6,2.6,0,0,1-2.24-1.19,52.91,52.91,0,0,1-.87-6.31Z"/><path class="cls-1" d="M407,279.22c-2.48.1-3.5-.71-3.18-2.54a58.69,58.69,0,0,1,1.61-6.69c.17-.57,1.08-.91,1.65-1.35a5.71,5.71,0,0,1,.6,1.94c-.06,1-.6,2-.62,3a10.37,10.37,0,0,0,.55,3c.17.58,1,1.44.87,1.56A6.55,6.55,0,0,1,407,279.22Z"/><path class="cls-1" d="M249.05,246.22a24.75,24.75,0,0,1,1.53-3c.22-.32,1-.28,1.5-.41,0,.45-.05.89,0,1.33a62.14,62.14,0,0,0,.76,7c.17.85,1.32,1.48,2,2.26a3,3,0,0,1,.35,1,5.15,5.15,0,0,1-1.11,0c-2.59-.53-3.42-2.58-4.06-4.77C249.66,248.61,249.4,247.53,249.05,246.22Z"/><path class="cls-1" d="M397.34,201.71l2.05.68c-.73.81-1.33,2-2.23,2.34a11.88,11.88,0,0,1-4.6.53c-.6,0-1.13-1.06-1.69-1.64.6-.55,1.12-1.42,1.81-1.58A27.64,27.64,0,0,1,397.34,201.71Z"/><path class="cls-1" d="M217.92,288.68a19.18,19.18,0,0,1,.62,2.14c.28,1.73-.33,3.71,1.57,5,.12.08-.25,1.44-.64,1.6a2.79,2.79,0,0,1-2-.15c-.39-2.43-.65-4.9-.83-7.36C216.62,289.61,217.26,289.28,217.92,288.68Z"/><path class="cls-1" d="M172.56,282.89a33.55,33.55,0,0,1,2.87,3.4c.9,1.48,1.58,3.09,2.34,4.66.2.42.32.88.48,1.32-.61-.1-1.47,0-1.8-.33a14.21,14.21,0,0,1-2-2.92c-.71-1.32-1.33-2.68-1.91-4A7.9,7.9,0,0,1,172.56,282.89Z"/><path class="cls-1" d="M184,256l-2.33,2.22c-.55-.83-1.09-1.67-1.63-2.51a.31.31,0,0,1,0-.23c.59-1.21,1.19-2.43,1.79-3.64C182.49,253.05,183.14,254.32,184,256Z"/><path class="cls-1" d="M368.27,203.45a8.81,8.81,0,0,1,.2,2.58,8.9,8.9,0,0,1-1.23,2.28c-.54-.7-1.53-1.41-1.52-2.1a19.25,19.25,0,0,1,.91-4.76c.14-.47.83-.78,1.26-1.17a10.47,10.47,0,0,1,.46,1.51,13.11,13.11,0,0,1,0,1.66Z"/><path class="cls-1" d="M183.94,281.05a6.74,6.74,0,0,1,.77,1.28c.64,2,1.27,4.06,1.8,6.11a3.88,3.88,0,0,1-.27,1.48c-.5-.17-1.37-.25-1.44-.53-.61-2.49-1.09-5-1.55-7.54C183.22,281.68,183.61,281.43,183.94,281.05Z"/><path class="cls-1" d="M218.41,275.87c.12,1.39.25,2.77.31,4.16,0,.13-.55.45-.58.41-1-1-2.43-1.9-2.87-3.14-.19-.54,1.52-1.84,2.5-2.64.17-.14,1,.5,1.51.78Z"/><path class="cls-1" d="M369.59,195.49l-2.14-2.31c.77-.63,1.78-1.92,2.25-1.75,1,.36,1.64,1.5,2.43,2.32Z"/><path class="cls-1" d="M184.28,241c-.9.62-1.7,1.39-1.91,1.26a13.66,13.66,0,0,1-2.12-2.05c.72-.63,1.43-1.27,2.14-1.91Z"/><path class="cls-1" d="M359.34,270.74l2.61,2.07c-.73.49-1.44,1.34-2.17,1.35s-1.42-.85-2.12-1.33Z"/><path class="cls-1" d="M67.65,171.6c-1.25-1.44-2.52-2.84-3.7-4.33-1.63-2.05-3.06-4.28-4.84-6.18-.72-.77-2.44-1.49-3.19-1.13-1,.46-1.57,2-2.09,3.12a16,16,0,0,0-.41,2.57,5.44,5.44,0,0,1-.79,1.31,6.37,6.37,0,0,1-.73-1.15c-.52-1.35-9.32-21.95-9.47-22.05-.13-.3-.23-.53-.27-.65a2.27,2.27,0,0,0-.59-.66,6.78,6.78,0,0,1,.18-2,3.82,3.82,0,0,0-.23-1.26c-.49.2-1.2.27-1.43.64-.44.67.14,2.29.94,3.46.57,1.88,9.18,21.72,9.84,23.56a27.68,27.68,0,0,0,1.76,4.28c.44.78,1.21.92,1.54-.4.54-2.14,1.24-4.23,1.9-6.33.45-1.42,1.18-1.62,2.1-.37,1.22,1.67,2.32,3.44,3.65,5a26.46,26.46,0,0,0,4.09,3.9c.49.37,1.58,0,2.39-.1,0-.21,0-.42,0-.63A5.44,5.44,0,0,1,67.65,171.6Z"/></svg>