<svg id="_1" data-name="1" xmlns="http://www.w3.org/2000/svg" viewBox="0 0 531.37 531.37"><defs><style>.cls-1{fill:#fff;}</style></defs><path class="cls-1" d="M232,297.35l9.36-4.13q2.22-1,4.47-1.87a1,1,0,0,1,.6.13c0,.53,0,1.25-.27,1.53a18.09,18.09,0,0,1-3.75,2.93c-3.52,1.8-7.17,3.34-10.74,5.06-.44.21-1,.89-1,1.28a5.16,5.16,0,0,0,7.95,3.57c2.07-1.44,3.83-3.32,5.76-5,2.71-2.32,5.43-4.63,8.2-6.87.39-.31,1.12-.18,1.69-.26-.14.58-.1,1.35-.46,1.72-4.15,4.16-8.24,8.42-12.63,12.32a19.87,19.87,0,0,1-6.33,3.24c-1.92.71-3.28-.68-4.49-2-3.56-3.93-4.56-8.82-5.2-13.85-.07-.55-.05-1.12-.12-1.67-.24-1.74,0-4-3.05-2.52-.51.24-1.49-.5-2.26-.78a8.79,8.79,0,0,1,1.28-2.05,2.58,2.58,0,0,1,2-.72c1.52.41,1.93-.45,2.48-1.52s1.1-1.54,2.65-1c1.36.46,3.23,0,4.71-.56,3-1.09,5.81-2.64,8.8-3.74a58.07,58.07,0,0,1,7.3-1.94c.47-.11,1.08.38,1.63.6-.36.47-.61,1.18-1.09,1.39-3,1.3-6,2.5-9.05,3.7-3.63,1.44-7.3,2.78-10.87,4.34a3.23,3.23,0,0,0-1.41,2.16c-.18,1,.26,2.06.2,3.08-.13,2.52,1.23,3.11,3.4,2.8Z"/><path class="cls-1" d="M219.13,314.89c-.36.23-.76.67-1.16.67-.65,0-1.61-.05-1.9-.45-1.39-2-3-4-3.81-6.27-1.66-4.73-2.71-9.67-4.3-14.43a58.89,58.89,0,0,0-3.59-7.79c-.8-1.58-1.87-1.52-2.5.11a66.14,66.14,0,0,0-2,6.36c-1.15,4.3-2.22,8.58-4.92,12.33-1.21,1.67-2.28,1.5-3.24.41a12.46,12.46,0,0,1-2.38-4.25c-1.39-4.32-2.55-8.72-3.86-13.06a7.68,7.68,0,0,0-1.1-1.76,9.16,9.16,0,0,0-1.23,1.59c-2.18,4.61-4.28,9.25-6.49,13.84a8.28,8.28,0,0,1-2,2.59,1.81,1.81,0,0,1-1.8,0,1.88,1.88,0,0,1-.23-1.79c.44-.82,1.33-1.39,1.84-2.18a41.75,41.75,0,0,0,3.32-5.49c1.76-3.84,3.26-7.79,4.91-11.67.8-1.87,2.34-2.14,3.33-.31a60.91,60.91,0,0,1,3.69,8.73c1,2.78,1.6,5.68,2.49,8.49.21.68.9,1.21,1.37,1.81.55-.54,1.39-1,1.6-1.62,1.11-3.41,2-6.89,3.09-10.31a47.43,47.43,0,0,1,2.76-7.08c1.23-2.41,2.63-2.56,4.35-.43a20.57,20.57,0,0,1,3.49,5.91c2.09,6,3.7,12.17,5.81,18.16.88,2.47,2.57,4.64,3.89,6.95C218.63,314.16,218.77,314.34,219.13,314.89Z"/><path class="cls-1" d="M337,247.2c1.55.35,3.12.64,4.64,1.07,1.29.38,2,.27,1.79-1.33-.85-5.9-1.45-11.85-2.65-17.68-.46-2.24-.58-5.35-4.11-5.85-.92-.13-.52-2.09.67-2.69,1.8-.89,3.11.17,3.69,1.59a54.66,54.66,0,0,1,3.6,10.54c1.13,6.17,1.66,12.46,2.38,18.7.13,1.1.27,1.75,1.53,1a3.57,3.57,0,0,1,1.35-.47,11,11,0,0,1,1.72,0,9.28,9.28,0,0,1-1.11,1.3c-1.41,1.13-2.84,2.23-4.32,3.28-5.41,3.83-11.41,1.55-12.87-4.87C332.71,249.05,334.13,247.31,337,247.2Zm5.73,8.29,1.83-.71c-.47-.53-.89-1.11-1.4-1.59a6,6,0,0,0-1.7-1.26c-1.23-.47-2.52-.77-3.79-1.13,0,.29-.19.69-.06.86a34.9,34.9,0,0,0,3,3.44C341,255.45,341.81,255.34,342.76,255.49Z"/><path class="cls-1" d="M235.26,244.75c.12,2.39.23,4.78.35,7.17.07,1.24.59,1.52,1.7.9,4.06-2.3,7.71-.64,11.1,1.52.58.38.73,2.57.22,3.34-2.25,3.39-5.81,4.87-9.68,5.44-.76.11-1.68-.85-2.53-1.32a10.54,10.54,0,0,1,2.45-2.25c1.65-.74,3.54-.92,5.18-1.65,1.44-.64,1.52-1.37-.06-2.44-2.45-1.64-5.29-.14-6.74,1.59-.56.67-.94,1.5-1.53,2.12-.38.4-1.23.89-1.47.74-.58-.4-1.3-1.12-1.32-1.73-.14-5.18,0-10.36-.22-15.53-.19-4.52-.76-9-1.08-13.55a5.89,5.89,0,0,1,.63-2c.55.36,1.42.6,1.59,1.09a15.78,15.78,0,0,1,1.07,4.61c.15,4,.05,7.94.05,11.91Z"/><path class="cls-1" d="M275.27,232.34c-.15-2.47-.38-4.93-.41-7.39a6.7,6.7,0,0,1,.84-2.24c.57.66,1.58,1.28,1.63,2,.23,2.93,0,5.9.26,8.82.51,5.62,1.24,11.21,2,16.8,0,.27.88.5,1.38.65,1.36.43,3.15.4,4.05,1.28a72.23,72.23,0,0,1,6.45,7.61,2.2,2.2,0,0,1-.1,2.15,2.14,2.14,0,0,1-2.09.13,15.52,15.52,0,0,1-2.86-2.81c-.72-.84-1.22-1.87-1.92-2.73a9.53,9.53,0,0,0-1.61-1.26,16.34,16.34,0,0,0-1.13,1.63c-.34.62-.5,1.36-.88,2a16.88,16.88,0,0,1-1.56,1.84c-.62-.85-1.55-1.63-1.8-2.59a40.55,40.55,0,0,1-.77-5.63c-.52-4.9-1.06-9.79-1.49-14.7-.16-1.81,0-3.66,0-5.49Z"/><path class="cls-1" d="M159.35,233.43c.09-1.55.13-3.7.43-5.81.09-.6,1-1.09,1.47-1.63a7.08,7.08,0,0,1,.59,1.77c.49,6.33.93,12.67,1.4,19a22.65,22.65,0,0,0,.46,3.08,4.19,4.19,0,0,0,.69,1.15,4.27,4.27,0,0,0,1.09-.8c.55-.78,1-1.64,1.47-2.46,1.43-2.38,3.48-2.59,5-.14a55.82,55.82,0,0,1,3.37,7.61c.91,2.24,1.21,5,4.63,4.85.26,0,.8.54.77.75a2.37,2.37,0,0,1-.73,1.35c-1.64,1.31-4.64.13-5.85-2.43-1.12-2.35-2-4.84-3-7.21a20.65,20.65,0,0,0-2-2.86c-.65.77-1.35,1.5-1.93,2.31-.74,1-1.32,2.19-2.09,3.19-.43.55-1.28,1.36-1.66,1.23a2.82,2.82,0,0,1-1.69-1.69,60,60,0,0,1-.85-6.14c-.29-2.46-.56-4.91-.81-7.37S159.62,236.42,159.35,233.43Z"/><path class="cls-1" d="M421.53,270.53c-.12,0-.62.1-.9-.1a13.16,13.16,0,0,1-1.55-1.53c.52-.45,1-1.2,1.58-1.31,3-.58,5.62-1.65,7.06-4.65,1.26-2.59.75-3.91-1.89-4.92a25.46,25.46,0,0,1-5.34-2.47,3.64,3.64,0,0,1-.82-5.64c2.1-2.48,4.49-4.71,6.83-7,.37-.34,1.13-.28,1.71-.4,0,.56.28,1.28,0,1.66a43.37,43.37,0,0,1-3.62,4.69c-2.4,2.63-2,4.1,1.37,5,5.67,1.53,7.45,5.33,4.82,10.65C429,268.23,426.11,270.5,421.53,270.53Z"/><path class="cls-1" d="M268.14,264a15.9,15.9,0,0,1-10.1-4.12,7.18,7.18,0,0,0-2.57-1.51c-2-.68-3.45-3-2.66-4.87.27-.64,1.29-1,2-1.43.43-.29,1.11-.49,1.26-.89.59-1.56.85-3.25,1.54-4.75,1.21-2.61,4-2.78,5.72-.49a7.76,7.76,0,0,1-.8,9.67c-1.68,1.76-1.71,2.48.31,3.67,2.25,1.31,4.36,3.26,7.4,2.28.4-.13,1.08.58,1.63.91-.44.45-.8,1.1-1.33,1.29A9.26,9.26,0,0,1,268.14,264ZM259,251.69l1,1.92a18.19,18.19,0,0,0,1.51-3.07c.13-.43-.47-1.08-.74-1.64Z"/><path class="cls-1" d="M95.52,255.41c.32-3.36,1.35-6.26,4.83-7.61,1.26-.49,1.49-1.3,1.29-2.65-.7-4.56-1.22-9.15-1.8-13.73a3,3,0,0,1,0-1.42,9,9,0,0,1,1.2-1.59c.4.5,1.07,1,1.16,1.51.49,2.82.78,5.68,1.24,8.51s1.06,5.48,1.51,8.23c.19,1.13.09,2.31.19,3.46s-.42,1.33-1.56,1.21-3-.05-3.31.56a7,7,0,0,0-.65,4.7,4,4,0,0,0,3.33,2c1.84-.31,3.53-1.56,5.24-2.48.46-.25.75-.82,1.2-1.13.19-.13.58,0,.88.08a2.24,2.24,0,0,1-.19.8,14.71,14.71,0,0,1-8.94,5.95C98.32,262.38,95.42,258.91,95.52,255.41Z"/><path class="cls-1" d="M300.45,252.34c1.9.75,3.85,1.41,5.69,2.28a26.07,26.07,0,0,1,4.93,2.81c.81.63,1.12,1.9,1.66,2.88l-2.71.35c-.52.07-1.15,0-1.52.25a14.11,14.11,0,0,1-6.78,2.59c-4.06.52-7.61-2.73-6.9-6.72C295.29,254.11,297.31,252.61,300.45,252.34Zm.34,8.25,5.2-1.76c-1.41-.88-2.81-1.78-4.24-2.62a1,1,0,0,0-.92,0c-.7.61-1.89,1.35-1.85,2C299,259,300.08,259.71,300.79,260.59Z"/><path class="cls-1" d="M54.56,252.93c2.18.06,4.41-1.88,5.17-4.6.3-1.06.29-2.22.63-3.26a7.73,7.73,0,0,1,1.27-1.83,7.6,7.6,0,0,1,1.07,1.56c1.06,2.89,1.68,6,4.66,7.77.24.14.27.63.39,1-.34.13-.84.47-1,.35a22.35,22.35,0,0,1-3.93-3.22c-1.07-1.28-1.52-2.08-2.67,0A23.33,23.33,0,0,1,56.49,255a3.85,3.85,0,0,1-5.07.44c-1.49-.91-2.81-2.32-2.48-4.51.78-5.24,2.93-9.47,8.33-11.18.76-.24,1.78.36,2.67.57-.54.77-.93,1.91-1.67,2.23a10.86,10.86,0,0,0-6.22,6.83C51.36,251.38,52.45,252.87,54.56,252.93Z"/><path class="cls-1" d="M360.88,256.41c-3.89-.18-6.15-1.83-7.42-5.55-.1-.29-.32-.69-.21-.89a39.23,39.23,0,0,1,3.76-6.34c1.65-1.95,3.58-1.63,5.32.29a6.83,6.83,0,0,1,0,8.74,9.6,9.6,0,0,0-.65,1.18,7.77,7.77,0,0,0,1.31.31c.71,0,1.44-.12,2.14,0a4.09,4.09,0,0,1,1.28.62c-.38.33-.71.86-1.15,1C363.84,256,362.35,256.18,360.88,256.41Zm.49-8.05-1.62-1.82a10.1,10.1,0,0,0-1.49,2.47c-.1.36.83,1,1.28,1.52C360.09,249.88,360.64,249.24,361.37,248.36Z"/><path class="cls-1" d="M319.37,229.77c.51,4,1,8,1.55,12s1,7.73,1.7,11.56a41.71,41.71,0,0,0,1.58,4.69,12.59,12.59,0,0,1,.28,2.23c-.72-.32-1.71-.45-2.1-1a10.75,10.75,0,0,1-2.16-4.15c-1.38-8.63-2.54-17.29-3.78-25.94a3.91,3.91,0,0,1-.05-.48c0-1.33-.26-3,1.54-3.12.49,0,1.12,1.9,1.59,3a3.14,3.14,0,0,1,0,1.19Z"/><path class="cls-1" d="M186,247.18l1.49,1.42a9,9,0,0,1-1.65,1.35c-1.14.54-2.75.76-2.29,2.47a3.6,3.6,0,0,0,2,2.28c1.6.47,2.58-.62,3.21-2.14a15.58,15.58,0,0,1,1.76-2.67,28.06,28.06,0,0,1,2.2,3.17,18.84,18.84,0,0,1,1.61,4.27,6.23,6.23,0,0,1-.52,2.43c-1-.29-2.86-.35-3-.89-.65-2.26-1.65-1.55-3.13-1-4.05,1.57-8.65-2-8.12-6.12C179.87,249.44,182.94,247.06,186,247.18Z"/><path class="cls-1" d="M201.32,250.17c0,5.29,1.51,6.37,6.33,6.15a15.51,15.51,0,0,1,2.62.26,9.9,9.9,0,0,1-2.38,1.91,11.55,11.55,0,0,1-3.94.81c-1.86.06-2.33.87-2.06,2.58a11.72,11.72,0,0,1,0,3.24c0,.38-.69.67-1.07,1-.33-.41-.89-.8-.94-1.24-.44-3.52-.68-7.06-1.18-10.56s.69-7.18-1.45-10.45a2.07,2.07,0,0,1,0-1.6,24.93,24.93,0,0,1,1.41-2.65c.52.74,1.37,1.42,1.51,2.22C200.75,245.07,201.08,248.32,201.32,250.17Z"/><path class="cls-1" d="M143.74,247.62c-.6-2.69-1.15-5.17-1.7-7.65-.1-.47-.38-1-.24-1.38a5.71,5.71,0,0,1,1.1-1.39c.35.37.9.69,1,1.12.62,2.06,1.23,4.14,1.66,6.24a5.7,5.7,0,0,0,7.65,4.56,11.08,11.08,0,0,1,1.92-.24c-.52.51-.94,1.22-1.56,1.49a13.42,13.42,0,0,1-3.65,1c-2.06.22-2.68,1.14-2.39,3.17a47.87,47.87,0,0,1,.49,7.37c0,.7-1,1.39-1.48,2.09-.44-.65-1.16-1.26-1.28-2-.44-2.67-.69-5.38-1-8.07C144,251.81,141.79,249.82,143.74,247.62Z"/><path class="cls-1" d="M72.88,251c.4-2.33.78-4.66,1.22-7,.06-.3.45-.53.69-.79a5.11,5.11,0,0,1,.28,1.05c.11,2.15.17,4.3.31,6.45,0,.34.31.65.48,1a3.74,3.74,0,0,0,.73-.82,28.56,28.56,0,0,1,1.89-4.12c.71-1,1.82-2.31,2.88-2.43.82-.09,2.08,1.28,2.68,2.29,1.26,2.11,2.13,4.46,3.34,6.61a15.83,15.83,0,0,0,2.32,2.55c.29.31.55.65.82,1-.47.24-1.11.79-1.37.65A10.37,10.37,0,0,1,85.74,255a59.56,59.56,0,0,1-3.19-5.57A12.62,12.62,0,0,0,81,247.68a10.35,10.35,0,0,0-1.57,2c-.87,1.89-1.45,3.91-2.41,5.74a3.42,3.42,0,0,1-2.29,1.74c-1.7,0-1.79-1.37-1.65-2.78.11-1.1,0-2.23,0-3.35Z"/><path class="cls-1" d="M384.41,243.65l1.58.88a8.39,8.39,0,0,1-1.34,1.07c-3.4,1.71-5.67,6.38-5.09,10.21a7.7,7.7,0,0,1-.27,3.7,1.72,1.72,0,0,1-3.29.15c-1.52-3.45-.74-6.93.71-10.17A9.87,9.87,0,0,1,384.41,243.65Z"/><path class="cls-1" d="M409.8,252.41c0,4.29,0,8.58,0,12.87,0,1,.53,2.74-1.29,2.32-.8-.18-1.75-1.82-1.78-2.82,0-1.88.63-3.76.83-5.66.23-2.2.24-4.42.43-6.63a5.26,5.26,0,0,1,.63-1.79,5.91,5.91,0,0,1,.81-1.07,6.49,6.49,0,0,1,.75,1.36,5.24,5.24,0,0,1,0,1.43Z"/><path class="cls-1" d="M412.74,243.39a11.25,11.25,0,0,1-3.23-1c-.59-.42-.71-1.49-1.05-2.27a8.28,8.28,0,0,1,2.6-.68,4.62,4.62,0,0,1,2,1.17c.67.5,1.26,1.09,1.89,1.65Z"/></svg>