<svg id="_1" data-name="1" xmlns="http://www.w3.org/2000/svg" viewBox="0 0 531.37 531.37"><defs><style>.cls-1{fill:#fff;}</style></defs><path class="cls-1" d="M147.16,208c.47-7.71,3.9-11.61,11-12.66.77-.12,1.67.62,2.5,1-.65.65-1.22,1.7-2,1.86-3.37.72-6.32,1.9-7.46,5.5a16.48,16.48,0,0,0-.84,4.39c-.08,2,1.38,2.75,3,1.57,2.94-2.15,5.34-4.7,5.83-8.58a2.21,2.21,0,0,1,1.43-1.56,2.35,2.35,0,0,1,1.81,1.1,13.5,13.5,0,0,1,.91,2.95c.61,2.13,1,4.37,3.15,5.69.35.21.68,1.1.51,1.34a2.51,2.51,0,0,1-1.57,1.18,3.51,3.51,0,0,1-3.71-2.39c-1.13-2.68-1.18-2.6-3-.49A27.67,27.67,0,0,1,155,212.6c-1.7,1.33-3.75,2-5.82.93s-2.06-3.2-2.08-5.2C147.13,208.09,147.17,207.85,147.16,208Z"/><path class="cls-1" d="M350.89,197.42a52.07,52.07,0,0,1,5.61.78c.58.15,1.12,1.05,1.35,1.73.1.3-.5,1-1,1.29a45.44,45.44,0,0,1-5.54,2.77c-2.12.83-1.55,1.61-.18,2.52a25.77,25.77,0,0,0,2.27,1.32c2.3,1.25,3.82,3,3.31,5.77s-1.78,5.15-4.4,6.45c-1.64.82-3.44,1.28-5.08,2.08-1.39.68-2.47.28-2.84-.95-.15-.5.92-1.59,1.65-2.07,1.84-1.23,3.91-2.14,5.71-3.42,2.24-1.59,2.17-2.89,0-4.47-1.67-1.23-3.5-2.27-5-3.65a11.92,11.92,0,0,1-2.42-3.45,2.09,2.09,0,0,1,.3-1.94c1.76-1.61,3.67-3.07,5.55-4.54A1.25,1.25,0,0,1,350.89,197.42Z"/><path class="cls-1" d="M294,202.11a54.82,54.82,0,0,0,.08,8c.44,2.94,1.93,3.6,4.76,2.89a4.7,4.7,0,0,1,1.29.05c-.24.44-.38,1-.74,1.3-5.12,3.94-7.47,1.1-8.64-3.43-.16-.6-.27-1.22-.4-1.83-.49.47-1,.93-1.46,1.42a3.67,3.67,0,0,0-.92,1.07c-.71,2-2.22,2.46-4,1.94-2-.6-3.8-1.85-3.51-4.23.66-5.32,2.6-10,7.42-13a7.2,7.2,0,0,1,2.52-.46,11.14,11.14,0,0,1-.7,3c-.38.7-1.53,1-2,1.64a37,37,0,0,0-3.48,5.9c-.34.79.38,2,.62,3.07,1-.39,2.33-.51,2.86-1.23a38.58,38.58,0,0,0,3-5.38c.25-.49.23-1.18.58-1.55a13.59,13.59,0,0,1,2.06-1.5c.34.73.68,1.46,1,2.19Z"/><path class="cls-1" d="M178,199.63a20.86,20.86,0,0,1,2.41,2.51c.88,1.24,1.37,2.41,2.81.41.9-1.24,2.52-2,4-.85a47.62,47.62,0,0,1,6,5.54c.43.49-.24,2-.4,3a10.18,10.18,0,0,1-2.17-1.15c-1.28-1.18-2.35-2.59-3.66-3.72-.34-.29-1.39-.1-1.88.22s-.77,1.24-1.3,1.68c-.91.76-2,2-2.92,1.86s-1.59-1.63-2.27-2.6a16.37,16.37,0,0,1-1.14-2.25c-.36.77-.76,1.52-1.07,2.31a21.11,21.11,0,0,1-1.17,3.12c-.38.64-1.48,1.53-1.82,1.37-.8-.38-1.81-1.27-1.9-2a33.38,33.38,0,0,1,.07-6.16,2.08,2.08,0,0,1,1-1.5C174.15,200.73,175.8,200.32,178,199.63Z"/><path class="cls-1" d="M321.41,210.14c.33-4.08.59-7.09.81-10.11.09-1.27.22-2.63,1.88-2.32.44.09.86,1.58.84,2.42,0,1.6-.4,3.14,1.29,4.25,1.94,1.28,3.82.92,5.61-.12a21.79,21.79,0,0,0,2.73-2.29c1.32-1.09,2.36-.7,2.67,1,.44,2.51-.2,5.28,1.86,7.42.19.2-.06,1.21-.38,1.4a4.43,4.43,0,0,1-2.6.9c-.54-.09-1.13-1.23-1.3-2-.27-1.22-.12-2.53-.29-3.78-.13-.94-.55-1.26-1.65-.78-2.49,1.09-5.1,1.9-7.61,2.94a1.85,1.85,0,0,0-.9,1.43,50.71,50.71,0,0,0,.43,6.64c.17,1.12.21,2.09-1,2.14a2.39,2.39,0,0,1-1.85-1.4C321.6,215,321.52,212,321.41,210.14Z"/><path class="cls-1" d="M214.11,208.66c.08-5.72,3-9.13,8.31-10.09a5.13,5.13,0,0,1,5.66,4.51c.13,2.42-.28,5,1.71,7,.26.26,0,1.6-.13,1.6-.95.07-2.4.32-2.77-.17a17.92,17.92,0,0,1-1.75-4.07c-.19-.48-.4-.94-.6-1.42a13.38,13.38,0,0,0-1.12,1.14c-1.14,1.52-2,3.31-3.44,4.51-.74.63-2.4.55-3.53.29A2.77,2.77,0,0,1,214.11,208.66Zm3.3-1.56c.17.32.34,1.07.69,1.17a2,2,0,0,0,1.64-.39,20.81,20.81,0,0,0,2.78-3.22,13.14,13.14,0,0,0,1.07-2.64l-2.36.74c-.22.07-.47.07-.7.12C218.36,203.33,217.78,205,217.41,207.1Z"/><path class="cls-1" d="M363.34,221.16c-.16-3.17-.25-6.35-.52-9.52-.06-.64-1-1.17-1.22-1.85-.34-.92-.92-2.45-.54-2.81,1.69-1.6,1.66-3.69,2.14-5.65.11-.46.1-1.09.4-1.35a18.42,18.42,0,0,1,2.33-1.54,9.31,9.31,0,0,1,.72,2.63c0,1.31-.52,2.6-.61,3.92-.12,1.73.83,2.54,2.57,2.71a55.58,55.58,0,0,1,5.87.94,7.35,7.35,0,0,1,1.88,1c-.6.41-1.15,1.07-1.8,1.19a38,38,0,0,1-5.91.64c-1.79,0-2.57.49-2.4,2.47.2,2.38,0,4.78,0,7.18,0,1.15.42,2.73-1.4,2.58-.72-.07-1.33-1.37-2-2.11Z"/><path class="cls-1" d="M237.63,211.39c.37-3.54.61-6.4,1-9.24.08-.63.67-1.2,1-1.79a8.1,8.1,0,0,0,1,1.33.92.92,0,0,0,.88-.11c.7-1,1.23-2.2,2-3.2,1.4-1.87,3.25-2,4.51-.13a38,38,0,0,1,3.29,6.83c1,2.35,1.72,4.79,2.46,7.22.16.53-.16,1.21-.26,1.82-.58-.25-1.47-.34-1.69-.77-1.18-2.33-2.19-4.75-3.25-7.14-.68-1.52-1.27-3.09-2-4.57s-1.78-1.37-2.36.08c-.75,1.9-1.22,3.91-1.83,5.87a28.78,28.78,0,0,1-1.31,3.83c-.29.61-1.2,1.44-1.62,1.33C238.65,212.56,238,211.74,237.63,211.39Z"/><path class="cls-1" d="M302.65,213c.28-2.11.12-4.19.87-5.85A19.47,19.47,0,0,1,314.6,197a3.17,3.17,0,0,1,1.88-.06c.45.12.78.65,1.17,1a5.1,5.1,0,0,1-1.15,1c-1.49.61-3.82.69-4.37,1.74-1.39,2.65-4.31,4.42-4.42,7.85a39.25,39.25,0,0,1-1.07,6.31c-.08.37-.6,1-.77.95a9,9,0,0,1-2.74-1.15C302.74,214.32,302.76,213.45,302.65,213Z"/><path class="cls-1" d="M117.34,203.16c.42-1.87.74-3.8,1.32-5.64.39-1.22,1.21-1,1.53.09a13.89,13.89,0,0,1,.46,3.29c.13,2.78.1,5.58.32,8.36.11,1.34.07,3,2,3.31.22,0,.54,1.33.35,1.48-.79.64-1.86,1.61-2.62,1.45a3.39,3.39,0,0,1-2.08-2.26C118.06,210,117.77,206.63,117.34,203.16Z"/><path class="cls-1" d="M338.39,193.6c1.15.49,2.64.69,2.8,1.27a26.72,26.72,0,0,1,.58,5.47c0,.21-.37.5-.62.67-1.22.81-4.88,0-6.17-1.93a4.55,4.55,0,0,1-.19-4C335.27,194.2,337.09,194.08,338.39,193.6Z"/><path class="cls-1" d="M123.25,190.14c-.2.54-.29,1.29-.53,1.34a2.46,2.46,0,0,1-1.43-.4,4.59,4.59,0,0,1-1.74-1.2,2.29,2.29,0,0,1-.26-1.92,3.23,3.23,0,0,1,1.78-1.31c.28-.08.94.65,1.21,1.13A17.22,17.22,0,0,1,123.25,190.14Z"/></svg>