<svg id="_1" data-name="1" xmlns="http://www.w3.org/2000/svg" viewBox="0 0 531.37 531.37"><defs><style>.cls-1{fill:#fff;}</style></defs><path class="cls-1" d="M491.79,273.87a45.88,45.88,0,0,0,2.86,20.45c1.15,3.12.09,4.47-3.21,4.27a8.14,8.14,0,0,0-2.85-.11,21.6,21.6,0,0,0-3.62,1.9c.85,1.09,1.48,2.74,2.58,3.18,3.24,1.27,6.64,2.34,10.16.67.4-.18,1,0,1.47,0-.17.33-.26.76-.52,1-4,3-12.53,4.3-16.69-1.11-2.36-3.06-1-7.9,2.8-8.81a16.84,16.84,0,0,1,3.32-.41c2.72-.12,3.08-.71,2.5-3.38a67.13,67.13,0,0,1-1.72-10.09,111,111,0,0,1,.36-11.23,2.87,2.87,0,0,1,.29-1.39,11,11,0,0,1,1.34-1.48c.31.58.84,1.14.89,1.73C491.87,270.67,491.79,272.27,491.79,273.87Z"/><path class="cls-1" d="M250.07,260c.43-2.18.73-4.39,1.33-6.53a5.75,5.75,0,0,1,1.69-2.52c1.92-1.73,3.63-1.12,4.13,1.4.54,2.73,1,5.48,1.54,8.19.75,3.51,2.83,4.69,6.24,3.65.38-.12.73-.31,1.1-.44l3-1a34.55,34.55,0,0,0-2-3c-.91-1.1-2.08-2-2.93-3.12a4.17,4.17,0,0,1,1.42-6.18c1-.56,1.74-.14,1.43.92-.9,3.06,1.05,4.66,2.86,6.53a9,9,0,0,1,2.33,4,5.37,5.37,0,0,1-.7,4.15c-1.63,1.79-4.1,1.66-6.26.88-1.29-.47-2.11-1.16-3.45.18-1,1-4-.53-5-2.5-.47-1-.58-1.41-1.77-.57a4.62,4.62,0,0,1-3.55.81c-.68-.24-.89-2-1.2-3.14a6.65,6.65,0,0,1,0-1.67Zm5.57-3.94-.29-.09v-.71l0-1.51c-.46.38-1.21.67-1.34,1.13a45.82,45.82,0,0,0-1,5.07c0,.27.36.61.55.91.27-.26.67-.48.78-.79C254.85,258.7,255.23,257.35,255.64,256Z"/><path class="cls-1" d="M155.38,249.46c-.88.55,1.53,3.2-1.61,2.83a2.27,2.27,0,0,0-.33,1.25A69.31,69.31,0,0,0,154.8,261c.54,2,4.48,4,6.36,3.7.7-.1,1.5.51,2.26.8-.39.71-.63,1.83-1.2,2a9.58,9.58,0,0,1-3.52.32c-1.4-.05-1.84.38-1.54,1.83a15,15,0,0,1,.18,4c0,.43-.7.82-1.08,1.23-.41-.4-1.06-.72-1.19-1.19-.54-1.92-.95-3.88-1.37-5.83-1.9-8.8-3.85-17.59-5.6-26.42-.26-1.3.41-2.79.65-4.19,1.21.85,2.86,1.44,3.56,2.61C154,242.75,156,245.62,155.38,249.46Z"/><path class="cls-1" d="M222.44,301.9c.55,0,1.11,0,1.67,0,1.54.11,2.17,0,1.77-2.06-.93-4.92-1.28-9.94-1.85-14.92a2.66,2.66,0,0,1,.11-1.19,9.84,9.84,0,0,1,.75-1.39c.29.42.73.8.83,1.26.63,2.95,1.19,5.93,1.76,8.9s1.11,5.93,1.7,8.89c.41,2,1.33,2.63,3.08,1.08.38-.33,1.13-.24,1.71-.34a6.59,6.59,0,0,1-.86,1.31c-1.16,1.15-2.6,2.08-2.27,4.1,0,.21-.73.71-1.18.81-1.38.32-2.85.34-4.19.78-2.94,1-5.74,1.16-8.5-.52-2.56-1.56-2.71-4.46,0-5.84,1.61-.83,3.58-1,5.38-1.4Zm.43,5.09,1.81-1.07c-.54-.38-1-1-1.63-1.07a16,16,0,0,0-3.25,0,1.11,1.11,0,0,0-.12.57C220.7,306,221.74,306.44,222.87,307Z"/><path class="cls-1" d="M124.8,310.15c-.14,2.93-.45,3.05-3.26,1.5-.64-.36-2-.49-2.32-.13a6.26,6.26,0,0,0-1.13,3.17c0,.34,1.2,1.06,1.91,1.13,3.82.4,6.79-1.88,10-3.45,1.49-.74,2.81-1.83,4.28-2.62.45-.24,1.15,0,1.73,0-.29.4-.49.92-.88,1.17-3.71,2.42-7.44,4.83-11.22,7.17a6.71,6.71,0,0,1-2.48.76c-3.52.54-6.17-1.08-6.57-4a5.94,5.94,0,0,1,5.42-6.8c1.77-.11,1.53-1,1.45-2.22-.34-5.23-.59-10.46-.82-15.7a4.87,4.87,0,0,1,.56-1.63,6,6,0,0,1,.89,1.71c.5,3.4.92,6.8,1.33,10.21C124,303.61,124.4,306.76,124.8,310.15Z"/><path class="cls-1" d="M313.66,305.73a6.73,6.73,0,0,1-6.3-6.35c0-1.93,1.62-3.43,4-3.65,3-.27,3-.36,2.62-3.35-.47-3.88-.88-7.76-1.31-11.64a1.74,1.74,0,0,1,.07-.94c.41-.8.9-1.55,1.37-2.32a15.16,15.16,0,0,1,.9,2.46c1.16,6.66,2.25,13.33,3.39,20,.12.72.16.69,1.55,0a4.15,4.15,0,0,1,1-.25,2.62,2.62,0,0,1,0,.68C320.29,302.81,316.29,305.76,313.66,305.73Zm-.77-7.42-1.61,1.74c.9.76,1.77,1.56,2.74,2.23.08.06,1.13-.93,1.07-1C314.52,300.33,313.81,299.5,312.89,298.31Z"/><path class="cls-1" d="M229,270.38a31.45,31.45,0,0,1-5.19-1.28c-.79-.32-1.2-1.55-1.78-2.37a15.41,15.41,0,0,1,2.86-.17c1.33.15,2.69.95,3.91.75a11.4,11.4,0,0,0,5.14-2c.63-.51.53-2.77-.06-3.75-.7-1.19-2.2-2-3.48-2.75-1.62-1-3.4-1.71-5.05-2.65-2.68-1.54-3-3.7-.71-5.87a25.56,25.56,0,0,1,3.43-2.57,3,3,0,0,1,1.07-.26,3.88,3.88,0,0,1,0,1.13,7.3,7.3,0,0,1-1,2.38c-1.5,1.78-.51,2.68,1,3.46.92.47,1.85.92,2.81,1.3,4.34,1.73,5.51,5.45,5.93,9.58.19,1.9-1.37,3.71-3.75,4.29C232.53,270,230.85,270.1,229,270.38Z"/><path class="cls-1" d="M394.55,289.71c0,3.44-.46,3.92-3.64,5.21-.52.22-.93,1.27-1,2-.09,1.36.22,2.75.13,4.11,0,.59-.65,1.14-1,1.71-.64-.49-1.63-.87-1.85-1.51a34.87,34.87,0,0,1-1-4.9c-.54-3.06-1.11-6.11-1.55-9.18a10.52,10.52,0,0,1,.11-3.31c.65-3.44,2.87-4.24,5.67-2.1A11.61,11.61,0,0,1,394.55,289.71Zm-2.12.8-.76-.91a18,18,0,0,0-1.35-3.77c-.46-.74-2.06-1.68-2.29-1.49-1.08.88-1.18,2.08-.14,3.3a21.66,21.66,0,0,1,1.36,2.36c.3.46.76,1.13,1.17,1.14A5.64,5.64,0,0,0,392.43,290.51Z"/><path class="cls-1" d="M368.23,297.53a65.91,65.91,0,0,1-3.87,6.54c-.33.45-2.14.21-3-.22a2.46,2.46,0,0,0-3.15.33c-2.44,2.11-3.74,1.71-6.56-.3a2.51,2.51,0,0,1-.88-2.05c.79-3.83,1.76-7.62,4.35-10.72a3.4,3.4,0,0,1,1.3-1,27.51,27.51,0,0,1,2.82-.81c-.42.69-.9,1.35-1.27,2.07-1.29,2.46-2.61,4.91-3.77,7.42-.5,1.07-.5,2.44,1,2.68a3,3,0,0,0,2.48-1c.66-1,.7-2.4,1.18-3.55a13.82,13.82,0,0,1,1.48-2.3,10.3,10.3,0,0,1,1.57,2.09c.38.94.29,2.07.68,3,.53,1.31,1.46,1.76,2.41.31.64-1,1.11-2.1,1.7-3.14a5.44,5.44,0,0,1,.75-.86Z"/><path class="cls-1" d="M116.68,277.14c-.15,1.68-2.89,2.52-4.16,1.29a26,26,0,0,1-3.69-4.86c-.69-1.07-.72-2.3-2.51-.82-2,1.7-5.15.66-6.79-1.77-2.52-3.74-.93-8.18,3.45-9.25,1.22-.3,2.89-.43,3.8.18,1.06.71,1.62,2.27,2.21,3.55,1.3,2.86,2.4,5.82,3.75,8.66.56,1.16,1.31,2.4,3.07,2.14C116.09,276.22,116.49,276.93,116.68,277.14Zm-10.35-10-1.27-3.2a18.5,18.5,0,0,0-2.5,1.52,2.46,2.46,0,0,0-.38,3.64c.44.56,1.88,1.15,2.12.92A14.41,14.41,0,0,0,106.33,267.17Z"/><path class="cls-1" d="M62.09,259.2a11.63,11.63,0,0,1,1.68,2.14c.66,1.43,1.08,3,1.61,4.47.7,1.94,1.64,3.53,3.94,4.07.84.19,1.44,1.37,2.18,2.06.5.47,1.06.87,1.6,1.3a6.93,6.93,0,0,0,.83-1.85c.35-2.51.5-5.05.88-7.56.11-.73.67-1.87,1.17-2a6,6,0,0,1,2.85.62,1.8,1.8,0,0,1,.06,1.29c-2.44,1.07-1.77,3.27-2,5.17a56.41,56.41,0,0,1-1.23,7.24c-.61,2.3-2.33,2.47-4.11.85-1.61-1.47-3.49-2.64-5.13-4.07A9.25,9.25,0,0,1,64,270.06a77.79,77.79,0,0,1-3.18-8.21c-.24-.73.29-1.72.46-2.59Z"/><path class="cls-1" d="M391.83,257.13c.4-1.9.34-2.8-2-3.41-3.9-1-7.37-3.27-8.22-7.76-.17-.87.55-1.92.86-2.89.69.58,1.71,1,2,1.77,1.13,2.9,3.56,4.44,5.92,6,1.51,1,2.63.29,3.27-1.78.83-2.66,1.53-5.37,2.51-8a10.82,10.82,0,0,1,2.11-2.59c.16,1.12.64,2.31.4,3.33-1,4.27-2.25,8.48-3.31,12.73-.3,1.22-.12,2.57-.47,3.77a15.57,15.57,0,0,1-1.62,3,25.71,25.71,0,0,1-1.42-2.76A3.93,3.93,0,0,1,391.83,257.13Z"/><path class="cls-1" d="M295.12,267.43c2.38-3.89.35-6-2.16-8.35-1.8-1.67-2.93-4.07-4.26-6.2a1.75,1.75,0,0,1,.17-1.39c.71-.13,1.77-.32,2.15.06a48,48,0,0,1,3.32,4c.94,1.14,1.91,2.25,2.87,3.37.67-1.39,1.27-2.81,2-4.16,1.47-2.68,2.93-5.38,4.62-7.91.37-.54,1.73-.41,2.63-.59a7.55,7.55,0,0,1-.82,2.56c-2.76,3.37-5,6.87-4.49,11.52a3.67,3.67,0,0,1-.31,1.34,55.07,55.07,0,0,1-1.67,5.53,3.39,3.39,0,0,1-1.92,2C296.72,269.32,295.93,268.15,295.12,267.43Z"/><path class="cls-1" d="M277.26,297.82c-.07-1.59-.18-3.18-.2-4.77s.67-3.25,2.27-3.54A6.34,6.34,0,0,1,284.22,301c-1.67,1.35-1.78,2.43-.79,4.24a17.79,17.79,0,0,1,1.34,4.75,1.24,1.24,0,0,1-.69,1c-.59,0-1.57-.09-1.72-.43C280.55,306.33,277.62,302.59,277.26,297.82Zm7.27-2a32.71,32.71,0,0,0-2.52-3.53,2,2,0,0,0-1.63.08,24.79,24.79,0,0,0-.44,3.46,1.29,1.29,0,0,0,.11.46c.29,1,0,2.7,1.71,2.14C282.76,298.08,283.46,296.84,284.53,295.79Z"/><path class="cls-1" d="M175.67,305.8a9.27,9.27,0,0,1,4.13-8.19c2.38-1.78,6.28-.58,6.8,2a2.49,2.49,0,0,1-.32,1.93,67.34,67.34,0,0,1-6,5.23c-1.15.86-1.19,2.89.47,4.15,1.27,1,2.66,2.12,4.56,1,.42-.24,1.16.08,1.76.14a5.41,5.41,0,0,1-1,1.38c-2.58,1.83-5.52,1.08-7.68-1.35C176.62,310.19,175.48,308.19,175.67,305.8Zm8.07-5a7.45,7.45,0,0,0-1-.8c-1.24,1.05-2.44,2.15-3.64,3.25.29.21.75.67.83.61C181.14,302.9,182.33,301.91,183.74,300.76Z"/><path class="cls-1" d="M256.23,302.58c.18-1.82.3-3.66.57-5.47a4.76,4.76,0,0,1,.87-1.49,5.2,5.2,0,0,1,.62,1.39c.32,2,.58,3.94.82,5.92.21,1.7.88,2.86,2.8,2.94s2.55-1.31,2.94-2.84a10.61,10.61,0,0,1,.17-1.42,25.1,25.1,0,0,1,1.2-2.3,9.73,9.73,0,0,1,2,1.69c1.26,1.73,2.26,3.65,3.55,5.35.51.69,1.53,1,2.26,1.53a9.41,9.41,0,0,1,1.17,1.19c-.51.29-1,.81-1.53.83a5.11,5.11,0,0,1-4.73-2.72c-.85-1.39-1.4-2.15-2.63-.07a5.35,5.35,0,0,1-8.56,1.19c-1.23-1.32-1.39-3.65-2-5.53Z"/><path class="cls-1" d="M346.25,262.16a29.7,29.7,0,0,1-3.74-2.82c-.91-.93-1.32-1-1.73.26a2,2,0,0,1-.09.22c-2.27,5.53-6.25,4.13-8.88.87-1.35-1.68-1.76-4.18-2.34-6.39-.13-.49.83-1.26,1.29-1.91.69.59,1.89,1.12,2,1.79.26,2.08.58,3.92,2.66,5,1.72.89,3,.38,3.23-1.58.18-1.56.08-3.15.19-4.73a11.9,11.9,0,0,1,.51-2c.59.29,1.37.44,1.71.91a20.61,20.61,0,0,1,2,3.48c1.35,2.91,2.69,3.65,5.65,3.08.39-.07,1.18.14,1.2.3.08.58.13,1.48-.2,1.73A24.74,24.74,0,0,1,346.25,262.16Z"/><path class="cls-1" d="M86.42,269.47c-.92-.82-1.73-1.2-2-1.8-1.25-3.24-2.34-6.54-3.52-9.81-1-2.9-2.23-5.76-3.2-8.69a7.11,7.11,0,0,1,.14-2.49c.69.49,1.7.84,2,1.51.84,1.78,1.37,3.71,2,5.57,1,2.84,2,5.69,3.11,8.5.4,1,1,1.71,2,.31a1.74,1.74,0,0,1,2.88-.3,67,67,0,0,1,4.59,5.08,27.94,27.94,0,0,1,2.6,3.88,5.49,5.49,0,0,1,.28,1.94c-.67,0-1.58.21-2-.14a11.39,11.39,0,0,1-2-2.63c-.76-1.19-1.37-2.49-2.15-3.66-1.47-2.19-2.35-2.07-3.51.36C87.42,267.79,87,268.44,86.42,269.47Z"/><path class="cls-1" d="M378.07,262.07a15.16,15.16,0,0,1-2-2.74c-.79-1.8-1.33-2.77-3.75-1.72-1.36.59-3.76-.19-5.19-1.12-1.65-1.08-1.41-3.13-.3-4.74a42,42,0,0,1,4.07-5.22,5.15,5.15,0,0,1,2.84-.95,1.54,1.54,0,0,1,1.3.75c.14.34-.23,1-.56,1.37-1.26,1.41-2.66,2.68-3.84,4.15-.32.38,0,1.27,0,1.92a6.34,6.34,0,0,0,2-.2,3.63,3.63,0,0,0,1.59-1.39c.94-1.57,1.72-2.12,2.58,0,.35.87.8,1.7,1.17,2.56.65,1.5,1.21,3.05,1.94,4.51S380.12,261.65,378.07,262.07Z"/><path class="cls-1" d="M376.33,289.2c-.11,2-.37,4-2.57,5-.37.17-.54,1.13-.51,1.71.09,1.65.43,3.3.44,5,0,.61-.61,1.24-.94,1.86-.76-.46-2-.76-2.22-1.41-1.09-3.14-1.95-6.37-2.8-9.6a3,3,0,0,1,.37-1.74c.3-.7.87-1.31,1.09-2,.81-2.54,2.31-3.92,4.05-3.58S376.47,287,376.33,289.2Z"/><path class="cls-1" d="M453.6,302a30.94,30.94,0,0,0-.07-5.45,41.94,41.94,0,0,0-1.87-5.5c-.24-.68-.76-1.79-.5-2,1.79-1.7.78-3.55.51-5.37a3.89,3.89,0,0,1-.13-1.83c.25-.59.92-1,1.41-1.5.4.43,1,.79,1.16,1.3.48,1.51.77,3.09,1.16,4.63a4.23,4.23,0,0,0,4.76,3.51,12.92,12.92,0,0,1,2.77.54,10,10,0,0,1-2.7,1.33c-3.67.53-3.71.46-3.81,4.08,0,1.59.1,3.19.16,4.78,0,.56.27,1.22.05,1.65a19.26,19.26,0,0,1-1.7,2.46l-1.92-2.23Z"/><path class="cls-1" d="M196,301.07c.33-1.51.67-3.37,1.18-5.18.14-.48.79-.82,1.2-1.22.19.49.4,1,.57,1.46.12.32.2.65.29,1,.24-.19.5-.36.72-.56,2-1.84,3.37-1.84,5,.42a34.4,34.4,0,0,1,2.26,4.69c.67,1.34,1.44,2.63,2.14,4a9.41,9.41,0,0,1,.42,1c-.35.11-.83.43-1,.3a7.31,7.31,0,0,1-2.63-1.94c-.81-1.33-1.07-3-1.77-4.41-.31-.63-1.1-1-1.68-1.52a7.58,7.58,0,0,0-1.28,1.83c-.5,1.51-.66,3.14-1.23,4.61a8.73,8.73,0,0,1-1.83,2.15c-.6-.73-1.48-1.37-1.74-2.2A25.22,25.22,0,0,1,196,301.07Z"/><path class="cls-1" d="M339.13,312.29l-3-1.56a10.74,10.74,0,0,1,2.34-2c1.87-.85,2.51-4,.95-6.17-.82-1.15-2.08-2-2.91-3.11-.46-.63-.9-1.87-.59-2.38,1.74-2.84,3.69-5.55,5.64-8.26.31-.43,1-.59,1.54-.88a5.38,5.38,0,0,1-.08,1.76,32.13,32.13,0,0,1-2.24,5,2.9,2.9,0,0,0,.21,3.82,10.36,10.36,0,0,1,1.09,11.25C341.61,310.81,340.2,311.42,339.13,312.29Z"/><path class="cls-1" d="M471.21,297.65a5.59,5.59,0,0,1-5.35-4.25c-.3-1.39-1.25-3.13-.74-4.08,1-1.81,2.77-3.23,4.32-4.7a2.42,2.42,0,0,1,1.94-.69,7.19,7.19,0,0,1,2.86,1.82c.23.24-.41,1.52-.89,2.13a7.25,7.25,0,0,1-2.15,1.83c-1.39.74-1.87,1.71-1.14,3.12a3,3,0,0,0,4,1.22c.72-.48,1.35-1.12,2.06-1.61a3.5,3.5,0,0,1,1.1-.3,4.3,4.3,0,0,1,0,1.08A7.08,7.08,0,0,1,471.21,297.65Z"/><path class="cls-1" d="M435.34,288.59c3.64,0,6.09,2.16,7.34,5.62.72,2,1.48,4.05,2,6.13.18.73-.34,1.62-.54,2.44-.78-.61-1.93-1-2.28-1.85-1.09-2.44-1.55-5.2-2.84-7.51-1.47-2.63-2.64-2.42-3.81.32-.56,1.31-.84,2.74-1.38,4.06s-1.25,2.67-3,1.91-1.05-1.89-.43-3.17a44.32,44.32,0,0,0,1.52-4.47C432.68,290.07,434,288.68,435.34,288.59Z"/><path class="cls-1" d="M80.29,309.57c1.7-3.29,3.13-6.24,4.78-9.08.24-.42,1.45-.27,2.21-.38a8.85,8.85,0,0,1-.43,2.29c-.71,1.47-1.69,2.82-2.38,4.3-.21.46,0,1.57.26,1.7a2.11,2.11,0,0,0,1.93-.14,26.57,26.57,0,0,0,2.46-3.6c.37-.57.68-1.19,1-1.79.55.49,1.32.89,1.61,1.51.6,1.27.93,2.68,1.41,4,.41,1.1,1,2.14,1.29,3.26a6.4,6.4,0,0,1,0,1.9c-.65-.11-1.58,0-1.88-.38a11.19,11.19,0,0,1-1.46-2.91c-.5-1.34-1.1-1.56-2.23-.57a6.67,6.67,0,0,1-6,1.81C82.1,311.33,81.46,310.47,80.29,309.57Z"/><path class="cls-1" d="M403.58,299.34a10.47,10.47,0,0,1-1.65-.39c-1.24-.52-3.41-1-3.46-1.67-.12-1.47.37-3.66,1.42-4.4a35.07,35.07,0,0,1,7.82-3.77c1.28-.48,2.31.32,2.46,1.85.25,2.56-3,7.42-5.43,8.16C404.36,299.23,404,299.27,403.58,299.34Zm3.83-6.9c-.64-.39-1-.76-1.14-.69-1.08.74-2.11,1.54-3.16,2.32.46.35,1.2,1.09,1.34,1A33.46,33.46,0,0,0,407.41,292.44Z"/><path class="cls-1" d="M314.74,265.16c-2,.11-5.16-1.85-5.62-3.41-.52-1.79.88-4.12,3.2-5.32,3.58-1.85,6.8-.7,8.52,3,.06.15,0,.37.13.46.49.4,1,.76,1.52,1.14a36.52,36.52,0,0,1-4.46,3.74C317.18,265.33,315.85,265.07,314.74,265.16Zm3.7-4.39-.05-1c-.83-.57-1.93-1.78-2.42-1.57-1.16.49-2,1.66-3,2.56.68.63,1.46,1.85,2,1.76A13.52,13.52,0,0,0,318.44,260.77Z"/><path class="cls-1" d="M97.9,309.65a37.13,37.13,0,0,1,.56-4.5c.23-1,.05-3,2.25-1.66.2.12,1-.53,1.41-1,1-1.21,1.93-1.07,3.07-.16,2.82,2.25,3.91,5.53,5.37,8.62.67,1.42,1.52,2.76,2.24,4.16a7.39,7.39,0,0,1,.4,1.36c-.57-.09-1.41,0-1.64-.3-1-1.44-1.81-3-2.69-4.5-1-1.79-2-3.66-3.17-5.33-1.58-2.19-2.41-2.08-3.32.41-.57,1.55-.68,3.28-1.3,4.8-.35.88-1.32,2.12-2,2.11-1.71,0-1-1.59-1-2.6,0-.48,0-1,0-1.43Z"/><path class="cls-1" d="M194.54,267.85a7.92,7.92,0,0,1-1.17-.19c-1-.31-1.84-.77-1.08,1,.27.62-.31,1.61-.51,2.43-.82-.45-2.05-.7-2.39-1.39-1.13-2.22-1.94-4.61-2.85-6.94-.09-.21-.16-.6-.06-.68,2.32-1.83.81-4.3,1.09-6.46a6.58,6.58,0,0,1,.13-1.42,20.79,20.79,0,0,1,1.06-2,13.47,13.47,0,0,1,.71,1.78c.3,1.24.87,2.55.7,3.74-.53,3.67,1.81,5.49,4.23,7.34a4.86,4.86,0,0,0,1.27.63c.59.22,1.2.37,1.8.54-.66.5-1.29,1-2,1.49A2.55,2.55,0,0,1,194.54,267.85Z"/><path class="cls-1" d="M355.48,263.21c-1-.57-1.72-.73-1.87-1.1s.18-1,.41-1.46a3.69,3.69,0,0,1,.76-.92c2-2.1,2-2.09-.47-3.36s-3.81-5.35-2.26-7.59a5,5,0,0,1,2-1.44,1.45,1.45,0,0,1,1.3.25c.18.19,0,.87-.16,1.25-1.33,2.91-.35,4.6,2.89,5,.94.13,2.44.23,2.65.76.59,1.47.9,3.15-.74,4.47S357,261.85,355.48,263.21Z"/><path class="cls-1" d="M123.08,269.66c-3.7,0-3.88.29-3.27,4a11.29,11.29,0,0,1-.21,2.63c-.79-.62-2-1.09-2.31-1.9a78.53,78.53,0,0,1-3-8.85c-.16-.57.7-1.43,1.09-2.15.48.42.94.88,1.45,1.27A5.58,5.58,0,0,0,118.8,266c2.17.47,4.4.66,6.57,1.14.63.14,1.12.87,1.68,1.33a8,8,0,0,1-1.83,1.17A7.63,7.63,0,0,1,123.08,269.66Z"/><path class="cls-1" d="M417.7,295.38a15.06,15.06,0,0,1,.26-3.09c.15-.53.91-.9,1.39-1.34.29.55.79,1.09.82,1.65.1,1.66,0,3.32,0,5,0,.89.2,1.67,1.41,1.1C423,298,423.09,299,423,300a4.47,4.47,0,0,1-.59,2.28,3.56,3.56,0,0,1-2.2,1.43,2.34,2.34,0,0,1-1.75-1.45c-.5-2.23-.72-4.53-1-6.8Z"/><path class="cls-1" d="M407.45,258.44a76.94,76.94,0,0,1-3.5,7.63,15.42,15.42,0,0,1-3.87,4.07c-.54.42-1.76,0-2.67,0,.12-1-.12-2.23.41-2.78,2.75-2.92,5.7-5.66,8.6-8.44a4.81,4.81,0,0,1,1-.59C407.44,258.42,407.48,258.56,407.45,258.44Z"/><path class="cls-1" d="M155.83,306.62c0-1-.07-2.08,0-3.1a7.65,7.65,0,0,1,.61-1.8c.42.58,1.12,1.12,1.23,1.76.36,2.1.45,4.25.76,6.36a23,23,0,0,0,.79,2.65,4.84,4.84,0,0,1,.3,2c-.05.32-1,.85-1.2.72-.64-.34-1.47-.89-1.6-1.5-.5-2.31-.76-4.67-1.1-7Z"/><path class="cls-1" d="M177.45,258.21c.19-.28.42-1,.78-1.06a1.58,1.58,0,0,1,1.25.78c.52,1.06.84,2.22,1.27,3.33.72,1.9,1.53,3.77,2.14,5.7a2.24,2.24,0,0,1-.43,1.82,1.61,1.61,0,0,1-1.58-.12,5.83,5.83,0,0,1-1.38-2.33C178.76,263.73,178.17,261.1,177.45,258.21Z"/><path class="cls-1" d="M215.6,254.16c.78.87,1.26,1.18,1.4,1.61a38.79,38.79,0,0,1,1.48,5.26,6.49,6.49,0,0,1-.63,2.46c-.61-.44-1.53-.75-1.79-1.34a23.62,23.62,0,0,1-1.6-5.17C214.33,256.28,215.05,255.43,215.6,254.16Z"/><path class="cls-1" d="M139.07,263.33c.15.39.31.77.44,1.15.33,1,.6,2,1,2.93.48,1.22,1.1,2.39,1.51,3.63a4.42,4.42,0,0,1,.15,2.22,1.51,1.51,0,0,1-1.35.66,2.4,2.4,0,0,1-1.31-1.36c-.62-2.44-1.11-4.91-1.55-7.39-.08-.43.3-.95.47-1.43Z"/><path class="cls-1" d="M329.61,282.51a7.81,7.81,0,0,1,.47-1.6c.18-.37.7-.88,1-.82a1.91,1.91,0,0,1,1.2.9c.81,1.49,1.54,3,2.23,4.58.15.36.17,1.07-.05,1.23a2.12,2.12,0,0,1-1.52.44C331.28,286.93,329.58,284.53,329.61,282.51Z"/><path class="cls-1" d="M327.56,303.21c.25-2.54.38-4.4.66-6.25.06-.45.6-.83.92-1.24a6.35,6.35,0,0,1,.64,1.31c.4,1.83.83,3.65,1.06,5.51a3.55,3.55,0,0,1-.59,2.14,1.49,1.49,0,0,1-1.45.16A7.74,7.74,0,0,1,327.56,303.21Z"/><path class="cls-1" d="M142,253.12c-.71.45-1.27,1.1-1.84,1.1-1.87,0-3.91-3.78-2.92-5.36.61-1,1.38-1.75,2.25-.17C140.28,250.06,141.06,251.41,142,253.12Z"/><path class="cls-1" d="M157.15,288.72l4,5c-.43.29-1.1.92-1.24.82A34.1,34.1,0,0,1,155.6,291c-.27-.28.3-1.38.49-2.11Z"/><path class="cls-1" d="M217.94,252.25l-1.83-2.57,2.71-1.9c.42.66,1.28,1.41,1.17,1.95C219.82,250.49,218.93,251.1,217.94,252.25Z"/><path class="cls-1" d="M180.53,254.3,178,252l1.83-1.9,2.52,2.91Z"/><path class="cls-1" d="M422.22,282.6c-1.16.8-1.87,1.66-2.41,1.56-.72-.14-1.3-1-1.93-1.57.61-.59,1.17-1.56,1.84-1.65S421,281.77,422.22,282.6Z"/></svg>