<svg id="_1" data-name="1" xmlns="http://www.w3.org/2000/svg" viewBox="0 0 531.37 531.37"><defs><style>.cls-1{fill:#fff;}</style></defs><path class="cls-1" d="M358.06,194.73a42.93,42.93,0,0,0-.33,4.52c0,2.18.42,4.36.43,6.54a25.94,25.94,0,0,1-.53,4.8c-.25,1.4-.77,2.75-1.06,4.14-.08.38.19,1.19.39,1.22,3.36.53.44,1.43,0,1.81a17,17,0,0,1-9,4.67c-2.24.34-4.27.22-6.1-1.26a5.5,5.5,0,0,0-2-1.3c-2.51-.55-2.46-2.16-1.41-3.74a26,26,0,0,1,4.58-5.43c2.54-2.14,5.47-3.82,8.14-5.81a3.32,3.32,0,0,0,1.23-2.15c.26-3.73.33-7.46.45-11.2,0-.31-.12-.66,0-.95.2-.66.49-1.31.74-2,.56.31,1.3.49,1.66,1,1.21,1.53,2.29,3.16,3.42,4.76Zm-7.56,17.61a5.52,5.52,0,0,0-1.44.12c-.93.49-1.81,1-2.71,1.58.87.27,1.75.55,2.63.8.3.08.75.22.92.07a5.48,5.48,0,0,0,1.47-1.61C351.45,213.14,350.67,212.52,350.5,212.34Z"/><path class="cls-1" d="M67.11,169.73c2.89-.76,5.79-.45,8.13-2.67,1.21-1.15,3.06-1.6,4.51-2.54,1.23-.79,1.54-1.85.56-3.24a20.82,20.82,0,0,1-1.61-3.44c-.9-2,.64-2.91,1.88-3.85.15-.11,1,.48,1.3.92s-.21,1-.06,1.38c.43,1.15,1,2.24,1.53,3.35a15.39,15.39,0,0,0,2.19-2.32c1.83-3,3.49-6,5.3-9,.25-.42.91-.59,1.38-.88.17.66.68,1.5.45,2-1.77,3.46-3.38,7.08-5.66,10.19-1.79,2.44-1.34,4.4.24,6.17a58.69,58.69,0,0,0,5.92,5c.55.47,1,1,1.51,1.57-.66.2-1.46.74-2,.54A32.1,32.1,0,0,1,87.11,170c-1.36-.91-2.26-2.91-3.65-3.26-1-.25-2.53,1.38-3.8,2.2a6.26,6.26,0,0,1-5.16,1.13c-.9-.21-2.13.4-3.06.9-4,2.17-8.74,2.16-11.45-.34a8.58,8.58,0,0,1-1.77-3c-.55-1.37-.87-2.83-1.32-4.24-.35-1.07-.86-2,.7-2.75.69-.33,1-1.51,1.38-2.37,1.08-2.72,2.38-5.28,5.28-6.41,3.45-1.34,6,.58,5.64,4.17A11.28,11.28,0,0,1,63.83,165c-.63.37-1.7,1.11-1.62,1.34a4.9,4.9,0,0,0,1.63,2.44A12,12,0,0,0,67.11,169.73Zm0-13.11-.35-.89c-.56-.09-1.46-.43-1.61-.22a29.63,29.63,0,0,0-3.06,4.89c-.46,1,.6,1.58,1.31.86A52.36,52.36,0,0,0,67.09,156.62Z"/><path class="cls-1" d="M289.47,229.89a7.91,7.91,0,0,1-2.61-.54c-.71-.37-1.09-1.39-1.61-2.12,1-.51,2.31-1.71,3-1.42,4.22,1.78,11.63-2.12,13.46-5.6a5.14,5.14,0,0,0,.5-3.4c-.28-1-1.36-1.87-2.1-2.78a11.36,11.36,0,0,1-1.33,2.34c-1,1-2.07,2.57-3.25,2.71-5.4.64-9.17-1-8.63-7.2.39-4.44,4.09-9,8-10.09,2-.54,3.57.84,3.42,2-.38,2.87,1.87,4,2.94,5.95a26,26,0,0,0,2.52,3.17c2.73,3.44,2.75,6.74.07,10.12C301,226.57,294.35,229.92,289.47,229.89Zm.59-16.88c.31.39.87,1.8,1.78,2.08,1.29.41,3.6.52,4.09-.2.78-1.13.57-3.06.48-4.63-.06-1-.94-2-.93-3,0-1.37-.6-1.25-1.46-1C291.92,206.78,290.05,209.6,290.06,213Z"/><path class="cls-1" d="M181.51,258.12a17.51,17.51,0,0,1-2.83-.32c-1.77-.5-2.11-1.8-1-3.23.28-.35.78-.8.72-1.1-1.53-6.75-.46-13.61-.89-20.4a14.06,14.06,0,0,1-.33-2.83,12,12,0,0,1,1.18-2.79c.86.59,2.3,1.05,2.47,1.8a32.73,32.73,0,0,1,.45,6.13c.09,3.25.09,6.51.18,9.76,0,1.58.89,2.1,2.38,1.63a15.44,15.44,0,0,1,10.28.72c.84.32,2.48-.89,2.86,1.47a4,4,0,0,1-1.05,3.95C192.67,256.36,187.39,258,181.51,258.12Zm7.09-9.4c-1.69.73-3.29,1.32-4.8,2.1-.61.31-1,1-1.52,1.55.86.54,1.75,1.58,2.58,1.54a13.84,13.84,0,0,0,4.73-1.3,15.59,15.59,0,0,0,2.93-2.2Z"/><path class="cls-1" d="M332.66,176.86c-5.85.7-9.94-5.8-9.07-11.44.61-4,0-8.26-.26-12.38-.29-4.76-.79-9.51-1.19-14.26a2,2,0,0,1,0-.95c.4-.84.89-1.64,1.34-2.46a8.21,8.21,0,0,1,1.27,2.5c.94,8.48,1.77,17,2.64,25.45.14,1.42.62,1.88,2,.85a2.84,2.84,0,0,1,4.27.49,43.64,43.64,0,0,1,4.77,7.28c1.13,2.33-.49,3.75-4.1,4.9A5.1,5.1,0,0,1,332.66,176.86Zm-.72-3.2c1-.9,2.58-1.59,2.65-2.41A3.14,3.14,0,0,0,332,167.6c-1-.17-4.2,3-3.66,3.73C329,172.27,330.39,172.72,331.94,173.66Z"/><path class="cls-1" d="M137.85,226.87c-.5,8-1,15.78-1.43,23.57-.09,1.69.55,3.42.42,5.1-.21,2.58-1.27,2.82-3.42,1.43a16.79,16.79,0,0,0-4.51-1.76c-.39-.1-1.16.45-1.43.9-.14.24.28,1.11.66,1.33a10.76,10.76,0,0,0,3.38,1.47,13.59,13.59,0,0,0,10.27-2,4.11,4.11,0,0,1,1.45-.33c-.13.48-.1,1.18-.42,1.41a19.53,19.53,0,0,1-4.13,2.61c-3.55,1.42-7.23,2.56-11.07,1.18a9.08,9.08,0,0,1-3.2-2c-1.32-1.29-2.22-3.22-1.08-4.74a11.32,11.32,0,0,1,4.65-3.23c1.44-.59,3.7.14,4.65-.74s.64-3,.79-4.58c.46-5.3.82-10.62,1.36-15.91a27.51,27.51,0,0,1,1.25-5.08c.16-.52.72-.91,1.09-1.36a14.5,14.5,0,0,1,.7,1.7A3,3,0,0,1,137.85,226.87Z"/><path class="cls-1" d="M238.23,244.31c.19,3.56.33,7.13.61,10.69.1,1.23.68,2.43.77,3.66,0,.73-.32,2.07-.7,2.15a4,4,0,0,1-2.63-.57c-2.55-1.69-5-1.26-6.75,1.2-.89,1.21-.75,2.24.38,2.8a17.11,17.11,0,0,0,5.12,1.68,35.31,35.31,0,0,0,5.42-.19,4.65,4.65,0,0,1,1.41.39c-.22.39-.35.95-.69,1.14a19.14,19.14,0,0,1-3.27,1.45,13,13,0,0,1-11.39-1.83c-2.89-1.88-3.14-5.17-.36-7.74a21,21,0,0,1,6.67-3.86c1.41-.55,1.84-1,1.88-2.46.09-4.07.23-8.14.56-12.2a16.9,16.9,0,0,1,1.29-4.56c.17-.42,1-.57,1.54-.84a4.33,4.33,0,0,1,.63,1.42c.06,2.55,0,5.1,0,7.65Z"/><path class="cls-1" d="M311.44,165.21c.43-1.83.77-3.69,1.33-5.49.25-.8.58-1.17,1.62-.19,2.1,2,1.89,4.19,1.51,6.54-.45,2.77-.44,5.46,1.55,7.66a10.68,10.68,0,0,0,2.66,1.62c.35.21.69.44,1,.67a4.07,4.07,0,0,1-.77,1.07c-1.49,1.1-4.22.5-5.54-1.74-1.49-2.53-2.93-2.64-5.27-1.25-2.58,1.53-5,.9-7.28-1.3-3.11-3-3.29-6.61-2-10.39,1.39-4.2,7.66-8.54,12-8.45.57,0,1.12.54,1.68.83a6.36,6.36,0,0,1-1.21,1.22c-2.19,1.29-4.56,2.3-6.6,3.78-3.31,2.4-3.79,6.79-1.44,9.38a4.05,4.05,0,0,0,4.72,1.34c1.86-.7,2.54-2.3,2.36-4.25,0-.32,0-.64,0-1Z"/><path class="cls-1" d="M163.37,170.73c-2.44-1.08-4.93-2-7.29-3.27-1.77-.92-1.65-2.06.1-3.12,2.81-1.69,3.32-2.86,2.7-5.88-.95-4.61-1.84-9.23-2.77-13.84a21.84,21.84,0,0,1-.8-3.48,7.93,7.93,0,0,1,.81-2.56c.77.51,2,.87,2.23,1.58a34.33,34.33,0,0,1,1.08,5.11q1.45,7,2.93,14c.32,1.53,1.14,2.07,2.76,1.75a13,13,0,0,1,4-.1c2.9.4,3.67,2,2.45,4.72C170.24,168.66,167.42,170.27,163.37,170.73Zm1.23-3.66,3.67-2.94c-.42-.27-1-.87-1.23-.75-1.44.71-2.81,1.57-4.2,2.39Z"/><path class="cls-1" d="M184.53,189.81c.18-2.29.29-4.59.57-6.87.07-.6.66-1.14,1-1.71.41.65,1.11,1.28,1.17,2,.22,2.22.12,4.47.31,6.69.39,4.69.82,9.38,1.39,14a10.64,10.64,0,0,0,1.35,3c.74-.75,1.53-1.46,2.22-2.26s1.27-1.86,2.06-2.64c1.78-1.76,3.91-1.7,5.3.4a28.77,28.77,0,0,1,2.42,5.42c.69,1.78,1.29,3.6,1.8,5.43.14.5-.2,1.14-.32,1.71-.56-.14-1.36-.11-1.62-.47a17.14,17.14,0,0,1-1.83-3.3c-.76-1.74-1.33-3.57-2.11-5.3-.7-1.54-1.6-1.29-2.43,0a27.45,27.45,0,0,1-2.69,3.95c-1,1.06-2.37,2.26-3.71,2.45-1.82.25-2.47-1.71-2.66-3.15-.77-5.85-1.34-11.72-2-17.58a15.68,15.68,0,0,1,0-1.68Z"/><path class="cls-1" d="M251.8,158.88c-.47-7.18-1-14.58-1.4-22a6.11,6.11,0,0,1,.75-2.14c.42.68,1.15,1.32,1.21,2,.85,9.13,1.6,18.26,2.39,27.4.14,1.58.43,3.16.52,4.75a9.68,9.68,0,0,1-.37,2.16,17.71,17.71,0,0,1-2.81-.79,13,13,0,0,1-2.1-1.5c-.37.77-1.23,1.76-1,2.25a3.28,3.28,0,0,0,2.23,1.69,19.41,19.41,0,0,0,4.36-.54,5.24,5.24,0,0,0,.85-.27c0,.37.21.94,0,1.08-1.29,1.07-2.52,2.42-4,3-3,1.15-7.17-.95-7.63-3.53-.57-3.24,2.37-7.23,5.52-7.73a2.25,2.25,0,0,0,1.39-1.59A27.23,27.23,0,0,0,251.8,158.88Z"/><path class="cls-1" d="M190.46,169.08c1.75-.57,3.28-1.17,4.88-1.54a5.93,5.93,0,0,1,2.14.34,6.14,6.14,0,0,1-1.26,1.49,14.94,14.94,0,0,1-8.9,2.52c-2.61-.19-4.39-1.72-6.13-3.38A23.59,23.59,0,0,1,179,166c-.32-.42-.75-1.06-.64-1.46a86,86,0,0,1,2.58-8.51,5.42,5.42,0,0,1,4.35-3.69c3.08-.48,5.84,2,4.86,4.94a24.81,24.81,0,0,1-3.95,7.47c-1.29,1.65-1,2.3.52,3A38.78,38.78,0,0,0,190.46,169.08Zm-3.79-11.71c-.08-.2-.17-.68-.31-.7-.36,0-1,0-1.07.24-.59,1.25-1.07,2.56-1.55,3.86,0,.11.23.33.35.5.75-1,1.52-1.9,2.24-2.88A3.56,3.56,0,0,0,186.67,157.37Z"/><path class="cls-1" d="M223.52,203.4a40.31,40.31,0,0,1,6.51.13c.69.11,1.47,1.68,1.61,2.67.44,3.05.46,6.15.9,9.2.19,1.31,1.13,2,2.67,1.18a6,6,0,0,1,2.24-.23,7.81,7.81,0,0,1-.83,2.31c-1.36,1.7-4.3,2.84-6.31.22a10,10,0,0,1-1.53-3.19c-.39-1.36-.75-1.46-1.85-.54a6.49,6.49,0,0,1-6,1.64c-2.19-.57-3.08-2-2.41-4.1q1.41-4.53,3.08-9c.21-.53,1.1-.81,1.68-1.2Zm1.52,3c-.22.12-.63.22-.72.44-.73,1.68-1.43,3.37-2,5.1-.06.18,1.05,1,1.18.94a22.72,22.72,0,0,0,3.59-2.87,8.27,8.27,0,0,0,1.12-2.46Z"/><path class="cls-1" d="M132,199.18c.26-2.05.55-4.18.8-6.31.18-1.46.59-3,2.37-2.51s1.2,2,1,3.42a38.06,38.06,0,0,0-.68,7.5c.13,2.6,1.71,3.31,4,1.92a25.54,25.54,0,0,0,4.53-3.78c1.71-1.74,2.73-1.77,3.76.44a44,44,0,0,1,2.06,5.84c1,3.42,1.88,6.9,5.21,9,.34.21.27,1.09.38,1.66-.57,0-1.24.28-1.72.08-2.83-1.2-4.39-3.57-5.42-6.32-.67-1.79-1.27-3.62-1.76-5.47-.39-1.5-.92-1.62-2-.58-2,1.92-4.15,3.68-7.2,3.82s-4.58-.9-4.88-4.09C132.24,202.31,132.15,200.8,132,199.18Z"/><path class="cls-1" d="M98.25,161.16c.35-1.06.89-2.85,1.53-4.59.12-.32.66-.49,1-.73a4.83,4.83,0,0,1,.63,1.18c.21,1,.3,1.95.43,2.92l2.45-2.12c1.49-1.32,2.9-2.73,4.48-3.93.52-.4,1.44-.29,2.18-.41a9.22,9.22,0,0,1-.86,1.82c-.78,1-1.74,1.87-2.52,2.88-1.14,1.47-.83,2.22,1.07,2.35,3.24.23,6.07,1,7.88,4.06,1.45,2.49.43,8.07-2.1,9.46-.84.46-2.05.25-3.09.36a10.56,10.56,0,0,1,.24-2.89c.45-1.26,1.33-2.36,1.84-3.61a2.81,2.81,0,0,0-2.41-4c-3-.43-5.94-.93-8.92-1.35-.13,0-.51.48-.49.71.17,1.83.5,3.65.56,5.47a6.07,6.07,0,0,1-.78,2.1c-.73-.49-1.95-.88-2.08-1.5C98.79,166.94,98.64,164.47,98.25,161.16Z"/><path class="cls-1" d="M201.52,254.86c.19-3.51,3.39-7.68,6.3-8.72a27.26,27.26,0,0,1,5.43-1.62c.88-.11,1.92.76,2.81,1.3a1.31,1.31,0,0,1,0,1.16c-2.89,1.62-1.13,4-.48,5.61.86,2.08,2.81,3.7,4.27,5.54a11.17,11.17,0,0,1,.8,1.29c-.5.17-1.15.65-1.48.48a31.75,31.75,0,0,1-5.63-3.2c-1.27-1-1.84-1.87-2.87.23-1.14,2.33-5.07,3.42-7,1.87C202.54,258,202.2,256.2,201.52,254.86Zm4.21-.61c.12.28.21.95.58,1.17s1.3.18,1.47-.08c1.1-1.68,2.07-3.44,3-5.21,0,0-1-.92-1.29-.79A6.49,6.49,0,0,0,205.73,254.25Z"/><path class="cls-1" d="M202.87,175.22c.6-2.54,1.93-5.2,1.57-7.59s-2.51-4.26-3.78-6.43-2.67-4.68-3.88-7.08a7.76,7.76,0,0,1-.38-2.35c.85.21,2,.14,2.5.68a42.93,42.93,0,0,1,3.27,5c1,1.55,1.88,3.13,2.8,4.71s1.3.88,1.79-.29c1-2.33,1.91-4.69,3.09-6.91.31-.58,1.48-.7,2.25-1,.05.89.42,1.91.11,2.64-1,2.35-2.32,4.55-1,7.25.19.38-.25,1.18-.57,1.68-2.27,3.55-4.52,7.07-4.35,11.56,0,.42-.87,1.24-1.31,1.22a2.54,2.54,0,0,1-1.74-1.08c-.3-.46-.12-1.24-.15-1.88Z"/><path class="cls-1" d="M244.86,227c-.81-.1-1.46,0-1.88-.26a12.45,12.45,0,0,1-1.79-1.7,7.73,7.73,0,0,1,1.77-1.27c2.11-.68,4.28-1.18,6.41-1.8,1.94-.57,3.85-1.23,4.19-3.66a4.69,4.69,0,0,0-2.74-5.28c-2.63-1.43-5.45-2.65-7.07-5.49s-1.06-5.87,1.7-7.7a1.84,1.84,0,0,1,1.47-.31c.35.19.46.9.6,1.4a2.29,2.29,0,0,1,0,.94c-.57,4,.11,5.63,3.76,7.31,4.11,1.9,5.81,5.07,5.48,9.36-.31,4-2.8,7-7,7.56C248.06,226.26,246.35,226.67,244.86,227Z"/><path class="cls-1" d="M353.26,162.81c-.77,2.07-1.58,4.11-2.28,6.2-.32,1-.87,2.5-.48,2.86a15.62,15.62,0,0,0,4.14,2.36c.43.2,1.08-.18,1.61-.1,1.23.18,1.42.8.64,1.79-1.49,1.89-4.48,2.15-7.15.25-2.25-1.59-4.26-3.51-6.35-5.32-.27-.23-.59-.73-.51-1,.95-3.08,1.86-6.18,3-9.18.73-1.86,2.4-3.08,4.38-2.43S353,160.65,353.26,162.81Z"/><path class="cls-1" d="M121.39,188.75c1.43,0,2.86,0,4.29,0,.27,0,.54.25.81.38-.19.31-.3.78-.56.88-1.27.49-2.62.77-3.84,1.32a10,10,0,0,0-3.58,2.15c-2.78,3.26-2.35,4.89,1.44,6.8,2.56,1.3,3.18,3.59,1.48,5.89a16.9,16.9,0,0,1-12.23,7.07A2.63,2.63,0,0,1,107,212.1c-.46-1.21.54-1.89,1.71-1.94,3.49-.16,6.09-2.1,8.63-4.18,1.61-1.32,1.53-1.94-.3-2.88a15.35,15.35,0,0,1-2.25-1.34c-2-1.48-2.31-3-1.08-5.09A57,57,0,0,1,118,190c.69-.88,2.12-1.18,3.22-1.74Z"/><path class="cls-1" d="M127.32,154.57c.05.88.09,1.76.16,2.63.44,4.92.45,4.92,5.58,5a3.1,3.1,0,0,1,1.18,0,5.91,5.91,0,0,1,1.18,1c-.34.29-.64.73-1,.83-1.62.39-3.27.71-4.92,1-1.93.34-2.61,1.46-2.58,3.37a71.54,71.54,0,0,1-.36,7.61c0,.51-.86.95-1.31,1.43-.44-.46-1.24-.9-1.26-1.37-.06-2,.08-3.95.2-5.93.08-1.5.39-2.87-1.61-3.7-1.55-.65-1.33-2.69.48-3.56,1.31-.64,1.43-1.39,1.36-2.6-.21-3.65-.29-7.3-.5-11,0-.64-.66-1.24-.76-1.9s-.14-1.69.22-2a2.2,2.2,0,0,1,2,0,3.4,3.4,0,0,1,1.15,2c.44,2.34.71,4.72,1,7.08Z"/><path class="cls-1" d="M83.88,247.88c.11-2.14,1.5-4.65,3.4-6.82a4.42,4.42,0,0,1,2.94-1.26c.85,0,1.72.78,2.58,1.23A9.09,9.09,0,0,1,91,242.56c-3.08,1.52-4.53,5.17-2.86,8.06A3.64,3.64,0,0,0,91,251.69a2.51,2.51,0,0,0,2.33-3.05c-.27-1.85,0-3.52,1.71-3.71.62-.07,2,2.47,2.19,3.93.24,1.86.51,3.39,2.17,4.49.36.24.74,1,.61,1.3a1.84,1.84,0,0,1-1.27.83c-.6.09-1.5.1-1.84-.26-1.75-1.86-3.14-.69-4.89.12C87.77,257.26,83.88,254,83.88,247.88Z"/><path class="cls-1" d="M337.29,213.56a64.1,64.1,0,0,1-.64,6.41,2.57,2.57,0,0,1-1.76,1.71c-.6,0-1.26-1-1.83-1.68-.37-.4-.54-1.14-1-1.29-4.31-1.54-6.17-3.92-6.1-8.44,0-2.43.07-4.94,2.31-6.74,1.8-1.45,3.48-1.58,5.31.05C336.62,206.24,337,209.89,337.29,213.56Zm-2.82-2.76a24,24,0,0,0-1.56-3.51c-1-1.57-2.1-1.46-3.08.11-1.14,1.8-.3,6.16,1.41,7.43,1.46,1.08,2.6.58,2.87-1.26C334.21,212.87,334.29,212.16,334.47,210.8Z"/><path class="cls-1" d="M309.1,211.61c.15-4.49,3.08-7.64,6.95-7.49,5.68.22,6.8,2.53,6.94,6.27.17,4.44-3.65,9.06-6.88,9C311.62,219.26,309.12,215.48,309.1,211.61Zm8.06-4.15c-2.45,0-4.23,1.35-4.51,3.73-.23,1.92.32,3.87,2.16,4.7,2.42,1.1,3.27-1.13,4.38-2.62a6.35,6.35,0,0,0,.7-1C321.11,209.75,319.81,207.46,317.16,207.46Z"/><path class="cls-1" d="M173.77,210.26c1.52-.69,3-1.44,4.59-2a9,9,0,0,1,2.29-.22,5.51,5.51,0,0,1-.74,2,10.72,10.72,0,0,1-12.1,2.42c-3.75-1.74-5.32-5.7-3.57-10.18a11.8,11.8,0,0,1,7.2-7.11c.6-.21,1.51.5,2.28.79a9.09,9.09,0,0,1-1.06,2c-1.58,1.73-3.78,3.09-4.78,5.08-1.83,3.63,1.09,6.14,4.21,6.56.47.06,1,.07,1.43.1Z"/><path class="cls-1" d="M374,173.55a14.4,14.4,0,0,1-3.35-1.52c-.51-.41-.42-1.57-.59-2.39a21,21,0,0,1,2.7-.41c.41,0,.89.66,1.23.58a12.69,12.69,0,0,0,2.2-1c-.47-.55-.84-1.29-1.43-1.61-1.47-.79-3.08-1.31-4.56-2.07-1.85-1-2.62-2.51-1.39-4.34a54.59,54.59,0,0,1,4.71-5.92c.36-.4,1.4-.19,2.12-.26a5.43,5.43,0,0,1-.13,2.23,23.3,23.3,0,0,1-2.2,2.82c-1.24,1.63-.65,2.78,1,3.55a12.92,12.92,0,0,0,1.81.63c3.61,1,4.79,3,3.94,6.6C379.68,172.27,377.07,173.5,374,173.55Z"/><path class="cls-1" d="M212,165.73c1.4-3,2.61-6.08,4.28-8.91,1.06-1.81,4.53-2,6.86-.75a3.55,3.55,0,0,1,1.62,5,68,68,0,0,1-6.24,10.06c-1.52,2-4.4,1.12-5.28-1.32a26.9,26.9,0,0,1-.81-3.71Zm3.72.17,1.19,2a5.92,5.92,0,0,0,1.31-1.17c1.13-1.81,2.18-3.67,3.21-5.54.63-1.13,1.38-2.72-.19-3.22a3.93,3.93,0,0,0-3.42,1.59C216.81,161.44,216.44,163.69,215.75,165.9Z"/><path class="cls-1" d="M108.47,243.84c.21.69.45,1.37.63,2.06s.24,1.18.36,1.76c.35-.4.71-.79,1.05-1.2,1.66-2.07,3.93-2.28,5.58-.05a23.58,23.58,0,0,1,2.71,5.76c.8,2.07,1.41,4.22,2,6.36a7.42,7.42,0,0,1,.11,1.71c-.71-.16-1.78-.1-2.06-.54a19.72,19.72,0,0,1-1.88-4.06c-.73-2-1.22-4.12-2-6.1-.73-1.78-1.49-1.79-2.66-.21a9.14,9.14,0,0,0-.7,1.48c-.86,1.76-1.64,3.57-2.66,5.24a2.12,2.12,0,0,1-1.91.71,2.29,2.29,0,0,1-1.31-1.72c.26-3.16.72-6.31,1.2-9.45a6.66,6.66,0,0,1,.92-1.77Z"/><path class="cls-1" d="M227.59,163.49c0-1.74-.05-3.49,0-5.24a8,8,0,0,1,.44-2.81c.27-.66,1-1.12,1.57-1.67a10.3,10.3,0,0,1,.72,2c.11.77-.14,1.61,0,2.37,0,.29.92.72,1.21.6,2.9-1.21,4.6-.91,6.15,2.2a42.41,42.41,0,0,1,2.71,8.6c.13.51-.73,1.27-1.14,1.92-.61-.41-1.58-.7-1.76-1.24-.47-1.5-.45-3.16-.94-4.65a29.74,29.74,0,0,0-2-4.08c-.82,1.18-1.67,2.35-2.45,3.56-.48.73-.68,1.78-1.32,2.22a3.87,3.87,0,0,1-2.54.32c-.29,0-.63-1-.67-1.5a16.42,16.42,0,0,1,.19-2.6Z"/><path class="cls-1" d="M361.09,151.48c0-3.19-.18-6.39.08-9.56.1-1.22,1.37-3.42,1.78-3.35,2.07.36,1.29,2.15,1.32,3.63.14,7.4.33,14.8.7,22.18.07,1.39,1.13,2.71,1.58,4.11a9.51,9.51,0,0,1,.15,2.34c-.84-.19-2.07-.09-2.46-.62a9.06,9.06,0,0,1-1.88-4c-.64-4.89-1-9.81-1.47-14.72Z"/><path class="cls-1" d="M285.71,159.8c-.24-3.63-.33-7.29-.77-10.9-.29-2.42-.76-5-3.69-5.83-.25-.08-.42-.44-.62-.66.27-.25.49-.59.81-.72,2.2-.9,3.59.58,4.11,2.17A54.06,54.06,0,0,1,287.9,154a88.25,88.25,0,0,1,.21,9.77,20.54,20.54,0,0,1,0,4c-.11.52-1.22.84-1.87,1.26-.37-.68-1-1.35-1-2,0-2.39.16-4.77.27-7.16Z"/><path class="cls-1" d="M39.14,157.5c.77-.77,1.28-1.66,1.9-1.75s1.51.77,1.63,1.35c.95,4.49,1.74,9,2.57,13.55a8,8,0,0,1,.2,1.17c0,.78,0,1.56,0,2.34-.78-.52-2-.9-2.25-1.59C41.7,167.64,40.48,162.65,39.14,157.5Z"/><path class="cls-1" d="M240.39,280.12c-.44-.36-1-.6-1.09-1a1.59,1.59,0,0,1,.41-1.23q6.38-7.51,12.83-15c.32-.36,1.05-.36,1.59-.53,0,.57.36,1.37.09,1.7-4.22,5.16-8.51,10.27-12.81,15.37A4,4,0,0,1,240.39,280.12Z"/><path class="cls-1" d="M44,149.36l-3.2-2.75a16.29,16.29,0,0,1,1.79-1.69,33.48,33.48,0,0,1,3,2.94Z"/><path class="cls-1" d="M100.6,149.6c-.78-.94-1.79-1.92-1.67-2.08a5.41,5.41,0,0,1,2.34-2.08c.53-.16,1.42.85,2.15,1.33Z"/></svg>