<svg id="_1" data-name="1" xmlns="http://www.w3.org/2000/svg" viewBox="0 0 531.37 531.37"><defs><style>.cls-1{fill:#fff;}</style></defs><path class="cls-1" d="M293.76,272.33c.59-2.67,1.05-5.65,1.93-8.49s4.34-3.81,8.18-2.5a9.44,9.44,0,0,1,6.73,8,9.93,9.93,0,0,1-4.66,10.08,9.33,9.33,0,0,1-3.94,1.37c-1.82.19-2.11.88-1.61,2.5.92,3,1.85,5.94,2.47,9,.24,1.14-.16,3.41-.63,3.51-1.92.41-2.24-1.22-2.68-2.8-1-3.75-2.42-7.41-3.5-11.16C295.2,278.84,294.59,275.79,293.76,272.33Zm14.07-2.51c.07-1.93-1.53-3.57-3.38-5s-3.64-2.12-5.67-.65c-1.27.92-2.37,5.83-1.71,7.16a55.51,55.51,0,0,0,2.59,5,2.66,2.66,0,0,0,2,1.13C304.61,277.21,307.85,273.5,307.83,269.82Z"/><path class="cls-1" d="M74.24,215a8.45,8.45,0,0,1,0-1.67c.63-3.08-.83-4.56-3.46-6.06a12.69,12.69,0,0,1-4.65-5.58c-2.45-5.35-4.43-10.91-6.62-16.39a33.74,33.74,0,0,1-1.39-3.29,5,5,0,0,1,.23-1.94c.65.28,1.66.38,1.89.85,1.29,2.74,2.35,5.59,3.58,8.35,2.14,4.8,4.24,9.62,6.6,14.31.65,1.3,2.2,2.14,3.33,3.19a41.3,41.3,0,0,0,.89-4.23c.89-7.66,1.69-15.34,2.59-23a6.69,6.69,0,0,1,1-2.67c.28-.43,1.29-.9,1.57-.72.46.29,1,1.22.84,1.66-3.19,9.76-3.22,19.87-3.47,30-.08,3.17-.47,6.34-.53,9.52,0,1.73.48,3.48.44,5.22,0,.84-.73,1.66-1.14,2.49-.44-.7-1.18-1.37-1.26-2.11-.31-2.61-.4-5.24-.57-7.87Z"/><path class="cls-1" d="M153.39,192.1l.81-2.88c.47,1,1,2,1.4,3.09s.67,1.85,1,2.78a24.22,24.22,0,0,1,.77-2.84c.7-1.79,1.5-3.73,3.7-3.91,2.49-.21,3.7,1.85,5,3.53.23.3.2.8.42,1.11a14,14,0,0,0,1.24,1.32,12.36,12.36,0,0,0,.81-1.4c1.1-2.71,2.5-5.1,5.24-6.55,3.86-2,6.89.2,9,4.16,1.54,2.87,2.1,6.29,2.89,9.52.16.62-.63,1.47-1,2.21-.57-.51-1.44-.92-1.66-1.55-.77-2.17-1.21-4.46-2-6.64-.81-2.36-1.81-5-4.74-5s-4.29,2.37-5.24,4.84c-.71,1.86-1.25,3.79-2,5.62a8.81,8.81,0,0,1-1.63,2c-.69-.67-1.72-1.22-2-2.05-.72-1.92-.93-4-1.68-5.93-.34-.85-1.51-1.37-2.3-2a8.25,8.25,0,0,0-1.42,2.46c-.45,2.74-.62,5.53-1,8.29-.12.82-.38,2-.94,2.27s-1.66-.22-2.51-.42c-.07,0-.07-.29-.1-.45C154.81,199.91,154.14,196.23,153.39,192.1Z"/><path class="cls-1" d="M243.26,251.15c-1.3-1.75-2.7-3.08-3.4-4.7-1.32-3.06-2.19-6.32-3.36-9.45a8.35,8.35,0,0,0-1.48-1.93,9.56,9.56,0,0,0-1.13,2.23c-.56,2.73-1,5.49-1.45,8.24a11.46,11.46,0,0,1-.57,2.56,17.07,17.07,0,0,1-1.56,2.44c-.56-.94-1.51-1.84-1.62-2.84-.38-3.32-.22-6.72-.71-10-1.1-7.31-2.47-14.58-3.74-21.87-.39-2.27-.91-4.52-1.19-6.8-.06-.53.59-1.16.91-1.74a5.38,5.38,0,0,1,.91,1.5q2.38,11.32,4.66,22.66c.4,2,.64,3.94,1,5.9a4.53,4.53,0,0,0,.32.84,3.91,3.91,0,0,0,.71-.82,23.7,23.7,0,0,1,1.65-3.61c1.9-2.71,4.28-2.44,5.53.68s2.09,6.2,3.2,9.27c.68,1.92,1.13,4.07,3.62,4.62.21.05.5.81.43.87C245.28,249.75,244.54,250.24,243.26,251.15Z"/><path class="cls-1" d="M322,181.34c.24,3.1.47,6.2.75,9.3a3.39,3.39,0,0,0,.57,1.14,3.37,3.37,0,0,0,.58-1c.36-1.62.51-3.3,1-4.87a4.82,4.82,0,0,1,1.79-2.31c.26-.17,1.54.7,1.94,1.34a22.33,22.33,0,0,1,1.4,3.51c.2.51.42,1,.63,1.5a7.38,7.38,0,0,0,1.31-1.24c.73-1.14,1.2-2.46,2-3.51,1.08-1.37,2.36-2.91,4.35-2.37a4.67,4.67,0,0,1,3.35,4.27c.28,2.13.34,4.29.7,6.4.29,1.74-.13,3.78,1.8,5a1.17,1.17,0,0,1,.11.95c-.54.24-1.44.66-1.66.44A6.83,6.83,0,0,1,340.5,197c-.63-2.71-.71-5.54-1.33-8.25-.24-1-1.37-1.88-2.1-2.81a11.9,11.9,0,0,0-1.83,1.86c-1.36,2.1-2.57,4.3-3.93,6.4-.28.42-1.16.9-1.47.75a3.32,3.32,0,0,1-1.69-1.63,19.19,19.19,0,0,1-.26-3.08,4.17,4.17,0,0,0-.75-1.29,5.29,5.29,0,0,0-.64,1.13c-.76,2.56-1.44,5.15-2.23,7.7a7,7,0,0,1-1,1.59,11.26,11.26,0,0,1-2-1.46,2.81,2.81,0,0,1-.36-1.6c-.26-4.77-.6-9.54-.66-14.32a33.8,33.8,0,0,1,.91-6.1c0-.31.4-.57.61-.86a3.5,3.5,0,0,1,.37,1c0,1.75,0,3.51,0,5.26Z"/><path class="cls-1" d="M264.44,200.34c1.94-1,3.59-1.87,5.29-2.64a9.71,9.71,0,0,1,2.1-.47,6.45,6.45,0,0,1-1.09,1.42c-3.53,2.75-7.3,4.53-11.92,2.81-2.86-1.05-3.59-2.19-2.81-5.07a22.44,22.44,0,0,1,1.34-3.56c1.45-3.13,3.28-3.87,6.57-2.75,2.25.77,2.26.72,1.89-1.66-.72-4.56-1.75-9.13-1.89-13.72-.11-3.75.86-7.53,1.46-11.29.08-.51.81-.93,1.24-1.39a5.41,5.41,0,0,1,.31,1.73c-1.54,9.62.12,18.84,3.29,27.9.35,1,0,2.23,0,3.36a11.53,11.53,0,0,1-3.13-.18,20.54,20.54,0,0,1-3.59-1.89c-1.23-.71-2.22-.43-2.71.84s-1.44,3.22-.94,3.83C260.89,198.86,262.77,199.42,264.44,200.34Z"/><path class="cls-1" d="M197.66,295.06a14.42,14.42,0,0,1-3.48-.32c-.7-.24-1.17-1.18-1.74-1.81a7.28,7.28,0,0,1,2.32-1.12c2.38-.16,4.79.14,7.14-.15a13.65,13.65,0,0,0,4.9-1.71c2.44-1.4,2.51-3.19.06-4.51a55.6,55.6,0,0,0-7.31-2.84c-.67-.26-1.4-.38-2-.69-2.28-1.12-4.88-2.6-4.64-5.21.18-1.85,2-3.95,3.7-5.15,2.53-1.83,5.55-3,8.38-4.4a2.32,2.32,0,0,1,1.4-.17,9.11,9.11,0,0,1,1.66.75,5,5,0,0,1-1.07,1.09c-1.82.94-3.73,1.71-5.51,2.71a22.23,22.23,0,0,0-3.67,2.65c-1.67,1.47-1.71,2.71.22,3.79a56.1,56.1,0,0,0,8,3.55c3.49,1.28,6.83,3.56,5.6,7.77-.9,3.06-3.52,4.21-6.28,4.82C202.82,294.65,200.25,294.75,197.66,295.06Z"/><path class="cls-1" d="M423.62,247.63c-.71-5.75-1.67-10.95-1.91-16.17a107.75,107.75,0,0,1,.7-13.54c0-.66.9-1.25,1.39-1.87a6.27,6.27,0,0,1,.61,2.11c-1.2,10.92.65,21.61,2.32,32.31a18,18,0,0,0,1.72,5.06c.75,1.52-.36,1.71-1.17,1.94-2,.57-4,1-6,1.43-2.49.49-6.11-1.84-6.74-4.33-.13-.49-.07-1.38.21-1.54,2-1.16,4.1-3,6.2-3C423.55,249.93,424.08,249.33,423.62,247.63Zm-1,8.92,1.69-1.41c-.9-.85-1.68-2-2.74-2.42-.66-.23-1.76.8-2.66,1.27Z"/><path class="cls-1" d="M221.6,165.08c.34-.85.79-2,1.25-3.21a18.43,18.43,0,0,1,1.36,3.51c1,5.88,2,11.8,3,17.69a5.76,5.76,0,0,0,.8,1.53,10.47,10.47,0,0,0,.81-1.41c.5-1.36.83-2.88,2.71-2.88a3.89,3.89,0,0,1,3.93,2.62c1,2.69,1.74,5.46,2.57,8.2.41,1.38.83,2.75,1.11,4.15a7.69,7.69,0,0,1-.11,2c-.77-.2-2-.16-2.23-.64a25.91,25.91,0,0,1-2-4.85c-.62-2-1-4-1.65-6-.22-.65-1-1.11-1.53-1.66a9.23,9.23,0,0,0-1,1.81c-.52,1.85-.83,3.75-1.42,5.56-.22.67-1.05,1.65-1.53,1.61-.8-.06-1.55-.81-2.28-1.33-.14-.1-.09-.45-.12-.69C224.1,182.61,222.89,174.1,221.6,165.08Z"/><path class="cls-1" d="M220.71,263.66q.56,9.66,1.14,19.33a4.78,4.78,0,0,0,.58,1.4,7.48,7.48,0,0,0,.87-1.34c.74-1.92,1.26-4,2.18-5.79,1.64-3.27,4.84-3.57,6.55-.39a87.66,87.66,0,0,1,4.36,10.8,38.06,38.06,0,0,1,1.42,5.07,5,5,0,0,1-.33,1.8c-.52-.39-1.3-.68-1.5-1.2-1.09-2.74-2-5.55-3-8.32a48.59,48.59,0,0,0-2.31-5.75,3.4,3.4,0,0,0-2.26-1.7c-.56-.06-1.55,1-1.84,1.78-1.35,3.58-2.47,7.24-3.8,10.83a8.88,8.88,0,0,1-1.76,2.17c-.5-.85-1.38-1.68-1.43-2.57-.54-8.89-.94-17.8-1.38-26.7a1.11,1.11,0,0,1,0-.48c.34-.79.71-1.57,1.08-2.35.46.74,1,1.45,1.37,2.23a2.89,2.89,0,0,1,0,1.18Z"/><path class="cls-1" d="M99.38,200.14a41.83,41.83,0,0,1,.39-4.49c.1-.58.78-1.06,1.2-1.59a7,7,0,0,1,.72,1.85c.25,2.76.39,5.53.61,8.3a4,4,0,0,0,.43,1.82c.79,1.19,1.72,3.17,2.63,3.19a6,6,0,0,0,4.51-2c1.48-2.15,2.14-4.85,3.21-7.29a30.76,30.76,0,0,1,1.64-2.9,17.68,17.68,0,0,1,2,2.94c1,2.36,1.45,5.06,2.83,7.16,1.77,2.69,4.13,2.36,6-.32.18-.26.56-.38.85-.57.16.35.55.78.45,1-.64,1.47-1.06,3.69-2.18,4.15a7.16,7.16,0,0,1-5.34-.39c-1.58-.78-2.76-2.53-3.87-4-.85-1.16-1.14-1.2-1.88.06a18.35,18.35,0,0,1-2.79,3.55,6.64,6.64,0,0,1-6.83,1.83c-2.5-.8-3.43-3.22-3.84-5.64C99.72,204.61,99.61,202.38,99.38,200.14Z"/><path class="cls-1" d="M279.33,208.83c-1.65-.64-3.63-1.35-5.54-2.21-.39-.18-.52-1-.77-1.45a4.52,4.52,0,0,1,1.66-.46c1.18.16,2.32.66,3.49.76a9.4,9.4,0,0,0,3.3-.27c2.72-.75,3.35-2.21,1.84-4.57s-3.36-4.44-4.87-6.77a20.09,20.09,0,0,1-2.65-5.3c-1.3-4.68,2-8.67,5.41-10.68a3.29,3.29,0,0,1,2-.44,9.83,9.83,0,0,1,2.3,1,13.59,13.59,0,0,1-1.71,1.44c-5.77,3.37-5.72,6.69-2.08,12.77,1.39,2.32,3.09,4.43,4.64,6.65,2.5,3.56,1.65,6.69-2.39,8.35A35.56,35.56,0,0,1,279.33,208.83Z"/><path class="cls-1" d="M199.3,202c-4.1.11-5.55-2.08-6.94-4.38-.86-1.42-1-3.48-3.24-3.78-.07,0-.15-1.92.08-2,2.61-.87,2.21-3.39,3.09-5.2a51,51,0,0,1,3.71-6.77c.93-1.35,2.82-2.22,4.16-1a6.15,6.15,0,0,1,1.74,4.29c-.13,3.09-2,5.43-4.42,7.33-3.31,2.62-3.58,3.55-1.85,6.33,1.6,2.58,3.79,3,7,1.49a18.72,18.72,0,0,1,1.94-.71,10.32,10.32,0,0,0-1.17,1.57A5,5,0,0,1,199.3,202Zm-3.51-13.68c1.15-1.81,2-3.09,2.79-4.44.18-.32,0-.87-.07-1.32-.45.22-1.09.32-1.31.68a31.8,31.8,0,0,0-1.84,3.58C195.26,187,195.51,187.39,195.79,188.32Z"/><path class="cls-1" d="M286.66,294.91c1.36-.39,2.72-.79,4.08-1.15a4.49,4.49,0,0,1,1.1-.06c-.23.43-.36,1-.73,1.26-3.2,2.15-10,3.11-13.74.11-4-3.22-6.75-7.11-5.92-12.52.6-3.89,2.57-7,6.43-8.51a4.86,4.86,0,0,1,5.9,2.31c.89,1.76-.09,4.69-2.19,6a28.72,28.72,0,0,1-4.49,2.2c-2.4.95-2.85,2.18-1.45,4.35A13.34,13.34,0,0,0,286.66,294.91Zm-5.55-17.2c-.32-.19-.82-.73-1.35-.78-1.66-.13-4.76,2.62-4.89,4.32a1.45,1.45,0,0,0,.72,1.17C277.27,282.94,281.15,279.87,281.11,277.71Z"/><path class="cls-1" d="M351.63,239.65a22.34,22.34,0,0,1,.69-4.3c.22-.66,1.3-1,2-1.53a9.06,9.06,0,0,1,.68,2.39c0,2.35-.45,4.71-.26,7,.15,1.89,1.87,2.37,3.89,1.41,4.28-2.06,4.28-2.06,7.46,1.52,3.72,4.2,4.51,4.1,6.86-1.18,1.65-3.7,3.08-7.5,4.73-11.2.27-.58,1.22-.85,1.85-1.27a21.28,21.28,0,0,1-.6,2.07c-.87,2.3-1.82,4.58-2.68,6.89-1,2.83-2,5.71-3.05,8.52-1.44,3.73-4.41,4.16-6.89,1-.44-.55-.71-1.23-1.12-1.82-2-2.8-3.12-3-6.08-1.28-3.42,2-6.76.19-7-3.83C352,242.68,351.8,241.25,351.63,239.65Z"/><path class="cls-1" d="M256.59,295c1.83-.49,3.66-1,5.5-1.44a3.77,3.77,0,0,1,.89,0c-.17.3-.26.71-.52.89-3.2,2.29-11.12,2.51-14.43.42a7.39,7.39,0,0,1-2.86-6.68c.74-5.24,4.41-8.55,7.92-11.86a4.89,4.89,0,0,1,4.22-.62c.82.28,1.42,2.18,1.51,3.4.37,5.18-4,10.45-8.91,10.77-1.52.1-1.12.69-.64,1.43C250.58,293.28,253.73,294.74,256.59,295Zm-7.22-8c4.4.07,7.95-4.14,7.27-7.73-.26-1.36-.89-1.43-2-.79-2.9,1.66-4.53,4.35-5.85,7.25C248.63,286,249.25,286.68,249.37,286.92Z"/><path class="cls-1" d="M170.78,237.1c.53-2.78,1-5.6,1.69-8.34.13-.5,1.46-1.08,2.13-1a5.94,5.94,0,0,1,4.78,4.53c.86,2.91.12,6.14-2.14,7.65-4.27,2.86-2.33,6.26-1.69,9.57.3,1.57,1.44,3.44-.57,4.12-2.35.8-2.67-1.76-2.87-3.15C171.46,246.11,171.2,241.65,170.78,237.1Zm3.07-2.31-.34.1,1,2.51c.69-.87,1.41-1.72,2-2.63a1,1,0,0,0,0-.92c-.5-.91-1.07-1.78-1.61-2.66-.37.8-.77,1.59-1.07,2.42A4.19,4.19,0,0,0,173.85,234.79Z"/><path class="cls-1" d="M144.6,234.34c-.28,3.14-1.32,5.85-4,7.8-2.17,1.57-2.58,3.2-1.36,4.55s4.71,1.77,6,.37,2.36-3,3.52-4.47c.14-.18.31-.34.46-.5.1.17.31.36.28.51a9.07,9.07,0,0,1-4.84,6.74c-2.19,1.17-4.48,2-6.64,0a16.58,16.58,0,0,1-2-2.86c-.56-.81-1.15-1.61-1.69-2.45-.24-.37-.64-.95-.51-1.22,1.75-3.58,1.55-8,4.61-11a5.15,5.15,0,0,1,1.32-1C142.48,229.42,144.56,230.93,144.6,234.34Zm-2.36,1.54c-.5-1-.76-1.57-1.08-2.09a1.25,1.25,0,0,0-.76.34c-.89,1.82-1.76,3.65-2.56,5.52-.12.27.17.73.27,1.1.34-.14.82-.18,1-.43C140.21,238.84,141.24,237.31,142.24,235.88Z"/><path class="cls-1" d="M347.41,192.2c.21-4,5.64-9.6,9.74-10,.29,0,1,.88.92,1a12.55,12.55,0,0,1-1.8,2.11c-1.52,1.39-3.17,2.64-4.63,4.08-1.13,1.13-1.59,2.65-.08,3.72,1.29.92,3,1.42,4.27-.13.7-.82,1-1.94,1.74-2.75a10.44,10.44,0,0,1,2.14-1.52,6.42,6.42,0,0,1,.59,2.27c-.37,2.48-.69,4.91.69,7.19a10.31,10.31,0,0,0,1.05,1.26c.43.5.86,1,1.28,1.49-.86.43-1.75,1.26-2.57,1.19-1.94-.17-2.83-1.76-3.1-3.48-.3-1.92-.76-2.53-2.89-1.72C350.65,198.42,347.21,196.09,347.41,192.2Z"/><path class="cls-1" d="M209,190.45c0-4.85-.12-9.7.08-14.54,0-1.1,1.23-2.15,1.89-3.22.41,1.24,1.18,2.48,1.18,3.73,0,3.57-.38,7.14-.44,10.71a2.29,2.29,0,0,0,1.3,1.71c3.36,1.08,6.7,1.7,9.32-1.68.25-.32.92-.33,1.39-.48a4.63,4.63,0,0,1-.31,1.54c-2.22,3.37-5.06,5.29-9.38,4.29-2.28-.52-2.69,0-2.5,2.35.11,1.27.31,2.54.32,3.81,0,.49-.41,1-.64,1.47-.35-.36-.86-.65-1-1.08a20,20,0,0,1-1.16-3.61c-.31-1.64-.41-3.32-.6-5Z"/><path class="cls-1" d="M101.82,231.35a13.33,13.33,0,0,1,1.57,2.37c1.19,3.38,2.28,6.79,3.4,10.19.2.6.32,1.24.56,1.83a4.37,4.37,0,0,0,.72.91,4.59,4.59,0,0,0,.67-1.08,54.3,54.3,0,0,1,1.78-6.39,4.47,4.47,0,0,1,2.77-2.48c.88-.15,2.37.9,2.95,1.82,1.65,2.61,3,5.44,4.42,8.17.67,1.24,1.44,2.44,2.12,3.68a16.22,16.22,0,0,1,.68,1.67c-.78.12-1.91.62-2.26.29a11.4,11.4,0,0,1-2.3-3.25c-1.35-2.7-2.48-5.51-3.86-8.2a2.63,2.63,0,0,0-1.93-1.35c-.58.06-1.31,1.06-1.51,1.78-.83,3-1.43,6.06-2.23,9.06a6.65,6.65,0,0,1-1.26,1.81c-.6-.65-1.51-1.2-1.72-2-.52-1.83-.49-3.82-1.08-5.61-1-3.13-2.4-6.15-3.55-9.25a12.52,12.52,0,0,1-.54-2.75C101.19,232.36,101.47,232.05,101.82,231.35Z"/><path class="cls-1" d="M271.42,250.62c-.12-4.09-2-6.45-5.85-7.72a13.07,13.07,0,0,1-3.13-1.61c-1.7-1.14-1.93-2.69-.32-3.86a89.54,89.54,0,0,1,7.92-4.84c.44-.25,1.16,0,1.75,0-.24.6-.33,1.38-.77,1.76a38.36,38.36,0,0,1-3.63,2.7c-2.2,1.52-2.29,2.23,0,3.48,3.86,2.12,6.49,5,7.12,9.54.43,3.15-.15,4.87-2.22,6a7.17,7.17,0,0,1-7.21-.92,3.24,3.24,0,0,1-.47-.71c.26-.15.54-.42.8-.4.79,0,1.57.29,2.36.3C270.61,254.39,271.51,253.44,271.42,250.62Z"/><path class="cls-1" d="M286.8,250c-1-.09-2.08-.09-3.09-.28-3.65-.69-4.64-1.88-5-5.57-.12-1.28-.47-2.53-.66-3.8,0-.27.1-.81.23-.84,2.25-.42,2.05-2.75,3.19-4,.48-.53.82-1.19,1.32-1.69,1.23-1.23,2.59-2.36,4.37-1.07,1.63,1.18,2,4.46.65,5.76a12.54,12.54,0,0,1-3.5,2.36c-2.59,1.12-3.15,3.55-.94,5.35s4.38,3.38,7.5,2c.8-.36,1.91,0,2.89.05a14.86,14.86,0,0,1-2.52,1.13c-1.45.37-2.94.54-4.42.8Z"/><path class="cls-1" d="M94.56,207.94c-.43,2.47-.5,5.47-3.67,6.89-1.86.83-3.5.85-4.68-1.23-2.58-4.55-4.57-9.14-1.87-14.38A3.42,3.42,0,0,1,89,197.35c3.27,1.16,4.5,3.84,5.16,6.91A32.53,32.53,0,0,1,94.56,207.94Zm-8.73-3.31-.29.14c.67,1.85,1.24,3.74,2.07,5.51.32.68,1.46,1.62,1.87,1.47a3.67,3.67,0,0,0,1.86-2,9.15,9.15,0,0,0-1.5-9,2.78,2.78,0,0,0-2.19-1c-.58.1-1.16,1.14-1.4,1.87A17.31,17.31,0,0,0,85.83,204.63Z"/><path class="cls-1" d="M390.48,236.91a9.89,9.89,0,0,1,2.26.57,7.7,7.7,0,0,1,1.34,1.28,7.62,7.62,0,0,1-1.41.55c-3.35.63-4.59,3.47-6.17,5.9-.62.94,0,1.7,1,1.32a7.53,7.53,0,0,0,2.77-1.91c1.64-1.75,2.5-1.66,3.31.62.45,1.27.71,2.63,1.23,3.87a13.15,13.15,0,0,0,1.57,2.27c.33.46.67.91,1,1.37-.65.35-1.63,1.17-1.91,1-1.21-.85-2.73-1.8-3.2-3.07-.81-2.17-1.5-2.32-3.31-1.05a6.7,6.7,0,0,1-3.61.92c-3.21,0-4.06-1.48-2.55-4.29a37.79,37.79,0,0,1,3.43-5.94C387.44,238.83,389.24,237.87,390.48,236.91Z"/><path class="cls-1" d="M240.52,187.76c1-1.25,1.71-2.83,2.95-3.61,1.68-1.07,3.43-.19,4.69,1.22a13.43,13.43,0,0,1,3.21,9c0,1.19-.9,2.48-1.63,3.55a2,2,0,0,1-1.88.48c-1.81-1.27-3.84-2.49-5.07-4.23S241.34,190.25,240.52,187.76Zm4.82-.83-.62.12a6.25,6.25,0,0,0-.17,2.51,14.12,14.12,0,0,0,2,3.13c.07.09,1-.24.94-.31a15.9,15.9,0,0,0-.6-3.52A7.73,7.73,0,0,0,245.34,186.93Z"/><path class="cls-1" d="M246.76,243.21c0-1,0-1.38,0-1.77.27-2.65,2.45-5.33,4.52-5.57,1.43-.16,4.4,2.08,5.12,4.12a39.45,39.45,0,0,1,1.2,5c.36,1.76.49,3.4-1.23,4.72s-3.58.3-5.11-.27A6.41,6.41,0,0,1,246.76,243.21Zm8.12,1.35a53.6,53.6,0,0,0-2.1-5c-.14-.28-1.47-.32-1.88,0-1.86,1.46-1.42,4.68.86,6.4a2.36,2.36,0,0,0,1.9.46C254.17,246.22,254.4,245.35,254.88,244.56Z"/><path class="cls-1" d="M455,261.16c2.89-4.91-.27-6.09-3.59-7.79-3-1.51-3.45-5.11-4.51-8-.12-.33.6-1,.94-1.46.53.38,1.23.64,1.56,1.15,1.47,2.26,2.69,4.7,4.29,6.85,1.3,1.75,3.21,1.21,3.88-.84,1.07-3.34,2.17-6.68,3.26-10a2.73,2.73,0,0,1,.45-1.09,9.24,9.24,0,0,1,1.43-1,4.42,4.42,0,0,1,.23,1.65c-1.24,4.54-2.65,9-3.78,13.6-.55,2.21-.56,4.54-.94,6.79a5.7,5.7,0,0,1-1,1.74Z"/><path class="cls-1" d="M200.34,238c-.23-2.54-.54-5.08-.63-7.63,0-.65.66-1.34,1-2,.45.56,1.16,1.05,1.3,1.67.4,1.85-.07,4.76,1,5.42a36.16,36.16,0,0,0,9.33,3.71c1.23.36,2.75-.25,4.14-.34a3.43,3.43,0,0,1,1.2.41c-.24.27-.46.76-.73.79a52.67,52.67,0,0,1-7.49.69c-1.79,0-3.54-.87-5.33-1.2-.41-.08-1.35.48-1.32.67.43,3.87,1,7.72,1.46,11.59a8.79,8.79,0,0,1-.14,1.68,5.94,5.94,0,0,1-1.91-.6c-.36-.28-.45-1-.52-1.53-.3-2.22-.53-4.43-.8-6.65s-.55-4.43-.83-6.64Z"/><path class="cls-1" d="M130.73,200.89c.06-.93,0-1.61.13-1.66,2.89-.94,1.95-3.84,2.82-5.74,1.7-3.72,7.2-7.57,11.27-7.19a6.63,6.63,0,0,1,1.51.53c-.41.35-.77.85-1.25,1-2.62.92-5.16,1.88-7.09,4.08-1.41,1.6-2.87,3-2.6,5.47.33,3.16.35,6.35.46,9.53,0,1.14,0,2.56-1.63,2.19a3.49,3.49,0,0,1-2-2.05C131.62,204.9,131.18,202.63,130.73,200.89Z"/><path class="cls-1" d="M151.64,225.89c0-2.46-.12-4.92.06-7.36.06-.86.82-1.68,1.25-2.51a9,9,0,0,1,1,2.42c.48,4.84.67,9.7,1.29,14.51a101.35,101.35,0,0,0,2.31,11.45c.33,1.31,1.42,2.41,2.07,3.65a8.6,8.6,0,0,1,.51,1.77c-.73.06-1.82.46-2.12.13a9.23,9.23,0,0,1-2.49-3.7c-1.55-6.71-2.86-13.47-4.25-20.22Z"/><path class="cls-1" d="M346.64,241.58a8.61,8.61,0,0,1-.32,1.62c-1.16,2.89-8.77,4.47-10.94,2.29-.28-.27-.63-.61-.66-1a9.46,9.46,0,0,1,3-8.16,4.63,4.63,0,0,1,5.26-1C345.64,236.48,346.56,238.81,346.64,241.58Zm-8.29.74c.2.18.61.85,1.09.9,1.45.16,4.24-1.64,4.21-2.57,0-1.36-.64-2.28-2.14-2.32S338.32,240,338.35,242.32Z"/><path class="cls-1" d="M441.78,229.93a91.93,91.93,0,0,0-1.06,9.89c0,5.25-.05,10.57,2.73,15.38.23.4-.21,1.19-.34,1.8-.65-.39-1.57-.61-1.92-1.17-3.13-5.16-3.08-11-3-16.7a70.8,70.8,0,0,1,.75-9.3c.14-1,1.17-1.78,1.8-2.67l1.76,2.62Z"/><path class="cls-1" d="M379.27,211.56a93.8,93.8,0,0,1,5.26-26.1,3.58,3.58,0,0,1,.8-1.44,5,5,0,0,1,1.38-.69,4.22,4.22,0,0,1,.23,1.45c-1,4.58-2.21,9.13-3.15,13.72-.85,4.13-1.4,8.31-2.2,12.45-.12.63-.92,1.12-1.41,1.68C379.75,212.12,379.31,211.62,379.27,211.56Z"/><path class="cls-1" d="M331.06,249.55c-4.42-.4-7.91-2.72-8.7-6.06a9.13,9.13,0,0,1,4.91-10c.69-.34,2.39-.17,2.53.19.36.91.92,2.21-1,2.76a4.41,4.41,0,0,0-3.35,4.7,5.37,5.37,0,0,0,3.5,5c1.72.67,3.15,2.27,5.29,1.6.15-.05.39.19.59.3-.15.24-.26.62-.46.68C333.3,249,332.18,249.27,331.06,249.55Z"/><path class="cls-1" d="M376.81,200.55c-3.09-.24-5.15-2.32-6.66-4.58s-2.34-5-3.4-7.61a2.25,2.25,0,0,1-.07-1.63,2,2,0,0,1,1.28-1.17c.38,0,1,.65,1.23,1.14,1.78,3.07,3.34,6.28,5.31,9.21.77,1.14,2.42,1.68,3.68,2.48.5.32,1,.61,1.52.92A15.18,15.18,0,0,1,378,200.4,3.84,3.84,0,0,1,376.81,200.55Z"/><path class="cls-1" d="M404,252.44c1.2-4.38,2.3-8.23,6-10.51a4.27,4.27,0,0,1,2-.73,6.67,6.67,0,0,1,2.05.61,7.76,7.76,0,0,1-1.69,1c-2.65.72-3.09,3.26-4.17,5.18-.71,1.26-.69,2.91-1.18,4.33A7.09,7.09,0,0,1,405.6,254Z"/></svg>