<svg id="_1" data-name="1" xmlns="http://www.w3.org/2000/svg" viewBox="0 0 531.37 531.37"><defs><style>.cls-1{fill:#fff;}</style></defs><path class="cls-1" d="M160.38,330c.21-1,.18-2.55.88-3.66a5,5,0,0,1,3.25-2.27c1.47-.08,3.26.15,4,2.22,1.79,4.84,3.86,9.57,5.7,14.38.8,2.08.27,3.7-1.75,5.08-3,2-5.93,3.3-9.59,2.51-1.83-.4-3.75-.42-5.59-.8-.55-.11-1.46-1-1.38-1.27a4.57,4.57,0,0,1,1.44-2.21,2,2,0,0,1,1.87,0c2.68,1.76,9.05,1.29,11.22-1a2.19,2.19,0,0,0,.67-1.62c-.6-2.21-1.34-4.37-2.11-6.52-.41-1.14-1-1.05-1.68-.11a7.9,7.9,0,0,1-1.43,1.57,3.1,3.1,0,0,1-5.21-2C160.49,333.05,160.5,331.77,160.38,330Zm5.23.71-.77-2.45a7.21,7.21,0,0,0-1.1,2.32c-.06.74.53,1.52.83,2.28Z"/><path class="cls-1" d="M311.21,322.32l-1.1,1.38c-1.51,1.95-3.1,3.85-4.5,5.88s-.87,3.12,1.47,3.87c.38.12.78.16,1.17.27,3.86,1,4.95,2.42,4.62,5.92-.22,2.29-2.85,4.57-5.76,4.92-1.51.18-3,.19-4.53.44-1.29.22-2.53.77-3.83,1a9.38,9.38,0,0,1-2.34-.2c.29-.69.42-1.8.91-2,2.47-1,5-1.77,7.57-2.61a22.19,22.19,0,0,0,3.37-1.12c.58-.31.89-1.14,1.33-1.73a10.6,10.6,0,0,0-1.88-1.12c-1.4-.49-2.92-.69-4.28-1.27-2.35-1-3.53-3.4-2.2-5.49,2.23-3.52,5-6.73,7.54-10,.16-.21.85-.36,1-.24A26.13,26.13,0,0,1,311.21,322.32Z"/><path class="cls-1" d="M333.83,328.44c.18,3-1.13,4.17-4.17,3.8-4.05-.51-4.74-1.42-3.56,3.92a45.71,45.71,0,0,1,.9,6.8c0,.54-.69,1.15-1.07,1.72-.72-.5-1.89-.86-2.09-1.52A35.25,35.25,0,0,1,323,338c-.26-1.81-.61-3.6-.76-5.42a83.82,83.82,0,0,1-.52-9.75c.11-3,1.94-4,4.93-3.22C330.21,320.56,333.6,324.75,333.83,328.44Zm-5.08.6c.26-.2,1.54-.66,1.7-1.37.32-1.48-2.93-4.63-4.4-4.23a3.38,3.38,0,0,0-1.71,2.5C324.09,328.22,325.13,329,328.75,329Z"/><path class="cls-1" d="M236.6,274.85c0,4.54,0,9.08,0,13.62a7.08,7.08,0,0,0,.41,1.58,11.94,11.94,0,0,0,1.29-.78c3.2-2.53,6-1.63,8.61,2.74a27.83,27.83,0,0,1,1.8,3.06,8.48,8.48,0,0,1,.25,2.39c-.84-.22-1.93-.17-2.45-.7a31.9,31.9,0,0,1-2.45-3.52c-1.15-1.53-2.48-1.59-3.79-.17a16.33,16.33,0,0,1-2,2.33,3.56,3.56,0,0,1-2.59.87,3,3,0,0,1-1.74-2.16c0-6,.15-12.05.32-18.07a3.66,3.66,0,0,1,.56-1.79,9.08,9.08,0,0,1,1.42-1.42l.66,2Z"/><path class="cls-1" d="M134.88,284.16c.18-.25.42-1,.83-1.07a1.81,1.81,0,0,1,1.51.59c.68.92,1,2.66,1.74,2.85a18,18,0,0,0,5.63.14c2.14-.16,4.24-.59,6.37-.87a4.53,4.53,0,0,1,1.13.16c-.28.31-.51.8-.86.9a107.94,107.94,0,0,1-10.79,2.87c-1.89.34-2.29.9-1.81,2.56.8,2.75,1.59,5.5,2.28,8.27a3.91,3.91,0,0,1-.07,2.42c-.18.39-1.59.74-1.79.51a5.9,5.9,0,0,1-.87-2.18c-.66-2.12-1.75-4.22-1.83-6.37-.15-3.92-1.86-5.73-5.7-5.91-1.38-.06-2.77-.91-2.1-2.4.32-.73,2.06-.92,3.2-1.15.46-.1,1,.43,1.55.51C134.37,286.16,135.58,286.38,134.88,284.16Z"/><path class="cls-1" d="M156.76,295.38c-.21-3.39,1.61-7,4.62-8.08,1.25-.46,3-.06,4.37.37a8.07,8.07,0,0,1,5.58,5.37c1.1,3.5-1.49,6.64-5.35,6.55a54.86,54.86,0,0,1-6.15-.36C157.69,299,156.32,297.81,156.76,295.38Zm7.45-5.1a3.42,3.42,0,0,0-3.46,3.21c0,.7,3.52,2.92,4.67,2.77,1.49-.19,2.84-.71,2.88-2.55S166.4,290.25,164.21,290.28Z"/><path class="cls-1" d="M350.3,338.5c.19,2.91-1.52,5.25-4,7.05-2.1,1.54-3.92.63-4.62-1.91a5.2,5.2,0,0,0-1.67-2.48,6.11,6.11,0,0,1-1.82-7.08,5.26,5.26,0,0,1,6.41-3.19C348.13,331.71,350.35,334.54,350.3,338.5Zm-2.55-.25c-.08-2.25-1.59-3.1-3.05-3.63-.82-.31-1.94.19-2.92.32.32,1.11.31,2.81,1,3.21,1.22.68,2,1.14,1.64,2.63a1.2,1.2,0,0,0,.42.93.84.84,0,0,0,.82-.18C346.42,340.47,347.08,339.35,347.75,338.25Z"/><path class="cls-1" d="M237.61,314.9c.25,4.66.46,9.32.78,14a7.71,7.71,0,0,0,.81,2.11,17.25,17.25,0,0,0,1.46-1.37c2-2.3,3.65-2.07,4.64.81a36.23,36.23,0,0,1,1.58,6.23c.1.64-.71,1.44-1.11,2.16a9.79,9.79,0,0,1-1.45-1.92c-.28-.6,0-1.43-.29-2.06a12.79,12.79,0,0,0-1.31-2.09c-.79.7-1.58,1.41-2.39,2.1a12.23,12.23,0,0,1-2.54,1.94c-.23.11-1.43-1-1.54-1.65-1.14-6.74-1.79-13.51-.81-20.33.1-.69,1-1.27,1.47-1.9l1.43,1.67Z"/><path class="cls-1" d="M187.5,338.65a30.18,30.18,0,0,1-3.56,0c-1.9-.23-3.68-.87-3.92-3.11-.34-3.2-.17-6.43,2.37-8.78a5.52,5.52,0,0,1,3.79-1.28c3.5.28,8.11,5.07,8.79,8.56.28,1.41,0,2.4-1.34,2.9-2,.77-4,1.44-6,2.15Zm.19-3.52.17.33c1.16-.54,2.84-.78,3.35-1.69.9-1.59-.57-2.74-1.81-3.7-.37-.29-.67-.79-1.09-.91-1.06-.34-2.85-1-3.15-.66a9.23,9.23,0,0,0-1.84,4.41c-.07.57,1.54,1.44,2.49,2A5.11,5.11,0,0,0,187.69,335.13Z"/><path class="cls-1" d="M387.82,351.61a3.4,3.4,0,0,1-1.18-.17,17.79,17.79,0,0,1-1.75-1.28c.5-.56.9-1.31,1.52-1.64,1.32-.68,2.91-.92,4.12-1.74,2.23-1.53,2.08-2.52-.08-4.13a20.74,20.74,0,0,1-4.08-3.61,3.66,3.66,0,0,1-.5-3.23,75.47,75.47,0,0,1,5.34-7.53,3.81,3.81,0,0,1,2-1.14,4.19,4.19,0,0,1,1.74.35,4.5,4.5,0,0,1-.58,1.63c-1.07,1.16-2.41,2.09-3.38,3.32-2.53,3.19-2.2,4.77,1.25,7.06,3.25,2.16,4.07,4,3,7.09C394.46,348.87,391.4,351.84,387.82,351.61Z"/><path class="cls-1" d="M269.27,299.76c-3.88-.21-6.84-.59-8.14-3.87a4.81,4.81,0,0,1,0-3.22,33.41,33.41,0,0,1,3.16-6.33,4,4,0,0,1,3-1.19c.56,0,1.28,1.19,1.62,2,1,2.43.14,4.43-1.52,6.32s-1.4,2.5,1,2.79a38.16,38.16,0,0,0,6.12-.24,13.24,13.24,0,0,1,1.66.12c-.36.46-.62,1.14-1.08,1.34C273,298.39,270.77,299.19,269.27,299.76Z"/><path class="cls-1" d="M309.13,289.76a40.11,40.11,0,0,1-.34-5c0-.73.87-1.42,1.35-2.13.46.51,1.25,1,1.34,1.53a39,39,0,0,1,.52,6.38c0,2-.09,4,2.13,4.78s3.84-.87,4.89-2.51c1.58-2.46,2.76-5.18,4.19-7.73a24,24,0,0,1,2-2.71c-.32,1-.58,2.09-1,3.09-1.26,3.34-2.56,6.66-3.86,10-1.54,3.94-4.3,5.27-8.12,3.94a4.91,4.91,0,0,1-3.44-5.13C308.93,293,309,291.72,309.13,289.76Z"/><path class="cls-1" d="M394,297.37c0,.15,0,.31-.06.47-.11,2.27-.18,4.64-2.84,5.5s-6.77-.84-7.78-3.37a22.42,22.42,0,0,1-1.45-6.7c-.15-2.16,2.54-4.36,4.72-4.1C390,289.59,394.46,292.92,394,297.37Zm-5.18,2c2.2,0,3.05-.87,2.13-2.85a12.32,12.32,0,0,0-3.65-4c-.34-.27-2.09.46-2.44,1.13C383.81,295.59,386.59,299.42,388.78,299.41Z"/><path class="cls-1" d="M400.58,296.77c-.17-1.73-.2-3.25,2.26-3.19.39,0,1-.6,1.15-1.05,1.18-3.47,3.81-3.92,6.93-3.51,2.24.29,6.23,3.74,6.65,5.94a5.46,5.46,0,0,1-.35,1.94c-.52-.34-1.05-.67-1.55-1-1.8-1.36-3.44-3.05-5.43-4-1.61-.77-3.54-.46-3.9,2-.47,3.3-.86,6.62-1.43,9.9a7.6,7.6,0,0,1-1.27,2.2c-.8-.78-2.09-1.44-2.3-2.35A52.16,52.16,0,0,1,400.58,296.77Z"/><path class="cls-1" d="M259.06,339.82c-3.31-.19-6.08-1.26-7.47-4.58a7.17,7.17,0,0,1,1.28-7.82c2.2-2.66,4.18-2.54,5.8.41a2.48,2.48,0,0,1,.05,1.91,23.34,23.34,0,0,1-1.71,2.87c-1.31,2.18-1.1,2.9,1.39,3.73a7.64,7.64,0,0,0,6.46-.5,6.92,6.92,0,0,1,1.46-.47,6,6,0,0,1-.53,1.36A7,7,0,0,1,259.06,339.82Z"/><path class="cls-1" d="M224,336.72a12.45,12.45,0,0,0-.06-3.31,8.2,8.2,0,0,0-1.69-2.46,27.77,27.77,0,0,0-2-2c.88-.51,1.78-1,2.63-1.53.38-.25.93-.63,1-1,.19-2,.23-4,.35-5.94,0-.63-.08-1.42.24-1.86a8.63,8.63,0,0,1,1.94-1.43c.4.69,1.15,1.39,1.11,2.05-.09,1.66-.59,3.28-.82,4.94-.61,4.3,1.2,6.5,5.54,6.89a3.58,3.58,0,0,1,1.12.5c-.31.2-.6.54-.92.57a24.31,24.31,0,0,1-4.08.2c-1.33-.11-1.81.47-1.73,1.61.12,1.5.38,3,.59,4.48.18,1.23.36,2.6-1.37,2.68-1.55.07-2-1.1-1.87-2.46C224,337.85,224,337.05,224,336.72Z"/><path class="cls-1" d="M349.4,292.5c.29-2.83,1.16-5.86,4.14-7.72a6.51,6.51,0,0,1,2.56-.36c-.18,1,0,2.22-.59,2.88-1.77,2.09-3,4.08-2.28,7.08s4.4,4.77,7.9,3.07c1.08-.52,2.19-1,3.28-1.44a33.84,33.84,0,0,1-2.43,3c-2.16,2.13-4.73,2.94-7.63,1.73A8.62,8.62,0,0,1,349.4,292.5Z"/><path class="cls-1" d="M218.76,298.61c-.42-2.56-.87-5.37-1.34-8.18-.07-.38-.4-.77-.35-1.13.43-3.16.87-6.32,1.45-9.45.07-.39,1-.62,1.47-.93a8.74,8.74,0,0,1,.79,1.43,3,3,0,0,1-.07,1.18c-.62,5-.61,5,4.32,6.5.63.2,1.07,1,1.59,1.51a8,8,0,0,1-1.71.75c-1.32.23-3-.1-3.87.63-.6.53-.08,2.39,0,3.65a41.15,41.15,0,0,0,.43,5c.15.82,1.05,1.86-.42,1.9-.83,0-1.7-1-2.5-1.65C218.44,299.69,218.65,299.19,218.76,298.61Z"/><path class="cls-1" d="M373.24,330.07c0,3.41-.05,6.83,0,10.24a11.31,11.31,0,0,0,.82,2.44,18.25,18.25,0,0,1,.34,1.82c-.86,0-2.23.38-2.48,0a8.75,8.75,0,0,1-1.79-4.27c0-5.49.23-11,.5-16.47a31.56,31.56,0,0,1,.88-5.63c.12-.53.95-.88,1.45-1.31.27.5.79,1,.76,1.5-.17,3.89-.45,7.78-.69,11.67Z"/><path class="cls-1" d="M372.31,287.52c-.38,3.77.14,4.43,3.76,5.28a5.44,5.44,0,0,1,1.43.86,6.28,6.28,0,0,1-1.4,1.1c-1.15.47-3.22.6-3.37,1.22-.38,1.7.06,3.58.12,5.39a14.59,14.59,0,0,1-.16,1.85c-.57-.38-1.41-.63-1.66-1.16a10,10,0,0,1-.65-3c-.26-2.05-.24-4.15-2.11-5.64-.33-.25-.48-1.39-.25-1.58,2-1.69,1.2-4,1.36-6a8.71,8.71,0,0,1,.19-2.37c.22-.56.95-.91,1.45-1.35.35.45.92.87,1,1.36C372.23,284.81,372.23,286.17,372.31,287.52Z"/><path class="cls-1" d="M333.52,294.89c.4-2.06.71-4.14,1.25-6.16.14-.54,1-.9,1.48-1.34a9.12,9.12,0,0,1,.49,1.75,52.27,52.27,0,0,1,.36,6.36c0,.88-.8,1.74-1.23,2.6-.68-.81-1.38-1.6-2-2.44-.1-.12.07-.45.12-.68Z"/><path class="cls-1" d="M355.22,337.32l1.6-3.11a16.87,16.87,0,0,1,1.76,3.29,24.49,24.49,0,0,1,.79,5.05,5.61,5.61,0,0,1-.68,2c-.68-.35-1.8-.54-2-1.06A62.26,62.26,0,0,1,355.22,337.32Z"/><path class="cls-1" d="M358.4,328.71c-1-1.27-2-2.09-2.45-3.13-.14-.38,1.08-1.3,1.67-2a38.72,38.72,0,0,1,2,3.46C359.72,327.28,359.05,327.86,358.4,328.71Z"/><path class="cls-1" d="M340.59,281.38c-.8.3-1.52.81-1.77.63a28.24,28.24,0,0,1-2.89-2.48l1.88-1.55Z"/></svg>