<svg id="_1" data-name="1" xmlns="http://www.w3.org/2000/svg" viewBox="0 0 531.37 531.37"><defs><style>.cls-1{fill:#fff;}</style></defs><path class="cls-1" d="M426.58,254.83c0,2.56,0,5.12,0,7.68a7.33,7.33,0,0,0,.37,1.54c.42-.31.88-.58,1.27-.92,1.11-.94,1.32-3.27,3.5-2.57s1.88,2.78,2.16,4.43c.63,3.61,1.53,4.16,4.72,2.39a4.22,4.22,0,0,0,1.39-2.19c1.08-3.06,1.76-6.31,3.15-9.22,1.63-3.39,4.11-4.09,7.09-2.7,2.31,1.08,3.35,4.39,2.11,7.26a26.37,26.37,0,0,1-2.7,4.77,5,5,0,0,1-5,2.31c-1.36-.22-1.18.32-1.13,1.26.23,4.16,2.42,7,6,8.81a2.8,2.8,0,0,0,2,.17c1.77-.7,3.72-1.29,5.1-2.5a73.16,73.16,0,0,0,5.86-6.43,5.8,5.8,0,0,1,.87-.68,3.39,3.39,0,0,1,.29,1.2,4.69,4.69,0,0,1-.55,1.56,23.13,23.13,0,0,1-10,9.63c-3.27,1.67-6.26.69-8.65-1.44s-4.54-4.61-4.4-8.16c.07-1.91-.74-2-2.16-1.24a8.5,8.5,0,0,1-1.31.57c-3.52,1.27-4.45.74-5.38-2.92a16.34,16.34,0,0,0-.92-2.31c-.51.68-1.08,1.33-1.54,2.05-.63,1-1.12,2.12-1.78,3.11-.38.55-1.29,1.42-1.43,1.33a6,6,0,0,1-2.18-2.07c-.34-.7,0-1.72,0-2.6,0-6.86.07-13.72,0-20.58,0-3.27-.36-6.54-.41-9.82,0-.62.63-1.26,1-1.89.46.59,1.29,1.15,1.34,1.78C425.81,242.56,426.18,248.7,426.58,254.83Zm23,3.48c-.3-.63-.5-1.75-1.08-2a2.34,2.34,0,0,0-2.17.78,74.59,74.59,0,0,0-2.69,7.47c0,.07,1.09.81,1.39.66C447.73,263.83,448.74,261.29,449.6,258.31Z"/><path class="cls-1" d="M314.9,255.75c.51,9-3.14,15.41-8.78,17.19a16.93,16.93,0,0,1-14.52-2,28,28,0,0,1-5-4.36,5.66,5.66,0,0,1-1.09-2.8c-.1-.51.36-1.12.57-1.69.48.42,1.14.74,1.42,1.26,2.36,4.35,9.58,7.65,15.11,6.83,4.51-.67,8.74-5,9.5-9.91.66-4.25-.82-8.19-2.12-12.13a1.06,1.06,0,0,0-.67.16c-.19.23-.19.61-.35.88-1,1.53-2.34,2.62-4.18,2s-2-2.18-1.71-3.95c.45-2.63.82-5.21,3.43-6.76,1.87-1.12,4.72-.31,5.25,1.79C313.08,247.63,314.26,253,314.9,255.75Z"/><path class="cls-1" d="M284.51,309.35c-5.55,0-8.5-3.64-11.12-7.83a11.15,11.15,0,0,0-2.45-2.34c-.28-.24-.75-.25-1.11-.42-1.46-.67-3.14-1.28-2.41-3.42.47-1.35,2.47-1.47,4.32-.2,1.62,1.11,1.47-.37,1.75-1.12,1.23-3.29,2.53-6.53,5.5-8.74,1.88-1.41,4.18-1.8,5.67-.17a8,8,0,0,1,1.66,5.36c-.26,4.76-3,7.7-7.72,8.7-1.49.32-1.43,1.25-1,2.35,1,2.69,5.36,5.53,8.32,5.56a14,14,0,0,1,2.74.58c-.9.54-1.77,1.14-2.71,1.6A3.87,3.87,0,0,1,284.51,309.35Zm-.57-19.94c0-1.68-1-2.33-2.5-1.53-2.5,1.3-3.75,3.6-4.44,6.22a1.5,1.5,0,0,0,.83,1.2C280.58,295.58,284,292.27,283.94,289.41Z"/><path class="cls-1" d="M251.62,300.16a51.67,51.67,0,0,1-6.12-1,7.83,7.83,0,0,1-3-2c-.16-.16.46-1.73.9-1.82,1.24-.27,2.89-.62,3.82,0,3.5,2.2,7,1,10.47.38,1-.18,1.72-.94.79-2.1-2.44-3.06-4.63-5.25-9.08-3-3.12,1.55-3.91.62-4.48-2.81-.86-5.16-2.36-10.22-3.53-15.33a12.16,12.16,0,0,1-.07-2.42c.88.41,2,.59,2.57,1.27a7.83,7.83,0,0,1,1.27,4.24c.36,3.65,1.8,7.2,2.88,10.77.07.22.86.27,1.32.3,1.28.1,2.8-.28,3.78.3a68.3,68.3,0,0,1,8.4,5.82c2.07,1.67,1.7,4.11-.78,5.11-2.89,1.16-6,1.88-8.95,2.8Z"/><path class="cls-1" d="M342.63,253.73c-.65-1.23-1.33-2.45-1.94-3.71-.29-.59-.77-1.44-.56-1.84.32-.6,1.4-1.43,1.78-1.27,1.77.76,1.65-.74,2.25-1.53,1.33-1.74,2.52-3.76,4.25-5,2.4-1.68,5.17.07,5.42,3,.23,2.8-1.1,4.94-3.8,6.31-.82.41-1.51,1.08-2.32,1.49-2.24,1.13-2.93,2.84-2.06,5.15,1.07,2.84,3.45,4.52,6.25,4.23,1.73-.17,3.43-.69,5.16-1a11.48,11.48,0,0,1,1.66,0c-.33.48-.57,1.15-1,1.4a29.29,29.29,0,0,1-4.34,2A8.06,8.06,0,0,1,342.63,253.73Zm9-10c-.72-.23-1.87-.87-2.08-.64a27.51,27.51,0,0,0-2.83,3.92c-.07.11.42.84.68.86C348.79,248,351.37,245.65,351.64,243.72Z"/><path class="cls-1" d="M209.82,224.35c0,3.74.06,7.49,0,11.23,0,1.62.58,2.19,2.17,2.4a69,69,0,0,1,7.39,1.48c.5.12.88.74,1.32,1.14-.53.26-1.06.74-1.59.75q-3.47,0-6.93-.16c-1.68-.1-2.6.31-2.35,2.23a38.93,38.93,0,0,1,.41,5.7c0,.67-.77,1.33-1.19,2-.56-.59-1.42-1.1-1.6-1.78a14.59,14.59,0,0,1-.6-4.71c.19-2.34-1.16-3.06-2.95-3.62a7.57,7.57,0,0,1-2.65-1,2.7,2.7,0,0,1-.73-2.17c.06-.39,1.2-1,1.78-.88,4.94.66,5.06.45,4.8-4.54-.17-3.09.22-6.21.34-9.31,0-.95,0-1.89,0-2.84s0-2.35,1.44-2.11c.58.1,1.31,1.2,1.42,1.93a26.77,26.77,0,0,1,.07,4.3Z"/><path class="cls-1" d="M227.08,227.08c-.25,3.74-.55,7.48-.75,11.22a16.11,16.11,0,0,0,.32,2.74c.59-.36,1.17-.74,1.77-1.09,1.36-.78,4.94-.41,5.87,1A42.6,42.6,0,0,1,238,248a26.48,26.48,0,0,1,1.21,5.35c.11.61.15,1.65-.17,1.83a3.19,3.19,0,0,1-2.22.23c-.34-.1-.57-1-.7-1.51a83.73,83.73,0,0,0-2-9c-1-2.75-4.05-2.87-5.79-.45-.79,1.1-1.44,2.31-2.31,3.34-.42.5-1.43,1.16-1.75,1-.71-.39-1.64-1.28-1.62-1.95.07-3,.48-6,.7-9.05.35-4.75.64-9.51,1-14.26,0-.16-.07-.35,0-.48.46-.82.94-1.64,1.41-2.45a9.34,9.34,0,0,1,1.1,2.42,30.07,30.07,0,0,1,.05,4Z"/><path class="cls-1" d="M359.36,312.81c.3-1.1.41-1.73.64-2.32.75-1.94,1-3.49-1.75-4-1.38-.26-1.45-2.5-.34-4.62,1.56-3,3.11-3.73,6.7-3.54a3.84,3.84,0,0,0,2-.93,10.57,10.57,0,0,1,14.71,2.12c.1.12.25.23.29.37.21.79.4,1.59.6,2.38a6.57,6.57,0,0,1-2.19-1A7.4,7.4,0,0,0,374.5,299c-6.7-.21-9.92,3.37-10.61,9.64a16.24,16.24,0,0,1-.76,4.2,3,3,0,0,1-2.08,1.71C360.43,314.57,359.82,313.33,359.36,312.81Z"/><path class="cls-1" d="M346.32,316c-3.76,0-8.28-4.05-8.93-8.07-.45-2.75-1.42-3.85-4.24-3.41a13.42,13.42,0,0,1-4.27-.28c-.48-.08-.85-.78-1.27-1.2a5.6,5.6,0,0,1,1.52-1.15,11.14,11.14,0,0,1,2.6-.27c3.69-.15,7-.83,8.66-4.8a3.67,3.67,0,0,1,2.48-1.67c1.2-.2,3-.23,3.6.47s.09,2.4-.22,3.59a6.6,6.6,0,0,1-4.34,4.63,2.5,2.5,0,0,0-1.14,2.15,12.82,12.82,0,0,0,5.67,7.93,12.61,12.61,0,0,1,1.57,1.45Z"/><path class="cls-1" d="M403.42,265.53c0-1.27-.09-2.56,0-3.82.25-2.73-.16-5-2.91-6.47-.57-.29-1.24-1.34-1.1-1.81s1.22-.87,1.75-1.42a2.34,2.34,0,0,0,.74-1.52c-.1-1-.69-2-.68-3a2.56,2.56,0,0,1,1.24-1.7c.22-.13,1.29.55,1.47,1a38,38,0,0,1,1.74,5.9,5.7,5.7,0,0,0,4,4.84c2.26.69,4.59,1.15,6.88,1.72a7.92,7.92,0,0,1,1,.41,6.16,6.16,0,0,1-.93.85c-2.5,1.5-5,.83-7.55.07-2.92-.85-2.87-.7-2.84,2.23s-.07,5.9-.32,8.83c-.05.62-1,1.15-1.52,1.72-.32-.55-.89-1.09-.93-1.66-.11-2.07,0-4.14,0-6.22Z"/><path class="cls-1" d="M276.35,246c.19-2.06.27-4.13.64-6.16.13-.73.94-1.33,1.44-2a7.1,7.1,0,0,1,1.36,2,9.59,9.59,0,0,1-.12,2.6,35.84,35.84,0,0,0,0,5.48c.27,2.07,1.79,2.63,3.4,1.32,1.29-1.05,2.37-2.36,3.58-3.51,1.58-1.51,2.26-1.33,3.23.64,1.1,2.22,2.38,4.35,3.39,6.6.26.57-.06,2-.38,2.1a3,3,0,0,1-2.55-.28,8.86,8.86,0,0,1-1.65-3.32c-.46-1.42-1-1.84-2-.51-.2.25-.38.52-.6.75-1.94,2-4.68,3-6.43,2.05-2.24-1.24-3.07-3.33-3-5.84,0-.64-.06-1.28-.09-1.91Z"/><path class="cls-1" d="M253.13,257.54c-1.8-.54-3.41-.94-5-1.51a19.7,19.7,0,0,1-3.83-1.8,3.82,3.82,0,0,1-1.63-2.1c-.1-.43,1-1.12,1.48-1.68.69-.73,1.35-1.48,2.07-2.17a56.63,56.63,0,0,1,4.28-3.92c1-.79,2.51-1.33,3.37.09s2.1,3.19.85,5.08a22.32,22.32,0,0,1-2.23,2.45c-.78.88-1.05,1.66.5,2a2.38,2.38,0,0,1,.68.23c1.1.63,2.2,1.28,3.3,1.93Z"/><path class="cls-1" d="M296.21,302.05c-.08-1.84.64-3.93-1.64-5.11a10.88,10.88,0,0,1,.92-2.07c.47-.78,1.41-1.42,1.55-2.23.34-1.95.25-4,.52-5.93a7.69,7.69,0,0,1,1.05-2.21c.58.67,1.58,1.29,1.65,2a20.4,20.4,0,0,1-.22,5c-.27,1.94.44,2.62,2.23,1.94,3.56-1.34,6.85.15,10.21.89.12,0,.16,1.11.1,1.13-.91.22-1.84.35-2.76.5-3,.51-6.11.9-9.1,1.62a3.07,3.07,0,0,0-1.54,2.28c-.17,1.46.33,3,.2,4.47-.07.83-.84,1.59-1.3,2.38-.68-.6-1.66-1.08-1.94-1.83S296.16,303,296.21,302.05Z"/><path class="cls-1" d="M319.43,291.74a18.61,18.61,0,0,1-.37,3.19c-.56,2.09.38,2.21,2.09,2a42.61,42.61,0,0,1,5.65,0,3.81,3.81,0,0,1,1.22.49c-.26.37-.45.85-.81,1.07a13.19,13.19,0,0,1-2.66,1.32,48.41,48.41,0,0,1-5.27,1.46c-1.6.33-2,1.38-2.08,2.75-.07.78,0,1.82-.5,2.25a8.44,8.44,0,0,1-2.65,1.09,6.68,6.68,0,0,1-.44-2.21c.93-5.59,1.95-11.16,3-16.72a4.47,4.47,0,0,1,.6-1.79,1.85,1.85,0,0,1,1.34-.64c.22,0,.61.67.66,1.07C319.31,288.53,319.34,290,319.43,291.74Z"/><path class="cls-1" d="M326,233.2c-.6,5.75-1.17,11-1.68,16.22a27,27,0,0,1,0,2.84c-.18.88-.65,2.31-1.17,2.4-1.38.23-2.19-.83-2.09-2.25.16-2.06.4-4.13.68-6.18,1-7.19,2.19-14.36.94-21.67-.19-1.11.6-2.39.93-3.58.61,1.06,1.6,2.07,1.74,3.18C325.73,227.32,325.79,230.52,326,233.2Z"/><path class="cls-1" d="M362.61,261.41c1.66-4.8,2.92-9.07,4.6-13.17,1.57-3.85,6.08-4.1,9-2.06a10.16,10.16,0,0,1,2.16,1.44,8.16,8.16,0,0,1,1,2.33,10.69,10.69,0,0,1-2.49-.24c-1-.33-1.75-1.11-2.71-1.42-2.85-.94-4.32-.22-5.13,2.72-1,3.51-1.6,7.11-2.57,10.63-.17.61-1.35,1.48-1.85,1.36C363.83,262.79,363.17,261.88,362.61,261.41Z"/><path class="cls-1" d="M335.3,254.26c-.8.75-1.56,2.06-2.42,2.13-1.73.14-1.82-1.29-1.51-2.7s.5-3.13,1-4.62c.16-.51,1.06-.77,1.63-1.15a8.88,8.88,0,0,1,.51,1.67c.15,1.41.2,2.83.28,4.24Z"/><path class="cls-1" d="M335.6,234.76c-.74.44-1.45,1.14-2.23,1.21-.51.05-1.11-.82-1.67-1.28a6.44,6.44,0,0,1,1.68-.84,8.33,8.33,0,0,1,2.1.13Z"/></svg>