<svg id="_2" data-name="2" xmlns="http://www.w3.org/2000/svg" viewBox="0 0 531.37 531.37"><defs><style>.cls-1{fill:#fff;}</style></defs><path class="cls-1" d="M481.43,413.7a14.44,14.44,0,0,1,.34-3.75c.25-.7,1.3-1.21,2.1-1.54.18-.07,1.09.95,1.2,1.55,1.19,6.27.67,12.4-2.55,18a12.18,12.18,0,0,1-8,6,23.48,23.48,0,0,1-13.63-1.08,20,20,0,0,1-3.21-1.52c-.31-.19-.4-.77-.59-1.17a3,3,0,0,1,1.05-.42A22.62,22.62,0,0,1,461,430c2.56.45,5.1,1.14,7.68,1.35,4.8.41,8.23-2.2,11.12-5.68.21-.24.19-.67.28-1l-.89.1a20.47,20.47,0,0,1-4.44.42c-4.87-.56-7.08-6.93-4.93-11.41a14.15,14.15,0,0,1,9.32-7.61,5.83,5.83,0,0,1,2,.19c-.43.6-.74,1.4-1.32,1.75-2.68,1.6-5.35,3.16-6.71,6.19s-.23,6.49,2.65,7.62a4.09,4.09,0,0,0,3.34-.87C481.22,419.24,481.47,418,481.43,413.7Z"/><path class="cls-1" d="M446.34,329.75c-5.16.09-7.36-2.55-6.18-6.84.73-2.65,1.38-5.56,4.6-6.41a5.17,5.17,0,0,1,3.16,0c1.84.81,1.94-.09,1.79-1.42-.92-8.34-2.56-16.5-5.92-24.25-.12-.29-.47-.66-.39-.84.43-.9,1-1.74,1.45-2.61.58.44,1.44.75,1.71,1.33,4.39,9.45,5.79,19.6,7,29.81a19.55,19.55,0,0,0,.79,3.72,3.61,3.61,0,0,1-2.17,4.75c-1,.41-2,1-3,1.48S446.91,329.49,446.34,329.75Zm1.27-3.71a14,14,0,0,0,1.57-1.05c-.91-1.71-2-3.33-3-5-.64,1.15-1.6,2.25-1.83,3.48C444,325.27,445.27,326,447.61,326Z"/><path class="cls-1" d="M100.34,350.12c-.3-4.5,2.39-8.74,6.3-9.84.63-.18,1.49.46,2.25.72-.56.59-1,1.53-1.69,1.69-2.8.69-4.09,2.4-3.59,5.2a2.26,2.26,0,0,0,3.24,1.76,6.32,6.32,0,0,0,4-4.4,6,6,0,0,1,.53-1.83c.3-.44,1-1,1.39-.91a1.69,1.69,0,0,1,1,1.3c0,1.1-.29,2.2-.38,3.31a13.37,13.37,0,0,0-.1,3.78c.15.68,1.14,1.2,1.8,1.72a5.88,5.88,0,0,0,1.19.55c-.37.43-.69,1.16-1.13,1.25-1.86.37-3.66,0-4.33-2s-1.32-1.82-2.68-.63a5.84,5.84,0,0,1-5.38,1.3,4,4,0,0,0-2.21.66c-.86.41-2.19,1.53-2.4,1.34A8.55,8.55,0,0,1,95.91,352c-.64-1.68-.84-3.51-1.36-5.24-.16-.54-.73-1-1.11-1.44-.46.47-1.15.87-1.34,1.44A23.93,23.93,0,0,0,91,351.3c-.2,1.53-1,1.92-2.06,1.12a7.13,7.13,0,0,1-2.6-3.23c-1.7-6.45-3.19-13-4.65-19.47-.59-2.63-1-5.31-1.35-8-.08-.63.46-1.35.71-2a6.91,6.91,0,0,1,.94,1.66c1.74,7.46,3.43,14.93,5.15,22.39a7.4,7.4,0,0,0,.55,1.58,11.61,11.61,0,0,0,.89,1.31c.41-.35,1-.62,1.2-1.06,1-1.66,1.78-3.77,4.13-3.26,2.16.47,2.93,2.48,3.36,4.51.31,1.48.62,3,1,4.42a8,8,0,0,0,1,1.62c.39-.66.82-1.31,1.14-2C100.52,350.62,100.35,350.25,100.34,350.12Z"/><path class="cls-1" d="M319.07,319c.11-1.36.15-2.72.37-4s0-3.21,2.48-2.28c.29.11.9-.48,1.29-.82,2.38-2.11,4.1-1.89,5.86.75a6,6,0,0,1,.83,1.16c.61,1.67,1.19,3,2.9.78a1.67,1.67,0,0,1,1.6-.16c1.61,1.14,2,.19,2.45-1.14a12.64,12.64,0,0,1,2.25-4.38,4.69,4.69,0,0,1,3.6-1c.72.09,1.54,1.48,1.83,2.43.93,3.08-.87,5.13-3,6.93-1.31,1.08-1.49,2.77,0,3.41a23.11,23.11,0,0,0,5.12,1c.63.11,1.26.19,1.89.29-.43.54-.74,1.33-1.29,1.58-4.85,2.19-7.69,1.1-11-3.27-.93-1.23-3.12-1.51-4.73-2.23.05.44.08.88.17,1.32.16.71.69,1.57.45,2.09s-1.33,1.55-1.82,1.43c-.68-.16-1.34-1.1-1.67-1.85-.78-1.74-1.31-3.58-2-5.35-.48-1.18-1.09-1-1.55.05-.64,1.46-1.23,2.93-1.83,4.4s-1.56,2.43-3.1,1.58c-.72-.4-1-1.55-1.52-2.35Z"/><path class="cls-1" d="M250.21,313.18c.66-2.68,1.15-5.42,2.07-8a3.66,3.66,0,0,1,2.66-1.74c1.58-.16,1.23,1.29.8,2-2,3.26-1.43,6.79-1.24,10.27,0,.68.78,1.32,1.2,2,.55-.48,1.36-.86,1.58-1.46a7.72,7.72,0,0,0,.21-2.77,14,14,0,0,1-.19-3.06c.13-.61,1-1.19,1.62-1.5.21-.1,1.06.6,1.25,1.08,1.14,2.88,2.32,5.77,3.23,8.73,1.42,4.67-.26,8.14-4.58,10.88-3.75,2.37-7.82,2.45-12,2.24a17.36,17.36,0,0,1-4-.61c-.7-.21-1.23-1-1.83-1.51.64-.53,1.23-1.43,1.94-1.52a18.78,18.78,0,0,1,3.78.28,17.24,17.24,0,0,0,11.33-2.78c1.7-1.18,2.67-2.78,1.86-4.92a1.26,1.26,0,0,0-1.08-.52c-5.18,2.62-8.23.75-8.18-5.06v-1.91Z"/><path class="cls-1" d="M357.15,299.81q1.26,8.7,2.5,17.41a.69.69,0,0,1,.05.24c-.5,3,.44,3.36,2.73,1.56.32-.25,1-.07,1.48-.08a4.25,4.25,0,0,1-.13,1.35c-1.85,4-7.85,5.68-11.46,3.31-1.61-1.06-2.58-2.31-2.36-4.32a4.71,4.71,0,0,1,3.35-4.26c1.91-.55,1.8-1.54,1.68-3-.24-3-.35-6-.48-9-.17-3.82-.3-7.64-.44-11.47,0-.55-.25-1.19,0-1.64a9.45,9.45,0,0,1,1.36-1.78c.41.49,1.12.93,1.19,1.47.49,3.38.83,6.78,1.23,10.17Z"/><path class="cls-1" d="M142,345.71q-1-7.2-2-14.4c-.25-1.82-.57-3.62-.74-5.44a3.27,3.27,0,0,1,.47-1.79c.24-.41.79-.65,1.2-1a8,8,0,0,1,.43,1.31c1.39,8.24,2.73,16.48,4.16,24.71a16.31,16.31,0,0,0,1.23,3.18,28.77,28.77,0,0,1,1.86-2.95c1-1.2,2.09-2.27,3.14-3.4,1.17,1.23,2.64,2.29,3.43,3.73a36.21,36.21,0,0,1,2.05,5.83c.41,1.21.89,2.05,2.41,1.13.51-.31,1.4,0,2.11,0a6.58,6.58,0,0,1-.85,2c-2.46,2.62-5.61,1.89-6.76-1.55-.61-1.81-1.05-3.67-1.65-5.49-.13-.39-.63-.66-1-1a6.69,6.69,0,0,0-.78,1.1,23.44,23.44,0,0,1-1.77,4.16,5.16,5.16,0,0,1-3,2c-.53.1-1.73-1.29-2-2.19-.92-3.27-1.58-6.63-2.33-10Z"/><path class="cls-1" d="M327.52,424.65c-2.58.12-5.09-2.14-5.8-4.73-1-3.73.52-7.14,1-10.67.38-2.86,1.09-5.64,3.63-7.54,1.57-1.17,3.07-2.06,4.94-.6,2.23,1.74,3.11,3.94,1.83,6-1.95,3.18-4.3,6.1-6.36,9.2-.58.88-1.33,2.46-1,3,.63.91,2.37,2,3.14,1.7,2.05-.78,3.84-2.27,5.73-3.47.41-.26.84-.51,1.26-.76.11.57.52,1.31.3,1.69C334.31,421.87,331.87,424.62,327.52,424.65Zm-2.87-14.3.46.38a6,6,0,0,0,.19,1.14,1.05,1.05,0,0,0,.76-.08c1.45-2,2.9-3.94,4.25-6,.22-.33-.09-1-.15-1.52-.52.13-1.26.09-1.51.42C327.25,406.53,326,408.46,324.65,410.35Z"/><path class="cls-1" d="M363.59,341.39c.5,3.53.93,7.08,1.52,10.6.41,2.42,1,4.8,1.55,7.2.43,2-.29,2.75-2.44,2.71a41.25,41.25,0,0,0-5.67,0c-1.82.22-2.69,1.48-2.61,3.39.08,2.06,1.51,2.53,3.1,2.53,1.32,0,2.63-.44,3.95-.54a6.31,6.31,0,0,1,1.83.46c-.3.47-.51,1.22-.92,1.36a25.72,25.72,0,0,1-6.36,1.74,5.41,5.41,0,0,1-5.91-3.95c-.74-2.58.4-4.71,2.18-6.48a8.77,8.77,0,0,1,6.9-2.73c2,.13,2.26-.81,2-2.49-.67-4.9-1.25-9.82-1.85-14.73a3.48,3.48,0,0,1-.08-1.65,8.6,8.6,0,0,1,1.41-1.75c.42.47,1,.89,1.22,1.44a15.43,15.43,0,0,1,.37,2.82Z"/><path class="cls-1" d="M401.9,342.3c0,6.2,0,12.39,0,18.59,0,1.25.39,2.5.44,3.75a15.15,15.15,0,0,1-.2,3.93c-.29,1.26-2.26,1.14-3.22-.28-.74-1.11-1.49-2.56-2.84-1.52-.84.65-1.54,2.58-1.17,3.42.44,1,2.05,1.69,3.29,2,.94.25,2.5-1.25,2.85.57.11.6-1.44,1.79-2.45,2.26-2.67,1.27-5.13.29-6.91-1.71a5.51,5.51,0,0,1-1.17-6c1.15-2.61,2.81-4.72,6.08-4.43,1.77.15,2-.71,2.14-2.27.44-6.25,1.05-12.49,1.61-18.74a1.86,1.86,0,0,1,.27-.91c.35-.46.78-.86,1.18-1.29a11.89,11.89,0,0,1,.62,1.43,5.18,5.18,0,0,1,.08,1.19Z"/><path class="cls-1" d="M428.49,397.77c.25,4.08.55,8.84.88,13.6,0,.33.31.63.48.95a4.17,4.17,0,0,1,.68-.58c1-.59,2.3-1.83,3.05-1.57a4.74,4.74,0,0,1,2.42,2.88,40.45,40.45,0,0,1,1,6.34,21.06,21.06,0,0,1,.34,4,6.93,6.93,0,0,1-1.11,2.25c-.61-.41-1.48-.69-1.76-1.26a9.09,9.09,0,0,1-.65-3c-.16-1.5-.15-3-.33-4.52a11.63,11.63,0,0,0-.68-2.15c-.44.53-.91,1-1.33,1.6-.24.31-.31.81-.61,1-.88.63-2,1.76-2.71,1.56a3.64,3.64,0,0,1-1.82-2.62,54.92,54.92,0,0,1-.34-6.92c-.11-5.06-.18-10.13-.24-15.2a2.33,2.33,0,0,1,.28-1.38,6.94,6.94,0,0,1,1.41-1.15c.34.46.94.9,1,1.4C428.58,394.37,428.49,395.73,428.49,397.77Z"/><path class="cls-1" d="M418.34,481.89a7,7,0,0,1-5.36,7.23,11.53,11.53,0,0,0-2,1c.39.67.62,1.61,1.2,2a22.11,22.11,0,0,0,4.05,1.75c.73.26,1.65.1,2.28.48.28.16.26,1.65.05,1.74-4.09,1.67-7.88,1.3-10.74-3a42.28,42.28,0,0,1-2.89-6.16.87.87,0,0,1,0-.69,55.13,55.13,0,0,1,4.67-7.26,5.08,5.08,0,0,1,6.1-1.41A4.48,4.48,0,0,1,418.34,481.89ZM411,485.15c2.67,0,4.9-1.38,4.71-2.92a2.58,2.58,0,0,0-1.63-1.79c-1.31-.23-3.71,2.36-3.69,3.79C410.37,484.62,410.86,485,411,485.15Z"/><path class="cls-1" d="M272.33,318.84q-2-9-4.06-18c-.1-.47-.49-1-.39-1.35.2-.8.46-1.84,1.05-2.2.39-.23,1.74.36,2.05.92a16.56,16.56,0,0,1,1.36,4c.63,2.7,1.16,5.43,1.71,8.15.25,1.27.39,2,1.83.68,1.73-1.59,3.39-1.11,4.79.88,1.06,1.52,2.21,3,3.33,4.45.71.94.73,1.71-.38,2.37-1.48.87-2.92.94-4-.5a10.64,10.64,0,0,1-.85-2.46,4.69,4.69,0,0,0-.83-1c-.28.34-.72.64-.82,1-.58,2.12-1.15,4.25-1.56,6.41-.25,1.27-.78,1.77-2.1,1.59-1.49-.19-1.74-1.14-1.73-2.37,0-.8,0-1.59,0-2.39Z"/><path class="cls-1" d="M402.55,322.54c-.65.55-1.26,1.49-2,1.6-1.25.19-2-.55-2-2a8.31,8.31,0,0,0-.77-3.67c-.92-1.74-1.92-1.68-2.94,0s-1.75,3.6-2.86,5.23a4,4,0,0,1-2.56,1.61c-.48,0-1-1.42-1.66-2.1a2.51,2.51,0,0,0-1.43-.74,2.2,2.2,0,0,1-2.34-2.41c-.13-2.14-.5-4.26-.65-6.4-.11-1.63.36-3.42,2.16-3.38.86,0,1.73,1.79,2.51,2.83,1,1.33,1.88,2.73,2.86,4.06a2,2,0,0,0,1-.53c1.3-1.91,2.81-3.91,5.32-3.3s3.64,2.86,4.1,5.39A30.47,30.47,0,0,0,402.55,322.54Z"/><path class="cls-1" d="M226.84,407.39c.52-6.36,1-12.72,1.63-19.06a6.13,6.13,0,0,1,1.59-3.05,2.07,2.07,0,0,1,2-.23,2.12,2.12,0,0,1,.34,2.05c-3.19,5.39-1.55,11.38-2.19,17.08a3.23,3.23,0,0,0,.32,1.11,10.18,10.18,0,0,0,.95-.6c2.47-2,3.63-2,5.21.82,1.09,1.91,1.72,4.08,2.65,6.1.64,1.37,1.7,2.61,2.08,4,.23.89-.45,2-.72,3-.63-.22-1.57-.24-1.84-.68a26.23,26.23,0,0,1-2-4.19c-.69-1.69-1.2-3.45-1.89-5.13-.48-1.17-1.24-1.37-2.15-.32a7.37,7.37,0,0,1-1.87,1.83,4.44,4.44,0,0,1-2.93.63c-.56-.18-.75-1.59-1.05-2.48a2.8,2.8,0,0,1,0-1Z"/><path class="cls-1" d="M289.27,422.09c-3.78-.39-6.32-1.73-7.94-4.43-1.94-3.24-1.07-6.46.61-9.46,1.79-3.22,4.83-4.66,7.92-4.08,2.36.44,3.25,1.88,2.49,4.12a10,10,0,0,1-5.88,6.23c-1.73.69-1.44,1.48-.47,2.36,1.54,1.39,3.22,2.54,5.49,1.62a4.84,4.84,0,0,1,1.59-.47c.4,0,1,.17,1.17.46a1.27,1.27,0,0,1-.28,1.23C292.29,420.62,290.54,421.46,289.27,422.09Zm-.47-14.95-.86.23c-.9,1-1.79,2.08-2.69,3.11.21.14.55.43.6.39,1-.91,2.09-1.84,3.07-2.82C289.05,407.92,288.85,407.45,288.8,407.14Z"/><path class="cls-1" d="M309.71,363c-.62-1.88-.2-3.07,2-3.39.53-.07,1.1-.71,1.41-1.24.55-1,.85-2.07,1.39-3,1.29-2.29,3.74-3,5.63-1.72s2.89,4.89,1.45,6.58a11.55,11.55,0,0,1-3.54,2.69,3,3,0,0,0-1.89,3.36,8.86,8.86,0,0,0,2.29,5.78c1,1.12,2.64,1.67,4,2.51.53.34,1,.78,1.51,1.17-.51.3-1,.89-1.51.85-1.44-.15-3.09-.18-4.23-.92-3.21-2.09-5.32-5.13-5.18-9.08.1-2.64-.94-3.6-3.34-3.62Z"/><path class="cls-1" d="M65,407.71c.07,1.51.19,3,.19,4.53a12.8,12.8,0,0,1-.39,2.18c-.84-.3-2-.36-2.47-1-1.61-2.16-3-4.48-4.42-6.77A46.2,46.2,0,0,1,55,401.53c-.3-.64.12-1.61.21-2.43.67.29,1.64.4,1.95.9,1.24,2.11,2.26,4.35,3.43,6.5a6.14,6.14,0,0,0,1.26,1.23,14.19,14.19,0,0,0,.28-1.56c.11-1.59.11-3.19.29-4.78.39-3.52,3.46-4.95,6.41-3,3.6,2.37,5.14,6.17,6.8,9.89a22.82,22.82,0,0,1,1.31,2.79,6.81,6.81,0,0,1,0,2.06c-.63-.32-1.51-.48-1.83-1-1.41-2.28-2.46-4.82-4-7-1.16-1.55-3-2.62-4.48-3.91-.48,1.75-1,3.5-1.42,5.26a5.25,5.25,0,0,0,0,1.19Z"/><path class="cls-1" d="M418.48,326.19c0-3.89,0-7.78,0-11.66a3.09,3.09,0,0,1,.59-1.78,5.24,5.24,0,0,1,1.6-.89,4.68,4.68,0,0,1,.68,1.41c.13,1.91.12,3.83.23,5.74a4,4,0,0,0,.52,1.23c.23-.3.49-.59.7-.91s.38-.95.73-1.22c1.14-.84,2.27-2,3.57-2.28,1.88-.41,2.13,1.55,2.65,2.79a67.53,67.53,0,0,1,2.68,7.28c.15.53-.63,1.74-1.25,2a2.27,2.27,0,0,1-2.07-.86c-.86-1.69-1.38-3.55-2.07-5.32a8.55,8.55,0,0,0-.77-1.3,5.19,5.19,0,0,0-.95,1.24q-1.11,3-2.07,6.09c-.41,1.34-.72,2.65-2.59,2.5-2.06-.16-2.09-1.58-2.05-3.09v-.95Z"/><path class="cls-1" d="M199.87,304.45c-.7,2.34-1.25,4.14-1.79,5.95-.33,1.08-2.08,1.85-.69,3.3a4.48,4.48,0,0,0,5,1.32,16,16,0,0,1,3-.44c-.78.9-1.39,2.14-2.37,2.64-3.92,2-8.2.58-10.92-4.24a11,11,0,0,1-.87-9.67,3.89,3.89,0,0,1,1.45-2.06c1.44-.67,3.56-1.79,4.48-1.23C198.47,300.86,199,303,199.87,304.45Z"/><path class="cls-1" d="M123.6,385.68c0,3.25-.11,6.52,0,9.77a44.79,44.79,0,0,0,.91,5.34,5.3,5.3,0,0,1,.21,2.3,8,8,0,0,1-1.58,2.07c-.57-.67-1.46-1.26-1.64-2-.33-1.44-1.19-1.54-2-.93a9.92,9.92,0,0,0-2.74,2.85c-.67,1.1,2.07,3.14,3.78,2.63,1.88-.56,3.65-1.5,5.48-2.22a4.3,4.3,0,0,1,1.2-.09c-.11.37-.1.89-.35,1.08a19.65,19.65,0,0,1-3.12,2.11c-1.41.71-2.93,1.19-4.4,1.8-1.65.69-5.35,0-6.4-1.45a2.66,2.66,0,0,1-.47-2.13c1.38-3.8,3.49-6.93,7.75-8.06a2.29,2.29,0,0,0,1.3-1.77c0-4.12-.34-8.23-.34-12.34a40.47,40.47,0,0,1,.78-6.36c.07-.39.7-.68,1.07-1a4.75,4.75,0,0,1,.41,1.26c0,2.39,0,4.78,0,7.18Z"/><path class="cls-1" d="M137.78,311.23c.14-4.82,4.19-9.76,7.46-9.88a5.55,5.55,0,0,1,5.56,4.54,48.82,48.82,0,0,0,1.41,6.28c.34,1.07,1.32,1.93,1.89,2.95a11.88,11.88,0,0,1,.71,2.16c-.8,0-1.92.39-2.33,0-1.36-1.27-2.92-2.64-3.55-4.3-.89-2.31-1.41-1.15-2.3-.21-2.38,2.47-4.17,2.88-6.71,1.14A9.88,9.88,0,0,1,137.78,311.23Zm10.07-5.51-.4-.86c-.51-.14-1.07-.5-1.52-.39a5.5,5.5,0,0,0-4,4,1.82,1.82,0,0,0,.4,1.63c.41.31,1.47.43,1.74.14C145.45,308.85,146.62,307.26,147.85,305.72Z"/><path class="cls-1" d="M313.63,309.94a40.35,40.35,0,0,1-3.47,5.12c-1.8,2-2.1,3-.69,5.16s2.18,2.27,4,.46a6.54,6.54,0,0,1,1.65-.83,6,6,0,0,1-.33,2c-1.84,3.26-5.55,4.22-7.48,1.78a13.42,13.42,0,0,1-2.11-5,3,3,0,0,0-2.09-2.54c-.7-.24-1.74-1.31-1.62-1.67.28-.86,1.17-1.51,1.81-2.25a12.51,12.51,0,0,0,1.88-2.28c.57-1.13.61-2.56,1.31-3.56s2-2.16,2.82-2c1.17.22,2.3,1.43,3.12,2.48.53.68.48,1.82.69,2.75Z"/><path class="cls-1" d="M379,465.36a11,11,0,0,1-8.91-5A2.88,2.88,0,0,1,370,458a27,27,0,0,1,2.11-3.92c1.15-1.92,2.6-3.55,5.09-3.26,2.3.26,4.3,1.15,5.12,3.63.68,2.06-.16,3.66-2.55,4.9a28.49,28.49,0,0,0-2.44,1.54,11.24,11.24,0,0,0,3,1.06,32,32,0,0,0,4-.5,8.24,8.24,0,0,1,1.93.34c-.37.61-.61,1.57-1.14,1.77C383.15,464.27,381.06,464.77,379,465.36Zm-2.43-8.1,2.27-1.84c-.34-.27-.87-.83-1-.75-.83.56-1.58,1.24-2.35,1.88Z"/><path class="cls-1" d="M392.76,428.07c.73-2.25,1.22-4.2,2-6,.63-1.48.46-2.35-1.06-3-2.75-1.23-3.33-3.92-3.79-6.47-.13-.76,1-1.75,1.49-2.64a23.21,23.21,0,0,1,1.94,1.9c.34.41.34,1.1.67,1.52.76,1,1.63,1.84,2.46,2.75.55-.9,1.14-1.79,1.65-2.71,1.36-2.42,2.58-4.93,4.09-7.26.43-.66,1.65-.82,2.5-1.22a8.3,8.3,0,0,1-.09,2.55c-1.13,3.36-2.32,6.7-3.66,10-.68,1.68-1.85,3.16-2.56,4.83-.86,2-1.36,4.24-2.26,6.26a2.45,2.45,0,0,1-2.05.93C393.59,429.4,393.15,428.5,392.76,428.07Z"/><path class="cls-1" d="M185.6,369.71a5.79,5.79,0,0,1-1.8-.78,2.67,2.67,0,0,1-.92-1.84c0-.36,1-1,1.5-1,2.09.36,3.28-.86,4.44-2.21,2.44-2.85,2-5.31-1.24-7.22-5.76-3.39-6.12-5.53-1.77-10.59,1.09-1.26,2.16-2.54,3.33-3.73a1.64,1.64,0,0,1,1.42-.38,1.46,1.46,0,0,1,.58,1.3,18.92,18.92,0,0,1-2.17,3.89c-2.89,3.62-3,4.62,1.09,6.64a7,7,0,0,1,3.92,7.43c-.5,3.59-4.15,7.76-7,8.35C186.63,369.66,186.31,369.65,185.6,369.71Z"/><path class="cls-1" d="M440.75,354.78c0-3.58,0-7.16,0-10.73a3.62,3.62,0,0,1,.46-1.82,5.59,5.59,0,0,1,1.4-1.17,4.58,4.58,0,0,1,.67,1.56c.07,4.43.06,8.87.09,13.3a14.71,14.71,0,0,0,.14,1.87c.11.91.25,1.81.38,2.72.73-.43,1.43-1.16,2.19-1.21s2.27.3,2.46.83c.89,2.44,1.44,5,2.12,7.52a21.36,21.36,0,0,1,.71,2.45c.1.68.2,1.71-.18,2a1.42,1.42,0,0,1-2.48-.65c-.61-1.87-1-3.81-1.57-5.71-.17-.58-.44-1.12-.67-1.69-.48.35-1,.68-1.43,1.06-1.06.9-1.59,3.29-3.33,2.19-.91-.58-1.05-2.73-1.14-4.19-.16-2.78,0-5.58,0-8.37Z"/><path class="cls-1" d="M264.84,450.36a34.33,34.33,0,0,0,.77,4.21c.75,2.4,1.85,2.65,3.82,1.14a8.45,8.45,0,0,1,1.75-.8,6.64,6.64,0,0,1-.08,2.24c-.67,1.72-3.69,3.56-5.53,2.91-1.27-.44-2.12-2.07-3.13-3.19a2,2,0,0,1-.31-.9c-.29-1.38-.69-1.84-1.92-.58a5.47,5.47,0,0,1-5.47,1.59c-2.34-.54-3.08-1.93-1.83-4a52,52,0,0,1,4-5.85c2-2.4,4.48-2.73,6.86-.74,1,.79,1.25,2.39,1.84,3.62Zm-7.2,2.69c1.86,0,4.11-2.57,4.65-4.95a4.7,4.7,0,0,0-.1-1.33c-.43.13-1,.12-1.27.4q-2,2.41-3.84,5C257,452.27,257.51,452.85,257.64,453.05Z"/><path class="cls-1" d="M188.23,452.54c-.29-1.55-.56-3.12-.89-4.66-.08-.36-.42-.65-.63-1-.36.26-.84.45-1.06.8-.81,1.27-1.5,2.62-2.3,3.9-1.09,1.74-3.2,2.55-4.69,1.53a3.38,3.38,0,0,1-1.41-2.6c1-5.28,4.27-8.77,9.28-10.62a5,5,0,0,1,1.83.11c-.08.48-.18,1-.23,1.43s-.16.94,0,1.15c2.21,2.35,2.15,5.38,2.59,8.27a27.3,27.3,0,0,0,.71,3c.2.79.43,1.57.65,2.35-.75.14-1.62.57-2.21.33a4.09,4.09,0,0,1-1.85-1.83c-.3-.56-.06-1.4-.06-2.12Z"/><path class="cls-1" d="M243.1,355.83c0-2.5,3.51-6.9,5.88-7.25a7.44,7.44,0,0,1,2.38.47,12,12,0,0,1-1.06,2.33c-.83,1.13-2.16,2-2.67,3.23a3.21,3.21,0,0,0,.8,3c1.25.86,2.47,0,3-1.35.4-1,.39-2.22.86-3.2a14,14,0,0,1,1.92-2.41,9.69,9.69,0,0,1,1.41,2.37c.7,2.67,1.1,5.41,1.87,8,.25.86,1.33,1.46,2,2.23a13,13,0,0,1,.95,1.56c-.66.26-1.62.95-1.95.72-1.61-1.09-3.47-2.17-4.44-3.75-1.11-1.79-1.92-1.85-3.67-1.11A5,5,0,0,1,243.1,355.83Z"/><path class="cls-1" d="M363.5,426.84a7.34,7.34,0,0,1-6.65-5.8c-.32-1.42-1.75-2.77-1.64-4.06.09-1,1.93-1.76,2.73-2.83s1.16-2.7,2.11-3.68,2.53-2.05,3.45-1.78a5.54,5.54,0,0,1,3.1,3.11c1.08,2.93-.74,6.58-3.54,8.12-.64.35-1.23.79-1.83,1.18.78.87,1.57,1.74,2.37,2.6,0,.05.15,0,.23,0,1.11.13,2.94-1.14,3,.82C366.9,425.27,364.69,426.08,363.5,426.84Zm.61-12.82-.81-1.26c-.73,1-1.47,2-2.14,3-.05.07.35.45.55.68Z"/><path class="cls-1" d="M218.31,401.27a11.59,11.59,0,0,1-1.75,1.13c-.68.31-1.63.21-2.14.66a19.41,19.41,0,0,0-2.24,2.82c.89.4,1.81.76,2.68,1.21,1.4.73,3.39,1.19,4,2.37,1.07,2-.37,3.82-2.05,5.1-2.38,1.81-4.79,3.61-7.32,5.21-.58.37-1.68-.07-2.54-.13.19-.84.09-2,.61-2.45,2-1.65,4.21-3,6.29-4.59a6.15,6.15,0,0,0,1.07-1.42c-.57-.24-1.12-.49-1.69-.71a5.55,5.55,0,0,0-.71-.13c-4-.9-5.43-3.34-3.38-6.77a17.25,17.25,0,0,1,5.09-5.12C216.19,397.14,218.2,398.53,218.31,401.27Z"/><path class="cls-1" d="M177.34,410.83l-3.21-.43c-1.47-.21-3.16-.22-2.29-2.56.09-.25-.1-.62-.2-.92-1.66-5-.55-7.36,4.25-9,3.18-1.09,8.37.35,10.52,2.92s.35,8.12-3.08,9C181.34,410.34,179.27,410.52,177.34,410.83Zm-.1-2.34c2.61-1.22,4.72-2.13,6.73-3.21a2.07,2.07,0,0,0,.65-1.67c-.11-2-3.12-3.71-6.46-3.7-1.63,0-4,2.07-3.65,3.69S176.21,406.73,177.24,408.49Z"/><path class="cls-1" d="M442.57,480.46c2.15.54,4.33,1,6.43,1.68.5.16.76,1.05,1.13,1.61a6.73,6.73,0,0,1-1.67.35c-4.27-.21-8.47-.38-12.51,1.63-3.48,1.73-5.69,4.2-6.32,8.06a6.93,6.93,0,0,1-.62,2.29c-.45.77-1.19,1.92-1.82,1.93a2.21,2.21,0,0,1-2.22-2.56c.12-4.3,2.15-7.61,5.18-10.55C433.66,481.49,438,480.85,442.57,480.46Z"/><path class="cls-1" d="M344.24,479.14c6-.07,10,5.23,6.55,12.13a7.93,7.93,0,0,1-2.58,3c-.74.48-2.76.45-2.92.08-.64-1.47-2.13-1.24-3-2a9.19,9.19,0,0,1-3-3.66,8.31,8.31,0,0,1,.95-7.48A4.05,4.05,0,0,1,344.24,479.14Zm-1.76,7.73c-.06,1.46,1.66,3.86,2.82,3.93,1.75.1,3.93-2.7,4-5.11a3,3,0,0,0-3-3.33C344.16,482.22,342.6,484.06,342.48,486.87Z"/><path class="cls-1" d="M173.7,346.34a9.1,9.1,0,0,1-1.14,1.39,39.74,39.74,0,0,0-3.32,2.69c-.48.51-.45,1.5-.64,2.28.88-.14,1.93,0,2.59-.48s1.06-1.55,1.59-2.34c1.22-1.84,1.89-1.81,2.83.11a52.25,52.25,0,0,1,2.71,5.84c.22.65-.38,2.25-.84,2.35-1,.22-2.81.06-3.07-.5-.95-2.1-2-2.14-3.8-1.11a5,5,0,0,1-3,.26c-3.75-.63-5-4.46-2.23-7.67a29.73,29.73,0,0,1,5.73-4.92C172.77,343.07,173.79,343.81,173.7,346.34Z"/><path class="cls-1" d="M467.64,375.34a8.5,8.5,0,0,1-8.7-7.89,12,12,0,0,1,3.49-9.59c.65-.67,2.56-1.13,3.05-.71,1.07.92,2.36,2.61,2.16,3.73-.39,2.18-1.72,4.19-2.7,6.25-.39.81-1.45,2-1.26,2.26a21.32,21.32,0,0,0,3.53,3,19.22,19.22,0,0,0,2.37,1.28Z"/><path class="cls-1" d="M383.07,493.05c-.77-1.28-1.79-2.19-1.81-3.14a91.1,91.1,0,0,1,.38-9.19,12.56,12.56,0,0,1,.82-2.71c.53.79,1.11,1.55,1.56,2.37a7.61,7.61,0,0,1,.31,1.39c.27.92.12,2.25,1.76.76s4.5-.83,6,1.78,2.54,5.45,3.8,8.19a14.74,14.74,0,0,1,1.31,2.72,9.08,9.08,0,0,1-.25,2.66c-.8-.36-2-.5-2.33-1.11-.83-1.53-1.19-3.29-1.87-4.9a23.52,23.52,0,0,0-2.24-4.42c-1.41-2-2.34-1.85-3.6.39-.62,1.11-1.17,2.27-1.86,3.33A14.13,14.13,0,0,1,383.07,493.05Z"/><path class="cls-1" d="M375.31,362.24c.87-3.13.86-7.15,4.26-9.76,2-1.55,2.59-1.44,3.81.65,2.33,4,1.25,6.86-3.1,8.66-.63.26-1.46,1.27-1.36,1.75.16.76,1,1.86,1.62,1.93,1.27.13,2.6-.4,3.91-.52a6.47,6.47,0,0,1,1.8.36c-.22.58-.28,1.46-.68,1.67-1.48.75-3.05,1.76-4.62,1.82C376.72,369,375.37,367.57,375.31,362.24Z"/><path class="cls-1" d="M136.86,450.41c0,.71.31,1.54,0,2.12a25.27,25.27,0,0,1-2,3.27c-.81-.6-1.62-1.21-2.44-1.8a5,5,0,0,0-1.15-.77,8.23,8.23,0,0,1-5.62-8.58c.06-2.07.2-4.1,1.8-5.76s3.27-2,5.25-.5c3.17,2.43,3.52,6.07,4,9.63a17.3,17.3,0,0,1,0,2.39Zm-5.09-.7c.84-.39,1.92-.55,2.27-1.14.91-1.52-1-6.8-2.63-7.68s-3.67.09-3.4,2.08a21.25,21.25,0,0,0,2,5.66C130.23,449.13,131.12,449.33,131.77,449.71Z"/><path class="cls-1" d="M258.42,415c-.59,1.26-1,3.48-1.79,3.59-2.08.31-4.18,2-6.52.06-2.63-2.21-4.63-8.17-3.18-11.25a4.86,4.86,0,0,1,4.89-3.14c2,.11,4.65,2.43,5.27,4.61a28.62,28.62,0,0,1,.68,3c.14.94.13,1.9.19,2.85Zm-3.23-.94a46.3,46.3,0,0,0-1.89-5.16,2.39,2.39,0,0,0-2.07-.7c-.44.08-.85,1-1.07,1.61a4.43,4.43,0,0,0,1.5,5.22c.63.54,1.35,1,2,1.46Z"/><path class="cls-1" d="M354.53,485.92c.14-.78.28-1.73.5-2.66a6.1,6.1,0,0,1,.5-1.11c.21.31.43.61.61.94.06.13,0,.34.05.47.47.94,1,1.86,1.45,2.79a15.09,15.09,0,0,1,.91-2.49c1.17-2.1,2.11-4.48,3.77-6.11,2.22-2.19,7.48-1.24,9.41,1.24a3.87,3.87,0,0,1,.35.8c-.3.08-.64.3-.88.21-2.35-.8-4.68-1.23-6.75.6-2.59,2.29-3.41,5.42-3.94,8.68-.34,2.08-.69,4.16-1.22,6.19a2.07,2.07,0,0,1-1.52,1.26,2.13,2.13,0,0,1-1.62-1.25C355.51,492.37,355.07,489.23,354.53,485.92Z"/><path class="cls-1" d="M335.92,456.23c.77-2.22-.35-3.81-2.22-5.28a2,2,0,0,1,.79-3.69c1.61-.36,1.68-1.25,1.49-2.4-.27-1.65-.69-3.27-1-4.91-.1-.46-.44-1-.28-1.37a17,17,0,0,1,1.5-2.32c.57.54,1.53,1,1.64,1.63A45.3,45.3,0,0,1,339,447.1c-.1,3.66.53,4.24,4.53,4.09a7.3,7.3,0,0,1,2.32.72c-.61.41-1.21.85-1.85,1.24a3.27,3.27,0,0,1-.9.29c-4.41,1.08-4.53,1.28-4,5.79a3.26,3.26,0,0,1-.16,1.82,1.9,1.9,0,0,1-1.42.95c-.43,0-1-.75-1.12-1.25C336.13,459.34,336.08,457.9,335.92,456.23Z"/><path class="cls-1" d="M425.15,372.34c-.78-4-1.48-7.49-2.18-11-.15-.75-.63-1.64-.38-2.23,1-2.33.09-4.29-.81-6.36-.36-.84-.53-2.43-.08-2.81,1.52-1.25,2.31.41,2.88,1.39a18.54,18.54,0,0,1,1.78,4.4c.71,2.53,1.86,3.46,4.4,3.22.7-.07,1.39-.21,2.09-.21a10.28,10.28,0,0,1,1.63.22c-.27.54-.4,1.38-.83,1.57-1.83.86-3.74,1.53-5.63,2.24a6,6,0,0,1-1.13.24c.22.26.43.52.67.76,1.2,1.2.83,1.31-.37,2.53-.66.67-.22,2.51-.11,3.81,0,.49.72.91.78,1.4a3.17,3.17,0,0,1-.35,1.9c-.14.24-1.06.26-1.44.05A3.47,3.47,0,0,1,425.15,372.34Z"/><path class="cls-1" d="M262.91,361.14c.1-2.07.12-4.14.33-6.2a6.13,6.13,0,0,1,.91-2.63c.31-.46,1.14-.58,1.73-.85a6.33,6.33,0,0,1,.45,1.69c0,1.35-.24,2.7-.22,4.05a4.79,4.79,0,0,0,.67,1.65,9.31,9.31,0,0,1,1.1-1.16,31.93,31.93,0,0,1,4.25-3,2.13,2.13,0,0,1,3,1.45c1,3.57,1.81,7.21,2.6,10.85.06.31-.76,1.15-.86,1.1-.57-.28-1.34-.65-1.51-1.17-.68-2.11-1.07-4.32-1.77-6.43a12.79,12.79,0,0,0-1.69-2.72,20.08,20.08,0,0,0-2.25,2.27c-.79,1.08-1.3,2.38-2.11,3.45a15,15,0,0,1-2.23,2c-.82-1.05-1.68-2.08-2.44-3.18-.19-.27,0-.78,0-1.17Z"/><path class="cls-1" d="M78.29,344.66c-.48.23-1,.47-1.46.69-1,.47-2.47.68-2.91,1.47-.57,1,1.8,4.62,2.84,5.06A12.55,12.55,0,0,1,78.49,353a6.83,6.83,0,0,1-2.57.38c-2.72-.77-3.57-3.26-4.38-5.55-.51-1.42-1.05-2.41-2.62-2.65a3.17,3.17,0,0,1-1.52-.67,24.36,24.36,0,0,1-2-2.06c.84-.59,1.62-1.49,2.54-1.69,1.24-.25,1.5-.74,1.13-1.77-.71-1.94-1.63-3.82-2.14-5.8a4.09,4.09,0,0,1,.64-2.83c.32-.52,1.8-1,2-.83A5.46,5.46,0,0,1,70.74,332c.41,2.25.59,4.54.91,6.81.35,2.46,1.74,3.69,4.3,3.8.83,0,1.63.77,2.44,1.19Z"/><path class="cls-1" d="M102.37,408.68c-3.57-.08-5.94-2.23-7.55-5a8.7,8.7,0,0,1-.88-7.56c.66-1.82,1.5-2.65,3.37-2.6a3,3,0,0,1,3.06,3,19.72,19.72,0,0,1-.39,5.35c-.28,1.63,1.19,3.3,3.45,3.17,1.16-.06,2.25-.93,3.4-1.35a6.49,6.49,0,0,1,1.54-.16c-.09.46,0,1.08-.31,1.35C106.42,406.49,105.15,408.71,102.37,408.68Z"/><path class="cls-1" d="M330.28,367.51a1.69,1.69,0,0,1-1.75-2.61c1.77-3.16,3.61-6.3,5.67-9.27,1.19-1.7,3.46-1.33,4.1.8,1.08,3.54,1.61,7.24,2.43,10.86.43,1.89,1,3.73,1.45,5.61a5.47,5.47,0,0,1-.3,1.91c-.95-.19-2.28-.08-2.76-.66a7,7,0,0,1-1.1-3.33c-.51-3.29-.89-6.61-1.36-9.92a7.37,7.37,0,0,0-.59-1.48c-.48.34-1.14.57-1.39,1-.86,1.52-1.47,3.18-2.37,4.68A15.93,15.93,0,0,1,330.28,367.51Z"/><path class="cls-1" d="M283.35,371.65c-.8-.87-1.73-1.52-1.63-1.83a4,4,0,0,1,1.55-2.06c1.46-.88,3.16-1.38,4.61-2.26s1.54-2,.21-3.12a12.16,12.16,0,0,1-1-1c-2.21-2.42-2.41-3.3-.38-5.79a27.91,27.91,0,0,1,5.05-4.52c.45-.33,1.55.21,2.35.35-.27.77-.52,1.55-.83,2.31-.08.19-.37.28-.55.45-3.37,3-3.37,3-.62,6.65,1.16,1.53.84,5.63-1,6.83A71.9,71.9,0,0,1,283.35,371.65Z"/><path class="cls-1" d="M291.34,324.54c0-3.72.13-6.72-.07-9.71-.06-1-1-1.9-1.45-2.89a6.65,6.65,0,0,1-.69-2.06c2.33-1.32,1.22-3.33,1.14-5.11,0-.48-.2-.95-.23-1.42-.06-1.09-1-2.59.86-3s2,1.18,2.27,2.45c.34,1.56.68,3.12.95,4.69s.61,2.81,2.51,2.9a2.41,2.41,0,0,1,1.25.65,9.4,9.4,0,0,1,1,1.17c-.36.28-.71.8-1.08.81-3.41.11-3.26,2.49-3.25,4.87,0,1.91-.25,3.84,0,5.72.16,1.43-.24,2.33-1.55,2.23C292.24,325.83,291.61,324.78,291.34,324.54Z"/><path class="cls-1" d="M274,456.67c-.42-1.79-.89-3.57-1.25-5.37-.12-.59-.22-1.5.11-1.84,1.62-1.68,1.17-3.67,1.12-5.64a3.75,3.75,0,0,1,.13-1.88,8.39,8.39,0,0,1,1.73-1.62c.4.53,1.11,1,1.15,1.6a38.34,38.34,0,0,1-.07,5.25c-.09,1.37.25,2.39,1.68,2.75,2.3.57,4.64,1.05,6.94,1.65a11.22,11.22,0,0,1,1.94.95c-.67.43-1.3,1.16-2,1.22a66.46,66.46,0,0,1-7.6.22c-1.17,0-1.65.18-1.6,1.37a16.58,16.58,0,0,1,0,4c-.17.81-1.11,1.47-1.7,2.2a12.26,12.26,0,0,1-1.16-2.43,8.28,8.28,0,0,1,.1-2.37Z"/><path class="cls-1" d="M211.13,312.28c.26-2.95.33-5.19.69-7.37.22-1.33.72-2.78,2.7-1.85a1.43,1.43,0,0,0,1-.07c2.7-1.23,4.32-.83,5.92,1.68s3,4.82,4.3,7.33c.2.37-.66,1.79-.8,1.76-1.11-.25-2.52-.46-3.15-1.23-1-1.19-1.28-2.89-2.09-4.24a8,8,0,0,0-2-1.69,20.12,20.12,0,0,0-1.66,2.47,28.28,28.28,0,0,1-1.48,3.62,2.68,2.68,0,0,1-2.25,1.05C211.68,313.56,211.26,312.45,211.13,312.28Z"/><path class="cls-1" d="M349.9,458.31a27.89,27.89,0,0,1-1.24-3.33c-.19-.78-.34-2.15,0-2.4,2.93-1.89,1.39-4.93,2.07-7.38.14-.51-.19-1.18,0-1.63a17.29,17.29,0,0,1,1.56-2.37c.44.8,1.24,1.6,1.26,2.41.05,2.38-.21,4.77-.33,7.15-.17,3.48.63,4.3,4.12,4.63a7.46,7.46,0,0,1,2.16,1,15.21,15.21,0,0,1-2.08,1.24,3.9,3.9,0,0,1-2.1.35c-3.07-.65-2.95,1.33-2.88,3.32,0,.16.08.34,0,.47-.37.91-.68,2.52-1.17,2.58-1.48.19-1.53-1.13-1.55-2.32s-.25-2.37-.39-3.55Z"/><path class="cls-1" d="M264.28,413.73c.4-2.75.69-5.52,1.27-8.23.14-.69,1.19-1.19,1.82-1.77a6.63,6.63,0,0,1,.91,2.27c0,2.45-.33,4.9-.45,7.35,0,.38.37.78.57,1.17.4-.24.92-.38,1.16-.72,1.25-1.8,2.43-3.65,3.63-5.48.69-1.05,1.34-2.12,2.08-3.12.21-.28.69-.35,1-.51.08.35.33.77.21,1-1.74,3.95-3.34,8-5.41,11.77a3.53,3.53,0,0,1-4.66,1.3C264.22,417.76,264,415.89,264.28,413.73Z"/><path class="cls-1" d="M412.23,426.57a8.55,8.55,0,0,1-1.71-2.41q-1.65-6.09-2.93-12.27a2.45,2.45,0,0,1,.94-2.1,2.65,2.65,0,0,1,2.23.46,5.13,5.13,0,0,1,1.23,2,5.37,5.37,0,0,0,5.05,3.32,12.09,12.09,0,0,1,1.9,0,9.07,9.07,0,0,1,1.82.72,5.82,5.82,0,0,1-1.15,1.38,8.65,8.65,0,0,1-2.58,1.15c-3,.7-3.72,1.73-2.85,4.93C414.62,425.29,414,425.91,412.23,426.57Z"/><path class="cls-1" d="M231.54,305.73c0-3.51,0-7,0-10.52,0-1.3.29-2.47,1.65-2.31.6.07,1.46,1.43,1.51,2.24.19,3.41.08,6.84.17,10.26.12,4.59-.18,9.23,1.53,13.66.15.39-.59,1.61-.75,1.58-.87-.17-2.31-.46-2.43-1a68.72,68.72,0,0,1-1.38-8.44,50.24,50.24,0,0,1,0-5.49Z"/><path class="cls-1" d="M218.24,452.05c.85-3.85,1.56-6.94,2.19-10,.22-1.07.23-2.17.41-3.25.06-.32.4-.59.62-.88.28.33.72.61.82,1a6.63,6.63,0,0,1,0,1.67c0,1.8-.14,3.55,2.55,3.64.66,0,1.58,1.12,1.86,1.91,1.11,3.14,2.09,6.34,2.91,9.57.14.55-.76,1.37-1.17,2.06-.48-.48-1.18-.88-1.39-1.45-.82-2.23-1.44-4.53-2.24-6.77-.19-.52-.79-.89-1.19-1.33a6.36,6.36,0,0,0-1.24,1.37c-.38.78-.42,1.75-.86,2.48s-1.24,1.45-1.63,1.33A4.86,4.86,0,0,1,218.24,452.05Z"/><path class="cls-1" d="M331.53,488.32l3,1.19-3.11,1c-3.41,1.08-6.25-.32-8.83-2.24-3.32-2.48-4.05-5.33-2.15-9a30.25,30.25,0,0,1,4.23-5.71A3.61,3.61,0,0,1,327,473c.39,0,.8.58,1.2.9l-.86,1c-1.35,1.63-2.81,3.18-4,4.92a3.69,3.69,0,0,0-.22,2.54C323.66,485.08,328.53,488.72,331.53,488.32Z"/><path class="cls-1" d="M85.42,400.78c-.8,1.18-1.44,2.28-2.23,3.25-.59.73-2.08,1.53-2,1.89a17.49,17.49,0,0,0,2.27,4,7.75,7.75,0,0,0,1.58,1.36,8.6,8.6,0,0,1-2.35,1c-2.25.23-4.09-1.54-4.84-4.14-.4-1.41-1.2-2.69-1.72-4.07-.2-.53-.42-1.35-.16-1.69a19.89,19.89,0,0,1,3.9-4.36,4.71,4.71,0,0,1,3.75-.18C84.4,398.1,84.73,399.54,85.42,400.78Z"/><path class="cls-1" d="M158.7,312.07a31.66,31.66,0,0,1-.29-3.24c0-2.05.72-2.52,2.75-1.9a1.34,1.34,0,0,0,.66,0c1.05-.2,2.4-.94,3.1-.53a10.34,10.34,0,0,1,3.55,3.44c1.6,2.65,2.85,5.51,4.2,8.3a5.64,5.64,0,0,1,.26,1.45c-.61,0-1.4.19-1.8-.11a7.26,7.26,0,0,1-1.6-2c-1.21-1.86-2.29-3.81-3.56-5.62-1.44-2.06-1.93-2-2.88.27a8.64,8.64,0,0,1-1.2,2.32,9.1,9.1,0,0,1-2.14,1.4c-.39-.75-.83-1.49-1.17-2.27C158.47,313.32,158.62,313,158.7,312.07Z"/><path class="cls-1" d="M120.55,352.87c-.3-2.92-.63-5.83-.87-8.76a12.71,12.71,0,0,1,.08-3.32A6.35,6.35,0,0,1,120.9,339c.3.63.88,1.26.86,1.89-.1,5.72,3.62,8.4,8.14,10.54a17.44,17.44,0,0,1,2.64,1.88c-1.17.14-2.41.6-3.49.34-1.67-.39-3.21-1.33-4.86-1.89-.31-.11-1.24.49-1.22.7.18,1.64.59,3.25.75,4.89a6.08,6.08,0,0,1-.49,2c-.68-.27-1.82-.4-2-.84a54.57,54.57,0,0,1-1.19-5.54Z"/><path class="cls-1" d="M222,362a4.91,4.91,0,0,1-.67-1.13,19.64,19.64,0,0,1-.51-3c-.1-1.31.28-2.78-2-1.46-.62.37-2.09-.72-3.18-1.15a14.29,14.29,0,0,1,1.92-2.84c.67-.6,2.54-.78,2.53-1.1a12.28,12.28,0,0,0-1-3.83c-.33-.89-1-1.65-1.31-2.54a4.8,4.8,0,0,1,.06-1.72c.57.1,1.43,0,1.65.34a23.73,23.73,0,0,1,3,5.26c.52,1.48.84,2.09,2.36,1.27a4.71,4.71,0,0,1,1.82-.56c.39,0,.81.31,1.22.48a3.64,3.64,0,0,1-.5,1,18.14,18.14,0,0,0-2.83,2.69,13.36,13.36,0,0,0-1.52,4c-.24,1-.06,2.06-.2,3.07C222.85,361.12,222.43,361.46,222,362Z"/><path class="cls-1" d="M341.44,417.57c0-1.82-.06-3.64,0-5.46a5.67,5.67,0,0,1,.69-2.5c.31-.53,1.1-.77,1.68-1.14a6.9,6.9,0,0,1,.78,1.74c.13.85,0,1.75,0,2.62a19.35,19.35,0,0,0,.47,2.21,10.18,10.18,0,0,0,1.54-1.77c1.13-2.1,2.09-4.29,3.23-6.37.29-.52,1.05-.78,1.59-1.16a4.8,4.8,0,0,1,0,1.85q-2.61,6.36-5.39,12.66a4.33,4.33,0,0,1-1.38,1.6c-1.57,1.17-3,.51-3.14-1.41-.07-.95,0-1.91,0-2.87Z"/><path class="cls-1" d="M314.91,449.5c.7,3.4,1.43,6.79,2,10.2.09.54-.39,1.18-.6,1.78-.74-.31-1.9-.44-2.14-1a15.47,15.47,0,0,1-1.27-4.57q-1.14-10.1-2-20.2c-.06-.71.79-1.5,1.22-2.25.61.71,1.64,1.36,1.76,2.14.7,4.56,1.19,9.16,1.76,13.74Z"/><path class="cls-1" d="M309.65,362.9c-.36.63-.62,1.69-1.1,1.81a19.54,19.54,0,0,1-6,.84,3.6,3.6,0,0,1-3.33-4.42c.68-3.48,1.45-7,4.48-9.44,1.45-1.16,3-1.53,4.58-.38.42.31.53,1,.78,1.57a4.39,4.39,0,0,1-1.36.6c-2.51.15-4.39,2.77-4.41,6.24,0,2,1,2.71,4,2.93.79.06,1.58.2,2.37.31Z"/><path class="cls-1" d="M160,396.44a46.45,46.45,0,0,1-.21-5.17c0-.71.76-1.38,1.16-2.06a8.2,8.2,0,0,1,.58,1.8q.38,4.15.6,8.33c.11,1.91,1.13,2.48,2.87,2.15a1.39,1.39,0,0,1,.47-.09c.76.19,1.52.41,2.28.62a7.16,7.16,0,0,1-2.28.88c-2.44,0-3.25.61-3,3.06.31,2.91-.34,6.11,2.2,8.49.21.19,0,.86-.06,1.31-.66-.11-1.69,0-1.91-.36a21.59,21.59,0,0,1-1.77-4.13,12.25,12.25,0,0,1-.34-2.6c-.26-2.71,0-5.68-3.81-6.36-.36-.07-.66-1.35-.68-2.07,0-.3.9-1,1.19-.88C160.76,400.51,159.79,397.87,160,396.44Z"/><path class="cls-1" d="M96.37,445.31c-.17-2.05-.35-4.1-.5-6.15a4.1,4.1,0,0,1,.14-.91c.23.23.58.41.68.69.47,1.35,1,1.23,1.75.19.44-.66.83-1.36,1.29-2,1.51-2.1,3.94-2.17,5.1.13a65.08,65.08,0,0,1,3,7.89,18.57,18.57,0,0,1,.84,3.38c0,.31-.42.7-.64,1.05-.28-.25-.72-.44-.83-.76-.88-2.45-1.62-4.95-2.58-7.37a13.81,13.81,0,0,0-1.77-2.61,9.89,9.89,0,0,0-1.79,2.32c-.67,1.78-1,3.67-1.6,5.49a8,8,0,0,1-1,1.66,15.75,15.75,0,0,1-2.14-1.61c-.24-.25,0-.91,0-1.39Z"/><path class="cls-1" d="M366.25,449.73c.61,4.29,1.28,8.56,1.81,12.85a6.63,6.63,0,0,1-.58,2.25c-.7-.38-1.65-.59-2-1.17-2.06-3.12-1.68-6.67-1.58-10.17.12-4.53.15-9.06.37-13.58,0-.74.83-1.45,1.27-2.17.48.71,1.34,1.4,1.37,2.13.15,3.26.07,6.52.07,9.78Z"/><path class="cls-1" d="M242.83,456c-3.28-.31-5.52-1.61-6.63-4.63a3,3,0,0,0-.61-1c-2.11-2.18-1.93-2.69.92-3.95,1.11-.49,1.87-1.78,3-2.24a5,5,0,0,1,3.53-.27,3.07,3.07,0,0,1,1.19,2.76c-.28,1.05-1.48,1.84-2.27,2.75-.46.54-1.4,1.27-1.28,1.61a7.79,7.79,0,0,0,1.73,2.28c.19.2.63.14.89.31.65.4,1.26.87,1.88,1.31Z"/><path class="cls-1" d="M458.23,417.24c0-1.12.08-2.24,0-3.34a6.45,6.45,0,0,0-.65-1.72,9.7,9.7,0,0,0-1.26,1.22c-.52.71-.75,1.75-1.42,2.18a3.27,3.27,0,0,1-2.66.48,1.69,1.69,0,0,1-.67-2.76c1.32-1.67,2.35-3.62,3.83-5.11,1.68-1.68,3.79-1.32,4.62.88a45.3,45.3,0,0,1,2.17,8.69c.07.46-1.49,1.62-2.35,1.68-.65.05-1.4-1.13-2.11-1.76Z"/><path class="cls-1" d="M374.76,419.22c-.48-4.12.89-7.72,3.2-11.06a8.11,8.11,0,0,1,6.49-3.38c.71,0,1.48.93,2.23,1.44a8.32,8.32,0,0,1-1.78,1c-4,1.19-4.75,1.59-5.67,7.43-.27,1.72-.53,3.44-.81,5.15-.2,1.2.05,2.82-2,2.41C374.7,421.93,374.36,420.76,374.76,419.22Z"/><path class="cls-1" d="M231.44,352.05c.26-2.48.44-4.95.84-7.37.1-.62.9-1.13,1.38-1.68.19.56.4,1.11.55,1.68a4.94,4.94,0,0,1,.08.95c.19,2.87.17,2.84,2.65,1.49a5.54,5.54,0,0,1,2.25-.63c.53,0,1.38.25,1.53.61a1.73,1.73,0,0,1-.44,1.63c-3.41,2-4.09,5.48-4.94,8.89a2.52,2.52,0,0,1-1.07,1.17c-.8-.5-1.91-1-2.14-1.79A28.1,28.1,0,0,1,231.44,352.05Z"/><path class="cls-1" d="M117,448.4a51.77,51.77,0,0,1,.54,5.39c0,.76-.66,1.52-1,2.28-.73-.74-2.08-1.47-2.09-2.21-.07-6.09.07-12.18.25-18.27,0-.65.72-1.28,1.1-1.91a13.41,13.41,0,0,0,1.07,1.49c.91.95,1.84,1.88,2.82,2.75.39.36,1,.46,1.4.82a13.74,13.74,0,0,1,1.33,1.69,5.51,5.51,0,0,1-2,.29c-2-.48-2.78.06-2.74,2.17a50.75,50.75,0,0,1-.43,5.48Z"/><path class="cls-1" d="M94.21,454c-.17.24-.39.93-.85,1.15s-1.46.19-1.66-.1a20.09,20.09,0,0,1-2.4-4.41A40.21,40.21,0,0,1,88,444.8a5,5,0,0,1,0-2.08c.1-.34.7-.63,1.12-.74.14,0,.54.52.66.87.58,1.65,1.16,3.3,1.66,5s.46,3.32,2.33,4.15C94.1,452.11,94,453,94.21,454Z"/><path class="cls-1" d="M443.82,418.48a25.23,25.23,0,0,1,1-4c.16-.43,1.18-.76,1.77-.71.31,0,.66,1,.78,1.52a29.57,29.57,0,0,1,.57,4c.06.76.12,1.8-.3,2.26a4.79,4.79,0,0,1-2.54,1.17c-.19,0-.79-1.12-.93-1.78a11.1,11.1,0,0,1,0-2.38Z"/><path class="cls-1" d="M329.06,456.78a1.74,1.74,0,0,1-1.05.35c-.61-.09-1.57-.47-1.68-.91a78.78,78.78,0,0,1-1.74-8.32c-.07-.47.89-1.18,1.49-1.61.14-.09,1.07.46,1.14.82C327.85,450.05,328.36,453,329.06,456.78Z"/><path class="cls-1" d="M242.05,316.68a56.26,56.26,0,0,1,2-5.76c.26-.57,1.36-.75,2.07-1.1a7.57,7.57,0,0,1,.47,2.13,17.61,17.61,0,0,1-.73,4.6c-.31.86-1.36,1.45-2.08,2.16Z"/><path class="cls-1" d="M331.71,438.31c-2.38,0-4.57-1.71-4.65-3.71,0-.72.8-1.48,1.24-2.22a11.48,11.48,0,0,1,1.67,1.24,19.38,19.38,0,0,1,2,2.5,3.64,3.64,0,0,1,.66,1.71C332.67,438,331.83,438.26,331.71,438.31Z"/><path class="cls-1" d="M445.67,396.92c.58-.44,1.28-1.37,1.89-1.31a3,3,0,0,1,1.9,1.59,4.58,4.58,0,0,1,.41,2.68,3.2,3.2,0,0,1-1.31,1.9c-.27.18-1.41-.32-1.63-.76A30.57,30.57,0,0,1,445.67,396.92Z"/><path class="cls-1" d="M243.9,298.42c1.28-1.14,2.08-1.87,2.88-2.59.55.65,1.11,1.3,1.65,2a.7.7,0,0,1,.17.43,19.65,19.65,0,0,1-.27,3,2.14,2.14,0,0,1-1.54,0A32.1,32.1,0,0,1,243.9,298.42Z"/><path class="cls-1" d="M408,323.33a13.77,13.77,0,0,1,.89-2.91,11.58,11.58,0,0,1,1.88-2,9.27,9.27,0,0,1,.78,2.19,7.48,7.48,0,0,1-.24,3.06c-.23.65-1.08,1.08-1.66,1.62Z"/><path class="cls-1" d="M92.17,434.24a6.81,6.81,0,0,1-2.42.47,3,3,0,0,1-1.58-1.29,5.59,5.59,0,0,1-1-2.42c0-.35,1.18-1.22,1.47-1.09a5.81,5.81,0,0,1,1.91,1.73A27.09,27.09,0,0,1,92.17,434.24Z"/><path class="cls-1" d="M413.29,303.19c-1,.82-1.91,1.77-2,1.67a25.59,25.59,0,0,1-2.64-2.57l2.33-2Z"/></svg>