<svg id="_2" data-name="2" xmlns="http://www.w3.org/2000/svg" viewBox="0 0 531.37 531.37"><defs><style>.cls-1{fill:#fff;}</style></defs><path class="cls-1" d="M270.49,397.53c-1.93-.32-4.84-.73-7.72-1.32-.62-.12-1.11-.86-1.66-1.32a6.62,6.62,0,0,1,1.91-.54c1.84.07,3.66.29,5.49.46a27.83,27.83,0,0,0,17-3.42c2.92-1.71,4.22-7.11,2.28-9.91-.33-.49-1.2-.66-1.85-.86a18.16,18.16,0,0,1-12.35-12.56c-.73-2.46.47-5.54,1-8.3.09-.45,1.28-.69,2-1a8,8,0,0,1,.43,1.61c.19,3.21-.6,6.64,1.62,9.43a71.79,71.79,0,0,0,5.28,5.62c.23.24.84.12,1.27.16a6.39,6.39,0,0,0-.31-1.08c-1.11-2.2-2.3-4.36-3.36-6.58-.58-1.22-1-2.52-1.45-3.78s-.56-2.41.8-2.74a3,3,0,0,1,2.52,1.07,47.83,47.83,0,0,1,4.33,8.18,106.42,106.42,0,0,1,4.09,13.72c1.18,5.35-.8,8.53-5.86,10.43a40.56,40.56,0,0,1-6.79,2.16A79.55,79.55,0,0,1,270.49,397.53Z"/><path class="cls-1" d="M99.7,395.79c-5.72.2-10.25-3-11.36-8.62-1.21-6.09-1.06-12.12,1.93-17.79A4.89,4.89,0,0,1,98,368c4.09,3.43,4.37,9.85,1,13.92-1.73,2.06-3.31,3.8-6.21,3.77-.27,0-.91,1.05-.78,1.26,1,1.56,1.71,3.61,3.15,4.43,4.8,2.72,10.07,1.61,14.2-2.3a28.85,28.85,0,0,1,4.41-3.14c.34-.22,1,0,1.45,0-.21.4-.31.95-.64,1.19-3.52,2.58-7,5.21-10.66,7.58C102.78,395.46,101.12,395.45,99.7,395.79Zm-1-20.18a31.83,31.83,0,0,0-1.49-4.21c-.93-1.8-2.73-1.87-4-.27a12.24,12.24,0,0,0-2.42,9,2.26,2.26,0,0,0,1.56,1.51C95.85,382.11,98.4,379.54,98.68,375.61Z"/><path class="cls-1" d="M250.18,423.2a6.77,6.77,0,0,1,.08,2.14,6.4,6.4,0,0,1-1.21,1.7c-.61-.59-1.59-1.1-1.76-1.8-.22-.93.4-2.06.24-3s.55-2.74-1.81-2.14c-.53.13-1.44-1.28-2.18-2,.57-.59,1-1.47,1.74-1.73a2.19,2.19,0,0,0,1.44-2.88,70.86,70.86,0,0,0-1.79-7.17,12.39,12.39,0,0,0-1.74-2.74c-.25-.37-.47-.76-.7-1.14.47-.22,1.08-.74,1.41-.6.93.4,2.26.88,2.55,1.65a98.76,98.76,0,0,1,3.07,10c.34,1.35.23,2.87,2,3.08,2.2.26,4.41,1.74,6.53-.84a45.65,45.65,0,0,1,6.79-6.13c.41-.35,1.4,0,2.13,0-.18.78-.11,1.82-.59,2.27-1.14,1.06-2.61,1.77-3.81,2.78-.51.44-.67,1.28-1,1.94a5.82,5.82,0,0,0,2.22.36,39.76,39.76,0,0,0,5.19-1.79c1.18-.49,2.11-.84,2.51.88.09.4.68.66.87,1.07.38.84,1.1,1.92.85,2.57-.41,1-1.49,1.82-2.29,2.7-.73-.8-1.4-1.65-2.2-2.37a2.05,2.05,0,0,0-1.45-.51,42.43,42.43,0,0,1-4.64.95,5.27,5.27,0,0,1-3.54-.89c-1.52-1.48-2.91-1.05-4.48-.51a4.68,4.68,0,0,1-1.16.28C249.92,419.56,249.92,419.56,250.18,423.2Z"/><path class="cls-1" d="M313.26,418c.55,2.52-1,2.21-2.57,2.1A36.08,36.08,0,0,0,304,420c-1,.13-2,1.28-2.91,2,.89.8,1.81,2.3,2.67,2.27a92,92,0,0,0,9.58-1.24c.37-.06.7-.47,1.06-.51a5.06,5.06,0,0,1,1.31.22,5,5,0,0,1-.46,1c-3.52,4.47-10.94,5.81-15.77,2.84a4.29,4.29,0,0,1-2.12-4.68,5.22,5.22,0,0,1,4.38-4.49,28.65,28.65,0,0,1,5-.64c2.21-.07,2.42-1,2.19-3.06-.71-6.17-1.16-12.37-1.49-18.57-.07-1.35.83-2.74,1.28-4.11a20,20,0,0,1,1.18,3.66c.79,5.84,1.42,11.7,2.19,17.55C312.35,414.19,312.87,416.09,313.26,418Z"/><path class="cls-1" d="M217.25,353.8c-.5-2.88-1.05-5.76-1.45-8.66a7.25,7.25,0,0,1,.44-2.32c.65.69,1.72,1.3,1.88,2.08.71,3.67,1.17,7.39,1.72,11.1.69,4.64,1.37,9.29,2.09,13.93a3.13,3.13,0,0,0,.57,1,4.41,4.41,0,0,0,.88-.71,8.08,8.08,0,0,0,.67-1.27c1.14-2.35,3.4-2.91,5.11-.94s3.17,4.56,4.81,6.81c1,1.31,2.13,2.48,3.12,3.77a1.69,1.69,0,0,1,.36,1.38c-.28.55-.9,1.32-1.35,1.31a3.3,3.3,0,0,1-2.39-.92c-1.54-2.31-2.77-4.82-4.25-7.16a9,9,0,0,0-2.06-1.74,13.51,13.51,0,0,0-1.93,2.52,19.57,19.57,0,0,0-1,3.65,1.9,1.9,0,0,1-2.79,1.37,3.29,3.29,0,0,1-1.56-2.23c-.93-5.81-1.72-11.64-2.52-17.47-.25-1.81-.4-3.63-.6-5.45Z"/><path class="cls-1" d="M351.05,420.23a27.71,27.71,0,0,1-1.5,4.45,4.8,4.8,0,0,1-7.14,1.9,53.21,53.21,0,0,1-6.24-5c-2.83-2.58-2.54-5.45-.65-8.53,1.39-2.26,3.85-2.83,7-1.64a27,27,0,0,1,4.73,2.16C349.88,415.27,350.71,417,351.05,420.23Zm-2.69-.59c-.66-1.19-1.22-2.29-1.88-3.33-.18-.28-.67-.35-1-.52-.11.4-.22.8-.34,1.2-.39,1.29-.84,2.55-1.16,3.86a17.55,17.55,0,0,0-.24,2.43c1-.2,2.18-.12,2.88-.67S347.71,420.8,348.36,419.64Zm-6.28-2.91-1.44-1.37c-.17,1-.37,2-.47,3.06,0,.32.24.66.38,1C341,418.6,341.48,417.78,342.08,416.73Z"/><path class="cls-1" d="M367.08,416.22c2.81,0,4.43-1.23,5.11-3.8.37-1.38.44-2.84.87-4.19.18-.55,1-.9,1.47-1.33a5.8,5.8,0,0,1,.86,1.27,18.62,18.62,0,0,1,1.46,4.46,8.06,8.06,0,0,0,3.6,6.14c.52.37.74,1.17,1.1,1.78-.84.25-1.81.9-2.5.68-2.56-.81-4.52-2.35-4.81-5.32a4.1,4.1,0,0,0-.42-1c-.14.16-.4.3-.41.47-.17,2.09-1,4-3.17,4.19a14.11,14.11,0,0,1-6.63-.91c-4.22-1.92-6.56-9.58-4.64-13.81.59-1.29,1.49-1.84,2.87-1.27,1.67.7.92,1.66.29,2.63-1.69,2.59-.1,4.78,1.07,6.86C364.08,414.62,364.73,416.87,367.08,416.22Z"/><path class="cls-1" d="M183.13,390.4c.15-2,.24-4,.5-6.09a2.77,2.77,0,0,0-1.22-2.77c-3.25-2.79-6.34-5.76-9.39-8.77-.51-.51-.48-1.57-.7-2.38.92.27,2.07.29,2.7.87,2.33,2.16,4.41,4.59,6.73,6.76s2.8,1.93,3.45-1.23,1.28-6.53,2-9.8a3.38,3.38,0,0,1,.59-1.75,9.41,9.41,0,0,1,2.23-1.16,8.42,8.42,0,0,1,.18,2.27c-.82,4.3-1.74,8.57-2.58,12.87,0,.19.4.67.64.69a4.87,4.87,0,0,0,1.37-.26c-.21.81-.15,2-.67,2.36-3.94,2.77-3.3,6.35-2.2,10.19.19.68-.57,1.64-.89,2.48a11.09,11.09,0,0,1-2.62-1.88C182.82,392.32,183.13,391.28,183.13,390.4Z"/><path class="cls-1" d="M231.77,405.39l4,1.21a17.88,17.88,0,0,1-3.68.77c-3.77,0-6.16,2.21-8.29,4.91-1,1.26-1,2.41.61,3.07,2.23.91,4.49,1.77,6.78,2.48A4.88,4.88,0,0,1,234,425c-2.61,3.92-6.72,5.48-10.95,6.74a4.18,4.18,0,0,1-2.78-.38,2.14,2.14,0,0,1-.8-1.88c.18-.71.52-2,2-.68.56.51,2.35.16,3.28-.35a38,38,0,0,0,5.89-4c1.62-1.34,1.29-3.24-.58-4.27a12.79,12.79,0,0,0-2.68-1,23,23,0,0,1-2.78-.69c-4.64-2.1-6-3.36-2.11-7.73C225.65,407.12,228.59,405.56,231.77,405.39Z"/><path class="cls-1" d="M125.74,371c.17,2.69.6,6,.5,9.23A50,50,0,0,1,125,388c-.31,1.61-1.29,1.73-2.69,1.17-3.28-1.3-4.31-4.41-5.54-7.18a87,87,0,0,1-3.43-10.18c-.17-.54.31-1.28.5-1.92.59.39,1.49.64,1.73,1.19,1.12,2.55,2,5.23,3.11,7.79a38.08,38.08,0,0,0,2.71,4.76c.19.3.79.42,1.2.43.13,0,.38-.64.39-1,.1-4.05.14-8.11.26-12.17a30.43,30.43,0,0,1,.48-4.67c.09-.48.78-.85,1.2-1.27.28.48.76.95.81,1.46C125.82,367.73,125.74,369.09,125.74,371Z"/><path class="cls-1" d="M171.15,414.1c-2.36-.08-4.13.81-4.63,2.69a6.33,6.33,0,0,0,.72,4.41c1,1.69,2.75,3,5,2.27,1.29-.38,2.51-1,3.78-1.41a4,4,0,0,1,1.28,0c-.15.4-.18,1-.47,1.19a9.08,9.08,0,0,1-9.32,1.3,7.35,7.35,0,0,1-3.92-7.28c.23-2.61,2.71-4.72,5.94-5.33,6.52-1.22,13.15,5.29,13.7,10,.5,4.36-3.58,8.72-7.88,8a4.21,4.21,0,0,1-2.2-1.5c-.34-.41-.15-1.26-.19-1.91a8,8,0,0,0,1.36,1,4.56,4.56,0,0,0,2,.61,3.81,3.81,0,0,0,3.58-3C181.64,419.83,177.05,414.19,171.15,414.1Z"/><path class="cls-1" d="M132.91,378.1c.07-3.46.12-6.4,2.77-8.71,1.62-1.41,3.79-1.62,5.07.17,2.24,3.13.93,8.21-2.72,9.5a2.15,2.15,0,0,0-1.74,2.55c.23,4.69,5.32,8.79,10,8.16.6-.08,1.3.48,1.95.75-.54.39-1,1-1.64,1.13-8.09,1.23-12.29-4.16-13.49-11.11A22.38,22.38,0,0,1,132.91,378.1Zm5.69-5.49-.41-1c-.41.17-1.1.25-1.2.53a35,35,0,0,0-1,3.82c0,.07.67.37.68.35.64-1.05,1.25-2.12,1.85-3.19C138.59,373.06,138.57,373,138.6,372.61Z"/><path class="cls-1" d="M395,416c-1.11.16-3.16.26-3.18.5a24,24,0,0,0,.39,4.91c.05.36.61.74.54,1-.18.73-.51,2-.9,2a2.64,2.64,0,0,1-2.22-.9,12.47,12.47,0,0,1-.78-3.47c-.15-.86,0-1.89-.45-2.57-2.58-4-.19-8.58-1.5-12.72a2.67,2.67,0,0,1,.1-1.65,31.32,31.32,0,0,1,1.4-2.85,16.05,16.05,0,0,1,.93,2.62c.41,2.42.54,4.89,1.09,7.27a3.14,3.14,0,0,0,2,1.89c2.41.47,4.89.55,7.32.88a13.54,13.54,0,0,1,2.34.75c-.67.55-1.25,1.35-2,1.61a49.71,49.71,0,0,1-5,1.17Z"/><path class="cls-1" d="M153.35,429.49l-.77-1.19a15.39,15.39,0,0,0-6.61-5.86c-1.68-.78-1.34-2.43.5-3.43,1.09-.59,2.67-1.09,3-2s-.47-2.39-.84-3.59c-.63-2.11-1.36-4.18-1.94-6.3a4.53,4.53,0,0,1,.25-1.66c.56.36,1.42.61,1.62,1.11a73.84,73.84,0,0,1,2.65,7.62c.79,2.91.95,3.08,3.89,2.27,1.38-.38,2.79-.62,4.2-.87.25-.05.56.17.84.27a5.71,5.71,0,0,1-.68.45c-1.59.7-3.17,1.42-4.78,2.08s-2.44,1.91-1.83,3.79,1.14,3.64,1.58,5.49c.12.5-.26,1.11-.4,1.67Z"/><path class="cls-1" d="M158,388c-.73-.77-1.86-1.42-2.12-2.32-.84-2.82-1.33-5.73-2-8.59-.32-1.4-.79-2.76-1-4.17-.08-.52.32-1.12.5-1.68.5.32,1.23.52,1.45,1,.44.91.58,2,.94,3,.06.16.85.24.87.19,1.54-4,5.26-4,8.61-4.69a1.84,1.84,0,0,1,.47-.06l2.6.08a13.11,13.11,0,0,1-2.21,1.12c-4.75,1.38-7.83,5.74-6.73,10.29a16.42,16.42,0,0,1,.38,4,5.25,5.25,0,0,1-.77,1.77Z"/><path class="cls-1" d="M257.22,373l-.69-7.11a6.74,6.74,0,0,1-.12-1.66,23.81,23.81,0,0,1,.6-2.46,13.14,13.14,0,0,0,1.33,2.08c.42.44,1.15,1,1.64.91a3.5,3.5,0,0,1,3.94,2.06,62.62,62.62,0,0,1,3.19,7.34c.2.53-.32,1.85-.69,1.93a2.49,2.49,0,0,1-2.19-.66,47,47,0,0,1-1.77-4.4,7.09,7.09,0,0,0-1.28-1.48,15,15,0,0,0-.2,1.76c0,.94.09,1.88.1,2.82,0,1.51-.58,2.36-2.3,2.27-1.93-.11-1.88-1.32-1.73-2.67a5.77,5.77,0,0,0,0-.72Z"/><path class="cls-1" d="M202.52,375.89c-.54-3-1.15-5.91-1.59-8.89a5.74,5.74,0,0,1,.59-2.14c.66.43,1.76.76,1.89,1.32a52.36,52.36,0,0,1,1.12,7c.23,2.51.7,3.24,3,2.48,1.91-.62,3.54-2.14,5.29-3.27l1.41-1a12.36,12.36,0,0,1-.19,1.62c-.74,3.05-2.87,4.82-5.63,6-1.83.75-2.19,2.07-1.91,3.87A5.75,5.75,0,0,1,206,385c-.8-.48-2.1-.79-2.32-1.47-.81-2.43-1.27-5-1.86-7.5Z"/><path class="cls-1" d="M279.35,426c.42-3.54.79-6.48,3.52-8.55,1.49-1.14,2.73-1.31,3.92.12s2.37,3.18,3.59,4.74c.86,1.1,1.84,2.11,2.69,3.22a9.15,9.15,0,0,1,.79,1.67c-.66.26-1.66.93-1.93.71a33.43,33.43,0,0,1-3.63-3.61c-1-1.08-1.85-2.26-2.77-3.39-.6,1.13-1.23,2.26-1.8,3.41a4.18,4.18,0,0,0-.53,1.57c0,1.45-.68,1.95-2.12,1.8S279,426.91,279.35,426Z"/><path class="cls-1" d="M251.34,357.81c-.48.57-.87,1.36-1.5,1.67s-1.8.41-2.1.06a45.93,45.93,0,0,1-4.11-5.69c-.18-.29.54-1.46,1.11-1.8a2,2,0,0,1,1.85.33c1.11,1.88,1.69,4.16,4.28,4.69C251,357.1,251.11,357.43,251.34,357.81Z"/><path class="cls-1" d="M249,376.26c-.67.77-1.21,2-2,2.16-1.42.36-2.36-.53-2.4-2.14s-.26-3.47-.12-5.18c0-.6.91-1.14,1.4-1.72a8.82,8.82,0,0,1,1.05,1.5C247.63,372.52,248.23,374.21,249,376.26Z"/></svg>