<svg id="_2" data-name="2" xmlns="http://www.w3.org/2000/svg" viewBox="0 0 531.37 531.37"><defs><style>.cls-1{fill:#fff;}</style></defs><path class="cls-1" d="M419.91,403.91l-9.63-3c-3.67-1.15-6.37-3.79-9.15-6.23a3.75,3.75,0,0,1-.91-4.93,35.71,35.71,0,0,1,10.6-11.21c3.45-2.45,7.61-.69,10,2.74,3.34,4.69-.33,7.31-2.39,10.37s-2.05,7.07,1.4,8.24c.5.17,3.76,1,4.56.68a40.14,40.14,0,0,0,4.91-2.82,7.32,7.32,0,0,1,1.34-.47c0,.52.18,1.16-.06,1.52a5.18,5.18,0,0,1-1.93,2.05C425.89,402,423,402.85,419.91,403.91Zm-12-10c1.57-.22,7-3,9-5,1-2,.74-6.8.81-7.18s-.35-1.25-.67-1.31a18,18,0,0,0-4.2-.33c-2.94.82-5.94,5.82-7.94,9.82A33.07,33.07,0,0,0,407.87,393.87Zm5.63.88-1.83.81c-.8,1.31.88,3.19,1.83,3.58a11.72,11.72,0,0,0,2,.43,15.61,15.61,0,0,0-.58-2.16C414.53,396.51,414,395.66,413.5,394.75Z"/><path class="cls-1" d="M445.69,456.31c.63,3,1.44,5.89,1.87,8.88.75,5.28.5,10.47-3.56,14.53a7.1,7.1,0,0,1-4.19,1.84,14.15,14.15,0,0,1-12.39-5.5c-1.78-2.15-3.64-4.24-5.24-6.51-.63-.91-.67-2.24-.94-3.38-.31-1.33-.75-1.94-2.3-1.14-3.9,2-6,1.16-7.49-3.09-1.2-3.44-2.11-7-3.1-10.52a4.47,4.47,0,0,1-.23-2.13,14.82,14.82,0,0,1,1.11-2.61,9.58,9.58,0,0,1,1.47,2.39c.84,3.39,1.27,6.9,2.39,10.19a5.34,5.34,0,0,0,3.51,3c.95.19,2.71-1.23,3.33-2.36,1.05-1.91,1.44-4.17,2.21-6.24a14.55,14.55,0,0,1,1.35-2.35,8.26,8.26,0,0,1,1.51,2.17c.65,2.29,1.16,4.63,1.59,7a6.87,6.87,0,0,0,3.39,5.19c.4.23.62.77.92,1.17-.43.3-1,1-1.28.85-1.25-.47-2.75-.89-3.52-1.84-1-1.19-1.25-2.9-1.92-4.35a10.2,10.2,0,0,0-1.2-1.61c-.33.6-1,1.28-.92,1.79.59,2.64.94,5.49,2.21,7.81,2.32,4.24,6.13,7.1,10.54,9.06s7.62.48,9.57-4.17.89-9.27-.7-13.77c-.14-.4-1.13-.7-1.73-.71-5,0-7.32-3.46-5.66-8.25a9.47,9.47,0,0,1,6.19-6.45c.66-.21,1.53.26,2.3.42-.45.55-.8,1.29-1.38,1.61a7.79,7.79,0,0,0-4.23,5.49,4.39,4.39,0,0,0,1,2.82,2.18,2.18,0,0,0,1.88.35c.26-.07.34-1.1.37-1.7s-.36-1-.22-1.39a3.07,3.07,0,0,1,1.19-1.59c.27-.15,1.23.37,1.44.8.61,1.33,1,2.75,1.5,4.14Z"/><path class="cls-1" d="M64.05,377.94a23.06,23.06,0,0,1-3.26-.41c-3.21-.85-3.94-2.29-3.6-5.56.15-1.52-.46-3.11-.65-4.68-1.14-9.49-4.85-18.15-8.54-26.82-.49-1.16-1.32-2.19-1.81-3.36a8.58,8.58,0,0,1-.3-2.3c.8.25,1.89.26,2.33.8a14.29,14.29,0,0,1,2,3.72c2,5.05,3.81,10.14,5.79,15.18.17.44,1.21,1,1.47.87,3.54-2,6.83-.42,9.68,1.2a41.19,41.19,0,0,1,8.53,6.85c3.63,3.66,2.67,8.95-1.65,11.78A16.14,16.14,0,0,1,64.05,377.94Zm.42-3.09c3.29-.41,6.8-1.34,9.23-4.2.85-1,1.37-3.29.81-4.3a18.86,18.86,0,0,0-11.19-9.12c-3.38-1-5.45,1.14-4.74,4.65.19.93.73,1.8.86,2.73.37,2.73.56,5.49,1,8.22a2.4,2.4,0,0,0,1.12,1.64A10.91,10.91,0,0,0,64.47,374.85Z"/><path class="cls-1" d="M123.38,461.52c-2.77,0-6.24-2.47-7.41-5.3-.23-.56-.62-1.52-.91-1.51-4,.14-3.93-3.28-5-5.64-.48-1-.85-2.07-1.42-3-.85-1.43-1.88-1.19-2.43.17-.65,1.62-1,3.38-1.48,5a15.58,15.58,0,0,1-1.35,3.29c-.29.5-1.25,1.08-1.64.92a2,2,0,0,1-1-1.66c.66-3.5,1.48-7,2.31-10.46,0-.14.67-.13,1-.2a2.83,2.83,0,0,0,1.16-.26c2-1.54,3.3-1.5,4.73.66a38.19,38.19,0,0,1,2.43,5.17,15.52,15.52,0,0,0,1.36,3c.73,1,1.95,1.87,2.89.29,1.47-2.48,3.69-2.65,6.19-2.64,5.64,0,5.8-.06,4.53-5.6s-3-11.22-4.43-16.84c-.15-.55.2-1.23.32-1.85.49.29,1.28.46,1.44.87,1.17,3.12,2.36,6.25,3.26,9.46,1.41,5,2.63,10,3.81,15.07a2.81,2.81,0,0,1-.63,2.29c-.37.38-1.44.25-2.14.08-2.09-.48-4.15-1.08-6.22-1.66a2.75,2.75,0,0,0-3.69,2.1,4.13,4.13,0,0,0,1.68,3.43c3.76,2.22,7.8,3.2,12,1.07a6.51,6.51,0,0,1,1.55-.64c.92-.19,1.87-.25,2.81-.36-.71.7-1.3,1.76-2.15,2-3.75,1.21-7.57,2.19-11.37,3.26Z"/><path class="cls-1" d="M217.12,396.14c.17-3.81,1.35-7.45,4.27-9.61,2.42-1.78,5.79-2.29,8.77-3.29.27-.09,1.08.55,1.05.65-.18.53-.5,1.39-.85,1.42-2.13.21-1.23,1.32-1,2.49.87,4.13,1.56,8.3,2.38,12.44,1,4.84,1.91,9.69,3.07,14.49.36,1.46.55,3.53,3,3.32a2.79,2.79,0,0,1,.53,1.47c-.75.55-1.88,1.46-2.44,1.22a5.05,5.05,0,0,1-2.65-2.51c-1.1-3.05-1.83-6.24-2.67-9.38-.55-2.08-1.06-4.17-1.57-6.26-.28-1.16-.73-1.42-1.46-.31a5.27,5.27,0,0,1-5.76,2.47c-2.68-.53-3.52-2.75-4-5.09C217.54,398.49,217.35,397.31,217.12,396.14Zm2.78-.41c.53,1.46.79,3.1,1.64,4.34,1.46,2.13,3.39,1.79,4.19-.67a20.09,20.09,0,0,0,.79-4.7c.16-2.22.1-4.45.17-6.67a8.38,8.38,0,0,1,.24-1.31,6.75,6.75,0,0,0-1.57.14C222.4,387.86,220.25,391.56,219.9,395.73Z"/><path class="cls-1" d="M223.77,479.69a29.63,29.63,0,0,1-13.66-4,30,30,0,0,1-3.37-2.47c-.18-.14-.17-.51-.25-.78a2.16,2.16,0,0,1,.87,0c3.2,1.3,6.37,2.71,9.6,3.95a18.14,18.14,0,0,0,12,.23c6.41-2,7.68-5.07,7.57-11.64-.05-2.75-1.52-5.47-2.38-8.18-.08-.26-.4-.43-.61-.64a5.28,5.28,0,0,0-.48.78c-1.36,3.56-2.56,4.31-5.81,3.61a5.53,5.53,0,0,1-4.37-6.17c.35-4.18,3.06-7.05,5.55-10,.32-.38,1.27-.24,1.93-.34a6,6,0,0,1-.45,1.86c-1,1.47-2.13,2.79-3,4.29a6.15,6.15,0,0,0-1.07,3.12,7.22,7.22,0,0,0,1.23,3.57,2.66,2.66,0,0,0,2.32.14,14.16,14.16,0,0,0,.94-3.7c.23-1.31,0-3.58.59-3.79,1.86-.68,2.4,1.35,3.11,2.58,2.47,4.27,5.14,8.45,5.32,13.65.26,7.47-4.14,12.77-11.51,13.59Z"/><path class="cls-1" d="M364.26,425.2c0-.16,0-.26,0-.32l1.35-2.92a16.37,16.37,0,0,1,.95,2.73c1.17,7.32,2.28,14.66,3.4,22,.3,2,.55,4,.89,5.93a4.22,4.22,0,0,0,.64,1.17,7,7,0,0,0,.85-1.24c.46-1.16.6-2.51,1.29-3.49,1.49-2.12,3.66-2.15,5,.11,1.59,2.64,2.71,5.55,4.06,8.34,1.14,2.35,2.34,4.67,3.46,7a9.18,9.18,0,0,1,.42,1.68,9.53,9.53,0,0,1-1.59-.72c-3.11-2-3.95-5.47-5.33-8.59-.71-1.6-1.35-3.25-2.19-4.78s-1.79-1.58-2.42.14c-.74,2-1,4.19-1.7,6.22a10.33,10.33,0,0,1-1.8,2.46c-.74-.82-2-1.55-2.16-2.47-1.78-10.86-3.4-21.75-5.06-32.63C364.3,425.59,364.28,425.35,364.26,425.2Z"/><path class="cls-1" d="M278.07,351.05c.6-7.08,1.16-14.16,1.84-21.23.07-.63.9-1.2,1.38-1.79.28.64.81,1.29.78,1.92-.35,7.89-.84,15.77-1.15,23.67a34.09,34.09,0,0,0,.54,5.94c.44,3.23-.62,4.35-3.77,3.78-1.1-.2-2.18-.47-3.27-.7-2.53-.54-4.25.51-4.88,3s.19,3.45,2.87,4.29a12,12,0,0,0,9.14-.94,16,16,0,0,1,2-.67,21.37,21.37,0,0,1-1.59,1.43,12.87,12.87,0,0,1-13.08,1.73c-2.43-1-2.76-3.18-2.5-5.43.28-2.54,1-5,3.86-5.73a15.32,15.32,0,0,1,5.44-.26c2,.28,2.66-.46,2.65-2.27v-6.7Z"/><path class="cls-1" d="M208.61,356q-.8-13.36-1.59-26.72a6,6,0,0,1,.08-2.12,1.7,1.7,0,0,1,1.21-.85c.29,0,.85.45,1,.81a8.88,8.88,0,0,1,.38,2.35c.37,7.33.7,14.67,1.08,22a11.73,11.73,0,0,0,.44,2c.41-.43.84-.85,1.21-1.3a3,3,0,0,1,5.05.32,28.06,28.06,0,0,1,2.76,6.05c1,2.93,1.79,5.95,2.63,8.94a3.84,3.84,0,0,1-.09,1.29c-.41-.15-1-.18-1.19-.46a48.61,48.61,0,0,1-2.67-5.54c-.8-2.16-1.21-4.47-2-6.62-.33-.85-1.3-1.46-2-2.18a11,11,0,0,0-2,2.46c-.78,1.81-1.21,3.78-1.93,5.63-.21.52-1,1.23-1.41,1.14a2,2,0,0,1-1.29-1.42c-.16-1.9-.06-3.82-.06-5.74Z"/><path class="cls-1" d="M88.47,356.8a14.58,14.58,0,0,0,6.46,13.07c3.23,2.29,7.5-.63,7.59-5.13a17,17,0,0,0-.66-3.75,24.09,24.09,0,0,1-.77-3.5,5.75,5.75,0,0,1,.78-2.1c.5.44,1.22.79,1.48,1.35a27.78,27.78,0,0,1,1.63,4.41c1.25,4.58,3.26,8.65,7.2,11.53a6.34,6.34,0,0,1,.71.75c-.4,0-.91.24-1.16.07a49.25,49.25,0,0,1-5.07-3.76c-1.13-1-1.51-1.33-2.49.28-2.59,4.2-7.4,5.25-11.41,1.88s-6.24-8-7.49-13a5.81,5.81,0,0,1,0-1.67c.07-1.17-.09-2.74,1.61-2.6C87.43,354.64,87.93,356,88.47,356.8Z"/><path class="cls-1" d="M454,443c0-5.18,0-10.35,0-15.52a4.17,4.17,0,0,1,.11-1.42,5.69,5.69,0,0,1,.86-1.25c.21.48.44,1,.62,1.45.05.13,0,.31,0,.47.22,7.58.42,15.15.69,22.73a7.65,7.65,0,0,0,.74,2.1,18.25,18.25,0,0,0,1.2-1.85c1-2.06,1.56-4.87,4.38-4.74s3.42,2.81,4.12,5c.78,2.42,1.28,4.92,2,7.37.3,1,.92,2,1.21,3a4,4,0,0,1,.05,2.23,1.67,1.67,0,0,1-1.5.7,3,3,0,0,1-1.39-1.66c-.88-3.39-1.48-6.86-2.48-10.21-.39-1.32-1.58-2.4-2.41-3.59a41.38,41.38,0,0,0-2.37,3.7c-.71,1.41-1.09,3-1.79,4.41a10.21,10.21,0,0,1-1.71,2c-.65-.81-1.77-1.57-1.86-2.44-.36-3.49-.4-7-.55-10.52,0-.64,0-1.28,0-1.91Z"/><path class="cls-1" d="M397.63,448.59a8,8,0,0,1,2.1.75,10.89,10.89,0,0,1-2,19.47,4.71,4.71,0,0,1-3.73-.31c-.61-.43-.23-2.2-.39-3.36a10.82,10.82,0,0,0-.55-2.08c-.8-2.38-2.07-4.7-2.34-7.14C390.3,452.14,393.61,448.63,397.63,448.59Zm-4.41,7.93.4.22a13.12,13.12,0,0,0,.15,1.67c.7,3.14,1.67,3.5,4.22,1.64.17-.12.56.06.85.11-.5,1.57-.95,3.15-1.53,4.69-.16.43-.7.71-1.07,1.06a4.53,4.53,0,0,0,1.72-.19,8.64,8.64,0,0,0,2-13.23c-1.36-1.46-3.36-1.61-4.59-.06A23.67,23.67,0,0,0,393.22,456.52Z"/><path class="cls-1" d="M243,386.38c-.35,4.15.2,8,2.79,11.22a4.12,4.12,0,0,0,3.11,1.5c.76-.12,1.43-1.67,1.87-2.7.51-1.2-.45-3.21,1.63-3.5s1.9,1.85,2.53,3c1.07,1.87,1.79,3.92,2.75,5.85a4.26,4.26,0,0,0,4.41,2.66,6.69,6.69,0,0,1,1.57.26c-.36.65-.73,1.85-1.09,1.85-1.59,0-3.56.16-4.68-.69-1.55-1.18-2.56-3.15-3.62-4.89-.85-1.39-1.26-1.89-2.32-.08-1.85,3.15-5.5,2.89-7.81,0-3.28-4.13-4-9-4.35-13.92-.08-1.42,1.07-2.92,1.66-4.38C241.94,383.8,242.46,385.09,243,386.38Z"/><path class="cls-1" d="M170.13,401.67c-.49-2.08-1.23-5-1.82-8a8.23,8.23,0,0,1,.26-2.43c.64.49,1.64.85,1.85,1.48.76,2.28,2.3,4.25,1.51,7.1-.73,2.62-.08,5.59-.59,8.3-.58,3-.88,6.43-4.68,7.69a5.17,5.17,0,0,1-5.13-.8c-4.18-3.13-6.36-7.73-8.67-12.15a41.36,41.36,0,0,1-3.08-8.51,8.86,8.86,0,0,1,.14-4.68c.27-.87,1.59-1.57,2.58-2,.41-.18,1.2.55,1.82.87a9,9,0,0,1-1.22,1c-1.83,1-1.5,2.7-1.2,4.23a38,38,0,0,0,7.68,16,23.51,23.51,0,0,0,2.27,2.78,4,4,0,0,0,6.65-1.39,11.93,11.93,0,0,0,1-2.69C169.77,406.59,169.87,404.59,170.13,401.67Z"/><path class="cls-1" d="M381.8,386.84c-3.34-.5-3.35-.5-3,2.81.29,2.92.66,5.84.85,8.78,0,.63-.54,1.29-.83,1.94-.58-.59-1.56-1.11-1.67-1.78-.61-3.77-1-7.58-1.48-11.38a3.12,3.12,0,0,0-2.29-3c-.66-.21-1.15-1-1.72-1.52a11.31,11.31,0,0,0,1.59-1.58,4.17,4.17,0,0,0,1-2.25,44.08,44.08,0,0,0-1.12-5.14,5.19,5.19,0,0,1-.38-2.09,17.32,17.32,0,0,1,1.29-3,10.49,10.49,0,0,1,1.37,2.45c.75,3.1,1.2,6.28,2.08,9.33a4.57,4.57,0,0,0,2.4,2.53c4.21,1.79,8.45.63,12.66-.25a8,8,0,0,1,1.55-.05,5.53,5.53,0,0,1-1.25.85C389.17,384.66,385.48,385.74,381.8,386.84Z"/><path class="cls-1" d="M360.5,403.84c-1-.71-2.73-1.24-3-2.16-.38-1.47.18-3.2.4-4.81,0-.13.65-.35.76-.25a2.94,2.94,0,0,1,.61.94c.48.91,1,2.61,1.41,2.58a5.67,5.67,0,0,0,3.26-1.46,6,6,0,0,0-.26-9.11c-1.81-1.67-3.84-3.1-5.69-4.73-2.33-2-2.52-3.71-.75-6.24a22.24,22.24,0,0,1,2.79-3.26c.35-.34,1.12-.26,1.7-.37a12.07,12.07,0,0,1,.1,1.8,1.63,1.63,0,0,1-.45.83c-2.61,3.15-1.61,4.51,1.13,6.76s5.06,4.53,6.11,8A9,9,0,0,1,360.5,403.84Z"/><path class="cls-1" d="M92.55,440.17a34,34,0,0,1-.38,4.53,8.2,8.2,0,0,0,1.61,6.53,7,7,0,0,1,.57,1.65,5,5,0,0,1-1.82-.64,7.47,7.47,0,0,1-1.88-2.43c-.66-1.56-1.38-1.18-2.29-.35-.29.26-.56.56-.87.8-1.69,1.31-3.5,2.52-5.67,1.33a5.79,5.79,0,0,1-3-5.82c.39-5.32,3-9.08,7.94-10.55S92,434.53,92.55,440.17Zm-3,4.91-.6-.44c0-2.12,0-4.25,0-6.38,0-1.15-.39-1.42-1.43-1a9.55,9.55,0,0,0-6,6.36,5,5,0,0,0,1,4.2c.76.77,2.86.93,4,.45S88.56,446.19,89.53,445.08Z"/><path class="cls-1" d="M297.83,453.49c0-.23-.11-.51,0-.71.55-1.21,1.14-2.4,1.72-3.6a13.18,13.18,0,0,1,1.13,3.53c.07,4,2.27,7,6.09,7.92a3.29,3.29,0,0,1,.91.57c-.24.28-.46.81-.71.82a13.92,13.92,0,0,1-3.23-.13,4.56,4.56,0,0,1-1.59-1c-1-.76-2-2-3-2.14-.76-.07-1.62,1.49-2.51,2.23-2.6,2.19-5.23,1.47-8,.26s-3.52-3.54-3.71-6.15c-.13-1.82,2.57-4.95,4.7-5.62,1.39-.44,2.94-.8,3.66,1a7.21,7.21,0,0,1,.1,2.24,6.08,6.08,0,0,0-1.7,0c-1.15.31-2.67.46-3.26,1.25s-.41,2.74.19,3.21a10.34,10.34,0,0,0,5.16,2.45c2,.14,4-2.75,4.13-4.9C297.86,454.29,297.83,453.89,297.83,453.49Z"/><path class="cls-1" d="M481.75,455.37c.15,1.91.42,3.82.38,5.72,0,.62-.86,1.22-1.32,1.83a6.06,6.06,0,0,1-1-1.91c-.26-2.78-.34-5.56-.55-8.34a3.88,3.88,0,0,0-.61-1.22c-.23.31-.48.61-.7.93a3.12,3.12,0,0,0-.18.42,22.44,22.44,0,0,1-2.45-2.2c-.39-.47-.74-1.49-.5-1.83a2.35,2.35,0,0,1,1.92-.9c1.77.35,1.9-.45,1.67-1.81-.6-3.54-1.17-7.07-1.74-10.62a10,10,0,0,1-.21-2.37c.05-.46.51-.88.79-1.32.43.37,1.14.67,1.23,1.11.82,3.9,1.63,7.81,2.22,11.74.46,3.06,1.24,4.1,4.34,4.32,2.22.17,4.47,0,6.69.11a8.4,8.4,0,0,1,1.92.51,5.94,5.94,0,0,1-1.63.78c-3,.39-6,.76-9,1-1.2.1-1.53.54-1.35,1.65.13.79.12,1.59.18,2.39Z"/><path class="cls-1" d="M337.46,388.46a53.05,53.05,0,0,0,5.12-2.21c2.05-1.15,2.92-1.09,3.46,1.17s.56,4.73.9,7.09a4.71,4.71,0,0,0,.85,2c.28.37.9.49,1.37.73-.74.75-1.37,1.81-2.26,2.15-.52.2-1.91-.62-2.14-1.26a13.8,13.8,0,0,1-.34-3.78c0-.55,0-1.11-.08-1.67-.29-3.43-.33-3.31-3.55-2.48a20.21,20.21,0,0,1-7.21.85c-2.85-.34-3.21-2-1.57-4.39,2.49-3.59,5.59-6.33,10-7.25a6.11,6.11,0,0,1,2.24.4,11.44,11.44,0,0,1-1.79,1.88c-2.07,1.4-4.26,2.63-6.32,4.06-.46.31-.93,1.41-.73,1.69C335.71,387.93,336.56,388.06,337.46,388.46Z"/><path class="cls-1" d="M286.7,399.71c-5.07.2-9.39-1.75-13.55-4.2-1.83-1.08-1.52-2.55-.31-3.77a49.83,49.83,0,0,1,5.38-4.68c2.1-1.57,4.22-1.59,5.19-.33,1.09,1.42.6,4-1.08,5.64-.17.17-.37.3-.54.46L279.54,395c1.12.67,2.18,1.71,3.38,1.91,2.66.46,5.38.48,8.07.71a5.71,5.71,0,0,1,1.19.39c-.3.23-.56.57-.9.66C289.76,399.07,288.23,399.37,286.7,399.71Z"/><path class="cls-1" d="M135.3,358.4a8.27,8.27,0,0,1-2.15,1.57,41.65,41.65,0,0,1-6,1.44c-1.49.24-1.89.84-1.54,2.26a58.32,58.32,0,0,1,1.2,5.85,5.66,5.66,0,0,1-.53,2.07c-.54-.48-1.32-.86-1.58-1.47a35.28,35.28,0,0,1-1.55-4.76c-.44-1.71-.65-3.35-3-3.63-1.51-.18-.76-1.43-.14-1.92,1.47-1.17,1.1-2.36.54-3.82-1.41-3.72-2.69-7.5-3.94-11.28-.16-.47.2-1.1.32-1.66.47.31,1.17.51,1.35.93,1.77,4.17,3.63,8.31,5.06,12.59.6,1.78,1.37,2.38,3,2.1,2.27-.4,4.51-.93,6.78-1.31a8.46,8.46,0,0,1,2,.16Z"/><path class="cls-1" d="M184.41,398.79c.56,1.78,1,3.22,1.46,4.64.18.53.72,1.06.65,1.52-.16,1.06-.33,2.73-1,3-1.74.7-1.83-.89-2.22-2.17-.77-2.59-1.71-5.14-2.73-7.64-.58-1.42-.65-2.35,1-3.05a5.68,5.68,0,0,0,1.8-1.76c1.29-1.54,2.64-1.7,4.4-.67,5.8,3.41,8.25,9.35,11.35,14.79.12.21-.68.94-1.06,1.42a18.32,18.32,0,0,1-1.8-1.95c-2.27-3.35-4.36-6.82-6.78-10.05-.61-.82-2.5-1.6-3.19-1.24C185.36,396.13,185,397.74,184.41,398.79Z"/><path class="cls-1" d="M173.42,453.67c-.54-3.54,1.73-5.68,3.9-7.8.94-.91,5.66-.3,7,.69,6.13,4.46,3.48,13-1.09,15.87a3.32,3.32,0,0,1-2.83.17,17.27,17.27,0,0,1-4.66-3.53,31.23,31.23,0,0,1-3-5.11Zm12.3-.05c0-3.49-2.05-6.06-4.78-6.09-2.55,0-5.84,3.46-5.43,6.22.54,3.66,2.21,5.78,6.3,5.78C183.92,459.53,185.75,456.72,185.72,453.62Z"/><path class="cls-1" d="M244,363.19c-.57,1.82-1,3.68-1.75,5.43-.64,1.54-1.8,1.43-3.16.64a5.76,5.76,0,0,0-2.9-.73,11.66,11.66,0,0,1-8-2.54c-2.34-1.92-2.31-5.32-.33-8,2.16-3,6.74-4.59,10-3.54C241.5,355.61,243.71,358.86,244,363.19Zm-3-.67c0-4.14-2.29-6.76-5.81-6.75-3,0-6.63,3.41-6.63,6.19,0,3,2.41,5.21,5.67,5.22C239,367.2,241.07,365.77,241,362.52Z"/><path class="cls-1" d="M324.54,391.6c-2.13-.3-3.64-.47-5.12-.73-2.21-.39-2.45.78-2,2.48.52,2.09,1.14,4.16,1.57,6.26a7.63,7.63,0,0,1-.25,2.34c-.71-.53-1.72-.91-2.08-1.62-1.3-2.59-2.34-5.31-3.58-7.93-.71-1.5-1.07-2.78.38-4.1a2.56,2.56,0,0,0,.29-1.92c-.33-2.29-.88-4.54-1.12-6.83-.08-.7.56-1.48.86-2.21.46.56,1.16,1.06,1.32,1.69a58.52,58.52,0,0,1,1,5.89,3.21,3.21,0,0,0,2.59,3c2,.53,4,1.13,5.95,1.77a16.45,16.45,0,0,1,2,1Z"/><path class="cls-1" d="M255.86,342c-.66,7.3-1.37,14.6-1.93,21.91-.23,3-.57,6.06,1.15,8.85.16.26.08,1,0,1-.4.13-1.12.22-1.27,0a12.55,12.55,0,0,1-2.15-3.59,13.22,13.22,0,0,1-.28-4.49c.38-5.23.81-10.46,1.35-15.68.48-4.59,1.12-9.16,1.71-13.74a2.87,2.87,0,0,1,.37-1.36,4.64,4.64,0,0,1,1.24-.83,3.52,3.52,0,0,1,.41,1.22C256.27,337.52,256.05,339.74,255.86,342Z"/><path class="cls-1" d="M352.12,458.7a5.34,5.34,0,0,0-2.41-4.71,5.47,5.47,0,0,1-1.52-2.45c-.08-.19.86-1.13,1-1.06,1.8.86,1.32-.46,1.14-1.22-.43-1.7-1.11-3.35-1.43-5.06a9.18,9.18,0,0,1,.36-2.85c.62.69,1.54,1.28,1.79,2.08.7,2.28.94,4.71,1.74,6.95a8.3,8.3,0,0,0,2.68,4c2.07,1.41,4.22,3.27,7.17,2.29.24-.08.8.1.82.21,0,.36,0,1-.18,1.07a7.47,7.47,0,0,1-2.82,1,15.72,15.72,0,0,1-4.24-.59c-1.12-.3-2.17-.95-1.46,1.07a.72.72,0,0,1,.05.47c-.46.81-.94,1.61-1.41,2.41-.49-.81-1-1.59-1.43-2.43C351.87,459.61,352.05,459.23,352.12,458.7Z"/><path class="cls-1" d="M310.71,429.89a4.27,4.27,0,0,1,.08-1.21,9.87,9.87,0,0,1,.77-1.38c.35.45.92.86,1,1.35.63,4.1.88,8.27,1.8,12.3,1.38,5.95,3.18,11.81,4.87,17.7a14.8,14.8,0,0,0,1.32,2.52c.19.36.33.73.49,1.1-.46,0-1.09.19-1.34,0a9.85,9.85,0,0,1-2.62-2.87C313,450,311.7,439.94,310.71,429.89Z"/><path class="cls-1" d="M260,454.16c.95-2,1.33-4.35,2.69-5.51,2.83-2.41,6.14-1.75,8.45,1.3,1.87,2.46,3.45,5.13,5.1,7.73a1.11,1.11,0,0,1-.07,1.05c-.22.23-.84.42-1.05.28a7.45,7.45,0,0,1-2.14-1.78c-1.08-1.56-1.86-3.33-3-4.89-.91-1.29-2.17-2.84-3.88-2-1,.52-1.46,2.15-2.11,3.31-.19.33-.11.81-.3,1.13-.5.84-1.08,1.64-1.63,2.45Z"/><path class="cls-1" d="M204.91,449.87c-3.71-.42-7,3.42-6.31,7.07a32.21,32.21,0,0,1,.44,5.81c0,.37-.83,1.08-1.23,1.05a1.83,1.83,0,0,1-1.32-1.1c-.63-3.85-1.15-7.72-1.62-11.59,0-.17.69-.5,1.1-.64.85-.3,2-.26,2.55-.82,1.83-1.75,6.11-2.41,8.08-1,.21.16.46.54.41.74a.93.93,0,0,1-.68.53A6.8,6.8,0,0,1,204.91,449.87Z"/><path class="cls-1" d="M158.13,342.47a13.62,13.62,0,0,1-3.47-.77c-.89-.48-2.28-1.81-2.12-2.18.54-1.24,1.52-2.87,2.63-3.13a10.5,10.5,0,0,1,5.35.51,3.58,3.58,0,0,1,1.82,2.49c.11.59-.83,1.61-1.53,2.09A10.54,10.54,0,0,1,158.13,342.47Z"/><path class="cls-1" d="M206.69,394.86l1.33-3.44a35.42,35.42,0,0,1,1.16,3.67c.76,3.83,1.37,7.7,2.17,11.52.17.78,1.06,1.39,1.36,2.17a9.29,9.29,0,0,1,.27,2.38c-.78-.19-2-.13-2.28-.63a14.59,14.59,0,0,1-2-4.53C207.94,402.43,207.4,398.8,206.69,394.86Z"/><path class="cls-1" d="M161.71,350.47a4.47,4.47,0,0,1,.77,1.06c.55,1.74.92,3.55,1.58,5.25,1.27,3.31,2.73,6.55,4,9.86a5.15,5.15,0,0,1-.15,2.11c-.76-.23-1.91-.23-2.23-.74a21.89,21.89,0,0,1-2-4.59c-1-3.1-2-6.22-2.73-9.38a13,13,0,0,1,.11-3.51Z"/><path class="cls-1" d="M253.35,462.63,251.84,465c-.56-.56-1.42-1-1.63-1.68-1.3-4.25-2.48-8.55-3.62-12.85a3.4,3.4,0,0,1,.27-2.07c.17-.4.81-.6,1.24-.89a5,5,0,0,1,.62,1.15c.79,3.48,1.49,7,2.33,10.44a7,7,0,0,0,1.23,1.89C252.6,461.43,252.9,461.92,253.35,462.63Z"/><path class="cls-1" d="M214.09,452.79a5.16,5.16,0,0,1,.75,1.36c.17,1.1.14,2.24.35,3.33.3,1.52.88,3,1.06,4.54a8.68,8.68,0,0,1-.53,2.73c-.69-.48-1.92-.89-2-1.45-.4-3.05-2.13-6.06-.56-9.22A11,11,0,0,1,214.09,452.79Z"/><path class="cls-1" d="M215.83,445.16a6.69,6.69,0,0,1-2.55-.34c-.64-.37-1.42-1.49-1.25-2a1.45,1.45,0,0,1,2.44-.76,19.35,19.35,0,0,0,2.86,1,8.37,8.37,0,0,1,1.5,1.14,15.32,15.32,0,0,1-1.81.8,3.87,3.87,0,0,1-1.18,0Z"/><path class="cls-1" d="M252.87,441.68c-1,.19-2.07.66-2.31.39a24.09,24.09,0,0,1-3-4.24c-.22-.4.32-1.23.51-1.87a6.45,6.45,0,0,1,1.42,1c.91,1.09,1.71,2.27,2.55,3.42C252.25,440.62,252.39,440.89,252.87,441.68Z"/><path class="cls-1" d="M207.06,379.92c.78.56,1.65.87,1.93,1.45a30.59,30.59,0,0,1,1.31,4,45,45,0,0,1-4.36-2.12,2.06,2.06,0,0,1-.43-1.84C205.67,380.9,206.4,380.52,207.06,379.92Z"/></svg>