<svg id="_2" data-name="2" xmlns="http://www.w3.org/2000/svg" viewBox="0 0 531.37 531.37"><defs><style>.cls-1{fill:#fff;}</style></defs><path class="cls-1" d="M261.38,462.41c0-5.5-.07-11,.07-16.51,0-.88.9-2.33,1.58-2.46a3.43,3.43,0,0,1,2.89,1.19c3,4.59,2.28,9.37-.18,13.84A21,21,0,0,0,263,468.4c-.1,5.31-.21,5.35,4.9,3.48.45-.16.88-.38,1.34-.51,1.11-.34,1.14-.79.43-1.69-.4-.51-.73-1.63-.45-2a3.17,3.17,0,0,1,2.25-1.32,41.65,41.65,0,0,1,7.27,1.3c.75.21,1.22,1.38,1.82,2.11-.85.66-1.85,2-2.52,1.87-6.32-1.38-10.16,2.57-14,6.36-.85.83-.86,2.48-1.36,3.71a8.57,8.57,0,0,1-1.11,1.56c-.41-.56-1.09-1.08-1.17-1.68a17.07,17.07,0,0,1,0-3.78c.19-2.19.61-4.37.7-6.56.13-2.94,0-5.9,0-8.85Zm4.28-12c-.18-.44-.48-1.13-.77-1.82a7,7,0,0,0-1,2,30.35,30.35,0,0,0-.2,4.05,3,3,0,0,0,.37,1c.23-.29.6-.55.68-.88C265.09,453.42,265.33,452.09,265.66,450.42Z"/><path class="cls-1" d="M290,468.09a18.2,18.2,0,0,1-.71-3.72,4.94,4.94,0,0,1,1.07-2.66c.14-.18,1.4.31,2,.68a12.73,12.73,0,0,1,2.27,1.73c1.25,1.19,2.3,1.66,3.33-.26.53-1,1.11-.92,2-.05s2.36,2.52,4.09.54c.2-.23,2,.36,2.37,1,1.09,1.74,1.78,3.73,2.75,5.55.63,1.18,1.54,2.21,2.21,3.37a5.85,5.85,0,0,1,.39,1.66c-.55-.19-1.36-.2-1.61-.58-1.45-2.23-2.75-4.55-4.13-6.83-.34-.57-.76-1.09-1.15-1.64a20.39,20.39,0,0,0-.88,2c-.26.75-.15,1.87-.64,2.23-2,1.5-.75,2.9-.38,4.57.32,1.51-.25,3.22-.58,4.82a2.17,2.17,0,0,1-1.66.09,3.5,3.5,0,0,1-1.6-1.72c-.41-1.44-.4-3-.75-4.47-.11-.45-.8-.77-1.23-1.15a4.77,4.77,0,0,0-1,1.28c-.26.82-.22,1.74-.49,2.55a1.52,1.52,0,0,1-1,.93c-.56.06-1.52-.1-1.67-.45-1.3-3.05-2.45-6.15-3.65-9.24Z"/><path class="cls-1" d="M80.21,449.9c.42,6.77.92,13.54,1.22,20.31.12,2.65,1.62,3.6,3.85,4.05,1,.21,2,.36,3,.63a9.25,9.25,0,0,1,1.55.76,5.69,5.69,0,0,1-1.61,1,12.72,12.72,0,0,1-3.08.29c-1.36,0-1.88.55-1.76,1.89a46.17,46.17,0,0,1,.28,5.25c0,.64-.65,1.27-1,1.9-.44-.48-1.19-.92-1.27-1.45-.59-4.15-1.16-8.31-1.54-12.49-.46-5.23-.69-10.49-1.1-15.72-.5-6.44-1.12-12.87-1.55-19.31-.06-.87.72-1.79,1.11-2.69.79.39,1.86.58,2.32,1.21a24.32,24.32,0,0,1,5,15.36c0,.47-.59.93-.9,1.4a8.5,8.5,0,0,1-1.07-1.92c-.65-2.67-1.16-5.38-1.81-8-.1-.42-.65-.74-1-1.11a4.52,4.52,0,0,0-.6,1.46c-.07,2.4,0,4.8,0,7.19Z"/><path class="cls-1" d="M342.69,469.41c-1.39-.4-2.41,0-3.2,1.79-.7,1.56-5.92,2.48-7.76,1.71q-4-1.64-3.45-6.12a12.07,12.07,0,0,1,.38-2.58c1.23-3.53,3.61-4,7.72-1.72,3.31,1.86,3.26,1.83,5.54-1.27a22.89,22.89,0,0,1,3.36-3.66c.41-.35,1.38-.05,2.09,0a5.7,5.7,0,0,1-.43,2c-1.09,1.57-2.38,3-3.51,4.53-.92,1.25-.9,2.24,1,2.42.79.08,1.57.23,2.36.29,2.13.17,4.24,2.53,3.28,4.28-1.09,2-3.07,3.48-4.79,5-.27.24-1.25-.3-1.9-.49a9.47,9.47,0,0,1,.66-1.65c.29-.47.81-.78,1.13-1.23.57-.78,1.06-1.61,1.59-2.43-.94-.29-1.87-.6-2.81-.86A6.11,6.11,0,0,0,342.69,469.41Zm-11.44-2.47c-.05,2.51,1.32,4.37,3,3.8a5.93,5.93,0,0,0,3.17-3.19c.53-1.41-2-3.64-3.69-3.53C331.82,464.15,331.51,465.68,331.25,466.94Z"/><path class="cls-1" d="M232.82,458c-.18.56-.19.8-.28.84-3.65,1.38-2.25,5.75-4.86,8-2.17,1.88-.87,4.47,2.13,4.49,2.15,0,2.9.95,3.41,2.74s-.19,2.87-1.57,4.06c-2.87,2.48-5.45,5.28-8.26,7.82-.46.41-1.52.14-2.3.18,0-.62-.2-1.45.12-1.81,2.1-2.4,4.32-4.68,6.48-7,1.82-2,1.75-2.17-.76-2.88-2.08-.59-3.84-1.43-4.13-4-.08-.7-.91-1.33-1.43-2s-1.09-1.22-1.63-1.83a20.78,20.78,0,0,1,2.16-1.71c.39-.25,1.39-.13,1.41-.28.44-3.37,4.28-3.57,5.69-6.1.37-.66,2-.62,3.13-.82C232.39,457.68,232.71,458,232.82,458Z"/><path class="cls-1" d="M382.05,451c.78,4.2,1.55,8.4,2.36,12.59.46,2.35-.3,3.31-2.71,3.19-1.8-.08-3.7-.35-4.34,1.91-.37,1.32,1.85,3.08,4.25,2.95,3.38-.19,6.74-.81,9.49-3.12a3.4,3.4,0,0,1,1.19-.38,4.28,4.28,0,0,1-.43,1.05c-3.12,4.07-10.36,6.33-15.2,4.71-1.94-.65-3.43-1.83-3.36-4.13.09-2.91,2.24-5.8,4.87-6.05,1.81-.17,2.16-.75,2.09-2.47-.2-5.23-.28-10.48-.2-15.71,0-1.3-.55-3.73,1.61-3.57,1.88.14,1,2.34,1,3.67.09,1.75,0,3.5,0,5.26Z"/><path class="cls-1" d="M133.86,370.2c.63-6,1.2-12,1.93-18a10.21,10.21,0,0,1,1.42-3.49c.25-.44,1-.61,1.51-.9.34.67.7,1.33,1,2,.05.1-.07.3-.14.44-3.26,6.29-2.38,13.23-3.11,19.9a12,12,0,0,0,.62,3.32c.48-.88,1-1.75,1.43-2.66,1.18-2.4,2.2-4.9,3.53-7.22.95-1.65,2.18-1.13,2.84.33a28.1,28.1,0,0,1,1.48,4.49c.82,3.06,1.57,6.14,2.31,9.22a9.58,9.58,0,0,1,.07,1.78c-.47-.29-1.19-.47-1.36-.88-1.06-2.6-2-5.25-3-7.9-.45-1.21-.88-2.44-1.32-3.66-.7,1.12-1.49,2.2-2.1,3.36-1.19,2.23-2.24,4.53-3.45,6.75a8.88,8.88,0,0,1-1.54,1.66c-.59-.76-1.6-1.47-1.7-2.28a53.36,53.36,0,0,1-.08-6.2Z"/><path class="cls-1" d="M223.43,378.79c2.83-.66,5.06-1.21,7.31-1.67a7.35,7.35,0,0,1,1.81.06c-.49.44-.93,1.16-1.49,1.28-4.05.87-8.09,1.85-12.19,2.31-2.64.3-4.87-1.22-6.63-3.25-1.05-1.22-.85-2.27.24-3.34a9.89,9.89,0,0,1,7.51-2.54c1.93,0,2.21-.71,2.57-2.45,1.06-5.22,2.51-10.35,3.84-15.51a2.25,2.25,0,0,1,.71-1.22,6.75,6.75,0,0,1,1.65-.69,8.09,8.09,0,0,1-.16,1.49c-1.84,6-3.56,12.08-2.53,18.55a4.23,4.23,0,0,1-1,3c-.4.46-1.67.24-2.54.2-1.66-.07-3.31-.28-5-.31-.39,0-.78.45-1.17.69.26.37.44.94.79,1.08C219.36,377.35,221.55,378.11,223.43,378.79Z"/><path class="cls-1" d="M415.71,376.85c1-4.94,1.89-9.46,2.84-14a3.06,3.06,0,0,1,.8-1.45,4.71,4.71,0,0,1,1.37-.66c.16.48.52,1,.44,1.43-.35,2-.86,3.88-1.25,5.83a3.72,3.72,0,0,0,.23,1.27,7.64,7.64,0,0,0,.95-.6c2.16-1.86,2.66-1.76,3.82.91.43,1,.82,2.06,1.16,3.11s.78,1.56,1.73.45a22.4,22.4,0,0,1,2.29-2.28c2.13-1.87,3-1.62,3.68,1.05q.92,3.54,1.66,7.13c.08.39-.2,1.19-.42,1.24-.65.13-1.8.2-2-.11a26.26,26.26,0,0,1-1.47-4c-.21-.64-.34-1.32-.5-2a16.62,16.62,0,0,0-1.86,1.23c-.48.4-.74,1.12-1.26,1.4a33.07,33.07,0,0,1-3.37,1.38c-.35-.91-.72-1.83-1.06-2.75-.43-1.15-.85-2.31-1.27-3.47-.65,1-1.32,1.91-1.93,2.9a15.07,15.07,0,0,1-1.55,2.66,3,3,0,0,1-2.22.89C416.16,378.37,415.88,377.2,415.71,376.85Z"/><path class="cls-1" d="M99,391.77c-.58,3.53-1.18,7.47-1.88,11.38A7.59,7.59,0,0,1,96,405.79c-.31.49-1,.72-1.57,1.06a5.06,5.06,0,0,1-.1-1.84c1.74-5.28,3.16-10.61,2.51-16.24a7.52,7.52,0,0,0-1.07-2.19,16.32,16.32,0,0,0-1.87,1.23c-3.35,2.93-3.78,7.22-4.9,11.11-1.23,4.28-2,8.69-2.92,13.07-.28,1.36-.87,2.94,1.94,2.13,2.23-.65,4.75-.33,7.13-.32.5,0,1,.57,1.48.87-.34.39-.63,1-1,1.11a71.9,71.9,0,0,1-8.15,1.8c-2.69.35-3.91-.78-3.5-3.43.69-4.38,1.65-8.73,2.71-13,.79-3.23,1.81-6.42,2.91-9.57a40.26,40.26,0,0,1,2.49-5.33c.78-1.52,2.06-2.29,3.77-1.61s2.94,1.58,2.89,3.64C98.69,389.26,98.85,390.29,99,391.77Z"/><path class="cls-1" d="M430.33,429.19c0,7.64-3.48,10.26-9.48,8.17a52.41,52.41,0,0,1-7.59-3.91,2.21,2.21,0,0,1-1-1.22,4.91,4.91,0,0,1,.25-1.78,4.22,4.22,0,0,1,1.54.48,13.2,13.2,0,0,0,9.85,3.52c1-.08,2.49-.47,2.93-1.21.67-1.11.61-2.65.86-4a10.9,10.9,0,0,1-2.37-.17,25.8,25.8,0,0,1-4.83-1.77,2.36,2.36,0,0,1-.67-2.21c1.21-2.58,2.65-5.07,4.06-7.55.82-1.45,1.64-.62,2.47.06,1.21,1,.12,1.28-.44,2a14.86,14.86,0,0,0-2.53,3.92c-.21.51.77,1.5,1.21,2.27a7.29,7.29,0,0,0,1.43-1.64c.42-1,.52-2.09.92-3.08a2.31,2.31,0,0,1,1.46.14C429.17,424.21,429.88,427.31,430.33,429.19Z"/><path class="cls-1" d="M483.39,465.76c-.7,2-2,5.78-3.29,9.5-1.16,3.21-2.35,6.4-3.65,9.55a3.28,3.28,0,0,1-1.66,1.49c-.33.15-1.32-.27-1.38-.56a4,4,0,0,1,.19-2.16c2.3-6,5-11.9,6.86-18,1.67-5.51-2-9.47-7.79-9-2.86.26-5.66,1-8.51,1.34a7.67,7.67,0,0,1-2.67-.72c.58-.81,1.12-2.29,1.74-2.32,4.33-.23,8.56-1.95,13-.59C481.26,455.83,483.41,458.48,483.39,465.76Z"/><path class="cls-1" d="M245.76,424.46c-.09-1.57-.14-3.14-.29-4.7,0-.34-.38-.64-.59-1-.34.27-.84.47-1,.83-.39.86-.58,1.81-.92,2.7a52.5,52.5,0,0,1-2,5c-.12.26-1.62.26-1.77,0a5.31,5.31,0,0,1-.51-2.48c0-3.72.08-7.44.11-11.16,0-1.26,0-2.62,1.83-2.17.4.09.81,1,.86,1.54.07.76-.29,1.55-.29,2.32a10.19,10.19,0,0,0,.42,2c.38-.45.74-.91,1.14-1.35,1.11-1.2,2.79-1,3.7.72,1.08,2,1.55,1.72,2.51-.12.53-1,1.9-2.31,2.82-2.26a4.46,4.46,0,0,1,3.18,2.25,40.9,40.9,0,0,1,1.95,7.08c.35,1.46.62,2.94.87,4.42a5,5,0,0,1-.14,1.26c-.39-.19-1-.29-1.14-.59a33.54,33.54,0,0,1-1.37-4c-.6-2.22-1-4.51-1.72-6.67-.51-1.49-1.67-2.23-2.53-.2-1,2.32-1.66,4.77-2.63,7.11a9.14,9.14,0,0,1-1.7,2.08c-.45-.81-.91-1.61-1.37-2.42Z"/><path class="cls-1" d="M191,378.57c-1.44-.42-2.84-.44-3.64-1.14-1.49-1.31-2.43-.94-3.86.09-4.45,3.2-9.8.92-11.09-4.53a6.06,6.06,0,0,0-1.19-2.46c-1-1.15-.6-2.17.5-2.42,1.61-.37,2-1.43,2.67-2.65.4-.78,1.37-1.26,2.09-1.87.2.9.84,2,.55,2.66-1.29,3,1,5.26,1.49,7.87.11.6,2,1.3,3,1.26a3.62,3.62,0,0,0,3.36-3.22c.21-1,.06-2.1.31-3.09a9.64,9.64,0,0,1,1.2-2.13,15.16,15.16,0,0,1,1.76,2.2,3.38,3.38,0,0,1,.13,1.88c-.35,2.93.3,3.94,3.12,4.94a15.84,15.84,0,0,1,2.32,1.26Z"/><path class="cls-1" d="M151.17,416.94a18.28,18.28,0,0,1,1.24-3.49c1.78-3,3.05-3.2,6-1.37,4,2.49,3.81,2.47,4.28-2.16.39-3.93,1.14-7.83,1.79-11.73a4.51,4.51,0,0,1,.89-1.92c.28-.38.87-.53,1.33-.78,0,.48,0,1-.1,1.44q-.84,6.63-1.71,13.25c-.33,2.57-.66,5.15-1.06,7.71a5.87,5.87,0,0,1-.72,1.55,9.65,9.65,0,0,1-1.9-1.26c-1.13-1.19-2.13-2.51-3.23-3.74s-1.91-.64-2.62.49c-1.17,1.88-1,3.51.72,4.87,1.9,1.53,3.93,2.72,6.54,1.94a4.65,4.65,0,0,1,.92-.05c-.19.32-.32.84-.58.92-2.53.74-5,2.61-7.75.62C153,421.69,151.18,420,151.17,416.94Z"/><path class="cls-1" d="M183.71,426.05c1.36-3.14,2.64-6.26,4.08-9.31.38-.81,1.2-1.72,2.13-.28a.91.91,0,0,0,.76.34c2.3-.69,2.76,1.08,3.26,2.54s1.09,1.32,2,.46c1.27-1.23,2.25-3.26,4.51-2.21s2.2,3.15,2.49,5.1a25,25,0,0,1,.36,4c0,.56-.53,1.12-.82,1.68-.52-.44-1.34-.8-1.51-1.36-.37-1.19-.3-2.52-.63-3.73a15.27,15.27,0,0,0-1.28-2.68,8.83,8.83,0,0,0-2.32,1.5c-.77,1-1.11,2.29-1.83,3.32A8.27,8.27,0,0,1,193,427a20.11,20.11,0,0,1-.71-2.11c-.11-.53.05-1.13-.07-1.66-.21-.94-.55-1.85-.84-2.78a22.75,22.75,0,0,0-1.87,2.31c-.87,1.41-1.51,3-2.43,4.33a6.88,6.88,0,0,1-1.94,1.39Z"/><path class="cls-1" d="M357.56,469.44c.47-6,1.49-10.53,6.8-12.43a3.91,3.91,0,0,1,3.24.38,4,4,0,0,1,1.41,3.19c-1,3.67-2.24,7.32-5.92,9.38-1.19.68-.85,2.41.73,2.94a15.71,15.71,0,0,0,3.72.34c.66.05,1.33.06,2,.09a11.81,11.81,0,0,1-1.36,1.29c-2.41,1.7-4.81,1.29-7.16-.17S357.23,471.25,357.56,469.44Zm8.8-9.93c-2.14-.05-4.68,2.62-5.2,5.17a5.83,5.83,0,0,0,.48,2.11c.64-.21,1.55-.23,1.87-.67A43.82,43.82,0,0,0,366.6,461C366.81,460.65,366.45,460,366.36,459.51Z"/><path class="cls-1" d="M142,445.42a11.68,11.68,0,0,1,1.51,2.82c1.27,5.42,2.42,10.88,3.57,16.33.3,1.45-.07,3.47,2.6,2.15a2.2,2.2,0,0,1,1.91.62,41.11,41.11,0,0,1,3.93,4.7c1.14,1.59,2.06,3.35,3,5,.18.31.41.79.29,1s-.78.56-1,.45a7.48,7.48,0,0,1-2.44-1.84c-1.23-1.84-2.17-3.87-3.32-5.77-.29-.49-.92-.78-1.4-1.16a8.92,8.92,0,0,0-.81,1.4c-.32.89-.43,1.88-.83,2.73-.28.59-1,1.44-1.37,1.4a2.25,2.25,0,0,1-1.59-1.33c-.36-1.2-.26-2.53-.51-3.77-1.54-7.4-3.13-14.78-4.65-22.18a10.11,10.11,0,0,1,.07-2.45Z"/><path class="cls-1" d="M393.64,364.17c-.26,6.78.31,7.58,6.84,10.05a6.71,6.71,0,0,1,1.64,1.27,12.07,12.07,0,0,1-2.43.35,9.08,9.08,0,0,1-2.31-.57c-4.67-1.45-4.71-1.46-4.65,3.48,0,1.51.47,3,.45,4.51,0,.75-.66,1.48-1,2.22-.65-.54-1.79-1-1.85-1.64-.3-3-.39-6-.4-9.08,0-1.41-.16-2.48-1.71-3-.48-.16-1.15-.86-1.1-1.23a1.84,1.84,0,0,1,1.2-1.23c2.11-.47,2.43-1.95,2.45-3.75a51.51,51.51,0,0,1,.27-6.22c.1-.77.94-1.45,1.44-2.17a7.36,7.36,0,0,1,1.13,2.21A42.48,42.48,0,0,1,393.64,364.17Z"/><path class="cls-1" d="M119.87,377.76c-.24,0-.52.08-.71,0-.72-.35-1.41-.76-2.11-1.15a11.49,11.49,0,0,1,2.09-1.47c1.52-.61,3.26-.8,4.66-1.59,2.21-1.27,2.09-2.06-.18-3.14-1.94-.92-4-1.71-5.81-2.77-2.52-1.45-2.69-2.51-1.41-5.12a18.67,18.67,0,0,1,8.88-9c1-.46,2.23-.28,3.36-.4-.77.76-1.43,2-2.34,2.2-2.73.72-4.26,2.72-5.74,4.77-2.5,3.46-2.18,4.42,2.16,6.51,1,.48,2.08.81,3.06,1.33,1.46.77,2.57,1.76,2.51,3.69s-.5,3.56-2.63,4.3c-1.9.66-3.73,1.53-5.59,2.31Z"/><path class="cls-1" d="M356.39,421.23c-1.17,1.69-2.33,3.4-3.52,5.08-.39.54-1.32,1.32-1.22,1.48.45.69,1.12,1.55,1.84,1.69a20.64,20.64,0,0,0,4,0,8.86,8.86,0,0,1,1.25.14,5.08,5.08,0,0,1-.91.94c-4.46,2.66-6.52,2.25-10.11-1.75a25.51,25.51,0,0,0-2.63-2,2,2,0,0,1-.78-1.3c0-.4.64-.75,1-1.15a7.7,7.7,0,0,0,1.32-1.67c.88-1.91,1.27-4.17,2.53-5.75,2.3-2.92,5.26-2.09,6.35,1.51a18,18,0,0,1,.4,2.35Zm-6.45,3.12,1-.07c.92-1.43,1.85-2.85,2.68-4.33,0-.05-.94-.66-1.44-1-.84,1.5-1.69,3-2.48,4.52C349.61,423.65,349.86,424,349.94,424.35Z"/><path class="cls-1" d="M490.61,463.05c-.13-.8-.59-1.74-.33-2.37,1.12-2.72,2.42-5.37,3.71-8,1.95-4,3.91-8,5.95-12,.74-1.44,0-2.27-1-3a9.77,9.77,0,0,1-4-6.53c-.12-.89.61-1.89.95-2.84a14,14,0,0,1,1.68,2c.92,1.66,1.58,3.48,2.58,5.08.78,1.25,1.78,1.54,2.62-.2a21.46,21.46,0,0,1,2.31-3.61c.27-.35.92-.42,1.4-.62a8.41,8.41,0,0,1-.06,1.33c-.11.54-.34,1.06-.5,1.59-1.67,5.42-5.27,9.84-7.71,14.85-2.09,4.29-4.13,8.61-6.19,12.91-.22.47-.46.92-.68,1.39Z"/><path class="cls-1" d="M397.51,422.57c-.65-3-1.3-6-2-9a3.91,3.91,0,0,1-.28-1.38,23.48,23.48,0,0,1,.77-2.56,11.63,11.63,0,0,1,1.48,2.08c.55,1.28.9,2.64,1.34,4a20.25,20.25,0,0,1,2-3,44.62,44.62,0,0,1,4.6-4.42,2.25,2.25,0,0,1,2.1-.26,24.68,24.68,0,0,1,3.09,3.58c.17.22,0,.72-.07,1.09a3.63,3.63,0,0,1-.92-.38c-2.29-2-2.94-2-4.77.36a18.32,18.32,0,0,0-3.54,10.18,17.08,17.08,0,0,1-1.6,5c-.06.13-2-.12-2.13-.5a29.9,29.9,0,0,1-.8-4.57Z"/><path class="cls-1" d="M312.79,426.89c2.65.08,4.08-1.56,4.38-4.07a20.36,20.36,0,0,1,1-3.41c.65,1.1,1.39,2.15,1.94,3.3.69,1.43,1.11,3,1.85,4.39.34.64,1.17,1,1.77,1.53.35.3.68.61,1,.92-.43.29-1,.93-1.25.81a13.65,13.65,0,0,1-3.88-2.44c-1-1.08-1.4-1.12-2.24,0-1.48,2.05-3.7,3.21-6,2.34a6.48,6.48,0,0,1-4.29-5.87c-.15-2.53-.62-5.28,1.52-7.22a14.62,14.62,0,0,1,4.08-2.17c.35-.15.94.24,1.42.38a4.93,4.93,0,0,1-1,1.05,6.35,6.35,0,0,0-2.08,9.07A7.05,7.05,0,0,0,312.79,426.89Z"/><path class="cls-1" d="M460.94,488.87l-2-1.78c.63-.56,1.25-1.15,1.91-1.67.15-.12.53.06.7-.05,1-.68,2-1.41,2.95-2.12a13.3,13.3,0,0,0-2.85-1.61c-2-.55-4.09-.66-6.07-1.24-2.9-.86-4.18-3.15-2.87-5.69a59.44,59.44,0,0,1,5.16-7.7c.27-.35,1.33-.12,2-.17-.11.67,0,1.48-.36,2-1.1,1.55-2.48,2.9-3.53,4.48-1.51,2.28-.88,3.62,1.72,4.4a63.28,63.28,0,0,1,8.27,2.79,5,5,0,0,1,2.28,3.24c.15.74-1,2-1.92,2.6A45.39,45.39,0,0,1,460.94,488.87Z"/><path class="cls-1" d="M449.26,388.46c-2.21,0-2.87-1.25-1.95-2.88a52.47,52.47,0,0,1,3.61-5.61c.94-1.26.73-1.74-.72-2.09a22.28,22.28,0,0,1-4.09-1.27,6.31,6.31,0,0,1-3.68-6.2c0-.64.89-1.28,1.38-1.92.53.43,1.39.78,1.53,1.31,1,3.9,3.88,5.36,7.44,5.65,1,.08,2.19-.9,3.12-1.62,1.13-.88,1.93-2.76,3.61-1.6.32.22-.5,2.76-1.32,3.83-1.57,2.08-3.68,3.76-5.24,5.85-1.1,1.46-1.63,3.34-2.49,5A9.38,9.38,0,0,1,449.26,388.46Z"/><path class="cls-1" d="M468.64,432.5a19.45,19.45,0,0,0,.05,3.33,4.65,4.65,0,0,0,1.14,1.79,8.2,8.2,0,0,0,1.05,1,4.5,4.5,0,0,1-1.43.66,2.49,2.49,0,0,1-3-2.35c-.21-1.46-.58-2.12-2.43-1.68a6.06,6.06,0,0,1-7-3.6,7.08,7.08,0,0,1,3.4-8.19c2.1-1,4.29-2.52,6.67-.65a7.07,7.07,0,0,1,1.23,1.9c-.7.11-1.42.16-2.1.33-1.59.37-3.35.49-4.67,1.32a3.57,3.57,0,0,0-1.23,3.18,4.63,4.63,0,0,0,2.84,2.33c1.31.4,2.3-.51,2.86-1.92a19.86,19.86,0,0,1,1.88-3.1c.26,1.33.55,2.65.77,4a10.32,10.32,0,0,1,0,1.67Z"/><path class="cls-1" d="M247.75,463.61c-.68,2.58-1.13,4.78-1.88,6.86a3.66,3.66,0,0,1-2,1.79c-1.15.47-2.39,1-1.72,2.27.51,1,2.11,2.38,2.79,2.18,1.7-.53,3.16-1.86,4.73-2.87.29-.19.6-.36.91-.54,0,.37.11.83-.06,1.11-1.57,2.66-3.79,4.76-6.85,5.09-1.19.13-3-1.18-3.76-2.34a10.64,10.64,0,0,1-.38-11.13,15.24,15.24,0,0,1,3.19-4.34A3.69,3.69,0,0,1,246,461C246.81,461.36,247.22,462.78,247.75,463.61Zm-2.26,1.66-.69-1.72c-.34.15-.85.2-1,.46-.86,1.52-1.64,3.08-2.44,4.62.48.21,1.31.69,1.38.59C243.76,467.9,244.67,466.5,245.49,465.27Z"/><path class="cls-1" d="M431.24,490.28c-2.55,0-3.58-1.49-4.42-3.23a8.53,8.53,0,0,0-1.11-1.46,10.66,10.66,0,0,0-1.13,1.4c-2.23,3.89-5.85,4.62-7.68,1.51a8.88,8.88,0,0,1-1.38-3c-.39-3.05-.63-6.14-.72-9.22a3.09,3.09,0,0,1,1.33-2.05,7.4,7.4,0,0,1,2.39-.7,19.3,19.3,0,0,1-1.11,1.8c-1.93,2.5-.34,9.8,2.49,11.21,1.74.88,2.85-.07,3.36-1.54s.56-3.13.92-4.68a9,9,0,0,1,.94-1.82c.55.49,1.34.88,1.6,1.49.68,1.62,1,3.37,1.69,5,.76,1.79,1.7,3.54,4.22,3,.28-.07.92.29.92.46a1.57,1.57,0,0,1-.44,1.22A9,9,0,0,1,431.24,490.28Z"/><path class="cls-1" d="M201.9,474.63c1.22-.29,2.43-.61,3.66-.84a4.36,4.36,0,0,1,1.28.16,3.47,3.47,0,0,1-.59.95c-3.15,2.63-9.79,2.82-13,.4-1.86-1.39-3.15-5-2.5-7.05a6,6,0,0,1,6.08-4.44c1,.05,2.55.63,2.94,1.42.52,1.06.26,2.57.13,3.86,0,.45-.73.81-1,1.28-.54.87-1,1.8-1.51,2.7,1.11.5,2.21,1,3.35,1.46.33.13.78-.06,1.18-.1Zm-4.8-8.79-.92-.1c-.59,1.13-1.24,2.25-1.72,3.43-.09.22.5.71.77,1.08.9-1,1.86-2,2.66-3.09C198,467,197.38,466.3,197.1,465.84Z"/><path class="cls-1" d="M379.67,418.22c.1-2.44.09-4.92,2.63-6.26a2.32,2.32,0,0,1,1.91-.15c3.23,1.94,6.39,4,7.8,7.74a12.5,12.5,0,0,1,.81,4.83,3.38,3.38,0,0,1-4.57,2.8,27.47,27.47,0,0,1-2.52-1.31,6.66,6.66,0,0,0-1.28-.32,8.65,8.65,0,0,0,.25,1.27c.22.65.51,1.27.77,1.91-.84-.35-1.92-.47-2.47-1.08C380.6,425,379.78,421.71,379.67,418.22Zm11.11,3.43c.05-2.21-3.33-6.93-5.43-7.38a2.39,2.39,0,0,0-1.85.53,6.75,6.75,0,0,0-.82,7.72c.17.24.62.32,1,.41a16.93,16.93,0,0,1,3.15.82C389.07,424.87,390.72,424.07,390.78,421.65Z"/><path class="cls-1" d="M268.58,434.84l3.31-8.3c.09-.22.25-.41.35-.63,1.28-2.77,1.28-2.71-1.76-2.67-3.28,0-6.66.18-8.47-3.42a4.29,4.29,0,0,1-.62-2.19c.08-.66.74-1.24,1.14-1.86.37.51.94,1,1.06,1.53.62,2.76,2.83,3.54,5.1,4a12.21,12.21,0,0,0,4.51.07c.73-.12,1.47-1,1.94-1.75.82-1.25,1.31-2.73,2.19-3.94a3.93,3.93,0,0,1,2.3-1.5c.61-.1,1.35.73,2,1.14-.42.32-.86.62-1.26,1-.73.65-1.47,1.3-2.14,2a1,1,0,0,0,0,.89c.42.8.44,1-.27,1.77-3.83,3.87-5.52,8.75-6.65,13.92-.14.63-.79,1.15-1.2,1.72Z"/><path class="cls-1" d="M115.43,414c.18-1.14-.05-2.82.61-3.32a54.63,54.63,0,0,1,7.72-4.79c.9-.47,2.71,2,2,2.93-1.58,2.06-2.56,4.74-5.42,5.65-.67.2-1.64,1.05-1.6,1.52.08.79.74,2,1.36,2.16a50.58,50.58,0,0,0,6.06.66c.62.05,1.25.14,1.87.22a5.33,5.33,0,0,1-1.57.93c-2.29.42-4.71,1.31-6.87.9C116.45,420.2,115,417.75,115.43,414Z"/><path class="cls-1" d="M370.67,371.79c.27-4.36,2.89-8.23,6.61-11.48a3,3,0,0,1,1.74-.72,11.08,11.08,0,0,1,2.37.48c-.49.58-.87,1.37-1.5,1.68-4.51,2.3-7.07,9.42-4.95,14,1.26,2.77,5.28,3.85,8,2.24a4.6,4.6,0,0,1,1.77-.15,6.22,6.22,0,0,1-.9,1.4c-2.78,2.4-5.92,2.27-8.94.77S370.62,375.88,370.67,371.79Z"/><path class="cls-1" d="M298.62,371.21c-.1-4.58,3-6.21,4.73-8.62a8.32,8.32,0,0,1,3.92-2.57,3.22,3.22,0,0,1,2.92.7,3,3,0,0,1-.32,2.89,22.31,22.31,0,0,1-5.25,4,4,4,0,0,0-2.44,4.41c.25,1.82,2.37,2.69,4.61,2.29a27.41,27.41,0,0,1,2.73-.25,12.4,12.4,0,0,1-2.61,1.67,7.79,7.79,0,0,1-3.72.52C300.58,375.75,298.13,375,298.62,371.21Z"/><path class="cls-1" d="M329.35,378c.26-1.53.52-2.61.6-3.71.12-1.64.45-3.39-1.79-4.12-.38-.13-.76-1.33-.58-1.82s1.15-1.48,1.6-1.39c1.76.37,1.68-.57,1.81-1.81.27-2.68.71-5.34,1.13-8a2.75,2.75,0,0,1,.58-1.52,6.57,6.57,0,0,1,1.76-.87,4.82,4.82,0,0,1,.5,1.67c-.27,2.75-.64,5.49-1,8.23-.45,3.29,0,3.89,3.34,4.19a8.33,8.33,0,0,1,2,.69l-1.88,1.09c-.14.08-.31.09-.44.17-1.32.85-3.66-.63-4.23,1.72-.4,1.6-.3,3.32-.71,4.91-.17.68-1.1,1.16-1.68,1.74Z"/><path class="cls-1" d="M110,461.88c0,.16,0,.32,0,.48.06,5.17.16,5.27,5.21,6.58A7.92,7.92,0,0,1,117.1,470a13.72,13.72,0,0,1-2.14,1.2,5.69,5.69,0,0,1-1.9.1c-2.82,0-2.87.07-2.63,3a10.51,10.51,0,0,1,.09,2.62c-.08.48-.71.86-1.1,1.29-.37-.44-1-.84-1.08-1.32-.23-1.48-.11-3-.4-4.49a5.78,5.78,0,0,0-1.38-2.8c-1-1-1.14-1.69-.13-2.79a4.37,4.37,0,0,0,1.13-2.63c0-3.11-.15-6.22-.24-9.32a2.4,2.4,0,0,1,.09-1.18,6.36,6.36,0,0,1,1.1-1.1c.28.4.74.77.8,1.2.37,2.67.66,5.36,1,8Z"/><path class="cls-1" d="M168.62,420.37c.08-3.27,1.16-5.94,4.37-7.33a4.72,4.72,0,0,1,6,1.3c2.07,2.44,2.37,7.5.6,10.16-1.54,2.31-4,3.33-6.36,2.48C170.73,426.05,168,423,168.62,420.37Zm10.47-.85c-.23-2.36-1.19-3.64-3.23-4s-4.4,1.54-4.9,4c-.36,1.8.64,3.24,2.58,3.83.44.13,1.16.5,1.16.77.06,2,1.2,1,1.55.43C177.31,422.93,178.16,421.2,179.09,419.52Z"/><path class="cls-1" d="M297.12,419.66c0-1.65,0-3.3,0-5-.06-2.17.51-4.08,2.8-4.69s3.67.67,4.67,2.49a4.36,4.36,0,0,1-1,5.48c-2.39,2.3-2.66,5-2.28,8,0,.15.15.32.12.45-.32,1.36-.66,2.71-1,4.06-.68-1-1.67-2-2-3.1-.71-2.52-1.09-5.13-1.6-7.7Zm5.67-5.05-1.39-2.29c-.54.48-1.32.86-1.57,1.47a13.87,13.87,0,0,0-.77,3.47c0,.22.58.52.9.79C300.88,416.92,301.81,415.8,302.79,414.61Z"/><path class="cls-1" d="M181.32,483.27c-1.78-.26-4.07-.62-5.38-2.91a3.57,3.57,0,0,1-.17-1.29,4.9,4.9,0,0,1,1.45.15c.72.3,1.42,1.12,2.06,1.06,1.47-.14,3.21-.31,4.25-1.17s-.14-3.63-1.71-4.69a59.14,59.14,0,0,1-5.71-3.89c-1-.89-2.39-2.6-2.12-3.51.32-1.11,2.18-1.78,3.42-2.59.19-.12.58.06.88.1-.06.35,0,.82-.21,1-1.55,1.45-.82,2.52.53,3.49a20.85,20.85,0,0,0,2.79,1.82,9.61,9.61,0,0,1,5,6C187.76,480.83,186,483.39,181.32,483.27Z"/><path class="cls-1" d="M452,475c-1.13,1.85-2.05,3.13-2.72,4.52-.54,1.12-1.26,2.46-1.06,3.56.28,1.53,1.72,1.9,3.25,1.36.25-.08.59.09.89.15a3.44,3.44,0,0,1-.34,1c-1.4,1.81-4.78,1.72-6.31-.17-.4-.49-.57-1.26-1.05-1.57-2-1.28-3.17-2.47-.83-4.62.5-.46,0-1.85.25-2.76a17.19,17.19,0,0,1,1.17-2.86c.65-1.5,1.67-2.95,3.39-2.08C449.93,472.26,450.8,473.76,452,475Z"/><path class="cls-1" d="M168.14,464.57c-.71,2.43-1.41,4.44-1.84,6.5-.22,1.06-.37,2.55.19,3.24s2.1,1,3.22,1.31a10.4,10.4,0,0,0,1.94.24c-.54.48-1,1.19-1.62,1.4-3.28,1.08-5.35.17-7.33-2.7-.62-.89-1.86-1.34-2.73-2.09-.48-.43-1.17-1.15-1.07-1.59a2,2,0,0,1,1.53-1.2c1.63-.06,1.93-.95,2-2.31a17.41,17.41,0,0,1,.64-3.26c.43-1.64,1.26-3.34,3.15-2.76C167.13,461.63,167.53,463.46,168.14,464.57Z"/><path class="cls-1" d="M59.14,475.46a5.51,5.51,0,0,1-.92,2.19c-.43.42-1.51.18-2.29.23,0-.59-.11-1.35.2-1.73,1.22-1.5.85-2.77-.28-4.06s-2.62-2.61-4.28-1.4a5.8,5.8,0,0,0-2.25,3.78,2.86,2.86,0,0,0,3.17,3.12c.55,0,1.12.54,1.68.84-.47.49-1,1.44-1.4,1.38a9.78,9.78,0,0,1-4.36-1.22c-2.11-1.51-2.8-5.22-1.81-7.39a6.54,6.54,0,0,1,6.26-3.53,7.55,7.55,0,0,1,6,5.43C59,473.73,59,474.37,59.14,475.46Z"/><path class="cls-1" d="M316.16,379.7c-.48-.44-1.23-.84-1.49-1.46-.13-.3.59-1.06,1-1.48s1.36-.84,1.92-1.39c1.07-1.05,1.19-2-.49-2.64a8.9,8.9,0,0,1-2.38-1.54c-1.85-1.58-2.32-3.66-.7-5.41a92,92,0,0,1,7.87-7.14c.4-.34,1.29-.11,2-.14a10.33,10.33,0,0,1-1.16,1.52c-1.61,1.51-3.54,2.76-4.88,4.47-2.3,2.93-1.07,5.66,2.61,6.25,1.34.21,2.07,1.13,1.53,2.11a58.05,58.05,0,0,1-4.24,6.24C317.51,379.4,316.89,379.43,316.16,379.7Z"/><path class="cls-1" d="M323.52,475.2A5.54,5.54,0,0,1,322,474c-1.49-2-2.89-4.08-4.27-6.16a2.72,2.72,0,0,1-.17-1.13,18,18,0,0,0-.35-3.15c-.57-1.93-.33-3.4,1.52-4.5,1.68-1,3-.29,4,.87,1.23,1.39,2,3.16.44,4.73s-1.33,3-.19,4.63c.86,1.24,1.56,2.59,2.33,3.89S325.79,475.3,323.52,475.2Z"/><path class="cls-1" d="M137.11,454.82a11.06,11.06,0,0,1,.49,1.81c.33,3.09.62,6.18.92,9.26.18,1.89.68,3.21,3,2a1.84,1.84,0,0,1,1.34.27c0,.65,0,1.81-.32,1.9-5.72,1.73-1.93,5.65-2.06,8.64,0,.57-.11,1.14-.16,1.71-.6-.42-1.49-.72-1.74-1.29a34.18,34.18,0,0,1-.94-3.68c-.51-1.69.25-4.27-2.93-4.2-.42,0-1.05-1-1.19-1.58-.06-.26.83-1,1.37-1.1,1.68-.32,1.63-1.37,1.51-2.68-.29-3-.53-6-.66-9a6,6,0,0,1,.68-2Z"/><path class="cls-1" d="M137.74,422.12a11.66,11.66,0,0,1-2.83-2.14c-3.4-4.64-.16-11,3.4-13.15.65-.39,2.4-.27,2.53.07a7.21,7.21,0,0,1,.7,4.12c-.27,1-1.65,1.84-2.65,2.59-2.53,1.91-2.25,5.14.59,6.49a18.52,18.52,0,0,1,1.66,1c-.65.26-1.29.53-1.95.76C138.89,421.94,138.57,422,137.74,422.12Z"/><path class="cls-1" d="M152.46,374.28a7.5,7.5,0,0,1,2.87-5.9c2.42-2.06,4.76-1.33,6.09,1.53s.76,5.64.34,8.44c-.11.74-1.16,1.41-1.89,1.95-.3.22-.91,0-1.37,0,0-.52,0-1,.12-1.55a58.57,58.57,0,0,0,.93-6.41,2.77,2.77,0,0,0-1.65-2c-.55-.18-2,.6-2.09,1.1-.21,1.51-.46,3.44.28,4.56s.83,1.21-.26,1.73A18.29,18.29,0,0,0,154,378.9a21.21,21.21,0,0,1-1.48-2.56A6.66,6.66,0,0,1,152.46,374.28Z"/><path class="cls-1" d="M487.3,426c.65-3.16,1.34-6.81,2.2-10.42.13-.58,1-1,1.59-1.46A11.5,11.5,0,0,1,491,416c-.9,4.17-1.76,8.24,2.05,11.67,1.39,1.25-.37,1.92-1.1,1.82-1.6-.21-1.57.59-1.41,1.62.29,1.86.73,3.71.93,5.58a10.36,10.36,0,0,1-.38,2.61c-.67-.55-1.79-1-1.92-1.67C488.46,434,488,430.29,487.3,426Z"/><path class="cls-1" d="M206.08,352.88a8.76,8.76,0,0,1,0,1.7c-1.22,6.47-2.62,12.91-3.64,19.42-.37,2.4-.82,5.14,1.55,7.14.15.12-.29,1.28-.34,1.27-.86-.15-2.28-.2-2.43-.66-.69-2.08-1.64-4.36-1.36-6.41.84-6.32,2.13-12.58,3.42-18.82.29-1.37,1.27-2.58,1.93-3.87Z"/><path class="cls-1" d="M252,450.44c.28-.68.74-1.8,1.21-2.92a18.16,18.16,0,0,1,1.12,3.49c.72,6.57,1.24,13.16,2,19.73.19,1.61,1.09,3.14,1.57,4.73a4.6,4.6,0,0,1-.05,1.52c-.52-.09-1.34,0-1.5-.32a12.8,12.8,0,0,1-1.88-4.22C253.58,465.35,252.87,458.22,252,450.44Z"/><path class="cls-1" d="M472.58,422.28c.28-3.49.55-7,.84-10.46a2.42,2.42,0,0,1,.26-1.16c.59-.86,1.28-1.65,1.93-2.48.05.9.18,1.79.15,2.68-.19,5.9-.6,11.79-.56,17.68,0,2.4,1,4.8,1.45,7.21a8.48,8.48,0,0,1,0,1.88c-.61-.43-1.57-.73-1.78-1.3a35.4,35.4,0,0,1-1.9-6.87,53.54,53.54,0,0,1-.07-7.17Z"/><path class="cls-1" d="M37.11,463.62c-.29-2.1-.57-3.82-.73-5.55a6.9,6.9,0,0,1,.35-1.8c.35.47.89.89,1,1.41.44,1.85.76,3.72,1.08,5.59.4,2.34,1,4.41,4.06,4.26.42,0,.86.52,1.29.81-.33.35-.6.92-1,1-2.29.54-2.73,1.92-2,3.94.48,1.25,1,2.48,1.43,3.76a4.72,4.72,0,0,1-.1,1.57c-.49-.21-1.26-.3-1.42-.66a13.3,13.3,0,0,1-1.21-3.84c-.28-2.92-1.3-5.14-4.31-6.13a4.66,4.66,0,0,1-2.12-1.5,5.47,5.47,0,0,1-.47-2.14,5.85,5.85,0,0,1,2.06-.3C36,464.25,37.12,465.31,37.11,463.62Z"/><path class="cls-1" d="M340.15,419a3.85,3.85,0,0,0-4.42,2.53,55.92,55.92,0,0,0-1.49,5.76c-.4,1.6-.72,3.23-1.23,4.8a1.75,1.75,0,0,1-1.23,1.06c-.5,0-1-.6-1.48-1a.61.61,0,0,1-.14-.45c.67-5,.18-10.33,4.37-14.16a4.35,4.35,0,0,1,2.7-.55,10.78,10.78,0,0,1,2.79.5,9.42,9.42,0,0,1,1.53.75Z"/><path class="cls-1" d="M351.84,364.7c-3.24-.43-4,1.56-4.93,3.3-1.08,2.12-1.93,4.37-3.08,6.46-.39.7-1.39,1.06-2.11,1.57-.41-.77-1.16-1.55-1.17-2.33a38.68,38.68,0,0,1,.48-6.17c.08-.57.82-1,1.26-1.58a14.24,14.24,0,0,0,1.37,1.22c.22.16.76.25.83.15a12.56,12.56,0,0,0,1.23-2c1.48-3.18,2.61-3.78,5.73-2.7.65.23,1.09,1.06,1.62,1.61Z"/><path class="cls-1" d="M433.11,465.9l1.78-3.94c.33,1.21.75,2.4,1,3.63.95,5.66,1.74,11.36,2.8,17,.31,1.66,1.34,3.17,2,4.78a6.85,6.85,0,0,1,.19,1.71c-.65-.07-1.57.1-1.89-.26a7.2,7.2,0,0,1-1.82-3C435.69,479.24,434.45,472.66,433.11,465.9Z"/><path class="cls-1" d="M442.81,431.84c.73-3.31,1.2-6.31,2.13-9.16a4,4,0,0,1,2.75-2.18c.73-.11,1.93,1.08,2.46,2a27.27,27.27,0,0,1,2.33,5.2,8.65,8.65,0,0,1,.07,2.65,16.56,16.56,0,0,1-2.45-1.82c-.39-.4-.28-1.24-.57-1.79a22.58,22.58,0,0,0-1.45-2.11,15.86,15.86,0,0,0-1.08,2.24c-.5,1.75-.8,3.56-1.36,5.28-.19.59-.92,1-1.41,1.48Z"/><path class="cls-1" d="M410,468.86,412,470a6.51,6.51,0,0,1-1.62.78c-3.53.62-4.79,3.13-5.71,6.24-1.13,3.86-.51,7.55.28,11.32a10.07,10.07,0,0,1-.11,3.5c-.06.41-.75,1.08-1,1-.5-.11-1.22-.62-1.28-1-.74-5.59-2.13-11.27.76-16.64a25,25,0,0,1,3.81-5C407.73,469.47,408.93,469.32,410,468.86Z"/><path class="cls-1" d="M286.06,370.12a22.61,22.61,0,0,1,.67-3.72c.37-1,.68-2.82,2.56-1.3.15.13.85-.5,1.32-.69a42.79,42.79,0,0,1,4.85-1.79c.42-.11,1.09.65,1.64,1-.5.26-1,.75-1.51.77-3.58.09-4.3,3-5.39,5.47-.66,1.49-.9,3.16-1.42,4.71-.14.43-.62.74-.94,1.11-.38-.36-1-.66-1.09-1.07C286.42,373.16,286.28,371.65,286.06,370.12Z"/><path class="cls-1" d="M362.45,361.49a7.22,7.22,0,0,1,.23,2.08c-.6,3.11-1.43,6.18-1.92,9.3-.22,1.43.23,3,.24,4.44a11.88,11.88,0,0,1-.45,2.32,9.57,9.57,0,0,1-2.38-1.16,2.26,2.26,0,0,1-.4-1.79c.66-4.3,1.33-8.6,2.18-12.87.17-.89,1.1-1.63,1.69-2.43Z"/><path class="cls-1" d="M471.86,498.9c-.59-.35-1.86-.7-2.28-1.49-.31-.6.43-1.8.82-2.67a3.33,3.33,0,0,1,1-1c1.08-.92,2.08-2.27,3.31-2.53.65-.14,1.74,1.63,2.55,2.6.62.74,1.12,1.58,1.67,2.38a25.55,25.55,0,0,1-3.29,1.94A22.25,22.25,0,0,1,471.86,498.9Z"/><path class="cls-1" d="M100.57,414.63c1.26-2.89,2.37-5.75,3.77-8.46a4.8,4.8,0,0,1,2.59-2,13.54,13.54,0,0,1,3.62-.2,12.57,12.57,0,0,0-2.43,1.78,17.5,17.5,0,0,0-2.81,4.16c-.75,1.71-.94,3.67-1.58,5.45-.19.55-1.17,1.28-1.61,1.18S101.23,415.49,100.57,414.63Z"/><path class="cls-1" d="M98.11,466.94c.19,3.47.25,7,.64,10.4.16,1.44,1,2.78,1.55,4.18a6.16,6.16,0,0,1,.15,1.5c-.46-.19-1.18-.26-1.34-.59-1-2.22-2.41-4.41-2.77-6.75a42.82,42.82,0,0,1,.06-9c0-.6.83-1.16,1.28-1.73.38.59.76,1.18,1.15,1.77Z"/><path class="cls-1" d="M438.55,433c-.39.36-.74,1-1.15,1a1.8,1.8,0,0,1-1.51-.63,21.3,21.3,0,0,1-1.11-3.64c-.51-2.16-1-4.33-1.39-6.52a6,6,0,0,1,.38-2c.58.58,1.49,1.07,1.68,1.76.57,2.06.74,4.24,1.3,6.3A23.12,23.12,0,0,0,438.55,433Z"/><path class="cls-1" d="M259.51,375.14c-.42,1.79-.88,3.4-1.15,5-.17,1.05.1,2.17-.1,3.21-.13.64-.76,1.19-1.16,1.78-.54-.56-1.63-1.25-1.53-1.64.73-2.92,1.68-5.78,2.62-8.64.11-.34.62-.56.95-.84C259.27,374.45,259.41,374.85,259.51,375.14Z"/><path class="cls-1" d="M205.07,433.36c-.26-.12-.65-.26-.64-.31.09-.43.13-1,.41-1.25q3.09-2.79,6.27-5.47a31.72,31.72,0,0,1,3-2.24c.24-.16.69,0,1,0,0,.29,0,.7-.17.85-3,2.67-6.09,5.3-9.15,7.93A4.91,4.91,0,0,1,205.07,433.36Z"/><path class="cls-1" d="M482.24,432.34c.29-1.19.63-2.9,1.17-4.54.15-.48.84-.79,1.28-1.18a6.56,6.56,0,0,1,.35,1.6c0,2-.06,3.94-.28,5.89a6.61,6.61,0,0,1-1.1,2.07,9.9,9.9,0,0,1-1.21-1.64A8.72,8.72,0,0,1,482.24,432.34Z"/><path class="cls-1" d="M410.22,425.18a16,16,0,0,1,.39-1.95c.34-.91.75-1.79,1.13-2.69a18.42,18.42,0,0,0,1.39,2c.88,1,2.07,1.84.41,3.15-.59.46-1.09,1-1.63,1.54Z"/><path class="cls-1" d="M414.13,408.93a12.17,12.17,0,0,1,1.63-2.23c.82-.71,1.4-.49,1.51.73.09,1,.41,2,.58,3a13,13,0,0,1,.1,1.39c-.59,0-1.44.33-1.72.06A22.28,22.28,0,0,1,414.13,408.93Z"/><path class="cls-1" d="M288.33,473a6.22,6.22,0,0,1-.26,2c-.27.46-.88,1-1.31,1s-1.13-.74-1.12-1.14a25.94,25.94,0,0,1,.51-4.47c0-.09,1.38-.18,1.45,0A16.81,16.81,0,0,1,288.33,473Z"/><path class="cls-1" d="M437.61,405.92l1.55,2.48c-1.15.67.95,3.21-1.48,2.88-.85-.12-1.89-1.56-2.11-2.55C435.43,408.09,436.66,407.17,437.61,405.92Z"/><path class="cls-1" d="M263.5,364.53c-.61.52-1.11,1.08-1.2,1-1.26-.85-2.47-1.8-3.69-2.72l1.52-1.64Z"/><path class="cls-1" d="M283.92,462.93l-2.33-2.29c.59-.29,1.33-1,1.73-.81a11.45,11.45,0,0,1,2.37,1.74Z"/><path class="cls-1" d="M99.2,451.49a30.26,30.26,0,0,1,1.61,3c.08.19-.45.61-.7.92a14.69,14.69,0,0,1-2-1.95C98,453.31,98.59,452.58,99.2,451.49Z"/><path class="cls-1" d="M365.93,358.5c-1.07.47-1.74,1-2.31.94s-1-.83-1.54-1.29c.61-.48,1.19-1.28,1.83-1.33S365,357.67,365.93,358.5Z"/><path class="cls-1" d="M485.64,414.79c-.91.63-1.51,1.35-1.95,1.26-.63-.12-1.14-.83-1.7-1.3.52-.48,1-1.32,1.57-1.36S484.72,414.13,485.64,414.79Z"/></svg>