<svg id="_2" data-name="2" xmlns="http://www.w3.org/2000/svg" viewBox="0 0 531.37 531.37"><defs><style>.cls-1{fill:#fff;}</style></defs><path class="cls-1" d="M43.74,306.31c3.49.15,3.65-.21,2.48-2.93-1.38-3.22-2.49-6.55-3.78-9.81-.52-1.32-.18-2.37,1.09-2.62.52-.1,1.55.88,1.87,1.58,1.62,3.64,3.16,7.33,4.57,11.05.49,1.29,1.07,1.48,2.31,1.18,5.21-1.22,4.75-.48,3-5.86-1.55-4.67-3.41-9.25-5.11-13.87a2,2,0,0,1-.19-1.17c.14-.48.42-1.13.8-1.29a1.66,1.66,0,0,1,1.37.52,5.35,5.35,0,0,1,.84,1.69q3.48,9.14,6.93,18.29c.54,1.41,1.06,2.83,1.64,4.22a6.45,6.45,0,0,0,.77,1.13,6.72,6.72,0,0,0,.51-1.22,12,12,0,0,1,.62-3c.6-1.1,1.49-2.56,2.5-2.79a4.13,4.13,0,0,1,3.47,1.37,51.54,51.54,0,0,1,4,7c1,1.82,1.76,3.71,2.59,5.6.17.39.31,1.11.12,1.27-.37.3-1.19.59-1.45.4a10.4,10.4,0,0,1-2.95-2.84c-1.24-2.3-2.1-4.8-3.15-7.2a5.3,5.3,0,0,0-.94-1.37c-.92-1-1.76-1.29-2,.47s-.39,3.48-.57,5.22a35.9,35.9,0,0,1-.43,4A3.4,3.4,0,0,1,63.46,317c-.9-.45-2.12-1-2.44-1.78-1.13-2.77-1.92-5.67-2.85-8.53,0-.15-.13-.43-.16-.42-.87.12-2.21,0-2.5.48-.81,1.36-3.94.31-3.16,2.92a30.46,30.46,0,0,0,2.58,5.64,2.08,2.08,0,0,0,1.75.87c1.33-.26,1.78.38,1.52,1.37a28.17,28.17,0,0,1-1.59,3.77C55.48,320.54,54,320,53.32,319a51.49,51.49,0,0,1-3.55-7.55c-.68-1.7-1.69-2-3.34-1.61a10,10,0,0,1-3.75.41c-.82-.12-1.53-1.05-2.28-1.62.86-.76,1.69-1.57,2.61-2.26A1,1,0,0,1,43.74,306.31Z"/><path class="cls-1" d="M126,306.1a34.71,34.71,0,0,0,1.6,5.63c2.94,6.23,1.41,14.17-4.46,18.38-3.74,2.68-7.79,3.95-12.39,3.1a53.57,53.57,0,0,1-6.11-1.16c-2.66-.82-3.12-2.95-1.4-4.9,1-1.12,1.36-1,1.92.33.32.76,1,1.73,1.7,1.89,5.18,1.25,10.09.89,14.53-2.54,4-3.07,5.63-7.93,3.87-12-.68-1.54-1.29-1.85-2.72-.63-1.79,1.52-3.7,3.3-5.84,3.84-1.42.35-3.44-1.12-5-2.09a4.43,4.43,0,0,1-1.27-2.5c-1.38-5.23,2.78-11.8,8-12.87,1.45-.3,2.83-.9,4.28-1.22a2.42,2.42,0,0,1,3.11,1.87c.41,1.52.56,3.11.82,4.67Zm-12.66,4.17c0,2.56,1.33,4.3,3.38,4.37,2.43.08,6.22-2.9,6.15-4.83-.1-2.53-2.14-6.11-3.46-6.08C116.22,303.79,113.38,306.86,113.36,310.27Z"/><path class="cls-1" d="M371.8,299.2c0,3.42,0,6.84,0,10.26,0,2.39.16,4.77.12,7.15,0,.55-.53,1.09-.82,1.64-.53-.35-1.4-.61-1.53-1.07-.38-1.37-.37-2.85-.69-4.24-.15-.65-.6-1.6-1.11-1.75a30,30,0,0,0-5.1-.88c-.22,0-.79.69-.75,1,.17,1.73.46,3.44.77,5.15.21,1.12.65,2.23-1,2.66-1.49.39-1.75-.42-1.86-1.62-.26-2.83-.62-5.65-.85-8.49-.1-1.12-.11-1.65-1.63-1.27a15.47,15.47,0,0,1-4.95.07c-1.4-.11-1.83.43-1.85,1.74,0,2.47-.13,4.95-.34,7.41-.08,1-.11,2.5-1.81,2.19s-1.26-1.47-1.13-2.64c.29-2.76.53-5.54.58-8.31a3,3,0,0,0-1.19-2.13c-1.59-1.13-1.9-2.62-.25-3.55s1.41-2.27,1.34-3.68a36,36,0,0,1-.11-4.75c.05-.57.86-1.08,1.32-1.61.4.55,1.08,1.06,1.14,1.65.25,2.29.33,4.6.4,6.9a2.72,2.72,0,0,0,2.25,2.92,19.65,19.65,0,0,1,4.21,1.6c1.54.84,1.62-.06,1.66-1.15a35.44,35.44,0,0,1,.24-5.47c.17-.86,1.3-1.54,2-2.3.37,1,1.21,2,1,2.82-1.13,4.58,1.3,7.27,4.7,9.48,1,.67,2.2,1.6,2.23-1,.05-4.61.38-9.22.78-13.82a14.05,14.05,0,0,1,1.35-3.65,24.25,24.25,0,0,1,1.16,3.91,36.26,36.26,0,0,1,.05,4.78Z"/><path class="cls-1" d="M492.44,354.84c2.65-1.14,4.79-2.11,7-3a9,9,0,0,1,2.11-.29,8.18,8.18,0,0,1-1,2,12.58,12.58,0,0,1-7.49,3.86,6.64,6.64,0,0,1-6.76-2.67c-1-1.36-1.93-1.79-3.31-.63a4.41,4.41,0,0,1-1.08.49c-2.15.87-4.55,1.6-6.28-.3s-.47-4.06.33-6.22a13.87,13.87,0,0,1,5.5-7.28,5.23,5.23,0,0,1,1.61-.42,4.06,4.06,0,0,1-.19,1.55c-.38.68-1.1,1.18-1.46,1.86a35.31,35.31,0,0,0-2.77,5.92c-.53,1.79.56,2.75,2.4,2.33,2.48-.57,4.41-1.77,5.33-4.49,1.1-3.28,2.72-6.44,6.22-7.76a5.46,5.46,0,0,1,4.17.15c1.7,1,1.12,3,.08,4.23a46.08,46.08,0,0,1-5.68,5.31c-.95.78-2.31,1.32-1.48,2.73A13.75,13.75,0,0,0,492.44,354.84Z"/><path class="cls-1" d="M295.72,340.78c.32-6.49.49-12.15.93-17.79a11.73,11.73,0,0,1,1.62-4.93c1.43-2.42,3.17-2.29,4.8,0a11.61,11.61,0,0,1,2,8.2c-.44,3.62-1.35,7.2-2.1,10.78-.26,1.23-.77,2.58-2.35,1.92s-.63-1.7-.24-2.81c1.41-4.07,2.57-8.23,1.66-12.61a6.27,6.27,0,0,0-1-1.76c-.38.51-1.06,1-1.11,1.54q-.72,6.86-1.21,13.71c-.13,1.9,0,3.82,0,5.73,0,1.46.21,2.41,2,1.25a5.67,5.67,0,0,1,3.18-.56c.61,0,1.17.81,1.75,1.25-.47.44-.87,1.15-1.41,1.27a4.62,4.62,0,0,0-3.62,3.92c-.27,1.25-.94,2.34-2.18,1.91a3.66,3.66,0,0,1-2.17-2.35C295.88,346.34,295.85,343.14,295.72,340.78Z"/><path class="cls-1" d="M211.42,341.36c.52,1.91,1,3.85,1.62,5.71.14.4,1.06.52,1.62.77.15-.51.56-1.11.41-1.52-1.67-4.76-.07-8.58,3.16-12.05a4.42,4.42,0,0,1,6-.5c1.93,1.5,2.13,3.21.61,5.41-1.3,1.88-2.86,3.48-5.22,3.86-1.53.25-1.75,1.19-1.55,2.42.38,2.33,3.43,4.79,5.83,4.88a5.51,5.51,0,0,1,1.76.8c-.63.49-1.43,1.5-1.87,1.37a39.56,39.56,0,0,1-6.08-2.48c-1-.52-1.81-2.87-2.65.24-.4,1.48-3.36,1.13-3.94-.57a91.18,91.18,0,0,1-2.78-9.85c-.89-4.1-1.49-8.27-2.21-12.41A3.91,3.91,0,0,1,206,326a9,9,0,0,1,.74-1.65c.52.38,1.36.67,1.52,1.17.77,2.49,1.4,5,2,7.58s1.18,5.4,1.76,8.1Zm11.82-4c-.84-.78-1.15-1.3-1.57-1.43-1.26-.37-3.73,2.22-3.37,3.51.08.29.66.74.75.69C220.37,339.29,221.65,338.41,223.24,337.33Z"/><path class="cls-1" d="M183.91,320c-7.87-.6-11-3.15-10.5-9.5.24-3.24.68-6.39,2.64-9.28a10.59,10.59,0,0,1,6.5-4.4c2.51-.66,4.37.48,5.78,2.42,1.56,2.15,1.17,4.48-.08,6.52a11.86,11.86,0,0,1-7.17,5.55,7.71,7.71,0,0,0-1.82.56c-.66.37-1.7.93-1.68,1.38a3.22,3.22,0,0,0,1.25,2.05c3.16,2.48,6.51,1.91,9.92.5,1.26-.52,2.61-.84,3.93-1.25-.93,1-1.68,2.33-2.82,2.94A54.88,54.88,0,0,1,183.91,320Zm2.25-18.14c-.45-.41-1-1.33-1.85-1.6-3.23-1.08-7.67,2.77-7.28,6.21a2.17,2.17,0,0,0,3,1.9,19.92,19.92,0,0,0,2.45-.92C184.56,306.44,185.79,304.77,186.16,301.89Z"/><path class="cls-1" d="M317.22,290.51c.42,2.1.82,4.2,1.28,6.29a2.79,2.79,0,0,0,.7,1.21c2.29,2.39,4.66,4.7,6.9,7.14,2.09,2.28,2.55,5.06,1.34,6.94-1.53,2.38-5.06,3.91-7.7,2.86a12.33,12.33,0,0,1-4.77-3.36,4.13,4.13,0,0,1-.3-3.9c2.74-3.64,1.25-7.37.6-11-.54-3-1.71-5.93-2.47-8.92a5.14,5.14,0,0,1,0-3,1.35,1.35,0,0,1,2.57-.24,49.12,49.12,0,0,1,2.49,5.7Zm4.69,20.78c2.52.09,3.35-.93,2.28-3.12a26.84,26.84,0,0,0-2.81-4.1c-.19-.25-.67-.28-1-.4a8.51,8.51,0,0,0-.17,1.11c-.05,1.09.27,2.33-.15,3.25C318.66,311.07,318.64,311.17,321.91,311.29Z"/><path class="cls-1" d="M95.09,391.21c-.51-3-1-6.11-1.55-9.15a2,2,0,0,0-1-.92c-2.08,1.52-1.81-.56-2.1-1.43a7.57,7.57,0,0,1-.1-2.34c0-1.31.44-2.63,2-2.36a3.68,3.68,0,0,1,2.48,1.93,60.08,60.08,0,0,1,2.24,8.27c.86,4.29,1.46,8.62,2.29,12.92.61,3.18.16,5.24-1.66,6.28-3.28,1.88-7.93,1.65-10.31-.51-2-1.87-2.48-3.7-1.45-6.21,1.21-2.95,3.47-4.55,6.44-4.09C94.56,393.94,95.5,393.58,95.09,391.21Zm-.87,11.62c1.34,0,2.14-.18,1.4-1.78-.4-.86-.3-2.07-.88-2.68a5.58,5.58,0,0,0-3.11-1.74c-.65-.06-2,1.25-2,1.92a4.91,4.91,0,0,0,1.54,3.11C91.9,402.35,93.18,402.46,94.22,402.83Z"/><path class="cls-1" d="M386.8,321.21c-7.51-.17-12.22-9.08-8.5-15.69,1.51-2.68,3.2-4.93,6.6-5.22a4.27,4.27,0,0,1,4.89,5,9.78,9.78,0,0,1-6.58,8.57c-.42.16-1,.84-1,1a3.77,3.77,0,0,0,1.28,1.87c3.28,1.93,6.47.89,9.48-.73a50.34,50.34,0,0,0,4.46-3.18c.26-.18.69-.12,1-.18,0,.3,0,.73-.12.87-3.14,2.67-5.25,6.7-9.83,7.47C387.92,321.09,387.28,321.15,386.8,321.21Zm-5.46-10.68c2.44,0,4.71-2.4,5.21-4.94.34-1.71-.52-2-1.87-1.63-1.91.53-3.94,3.48-3.82,5.54A2.74,2.74,0,0,0,381.34,310.53Z"/><path class="cls-1" d="M389.74,336.34c1.05-.61,2.07-1.27,3.16-1.78a8.83,8.83,0,0,1,1.94-.44c-.1.55-.18,1.1-.32,1.64,0,.22-.35.44-.32.62.38,2.26-.54,3.69-2.62,4.64-.45.2-.48,1.33-.7,2a7.84,7.84,0,0,0,2.34.57,18.1,18.1,0,0,0,3.19-.78c-.19,1.05-.39,2.1-.59,3.14a.67.67,0,0,0,0,.24,11,11,0,0,1,.14,2.39,15.87,15.87,0,0,1-3.95.54,5.34,5.34,0,0,1-2.29-.57c-2.28-1.07-3.89-.86-4.85,1.83-.21.58-1.61.73-2.47,1.08a6.86,6.86,0,0,1,.3-2.11,8.86,8.86,0,0,0,.78-5.79,16.42,16.42,0,0,1,2.84-12.79c1.13-1.49,2.44-.53,3.68-.26a1.91,1.91,0,0,1,.11,1.13c-2.2.94-1,2.3-.51,3.58a7.48,7.48,0,0,1,.25,1.16c-1.65-1-1.84.47-2.2,1.39a5.17,5.17,0,0,0,0,1.8,13.59,13.59,0,0,0,2-1.71C389.91,337.56,389.72,336.86,389.74,336.34Z"/><path class="cls-1" d="M266.57,408.5a16.14,16.14,0,0,1-2.81-.44c-2-.67-4-1.53-4.26-3.95-.25-2,1.43-4.35,3.59-5.38,1.21-.57,3-.89,3.44-1.83s-.44-2.56-.73-3.88c-.83-3.72-1.69-7.44-2.44-11.18-.11-.56.33-1.24.51-1.87.76.37,1.94.56,2.19,1.15a40.27,40.27,0,0,1,1.43,5q2.13,7.44,4.3,14.88a5.15,5.15,0,0,1,.41,1.36c0,2.05.45,3.05,2.62,1.66.35-.23,1,0,1.52,0-.26.51-.39,1.31-.79,1.49-2.87,1.23-5.8,2.34-8.72,3.48Zm2.33-4.09c-.5-.64-1-1.79-1.9-2.23-.7-.35-1.84.18-2.78.33.22.55.31,1.45.7,1.61a32.52,32.52,0,0,0,3.92,1.11Z"/><path class="cls-1" d="M213.54,440.29c-.45-4.19,4.48-8.94,7.23-9.8a7.59,7.59,0,0,1,4.27-.14c1.17.37,2.14,1.57,3,2.58a18.28,18.28,0,0,1,2.86,4c.47,1,.2,2.3.41,3.45a21.85,21.85,0,0,0,.93,3.15c.25.71.62,1.38.93,2.07-1,.29-2.24,1.11-2.85.77a8.22,8.22,0,0,1-2.54-3c-.85-1.41-1.46-3-2.18-4.46-1.21,1-2.38,2.14-3.66,3.09s-2.38,2-3.73,2.28C215.27,445,213.54,443.29,213.54,440.29Zm3.58-1.2c.06.15.14.82.49,1.05a1.61,1.61,0,0,0,1.51,0,41.65,41.65,0,0,0,4.77-4.52c.36-.42-.15-1.68-.42-2.51a1.18,1.18,0,0,0-1-.49C220.53,433.05,217.37,436.75,217.12,439.09Z"/><path class="cls-1" d="M263,306.06c0-2.37-.09-4.76.05-7.13,0-.65.79-1.25,1.21-1.88a13.08,13.08,0,0,1,.95,2c.29.95-.28,2.63,1.85,1.43.43-.24,1.89.68,2.41,1.4,1,1.36,1.58,1.52,2.55,0,1.24-1.92,3.32-2.22,4.69-.36a34.62,34.62,0,0,1,3.48,6.67,24,24,0,0,1,1.48,4.77c.13.63-.3,1.38-.47,2.08-.74-.27-1.9-.34-2.13-.84-1.24-2.75-2.23-5.61-3.36-8.4a7,7,0,0,0-1-1.44c-.46.48-1.12.87-1.35,1.44-.62,1.55-.92,3.23-1.61,4.75-.35.77-1.26,1.29-1.91,1.93a11.33,11.33,0,0,1-1.69-2.35,11.46,11.46,0,0,1-.35-2.9c-.31.94-.62,1.87-.92,2.81a3.37,3.37,0,0,1-.39,1.12,20.08,20.08,0,0,1-1.71,1.61c-.5-.63-1.34-1.22-1.43-1.91a34.43,34.43,0,0,1-.07-4.77Z"/><path class="cls-1" d="M353.3,347.13c-.18,3.82-.29,6.53-.43,9.23-.06,1.26-.22,2.57-1.93,2.38s-1.06-1.46-1-2.55c.07-3.65,0-7.3-.11-10.95,0-.72-.77-1.42-1.18-2.13a7.45,7.45,0,0,0-2,1.6c-1.08,1.76-1.87,3.71-3,5.46-.46.75-1.46,1.74-2.11,1.68-1.47-.16-1.42-1.33-.95-2.57.19-.49-.14-1.17-.24-1.77-.26.53-.54,1.05-.78,1.59a19.94,19.94,0,0,1-1.65,3.63c-.39.54-1.49.57-2.26.83a7.38,7.38,0,0,1-.55-1.93c0-2.54.15-5.07.22-7.61.06-2.07.63-2.42,2.37-1.51.25.13.75-.16,1.1-.34,1.58-.8,2.93-.77,3.73,1.07s1.41,1.25,2.22,0a16.62,16.62,0,0,1,2-2.35,2.94,2.94,0,0,1,5,.86A48.43,48.43,0,0,1,353.3,347.13Z"/><path class="cls-1" d="M166.79,391.9a21.27,21.27,0,0,1,2.8,0,5.7,5.7,0,0,1,1.58.71c-.36.58-.59,1.45-1.11,1.68a12.87,12.87,0,0,1-3.88,1.11c-5.52.54-5.66.59-5.57,6,0,2.46.28,4.92.56,7.37.14,1.28.11,2.28-1.47,2.39s-2.16-.74-2.16-2.2c0-3.66-.12-7.32,0-11,0-1.43-.43-1.93-1.79-2.24a4.56,4.56,0,0,1-2.25-1.54c.6-1.43-.65-3.84,1.72-4.25s2.42-2.05,2.53-3.79c0-.55-.11-1.21.15-1.65a3.45,3.45,0,0,1,1.58-1.54c.33-.12,1.33.62,1.45,1.12a8.49,8.49,0,0,1,.31,3.88c-.62,2.36-.19,3.64,2.44,3.7C164.75,391.74,165.86,391.84,166.79,391.9Z"/><path class="cls-1" d="M102.74,339.47l1.34-2c.58.55,1.37,1,1.7,1.66a47,47,0,0,1,2.47,5.8c.55,1.66,1,2.05,2.28.53a39.33,39.33,0,0,1,3-3.09c2.17-2.17,3.67-2.26,6-.32a11.47,11.47,0,0,1,1.35,1.35c1.14,1.31,2.21,1.17,3-.26s1.52-3.32,2.49-4.84a15.18,15.18,0,0,1,2.81-3.08c.35-.31,1.12-.16,1.7-.22-.16.58-.13,1.43-.51,1.69-2.26,1.56-2.7,4.05-3.45,6.37-.34,1.05-.15,2.33-.68,3.23-.63,1.08-1.69,2.46-2.72,2.59s-2.5-.84-3.6-1.57c-.82-.55-1.29-1.63-2.09-2.23-1.49-1.13-2.6-.4-3.57.94a45.53,45.53,0,0,1-3.57,4.48,2.6,2.6,0,0,1-4.27-.44c-1.34-2.84-2.41-5.82-3.55-8.76A8.07,8.07,0,0,1,102.74,339.47Z"/><path class="cls-1" d="M316.81,402.81c.38-2,.63-3.95,1.19-5.84.19-.63,1.21-1,1.85-1.5.26.69.85,1.45.72,2.06a12.67,12.67,0,0,0,1.09,8.36,7.44,7.44,0,0,0,2.38,2.86,2.47,2.47,0,0,0,3.85-1.7c.46-2,.52-4.1.9-6.13a7.86,7.86,0,0,1,1-2c.67.48,1.57.82,2,1.46a11.14,11.14,0,0,1,1,3.12,4.42,4.42,0,0,0,4.63,3.83c.66,0,1.29.6,1.93.93-.48.71-.8,1.75-1.47,2.06-2.12,1-4.28,1.1-6.27-.57a1.53,1.53,0,0,0-1.49.22c-1.48,2.45-3.58,3.77-6.39,3.19s-4.23-3-5.43-5.3A26.14,26.14,0,0,1,316.81,402.81Z"/><path class="cls-1" d="M241.49,440.71c-.22-1.73-.45-3.46-.64-5.2a3.5,3.5,0,0,1,.1-1.65,10.84,10.84,0,0,1,1.28-1.84,5.73,5.73,0,0,1,1.11,1.72c.44,2.14.88,3.12,2.64.71.36-.49,2.22-.47,2.9,0,1.12.79,1.57.49,2.34-.34,2.64-2.82,4.9-2.58,6.76.81a29.17,29.17,0,0,1,2.65,6c.24.84-.71,2-1.12,3-1-.76-2.23-1.35-2.86-2.34s-.4-2.3-.8-3.39c-.24-.64-1-1.1-1.46-1.65a9.29,9.29,0,0,0-1.62,1.57c-.46.72-.53,1.72-1,2.38a3.9,3.9,0,0,1-2.18,1.6c-.57.05-1.28-1-1.88-1.58a3.79,3.79,0,0,1-.5-.88,6.17,6.17,0,0,0-.37.83c-.25.93-.5,1.85-.69,2.79a2.29,2.29,0,0,1-2.57,2.18c-1.73,0-1.66-1.19-1.92-2.19a20.34,20.34,0,0,1-.31-2.59Z"/><path class="cls-1" d="M131.29,312.58a15.34,15.34,0,0,1,3-11,11.25,11.25,0,0,1,4.23-3.65,4.68,4.68,0,0,1,4.14.35c.91.74,1.6,3,1.11,3.95A52.34,52.34,0,0,1,138.4,310,6.91,6.91,0,0,1,136,311.5c-1.48.74-2.47,1.69-2.15,3.54.39,2.22,1.47,4.15,3.65,4.56,1.31.25,2.92-.62,4.27-1.27.87-.43,1.47-1.39,2.25-2,.24-.2.66-.17,1-.24a3.08,3.08,0,0,1,.06.9c-1,3.5-6.82,6.67-10.08,5.47-2.64-1-4.05-3.36-3.93-6.69C131.1,314.77,131.2,313.81,131.29,312.58Zm10-11.45c-.52-.12-1.31-.56-1.94-.4-3.23.8-4.08,3.67-5.07,6.32-.09.24.78,1.21,1.19,1.2C137.76,308.23,141.42,304.07,141.33,301.13Z"/><path class="cls-1" d="M215,408.14c-2.48.06-3.29-1.93-4.56-3.43a25.34,25.34,0,0,0-3.74-3.5c-1.09-.88-1.94-.42-2.3.88-.47,1.75-1,3.5-1.33,5.28-.19.89.62,2.33-1.19,2.2a2.6,2.6,0,0,1-2.66-2.53,42.93,42.93,0,0,0-.94-6.33c-.65-2.51-1.67-4.93-2.46-7.41-.16-.5-.21-1.4.07-1.62a2.27,2.27,0,0,1,1.86-.35c2,.79,2.75,2.52,2.93,4.52.25,2.69.7,3,3,1.5,2-1.32,4.07-1.37,5.64.37a104.9,104.9,0,0,1,7,8.65C217.15,407.58,216.31,408.25,215,408.14Z"/><path class="cls-1" d="M318.11,447.53a7.29,7.29,0,0,1-1.38-2.14c-.72-3.4-1.23-6.85-2-10.25-.09-.41-1.11-.56-1.61-.94-.91-.67-2.16-1.29-2.47-2.19-.2-.62.75-2.09,1.54-2.49,1.65-.84.65-1.69.32-2.54-.57-1.47-2.24-3.28.12-4.23,2.21-.88,2.12,1.77,2.95,2.92a5.41,5.41,0,0,1,.62,1.55c.86,2.74,2.41,3.75,5.28,3.11,3-.67,6-1.56,9-2.35a3.78,3.78,0,0,1,1.36-.29,5.75,5.75,0,0,1,1.49.6c-.36.36-.66.89-1.1,1.07-3.75,1.49-7.48,3.09-11.33,4.31-1.93.61-2.68,1.19-2.22,3.36a64,64,0,0,1,1,8.53c0,.58-.5,1.21-.78,1.82Z"/><path class="cls-1" d="M77.74,312.6c.33-3.82,1.06-7.57,4.76-9.54a7.66,7.66,0,0,1,4.9-.47c1.91.43,2.21,2.57.72,4.27-1.68,1.91-3.48,3.72-5.31,5.48-1.62,1.56-1.46,2.87.59,3.85,2.29,1.1,6.07.18,8.39-2,.4-.38.74-1,1.2-1.1a4.63,4.63,0,0,1,1.76.25c-.2.44-.28,1.05-.62,1.29-1.94,1.37-3.92,2.67-5.92,4a14.21,14.21,0,0,1-1.33.54c-5.19,2.73-9.14.24-9.14-5.77C77.73,313.08,77.74,312.84,77.74,312.6Zm4.27-3,2.56-3.18c-.23-.14-.61-.44-.67-.38a30,30,0,0,0-2.37,2.28C81.44,308.42,81.73,308.88,82,309.59Z"/><path class="cls-1" d="M293.15,416.21c-2.11.05-2.72-1-2.11-2.7a32.12,32.12,0,0,0,1.6-4.73,2.89,2.89,0,0,0-1-2.42c-4.6-2.71-5.79-7.35-6.92-12-.12-.48.55-1.16.86-1.75.7.39,1.71.61,2.05,1.2,1.39,2.48,2.57,5.08,3.85,7.63a7.24,7.24,0,0,0,.82,1.17c1.56,1.9,1.85,1.81,3-.46,1.44-2.92,3-5.78,4.56-8.64a4.11,4.11,0,0,1,1.42-1.56,4.72,4.72,0,0,1,1.8-.22,7.94,7.94,0,0,1-.29,1.71c-2.52,6.15-5.09,12.29-7.61,18.45a3.29,3.29,0,0,0-.23,1.85C295.35,415.7,294.1,416,293.15,416.21Z"/><path class="cls-1" d="M238.49,340.74c.92,2.92,1.73,5.87,2.8,8.73.45,1.19,1.48,1.94,2.8.67.26-.25.78-.24,1.17-.35.11.58.45,1.23.29,1.73-.75,2.42-4.21,3.28-5.81,1.2-1.39-1.8-2.07-4.16-3-6.29a12.45,12.45,0,0,1-.47-1.5c-.37.24-.73.5-1.11.72-.69.41-1.41.76-2.06,1.22a3.28,3.28,0,0,1-4.2.12c-1.42-1.07-1.29-2.56-.83-3.92,1.17-3.38,3.69-5.43,6.93-6.79,1.39-.58,2.69-1.68,3.76.29a5.52,5.52,0,0,1,.5,2.07,12.31,12.31,0,0,1-.08,1.91Zm-6.43,3.11c.92-.76,1.65-1.1,1.94-1.66a31.14,31.14,0,0,0,1.29-3.54c-.86.69-1.75,1.37-2.58,2.1a3.07,3.07,0,0,0-1,1.26C231.55,342.45,231.86,343,232.06,343.85Z"/><path class="cls-1" d="M236,400.55c.76-2.66.66-6.35,3.7-8.63,2.66-2,5-.83,5.32,2.46.39,3.6-1,5.87-4.35,7.39a1.52,1.52,0,0,0-.64,1.31c1.2,2.84,5.3,3.52,7.55,1.31.17-.17.29-.45.49-.51.85-.27,1.72-.47,2.59-.7a14.6,14.6,0,0,1-1.08,2.21c-1.83,2.51-4.66,3-7.43,3.13C238.16,408.76,235.78,405.78,236,400.55Z"/><path class="cls-1" d="M310,411.67c-3.1,1.25-5.08-.68-6.11-3.67-1.23-3.56-1.43-7.21,1.4-10.27,1.69-1.83,4.38-1.82,6.56-.46a9.38,9.38,0,0,1,4.49,8.46C316.4,409.54,314.23,411.7,310,411.67Zm-3.48-7.37c-.05,1.74,1,3.36,2.24,3.5,1.4.15,4.21-1.75,4.21-2.84,0-3.12-1.47-5.3-3.6-5.32C307.47,399.61,306.62,401,306.54,404.3Z"/><path class="cls-1" d="M123.49,400.54c-.28-2.45-.69-4.9-.76-7.35,0-.75.91-1.53,1.41-2.29.54.61,1.09,1.21,1.63,1.83,0,0,0,.16,0,.23.27.75.55,1.5.83,2.25a10.21,10.21,0,0,0,1.68-1.88c1.79-3.34,4-3.7,6.24-.67a39.15,39.15,0,0,1,4,7c.28.59-.6,1.72-.95,2.6-.8-.45-2-.72-2.3-1.4-.65-1.41-.69-3.1-1.29-4.55-.3-.73-1.28-1.67-1.93-1.66s-1.37,1-1.91,1.74a2.48,2.48,0,0,0-.48,1.57c.21,2.45-.82,4.55-1.88,6.59-.33.64-1.29,1.44-1.82,1.35a3.31,3.31,0,0,1-2.29-1.55,13.51,13.51,0,0,1-.44-3.76Z"/><path class="cls-1" d="M343.41,309.41c-.38,2.45-.64,5.23-3,7.06a3.22,3.22,0,0,1-2.31.72,37.62,37.62,0,0,1-4.52-1.54c-3-1.06-5.44-5.42-4.83-8.78.55-3,4.77-6.49,7.71-6.39C339.62,300.6,343.43,305.37,343.41,309.41Zm-6.2,3.88c2.71-.11,3.25-.76,3.14-3.8s-2-5.58-4.12-5.55c-2.35.05-4.17,2.35-4.09,5.2C332.2,311.42,334.62,313.4,337.21,313.29Z"/><path class="cls-1" d="M273.81,447.69c-2.89-.07-4.87-2.3-5.55-5.74a7.8,7.8,0,0,0-1.37-2.63c-.82-1.24-.71-2.1.58-3a8.62,8.62,0,0,0,2.12-2.22c1.35-1.93,2.29-4.3,5.18-4.36,1.73,0,2.74.89,2.1,2.53a40.2,40.2,0,0,1-2.86,5.06c-.57,1-1.45,2-1.58,3.05-.32,2.49,1.69,3.86,3.93,2.77,1.27-.62,2.37-1.61,3.62-2.29a4.54,4.54,0,0,1,1.75-.12,4.32,4.32,0,0,1-.45,1.45C279.27,444.8,277.29,447.45,273.81,447.69Z"/><path class="cls-1" d="M156.12,302.72c.92.81,2.32,1.44,2.68,2.45a74.57,74.57,0,0,1,2.17,8.28,45.07,45.07,0,0,1,1.15,5.59,8.07,8.07,0,0,1-.71,2.72c-.79-.5-2.07-.86-2.27-1.54a40.3,40.3,0,0,1-.8-5.41c-.32-2-.67-4.06-1.1-6.07-.1-.45-.63-.81-1-1.22a4.73,4.73,0,0,0-.63,1.22c-.35,1.88-.6,3.78-1,5.65a31,31,0,0,1-1.09,4.39c-.23.64-.95,1.09-1.44,1.63-.62-.64-1.7-1.24-1.76-1.92a25.5,25.5,0,0,1,.34-5.22c.29-2.2.62-4.41,1.07-6.58s1.17-3.89,4-3.35Z"/><path class="cls-1" d="M281.69,305.8l1.83-2.28a21.66,21.66,0,0,0,1.89,1.58c1.26.84,2.49,2,3.89,2.3,1.81.41,2.23-1.5,2.8-2.72s.91-2.9,1.53-4.27c.3-.66,1-1.11,1.58-1.66.5.73,1.33,1.43,1.42,2.21a8.53,8.53,0,0,1-.55,3.27c-1.44,4.79-2.95,9.56-4.44,14.34-.17.52-.29,1.22-.67,1.48a11.56,11.56,0,0,1-2.35.95c-.12-.92-.56-1.94-.31-2.74.66-2.08,1.68-4,2.44-6.08a9.27,9.27,0,0,0,.23-2.26,14,14,0,0,0-2.26.39c-2.81.93-4.52.41-6.12-2.06A13.14,13.14,0,0,1,281.69,305.8Z"/><path class="cls-1" d="M367.57,346.39c-.21-3.81,2.66-5.95,4.63-8.48,1.11-1.42,2.77-3.23,4.82-1.55s1.26,3.69,0,5.39-2.6,3.83-4.41,4.9c-2.49,1.46-1.45,3-.85,4.63.73,2,2.43,1.83,4,1.29.86-.29,1.53-1.11,2.37-1.52a5.21,5.21,0,0,1,1.71-.21c-.14.53-.12,1.19-.44,1.57a8,8,0,0,1-6.93,3c-2-.14-3.9-2.25-4.41-5C367.84,349.06,367.73,347.7,367.57,346.39Zm7.58-6.11c-.13-.26-.19-.55-.34-.61a.69.69,0,0,0-.64.13c-.92,1-1.82,2.08-2.69,3.15a.77.77,0,0,0,0,.63c.25.09.68.19.8.06C373.25,342.56,374.18,341.42,375.15,340.28Z"/><path class="cls-1" d="M227.47,405.48a26.2,26.2,0,0,1,3.1-1.39,4.57,4.57,0,0,1,1.69.17c-.25.43-.39,1.11-.75,1.25a60.82,60.82,0,0,1-6.65,2.31c-.52.14-1.38-.63-2-1.13a25.27,25.27,0,0,1-3.34-3.28,3.12,3.12,0,0,1-.49-2.38,23.51,23.51,0,0,1,2.06-6,10.71,10.71,0,0,1,3.78-3.57,3.13,3.13,0,0,1,3,.52,4.17,4.17,0,0,1,.84,3.47c-.66,1.82-2,3.37-3,5.07-.47.79-1.39,2-1.14,2.4A13.09,13.09,0,0,0,227.47,405.48Z"/><path class="cls-1" d="M268.82,348.21c0-.39,0-.87-.16-1.17-.69-1-1.48-2-2.23-3a17.59,17.59,0,0,0-1.92,3.06c-.62,1.62-.76,3.44-1.46,5a2.87,2.87,0,0,1-2.27,1.47c-.67-.11-1.5-1.31-1.65-2.15-.63-3.36-1-6.77-1.49-10.16a2.74,2.74,0,0,1-.06-1.41,13.77,13.77,0,0,1,1.4-2c.46.68.94,1.35,1.36,2.05.1.18,0,.49,0,.71.35,1.37.73,2.73,1.11,4.1.69-1,1.36-2,2.09-3,1.57-2.13,3.8-2.33,5.33-.2a29.9,29.9,0,0,1,3.16,6.07,3.06,3.06,0,0,1-.49,2.51c-.27.37-1.55.35-2.12.05s-.66-1.2-1-1.83Z"/><path class="cls-1" d="M145.58,429.81a15.94,15.94,0,0,1-1.48,1c-.58.27-1.21.43-1.77.72-3.88,2-4.31,3.06-3,7.31a12.33,12.33,0,0,1,.9,2.69c0,.58-.62,1.2-1,1.8-.56-.35-1.39-.56-1.62-1.06-.63-1.35-1-2.84-1.5-4.24-.2-.52-.39-1.51-1.06-.08-.21.44-1.94.36-2.91.18-.66-.13-1.21-.86-1.81-1.32.57-.7,1-1.74,1.73-2,1.9-.8,2.66-1.83,1.89-3.89a38.54,38.54,0,0,1-1.79-5.93,11.47,11.47,0,0,1,.34-3.35,14.21,14.21,0,0,1,3.41,1.66c1.92,1.7.51,4.11.86,6.18s1,2.35,2.73,1.4a19.15,19.15,0,0,1,4-1.47C144,429.2,144.59,429.56,145.58,429.81Z"/><path class="cls-1" d="M404.16,348.06c0-4.19-.1-7.26,0-10.32a4.71,4.71,0,0,1,4.19-4.2c1.67-.05,3.62,2,4.06,4.1.76,3.62-.77,6.38-3.15,8.81a2.83,2.83,0,0,0-.9,3.12,18.89,18.89,0,0,1,.31,4.46c0,.24-.53.72-.71.67-.82-.23-2.11-.41-2.3-.94A54.51,54.51,0,0,1,404.16,348.06Zm6.57-8.75-2.13-2.44c-.68.93-1.72,1.78-1.93,2.81a7.9,7.9,0,0,0,.61,3.47c.06.24,1,.5,1,.46C409,342.35,409.75,341.06,410.73,339.31Z"/><path class="cls-1" d="M207.24,436.58c1-.15,2.92-.46,4.81-.72a6.61,6.61,0,0,1,1.31.13c-.32.37-.58,1-1,1.07a85.08,85.08,0,0,1-9.59,2.4c-2.12.33-2.1,1.25-1.51,2.69.42,1,1.07,2,1.53,3,.22.49.43,1.47.29,1.55-.66.35-1.84.86-2.12.58a11.6,11.6,0,0,1-2-3.08c-.88-1.73-1.65-3.51-2.45-5.28a2,2,0,0,1-.34-1.12c.73-3.37-.85-6.49-1.08-9.77-.1-1.39.08-2.2,1.58-2.26s2,.78,1.68,2.15a2.61,2.61,0,0,0,0,.48C198.17,434.6,200.11,436.57,207.24,436.58Z"/><path class="cls-1" d="M152.06,432.41a12.5,12.5,0,0,1,7.66,3.47c.68.63,1.28,2.32.92,2.9-.76,1.22-2.27,2.94-3.31,2.84a32,32,0,0,1-9.36-2.28c-2.63-1.12-2.61-3.55-.2-5.18A21.93,21.93,0,0,1,152.06,432.41Z"/><path class="cls-1" d="M234.4,312.81,233,314.59c-.55-.54-1.42-1-1.6-1.62-.76-2.59-1.22-5.27-2-7.86-.21-.7-1.08-1.2-1.64-1.79a10.93,10.93,0,0,0-1.46,2.27c-.49,1.42-.68,2.94-1.11,4.37a6.47,6.47,0,0,1-1.06,1.55c-.65-.48-1.76-.88-1.86-1.45a19.78,19.78,0,0,1-.06-4.68c.16-2.3.38-4.6.75-6.88.09-.61.78-1.13,1.2-1.7.52.59,1.44,1.15,1.49,1.78.11,1.44.27,2,1.94,1.46,2.21-.66,3.56,1,4.15,2.73C232.82,306,233.51,309.34,234.4,312.81Z"/><path class="cls-1" d="M112.22,403.67c-3.94-.23-7.14-.55-8.82-4.14-1.47-3.12.38-7,3.81-7,2.8-.05,5.74.25,7.9,2.63,1.46,1.61,2.14,3.35,1.2,5.43S114.24,404.22,112.22,403.67ZM109,395.31c-.36.38-1.65,1.11-1.92,2.12-.41,1.53,1.75,3.22,3.67,3.21a2.4,2.4,0,0,0,2.7-2.64C113.42,396.3,112.08,395.3,109,395.31Z"/><path class="cls-1" d="M326.78,340.63c3.29,0,5.45,2.29,5,5.13a26.73,26.73,0,0,1-1.42,5.53c-1.07,2.76-5.63,3.22-7.52.88-2.42-3-1.78-8.71,1.37-10.9A6.5,6.5,0,0,1,326.78,340.63Zm2.53,5.63c-.68-.78-1.35-2.21-2-2.21-1.72,0-2.3,1.6-2.21,3.05a2.76,2.76,0,0,0,1.51,2.07C328.45,349.57,329,348.31,329.31,346.26Z"/><path class="cls-1" d="M453.88,349a10.37,10.37,0,0,1,1.44.15c.27.05.69.27.71.45a.93.93,0,0,1-.41.78,21.48,21.48,0,0,1-4.69,1.6c-1.66.24-3-1.62-3.14-3.54-.1-1.77,1.34-4-1.33-5.08.54-.84,1-2.3,1.64-2.4,1.83-.28,2.42-1.45,3.23-2.8,1.17-2,2.51-3.88,5-4.43,1.81-.39,2.19.43,1.87,1.94-.65,3-3,4.78-5,6.8a8.06,8.06,0,0,0-2.2,3.95C450.51,349,450.81,349.15,453.88,349Z"/><path class="cls-1" d="M150.33,344.75c-.27-6.23-.5-11.39-.71-16.55a6.24,6.24,0,0,1,.07-2.37c.24-.62,1-1,1.52-1.54.47.49,1.26.94,1.34,1.49.22,1.53.12,3.11.2,4.66.33,6.1.62,12.19,1.08,18.28.06.79,1,1.48,1.49,2.27.37.63.61,1.34.92,2-.91.18-2,.77-2.67.44a4.5,4.5,0,0,1-2-2.5C150.93,348.59,150.59,346.14,150.33,344.75Z"/><path class="cls-1" d="M167.59,331.28c-1.37,6.79.23,12.85,1,19A22.78,22.78,0,0,0,170,354a6.28,6.28,0,0,1,.05,1.63c-.65-.14-1.64-.06-1.89-.46a10.57,10.57,0,0,1-1.93-4c-1-7.63-1.82-15.29-2.6-22.95-.07-.72.61-1.52.95-2.28.67.52,1.62.92,1.94,1.61A21.74,21.74,0,0,1,167.59,331.28Z"/><path class="cls-1" d="M472.23,348.85c.1,1.1.25,2.21.28,3.32a10.41,10.41,0,0,1-.27,1.72c-.59-.19-1.44-.21-1.69-.61a5.89,5.89,0,0,1-.82-2.59c-.14-1.89-.06-3.81-.16-5.71a4.41,4.41,0,0,0-.63-1.39c-.41.35-1,.62-1.19,1.06a44.47,44.47,0,0,1-1.9,4.34c-.68,1.09-2.09,2.8-2.72,2.63-2.16-.6-.92-2.41-.63-3.78.35-1.72.68-3.44,1.19-5.11.6-2,1.29-2.25,3.32-1.71.18.05.43-.12.65-.18,2.91-.79,4-.11,4.35,2.79.21,1.72.34,3.46.51,5.19Z"/><path class="cls-1" d="M414.64,341.21c.89-1.68,1.48-3.62,2.72-5,1.95-2.12,5.08-1,5.59,1.85a6.92,6.92,0,0,1-2.46,6.58c-.85.77-1.25,1.35-.41,2.36a9.1,9.1,0,0,1,.87,1.67c-.89-.09-2.19.16-2.59-.33-1.6-2-3.94-3.73-3-6.89Z"/><path class="cls-1" d="M247.56,346.05a14.8,14.8,0,0,1,4.1-10.47c.9-.91,2.61-1.08,4-1.39.28-.06.93.7,1.07,1.18.08.26-.56,1-.94,1.05-2.36.33-3.12,2.13-3.48,4-.45,2.42-.5,4.91-.81,7.35a6.12,6.12,0,0,1-.77,2.62,2.29,2.29,0,0,1-2,.81c-.52-.14-1-1.09-1.14-1.76A19.09,19.09,0,0,1,247.56,346.05Z"/><path class="cls-1" d="M307.11,445.36c-.28.38-.84,1.13-1.39,1.89-.66-.74-1.73-1.37-1.92-2.21-.94-4-1.62-8.12-2.44-12.18a20,20,0,0,1-.84-2.67,8.77,8.77,0,0,1,.63-2.53c.8.3,1.91.37,2.33.94a8.24,8.24,0,0,1,1.3,3.29C305.58,436.11,306.26,440.36,307.11,445.36Z"/><path class="cls-1" d="M316.87,344.85c-.46,1.74-.86,3.49-1.41,5.2-.17.53-.95,1.38-1.14,1.31-.73-.28-1.75-.79-1.89-1.4a59.24,59.24,0,0,1-1.08-6.79,1.56,1.56,0,0,1,.48-1.23,42.62,42.62,0,0,1,4.92-3.55c2-1.12,5.06.8,5,3.09,0,.25-1.4.84-1.94.65C316.79,341.06,316.45,341.29,316.87,344.85Z"/><path class="cls-1" d="M153.14,398c-.73.28-1.56.91-2.17.74-.88-.25-2.14-1-2.29-1.67-1.07-4.9-2-9.85-2.74-14.81-.11-.65.59-1.43.91-2.15.62.41,1.45.68,1.8,1.25a9.66,9.66,0,0,1,1,2.89c.84,4,1.61,7.92,2.4,11.89.07.31.11.63.16.94Z"/><path class="cls-1" d="M425.21,351.33c.68-4.6.73-9.48,5.22-12.49.53-.35,1.07-.91,1.63-.95a22.73,22.73,0,0,1,3.38.21,13.77,13.77,0,0,1-2.27,2.13c-2.66,1.53-5.39,5.12-4.29,8.94.37,1.28-.19,2.94-.69,4.3-.2.54-1.39.73-2.13,1.08-.28-.68-.61-1.33-.83-2A4.29,4.29,0,0,1,425.21,351.33Z"/><path class="cls-1" d="M167,317.62c.74-3.15,1.44-6.32,2.28-9.44.14-.51,1-.82,1.46-1.22a5.43,5.43,0,0,1,.35,1.68c-.23,2.06-.73,4.1-.8,6.16-.05,1.19.56,2.39.78,3.6a4.9,4.9,0,0,1,.12,2.27,1.68,1.68,0,0,1-1.52.73,3.65,3.65,0,0,1-2-1.37,5.8,5.8,0,0,1-.34-2.34Z"/><path class="cls-1" d="M217.05,313.89c-.36.39-.65,1-1.06,1.11a2,2,0,0,1-1.7-.38,6.17,6.17,0,0,1-1-2.33c-.77-3.14-1.54-6.28-2.13-9.45-.12-.65.57-1.44.88-2.16.54.37,1.4.65,1.55,1.14.65,2.18,1.06,4.45,1.64,6.65.4,1.5.94,2.95,1.43,4.42C216.71,313.18,216.86,313.46,217.05,313.89Z"/><path class="cls-1" d="M68.94,400.61a19.71,19.71,0,0,1-.7,2.83c-.22.58-1,1.47-1.29,1.39-.7-.15-1.79-.81-1.82-1.32a68.52,68.52,0,0,1,0-8c0-.25,1.08-.73,1.56-.63a2.14,2.14,0,0,1,1.47,1.16A37.22,37.22,0,0,1,68.94,400.61Z"/><path class="cls-1" d="M65.42,388.38c-2,0-4.5-2.68-4.52-4.13s.65-2.26,2.18-1.91c1.13.25,2.55.37,3.26,1.1,1,1,1.33,2.53,2,3.83Z"/><path class="cls-1" d="M437.26,348.7c1-3.45,1.77-6.47,2.7-9.44.13-.44.92-.66,1.4-1a6.61,6.61,0,0,1,.26,1.74c-.27,2.78-1.72,5.48-.44,8.4.12.26-1.09,1.47-1.8,1.61S438.08,349.25,437.26,348.7Z"/><path class="cls-1" d="M138.78,343.13l1.39-1.48a8.79,8.79,0,0,1,1.39,2,13.89,13.89,0,0,1,.86,3.64,10.09,10.09,0,0,1-.48,2.65c-.88-.61-2.2-1-2.56-1.87C138.85,346.77,139,345.23,138.78,343.13Z"/><path class="cls-1" d="M303.73,419.76l-2,2c-.76-1.06-1.87-2-2.2-3.2a2.15,2.15,0,0,1,2.08-2.84C304,415.92,302.34,418.39,303.73,419.76Z"/><path class="cls-1" d="M212.86,289.78c1.44,1,2.69,1.82,3.92,2.69,0,0-.12.48-.2.49a29.61,29.61,0,0,1-4.51.15c-.41,0-1.16-1.22-1-1.52C211.38,290.9,212.17,290.42,212.86,289.78Z"/><path class="cls-1" d="M142.72,335.3c-1,.5-1.84,1.24-2.19,1.05a19.35,19.35,0,0,1-2.86-2.3c.71-.61,1.83-1.86,2.05-1.72A20.19,20.19,0,0,1,142.72,335.3Z"/><path class="cls-1" d="M441.16,336.05a10.84,10.84,0,0,1-1.69-2.94c-.1-.44,1.07-1.61,1.76-1.69a2,2,0,0,1,2.39,2.42c-.08.61-.92,1.14-1.41,1.7Z"/><path class="cls-1" d="M167.08,296.81l-2.33-1.74a12.27,12.27,0,0,1,2.32-1.8c.24-.12,1.42.82,1.38,1.19C168.37,295.15,167.73,295.78,167.08,296.81Z"/></svg>