<svg id="_2" data-name="2" xmlns="http://www.w3.org/2000/svg" viewBox="0 0 531.37 531.37"><defs><style>.cls-1{fill:#fff;}</style></defs><path class="cls-1" d="M267.38,394.19c.51,2.65,1.07,5.29,1.5,7.95a6.43,6.43,0,0,1-.33,2c-.47-.44-1.16-.79-1.36-1.33a15.2,15.2,0,0,1-.6-3c-.33-2.09-.19-4.38-1-6.22-1.59-3.47,0-7.07-1-10.5-.07-.26.39-.69.61-1,.42.28,1.12.5,1.22.87a12.92,12.92,0,0,1,.25,2.85c.08,2.13.88,3.71,3.11,4.26,4.64,1.13,8.09.73,9.09-.27,1-2-1.4-8.34-2.32-11.66-.33-1.19-.88-2.24.37-2.75.46-.19,1.86.88,2.18,1.64a16.62,16.62,0,0,1,.61,4c.11.8,0,1.86.42,2.32,1.77,1.81.74,5.48,5.09,5.62,5.18,1.3,6.94,5.69,8.95,9.87.27.56.6,1.11.83,1.69a10.16,10.16,0,0,1,.59,1.87c0,.05-.78.45-1,.33a4.22,4.22,0,0,1-1.67-1.35,72.9,72.9,0,0,1-4-7.33c-.89-2-2.58-1.15-3.84-1.24-.47,0-2,2-2.25,3-.3,1.21.71,2.34.42,3.55a4.43,4.43,0,0,1-1.58,2.36c-.3.21-.19.52-.84.09s0-3-1-4c0-2-.92-2.77-1-5-.05-1.48-4.37-1.05-6.28-.51a5.23,5.23,0,0,1-2.35-.27C267.52,391.36,267.52,391.34,267.38,394.19Z"/><path class="cls-1" d="M362.16,387.93a11.83,11.83,0,0,1,1.37,2c1.06,2.48,2,5,3,7.5a3.9,3.9,0,0,0,.73.91,4.11,4.11,0,0,0,.66-1.13c.33-1.65.49-3.33.88-5,.15-.6.76-1.09,1.16-1.63a7,7,0,0,1,.71,1.72c.13.87,0,1.76.06,2.63a11.54,11.54,0,0,0,.44,1.73,14.39,14.39,0,0,0,1.54-1.24,8.71,8.71,0,0,0,.74-1.23c1.52-2.33,2.5-2.44,4.49-.52,2.54,2.45,2.54,2.45,4.75-.38,2.64-3.38,4.68-3.21,6.46.68a66,66,0,0,1,2.5,6.72c.17.5-.13,1.16-.22,1.75-.48-.28-1.15-.44-1.41-.86-.9-1.47-1.64-3-2.48-4.55-.4-.71-.87-1.38-1.3-2.06A16.83,16.83,0,0,0,384,396.6c-.61.6-.93,1.53-1.58,2.08s-1.77,1.5-2.45,1.33c-.89-.23-1.63-1.3-2.3-2.12a13.57,13.57,0,0,1-1.23-2.13c-.73.68-1.83,1.23-2.11,2.06-1.23,3.62-4.55,3.2-7.24,3.86-.54.14-1.68-.92-2.09-1.68a60.84,60.84,0,0,1-2.63-5.88c-.5-1.19-.93-1.39-1.67-.15-1.32,2.17-2.5,4.69-5.5,4.77a4,4,0,0,1-2.87-1.47c-.34-.43.18-2,.78-2.59,2.22-2.12,4.63-4,7-6A8.5,8.5,0,0,1,362.16,387.93Z"/><path class="cls-1" d="M188.88,452.07c4.13-.23,8-1,11.06-4.22s3.34-8.21.05-11.28c-.24-.22-1,.11-1.54.23-.08,0-.11.28-.15.44-.55,2-1.08,4-3.84,3.61a6.8,6.8,0,0,1-5.47-5.57c-.33-3.72,2.87-8.2,6.5-9a4.45,4.45,0,0,1,1.56.25c-.16.57-.15,1.29-.51,1.67-1.25,1.32-2.8,2.39-3.91,3.81a3.33,3.33,0,0,0,1.4,5.14c1.37.58,2.38.45,2.6-1.22.17-1.24.08-2.52.28-3.76a10.73,10.73,0,0,1,.87-2.23,7.31,7.31,0,0,1,1.61,1.34c1.22,1.76,2.21,3.68,3.48,5.41a10.31,10.31,0,0,1-.58,13.16c-5,5.58-11.91,6.09-18.22,4.28-1.4-.4-2.28-1.41-1.71-2.9a29.89,29.89,0,0,1,2.17-4.11,10.66,10.66,0,0,1,1.19-1.42,7,7,0,0,1,.09,2.31C184.71,451.44,185.23,452.19,188.88,452.07Z"/><path class="cls-1" d="M482.66,355c.31,1.72.7,3.43.89,5.15a8.67,8.67,0,0,1-.39,2.32c-.61-.59-1.52-1.07-1.75-1.78a20.73,20.73,0,0,1-.84-4.64c-.13-1.66.12-3.21-2-4.09-1.41-.58-.62-2.11.34-2.33,2.35-.55,2.14-2.21,2.16-3.86s-.06-3.19.06-4.77a8.33,8.33,0,0,1,.76-2.49c.13-.3.59-.47.89-.7.21.37.6.74.6,1.1,0,2.62,0,5.25-.29,7.86-.19,2,.48,3,2.52,2.4,3.11-.91,6.44-.41,9.5-2.19,3.26-1.89,7.82,1.32,7.89,5.34a26.34,26.34,0,0,1-.86,6.14c-.42,1.91-1.73,2.63-3.75,2.35-5.65-.8-8-3.43-7.63-9.11.11-1.94-.86-1.94-2.21-1.54-1.2.36-2.36.89-3.58,1.17C482.93,351.77,482.7,353.21,482.66,355Zm16.22,1.32c2-.17,1.77-1.7,1.86-2.66a4.06,4.06,0,0,0-4.06-4.33c-1.59-.06-3.7,1.78-3.62,3.36,0,.81.35,2.07.9,2.31A32.09,32.09,0,0,0,498.88,356.28Z"/><path class="cls-1" d="M89.94,359.49c3.56-1.31,7.12-2.65,10.68-3.94a15.16,15.16,0,0,1,1.92-.38c-.4.45-.7,1.08-1.2,1.3-3.26,1.44-6.7,2.54-9.81,4.24s-6,.81-8.79-.62c-1-.53-2.37-2.12-2.17-2.85a5.86,5.86,0,0,1,2.76-3.47,32.08,32.08,0,0,1,7-1.94c1.38-.28,1.39-.95,1.16-2-1-4.83-2.07-9.66-3-14.5-.12-.6.33-1.31.52-2,.46.41,1.21.76,1.34,1.26,1.21,4.7,2.28,9.44,3.47,14.15.4,1.6,1.1,3.12,1.47,4.72a7,7,0,0,1-.22,2.29c-.75-.1-1.51-.17-2.26-.28a28,28,0,0,0-5.4-.7c-1,.06-1.84,1.2-2.76,1.85a11.15,11.15,0,0,0,2.07,1.67,16.4,16.4,0,0,0,3,.83Z"/><path class="cls-1" d="M412.81,443.35c-1.05-.33-1.91-.5-2.69-.84-2.3-1-4.62-2.05-6.83-3.26-.7-.39-1.06-1.4-1.57-2.12a10,10,0,0,0,2.22-.82,6.24,6.24,0,0,0,1.68-1.79c1.45-2.32,2.59-4.86,4.29-7a3.17,3.17,0,0,1,4.56-.25,3.66,3.66,0,0,1,1.14,3.05,16.36,16.36,0,0,1-2.39,4.59,6.56,6.56,0,0,1-2.12,1.9c-1.49.89-.77,1.54.17,2,2.68,1.37,5.51,1.88,8.25.37,3-1.64,5.81-3.55,8.72-5.31a11.44,11.44,0,0,1,1.69-.67,6.44,6.44,0,0,1-1,1.53,35.53,35.53,0,0,1-11.69,6.79C415.68,442.05,414.23,442.76,412.81,443.35Zm-.26-13.79c-1.23.8-2.42,1.22-3,2.06a12.58,12.58,0,0,0-1.21,3.45,12,12,0,0,0,3.19-1.4,7.52,7.52,0,0,0,1.64-2.82C413.27,430.58,412.81,430.08,412.55,429.56Z"/><path class="cls-1" d="M328.76,447.25c-2.24-.22-3.84-.27-5.38-.59-.5-.1-.86-.9-1.28-1.39.56-.21,1.17-.68,1.69-.6a15.82,15.82,0,0,0,10.36-1.95,4,4,0,0,0,1.89-2.43c.08-.54-1.18-1.6-2-1.89-2.16-.73-4.44-1.11-6.66-1.7-2.89-.77-4.14-2.59-2.76-5.11s3.71-4.85,5.65-7.22c.21-.25.67-.28,1-.42a2.9,2.9,0,0,1-.17,1.09c-.79,1.26-1.66,2.48-2.49,3.73-1.81,2.71-1.46,4,1.51,5.11,1.7.66,3.46,1.15,5.15,1.81,1.86.74,3.43,1.93,3.59,4.07a5.83,5.83,0,0,1-3.73,6.06C332.87,446.53,330.51,446.87,328.76,447.25Z"/><path class="cls-1" d="M226.33,435.41a12,12,0,0,1-2,2.94c-3.63,2.88-10.21,3.06-12.39-2.38-1.23-3.06-.8-5.76,1.36-7.62a6.24,6.24,0,0,1,8.13-.34C223.73,429.77,226.19,431.64,226.33,435.41ZM217,429.52c-.49.38-1.73.88-2,1.71-.38,1.08,0,2.43,0,3.66.56-.07,1.27.06,1.65-.24a5.83,5.83,0,0,0,1.05-1.69,11.42,11.42,0,0,1,1,2c.37,1.24.46,2.7,2.38,2a3.12,3.12,0,0,0,1.65-3.86C221.83,430.76,220,429.81,217,429.52Z"/><path class="cls-1" d="M323.31,335a9.37,9.37,0,0,1,.83,1.87q1.1,5.75,2.06,11.52c.37,2.19.63,4.4,1,6.6a3.07,3.07,0,0,0,.38.8,3.93,3.93,0,0,0,.6-.84,21,21,0,0,1,1.4-4c1-1.7,2.65-1.62,3.44.22,1,2.47,1.66,5.13,2.58,7.66a10.89,10.89,0,0,0,1.54,2.28c.27.4.57.77.86,1.15-.62.33-1.63,1.08-1.8.92a10.38,10.38,0,0,1-2.57-3.13,48.49,48.49,0,0,1-1.43-5c-.13-.43-.7-.72-1.07-1.07a5.16,5.16,0,0,0-.64,1.2c-.48,1.93-.82,3.9-1.39,5.8-.19.63-.92,1.09-1.41,1.63-.66-.67-1.77-1.26-1.92-2-.59-3.12-.91-6.3-1.29-9.45q-.92-7.33-1.76-14.67a6.9,6.9,0,0,1,.11-1.35Z"/><path class="cls-1" d="M414.08,348.07c-1.28,2.66-2.47,5.07-3.59,7.52-.23.5-.41,1.35-.15,1.69a5.67,5.67,0,0,0,2.36,2c.77.24,1.8-.37,2.72-.56a9.66,9.66,0,0,1,1.32-.11c-.23.47-.34,1.07-.7,1.38-2.53,2.18-5.44,2.05-8-.17-1.53-1.32-3.15-2.57-4.78-3.77a3.5,3.5,0,0,1-1-4.75c.83-1.39,1.26-1.25,1.77.2.18.52.78.9,1.19,1.34.26-.53.55-1.05.79-1.59a27.33,27.33,0,0,1,2.25-4.9c.67-.92,2.4-2,3.18-1.71C412.45,345.07,413.06,346.69,414.08,348.07Zm-3.26.5-.59-.15c-.55,1.05-1.14,2.09-1.63,3.17-.08.17.3.54.46.81a22.05,22.05,0,0,0,2-2.43C411.26,349.68,410.92,349.05,410.82,348.57Z"/><path class="cls-1" d="M458.81,349c-1.16,2.2-2.21,4-3.13,5.95-.39.81-1,2.09-.66,2.54a4.43,4.43,0,0,0,2.84,1.73c1.26.08,2.57-.65,3.87-1a3.52,3.52,0,0,1,1.07,0,3.18,3.18,0,0,1-.5,1c-4,3.53-6.59,3.52-10.83.13-.73-.59-1.81-.76-2.46-1.4a12.56,12.56,0,0,1-2.45-3.27c-.21-.43.53-1.33.84-2,.47.36.91.75,1.4,1.07s1.18.66,1.77,1a14.32,14.32,0,0,0,.78-1.63c.6-1.81.89-3.79,1.83-5.4a4.14,4.14,0,0,1,3.19-1.82C457.18,346,457.83,347.68,458.81,349Z"/><path class="cls-1" d="M50.06,359.14a5.16,5.16,0,0,0,4.88-3.81,11.08,11.08,0,0,1,.67-2A5.51,5.51,0,0,1,57,352.15a5.15,5.15,0,0,1,1,1.39c.39,1.37.53,2.81,1,4.16a5.6,5.6,0,0,0,1.38,1.8,11.88,11.88,0,0,0,1.43,1.11c-.92.33-1.9,1-2.73.87A3.32,3.32,0,0,1,57,359.65c-.83-2-1.54-1-2.07,0-1.34,2.61-3.67,2.91-6.12,2.63a7.34,7.34,0,0,1-5.89-4,2.62,2.62,0,0,1,.09-2.22c1.94-3.1,4.4-5.69,8.1-6.6.69-.17,1.54.33,2.31.52A7.43,7.43,0,0,1,52,352c-1.43,1-3.13,1.62-4.46,2.7-.73.6-1.49,2-1.24,2.74s1.67,1.21,2.63,1.7C49.2,359.28,49.66,359.14,50.06,359.14Z"/><path class="cls-1" d="M72.36,383.91c-.34,3-1.65,4.9-4.13,5.77-1.89.66-1.61,1.57-.88,2.86a22.79,22.79,0,0,1,1.47,2.92c.14.36,0,1.17-.23,1.26a1.85,1.85,0,0,1-1.55-.06,6.76,6.76,0,0,1-1.86-2.13c-2-4-4-8-5.78-12a4.46,4.46,0,0,1,1.52-5.57c1.62-1.32,3.33-1,5,.28,1.35,1,3.13,1.55,4.29,2.72C71.23,380.94,71.67,382.56,72.36,383.91Zm-2.64-.3c.07-2.48-2.34-4.8-5.06-4.88-2.09-.06-3.2.93-3.25,2.89-.08,2.63,3,5.83,5.82,5.64C69.19,387.13,69.77,385.44,69.72,383.61Z"/><path class="cls-1" d="M300.72,438.45c.15-4.15,1.16-7.83,4.44-10.5a8.35,8.35,0,0,1,2.32-1.19c.28-.11.7.15,1,.25a7.27,7.27,0,0,1-.59.86,16.91,16.91,0,0,0-4.62,9.59c-.09.83,1.62,2.68,2.31,2.59a4.73,4.73,0,0,0,2.91-2.44c.61-1.21.33-2.82.75-4.16.19-.61,1.13-1,1.73-1.45a16.22,16.22,0,0,1,.94,1.8,3.08,3.08,0,0,1,0,1.18c-.25,3.59.86,4.76,4.5,4.78a7,7,0,0,1,1.19.2,7.39,7.39,0,0,1-.84.75c-2,1.25-4,2.14-6.38.66-.34-.21-1.3.32-1.81.71-1.59,1.21-3.13,2.89-5.3,1.73A5,5,0,0,1,300.72,438.45Z"/><path class="cls-1" d="M138.8,344a14.53,14.53,0,0,1,1.81.57c1.14.51,2.51.91,2.13,2.66a16.89,16.89,0,0,1-2.75-.63c-2.05-.82-5.84,1.11-6.3,3.38-.06.3.63,1,1.08,1.12,1.6.45,3.27.63,4.86,1.1,2.5.74,3.86,4.11,2,5.82a75.84,75.84,0,0,1-8.87,6.45c-.29.19-1-.2-1.47-.32a6.18,6.18,0,0,1,.82-1.31c1.79-1.66,3.69-3.2,5.43-4.92a9.49,9.49,0,0,0,1.32-2.39c-.9-.35-1.79-.76-2.72-1-1.64-.5-3.33-.84-4.93-1.43a1.89,1.89,0,0,1-.88-1.48C130.4,348,134.64,344,138.8,344Z"/><path class="cls-1" d="M378.38,435.22c.43-1.89.84-3.79,1.3-5.67.06-.21.43-.36.65-.53a2.45,2.45,0,0,1,.27.83c-.09,1.9-.36,3.81-.29,5.71.05,1.61,3.12,3.55,4.58,3,.34-.13.56-.7.73-1.1.51-1.25,1-2.53,1.47-3.79,1.23-3,3.15-3.33,5.18-.7.87,1.13,1.46,2.46,2.25,3.66s1.72,2.41,2.59,3.61c.24.34.46.69.69,1-.42.18-.9.59-1.25.5a3.8,3.8,0,0,1-2-1c-1.34-1.66-2.46-3.51-3.77-5.2a2.73,2.73,0,0,0-1.68-1c-.29,0-.79.87-1,1.42-.82,2.06-1.66,4.12-2.28,6.23-.35,1.21-.87,1.73-2,1.22s-1.65-.61-1.76,1-1.4,1.09-2,.42a4,4,0,0,1-.92-2.38c-.12-2.38,0-4.77,0-7.15Z"/><path class="cls-1" d="M308.69,405.8a7.53,7.53,0,0,1-7.32-6.76c0-.39-.1-.9.11-1.14,2.27-2.71,4.54-5.43,6.94-8,1.11-1.19,2.2-.92,3.43.31s1,2.27,0,3.28a43.67,43.67,0,0,1-5.41,5.22c-1.6,1.18-1.39,2.12-.07,2.87,2.23,1.26,4.51,2.7,7.35,1.65.52-.2,1.25.15,1.88.24-.48.38-.91.95-1.45,1.1C312.38,405.05,310.53,405.4,308.69,405.8Z"/><path class="cls-1" d="M137.77,432.89a44.09,44.09,0,0,0,1,6.32c.38,1.25,1.54,2.25,2.34,3.38.27.38.49.81.73,1.22-.67.08-1.63.49-2,.19-1.9-1.72-3.61-3.63-3.66-6.44,0-.63-.05-1.28-.13-1.91-.11-.89-.28-1.78-.43-2.67-.54.76-1.14,1.48-1.62,2.27-1,1.63-2.11,3-4.28,2.78-2.57-.26-5.12-3.72-4.22-6.28,1.26-3.6,3.08-6.94,7.46-7.51a6.88,6.88,0,0,1,2.17.44,6.26,6.26,0,0,1-1.66,1.3,7.07,7.07,0,0,0-5.15,5.95,2.49,2.49,0,0,0,1.89,3.12,3.42,3.42,0,0,0,2.54-1.46c1-1.39,1.57-3.08,2.46-4.56a10.21,10.21,0,0,1,1.76-1.78,7.57,7.57,0,0,1,.87,2,28.47,28.47,0,0,1,0,3.58Z"/><path class="cls-1" d="M285,353.2c-.56,1.74-1.11,3.47-1.69,5.2-.23.67-.89,1.81-.77,1.89a7,7,0,0,0,2.66,1.21,12.43,12.43,0,0,0,2.61-.24c.12,0,.43.49.38.58-1.37,2.14-4.73,3.18-6.91,1.76a26.24,26.24,0,0,1-5.26-4.73,3.24,3.24,0,0,1,0-2.84,34.46,34.46,0,0,1,3.54-5.89c.74-1,2.05-1.5,3.1-2.23.71,1.25,1.47,2.47,2.09,3.76.18.37-.05.93-.09,1.41Zm-5.23,1.69,1,.84a28.32,28.32,0,0,0,1.71-2.64c.11-.21-.36-.71-.55-1.08Z"/><path class="cls-1" d="M345.22,356.39c.71-2.75,1.27-5.55,2.21-8.22a3.31,3.31,0,0,1,2.46-1.73c.6,0,1.72,1.3,1.81,2.11.34,3.14.49,6.29-2.2,8.82-.59.55-.6,2-.39,3,.08.4,1.58.94,2.14.71,3.08-1.26,6.06-2.75,9.08-4.13a2.58,2.58,0,0,1,.8-.11c-.09.21-.13.49-.29.62-2.55,2-4.93,4.21-7.7,5.78-4.36,2.49-7.23.69-7.52-4.32,0-.79,0-1.59,0-2.39Z"/><path class="cls-1" d="M258,436.66a8.35,8.35,0,0,0-1.37-.51c-3.7-.71-6.47-2.61-7.85-6.21a4.91,4.91,0,0,1-.26-2.31c.06-.42.66-.78,1-1.17.34.35.83.63,1,1.05a9.38,9.38,0,0,0,4.87,5.29c2.51,1.19,3.85.65,4.62-2.08.54-1.92.92-3.87,1.45-5.79a9.76,9.76,0,0,1,1-2.15c.13-.22.53-.3.81-.44.11.33.36.68.31,1a88.69,88.69,0,0,1-5.92,21.33,12,12,0,0,1-.68,2,12.68,12.68,0,0,1-1.79,1.8,6.32,6.32,0,0,1-.25-2.28c.79-2.84,1.75-5.63,2.65-8.44C257.65,437.52,257.74,437.3,258,436.66Z"/><path class="cls-1" d="M254.72,351.7a8.19,8.19,0,0,0-1.75.79q-2.43,1.92-4.74,4c-.27.24-.3.75-.45,1.14.45-.05,1,.06,1.31-.18a12.71,12.71,0,0,0,1.57-1.7c.33-.38.65-.77,1-1.16.38.38.93.69,1.11,1.15q1,2.55,1.78,5.18c.31,1,.36,2.2,1.94,1.22a1.55,1.55,0,0,1,1.26.21c.14.08.09.84-.12,1.07-.79.84-2,2.4-2.47,2.21a4.93,4.93,0,0,1-2.69-2.71c-.55-1.95-.83-2.82-3.25-2-1.64.53-3.75-.06-5.55-.52-1.61-.41-1.2-1.93-.43-2.67,2.65-2.51,5.43-4.92,8.3-7.17C252,350.1,253.58,349.23,254.72,351.7Z"/><path class="cls-1" d="M409.3,400.19c-1.55-.68-4-1.7-6.39-2.87-.2-.09-.1-1.59.13-1.67,3-1,3.45-3.94,4.82-6.18a5.22,5.22,0,0,1,1.61-2c.73-.39,2.25-.62,2.54-.24.72.95,1.51,2.46,1.21,3.42-.49,1.58-1.84,2.89-2.78,4.34a8.63,8.63,0,0,0-.57,1.44c.58.2,1.2.65,1.72.56a29.7,29.7,0,0,0,3.65-1.05l.68-.19a2.72,2.72,0,0,1-.06.58C414.9,398.86,412.68,400.44,409.3,400.19Z"/><path class="cls-1" d="M130.34,396.48c1.06-.3,2.1-.65,3.18-.88a3.32,3.32,0,0,1,1.24.24,3.81,3.81,0,0,1-.52,1c-3.33,3.39-11.3,2.07-13.25-2.18-.57-1.24,1.18-6.57,2.52-7.64.18-.15.44-.21.62-.36,1.46-1.23,3-2.35,4.82-.74,1.41,1.23,1.17,3.16-.52,5.28a10.9,10.9,0,0,0-.82.85c-.53.8-1,1.64-1.48,2.46,1.07.6,2.12,1.22,3.21,1.77a2.51,2.51,0,0,0,.95,0Zm-2.89-7.72c-.16-.38-.19-.63-.27-.64-.29,0-.77-.12-.85,0-.59,1-1.12,2-1.62,3.09-.07.14.11.43.22.61a.52.52,0,0,0,.42-.11C126.09,390.71,126.8,389.68,127.45,388.76Z"/><path class="cls-1" d="M338.57,405.25c-.18-.11-1-.34-1.11-.77s.34-1.18.76-1.52c1.38-1.08,2.95-1.92,4.27-3.06s1.09-2.12-.75-2.58c-4.6-1.15-5.56-3.65-2.58-7.31a46.19,46.19,0,0,1,5.43-5.31c.42-.37,1.29-.24,2-.35a9.25,9.25,0,0,1-.94,1.59,40.62,40.62,0,0,0-3.84,4.17c-1.56,2.36-.53,4.75,2.28,5s2.45,2.25,2.45,3.81C346.49,401.14,341.28,405.31,338.57,405.25Z"/><path class="cls-1" d="M88.54,393.9a41.5,41.5,0,0,1,2.37-4.54,28.72,28.72,0,0,1,3.45-3.95,4.64,4.64,0,0,1,1.66-.64,4.49,4.49,0,0,1,0,1.79,10.69,10.69,0,0,1-1.45,2.13,22.79,22.79,0,0,0-1.88,2.45,6.82,6.82,0,0,0-.41,2.11c.68-.34,1.57-.53,2-1.08.8-1,1.27-2.32,2-3.41A12.71,12.71,0,0,1,98,387a7.22,7.22,0,0,1,1.3,2.07c.35,1.62.32,3.32.66,4.94.11.56.83,1,1.33,1.47a4.94,4.94,0,0,0,.93.52,5.17,5.17,0,0,1-.85.71c-1.86.95-3,.36-3.74-1.79a14.72,14.72,0,0,0-.76-1.61,14.34,14.34,0,0,1-1.45,1.15c-1.27.81-2.5,1.93-3.89,2.23C90,397,88.94,395.86,88.54,393.9Z"/><path class="cls-1" d="M179.18,382.61c0,.95,0,1.91,0,2.86.07,3,.86,4.06,3.86,4.3,2.51.2,5.06-.1,7.59-.14a7.76,7.76,0,0,1,1.41.26c-.39.37-.73,1-1.16,1.07-3.1.46-6.2.85-9.32,1.17-1.34.13-2.16.52-1.81,2.06a1.69,1.69,0,0,1,.05.94,16.28,16.28,0,0,1-.89,1.77c-.49-.46-1.29-.84-1.41-1.37a34.31,34.31,0,0,1-.93-6.11c-.15-4-.13-8.08-.05-12.12a7.6,7.6,0,0,1,.89-2.36,7.41,7.41,0,0,1,1.29,2.19c.28,1.8.28,3.65.4,5.48Z"/><path class="cls-1" d="M383.54,351.31a12.06,12.06,0,0,1,1,1.7c.4,1.2.7,2.44,1.09,3.64a10.23,10.23,0,0,0,.71,1.4,14,14,0,0,0,.74-1.3,21.32,21.32,0,0,1,1.57-3.69c1.18-1.73,2.76-1.71,3.76.12a28.78,28.78,0,0,1,2.09,5.56,41.75,41.75,0,0,1,1.19,5.32,5.33,5.33,0,0,1-.38,1.86c-.68-.23-1.56-.28-2-.74s-.4-1.31-.53-2c-.37-2.11-.67-4.23-1.12-6.32-.11-.53-.68-1-1-1.44-.43.52-1.13,1-1.25,1.58-.45,2.09-.64,4.24-1.06,6.34a10.27,10.27,0,0,1-1,2.25c-.57-.74-1.44-1.41-1.65-2.25-.87-3.38-1.55-6.8-2.25-10.22A7.8,7.8,0,0,1,383.54,351.31Z"/><path class="cls-1" d="M171,444.25c-1.46-1.22-2.95-2.4-4.35-3.68-1-.88-1.7-2-2.67-2.85-1.14-1-1.14-1.62.16-2.56a8.1,8.1,0,0,0,1.91-2.67c.91-1.63,1.46-3.54,2.63-4.95s2.68-1,2.86,1a7.64,7.64,0,0,1-.5,3c-.44,1.27-1.15,2.44-1.63,3.7a5.36,5.36,0,0,0,2.17,6.43c.54.3,1.48-.19,2.23-.22a5.53,5.53,0,0,1,1.3.29c-.24.44-.37,1.14-.72,1.28a19.81,19.81,0,0,1-3,.8Z"/><path class="cls-1" d="M67.67,359.71c-.49.82-.89,2.28-1.47,2.36-1.81.23-2-1.29-2.12-2.72-.24-2.51-.62-5-.84-7.53a5.79,5.79,0,0,1,.5-1.87c.31.47.82.91.91,1.42.34,1.92.79,2.3,2.54.92a4.21,4.21,0,0,1,6.29,1.63c1,1.9,2,3.78,3,5.72a6.75,6.75,0,0,1,.29,1.95c-.78-.18-1.85-.09-2.3-.57-1.29-1.39-2.3-3-3.46-4.52-.54-.7-1.18-1.33-1.77-2a13,13,0,0,0-1.74,2.37,9.48,9.48,0,0,0-.3,2.59Z"/><path class="cls-1" d="M221.26,355.67c-.43-4-.77-8.06-1.33-12.06a21.77,21.77,0,0,0-1.34-3.8,4.61,4.61,0,0,1-.06-1.29c.4.19,1.05.28,1.18.59,1,2.33,1.9,4.68,2.7,7.07a15.46,15.46,0,0,1,.44,3.07c.22,1.79-.16,4.06,3.05,3,.52-.17,1.67.87,2.23,1.58,1.82,2.3,3.52,4.71,5.19,7.12.17.25-.1.81-.17,1.22-.81-.15-1.91,0-2.37-.51a17.92,17.92,0,0,1-2.14-3.44c-1.65-2.86-2-2.94-4.88-1.43a4.51,4.51,0,0,1-2.46.26c-.3,0-.52-.76-.77-1.16Z"/><path class="cls-1" d="M434.79,349.25a52.16,52.16,0,0,0,.67,6.14,3.58,3.58,0,0,0,1.9,2.31c.61.21,1.93-.58,2.41-1.28,1.29-1.9,2.29-4,3.42-6a3.75,3.75,0,0,1,.79-1.19c.81-.62,1.71-1.11,2.58-1.65-.39.86-.73,1.75-1.18,2.58-1.71,3.14-3.35,6.32-5.25,9.34-.62,1-2.08,2.22-2.94,2.08-1.37-.23-3.26-1.28-3.69-2.43-1.65-4.5-.89-9.11.5-13.59.11-.37.61-.61.93-.91a4.38,4.38,0,0,1,.34,1.22c0,1.12-.18,2.23-.29,3.34Z"/><path class="cls-1" d="M156.14,359.87l-4.13.21c.19,1.3.45,2.6.52,3.92a4.94,4.94,0,0,1-.55,1.65c-.62-.38-1.58-.62-1.78-1.16-.9-2.33-2.41-4.84-2.14-7.1.42-3.59-.76-6.67-1.39-10-.07-.41.34-.92.52-1.37.43.29,1.08.49,1.23.89.83,2.15,1.63,4.33,2.25,6.55a6.64,6.64,0,0,0,7.2,4.54,10.91,10.91,0,0,1,2.13.08,12.2,12.2,0,0,1-2,1.71,4.91,4.91,0,0,1-1.87.23Z"/><path class="cls-1" d="M230.37,385.26c1.2.92,2.84,1.67,3.73,2.95,2.06,3,3.76,6.23,5.59,9.38.11.2.1.69,0,.79a.92.92,0,0,1-.85,0,17.5,17.5,0,0,1-2.94-2.82c-1.29-1.86-2.2-4-3.52-5.84-.84-1.18-2.05-1.95-2.9.27a25.77,25.77,0,0,1-2.13,4.23,1.62,1.62,0,0,1-1.51.46c-.45-.17-1.08-.93-1-1.31a12.19,12.19,0,0,1,4.38-7.66A6.27,6.27,0,0,1,230.37,385.26Z"/><path class="cls-1" d="M183.81,358.05c-.54.77-1,2-1.56,2.1a2.66,2.66,0,0,1-2.26-1.26,47.17,47.17,0,0,1-2.06-6.8c-1.12-4.75-2.14-9.53-3.1-14.32-.13-.6.37-1.33.58-2,.54.37,1.44.64,1.56,1.12,1,3.91,1.91,7.85,2.79,11.8.43,1.94.66,3.93,1.16,5.85.3,1.18-.17,3.24,2.3,2.68C183.32,357.2,183.53,357.65,183.81,358.05Z"/><path class="cls-1" d="M424.16,357.3a30.82,30.82,0,0,1-.45,4c-.13.55-1,1.43-1.29,1.34-.7-.23-1.76-.9-1.78-1.42a29.93,29.93,0,0,1,.47-5.9c.36-2.09,1.1-4.11,1.52-6.19s1-3.8,3.18-4.35,4.19.5,5.83,2c.28.25.3.79.43,1.2a3,3,0,0,1-1.12,0c-4.73-2.22-6.19.46-6.74,4.79-.18,1.5-.21,3-.31,4.54Z"/><path class="cls-1" d="M147.65,425.17c.14,1.75.21,4,.57,6.19a2.59,2.59,0,0,0,1.59,1.58c1.41.47,2.95.58,4.41,1,.43.12.75.64,1.13,1a7.87,7.87,0,0,1-1.4.62c-.77.17-1.58.16-2.34.34-2.89.65-2.94.81-2.27,3.8a20.33,20.33,0,0,1,.25,3.13c-.47-.93-1-1.86-1.4-2.8-2.52-5.16-1.61-10.89-2.64-16.3-.23-1.23.75-2.69,1.17-4.05.33,1.29.69,2.58,1,3.88A8.78,8.78,0,0,1,147.65,425.17Z"/><path class="cls-1" d="M261.61,355.45a27,27,0,0,1,.48-3.46,1.59,1.59,0,0,1,1.15-.95c.33,0,.87.66.95,1.09.25,1.25.27,2.54.48,3.79a6.21,6.21,0,0,0,.66,1.47,5.87,5.87,0,0,0,1-1.14c.92-1.93,1.77-3.89,2.66-5.83a3.31,3.31,0,0,1,.69-1.24,10.07,10.07,0,0,1,1.79-.92c-.17.53-.36,1.05-.51,1.58-.83,2.86-1.77,5.7-2.45,8.6-.61,2.6-1.94,3.69-4.34,3a2.37,2.37,0,0,1-1.46-1.24C262.18,358.55,261.9,356.82,261.61,355.45Z"/><path class="cls-1" d="M111.09,439.19c-5.14.14-7.06-4.38-6.42-7.9a19.61,19.61,0,0,1,4.85-10.21,3.74,3.74,0,0,1,1.53-1.07,8.44,8.44,0,0,1,2.08-.13,14.06,14.06,0,0,0-1.27,1.41c-1.07,1.61-2.15,3.22-3.11,4.89a23.8,23.8,0,0,0-1.31,3.07c-2.63,6.54.68,8.73,7.59,8.3a6.52,6.52,0,0,1,1.3.21,3.65,3.65,0,0,1-1,.66C113.9,438.72,112.49,438.94,111.09,439.19Z"/><path class="cls-1" d="M307.46,351.66l.5-1.06a4.08,4.08,0,0,1,1,.79c1.85,2.66,3.92,4.95,7.4,5.44.53.08,1,.89,1.44,1.36-.57.35-1.13,1-1.71,1a11,11,0,0,1-3-.53c-1.19-.32-1.51.12-1.16,1.19a13.58,13.58,0,0,1,.83,2.22c.13.92.24,2.58-.1,2.71-1.54.59-1.94-.83-2.37-1.93a11.05,11.05,0,0,1-.48-1.58C309,358.14,308.27,355,307.46,351.66Z"/><path class="cls-1" d="M235.74,432.77c-.38-3.61.88-6.23,4.31-7.62a3.68,3.68,0,0,1,2.06-.34A7.25,7.25,0,0,1,244,426l-1.66.53c-1.58.49-3.1,3.17-3.05,4.85.07,2.31-.08,4.63-.2,6.94,0,.26-.59.76-.67.72-.71-.39-1.79-.76-2-1.36A33.5,33.5,0,0,1,235.74,432.77Z"/><path class="cls-1" d="M184,342.27a7.13,7.13,0,0,1,.1-1.64,4.48,4.48,0,0,1,.7-1.07c.28.25.7.46.81.77a45.61,45.61,0,0,1,1.45,4.8c.69,3.19,1.08,6.46,1.91,9.61.44,1.69,1.57,3.2,2.32,4.82a5.09,5.09,0,0,1,.2,1.43c-.56,0-1.45.3-1.63.05-1.05-1.43-2.33-2.87-2.8-4.52-1.19-4.2-2-8.52-2.94-12.79A8.43,8.43,0,0,1,184,342.27Z"/><path class="cls-1" d="M78.08,377.81A14.48,14.48,0,0,1,78,375a6.63,6.63,0,0,1,1-1.86c.49.7,1.49,1.48,1.39,2.09-.87,5.36.46,10.43,1.87,15.48.33,1.15,1.3,2.11,1.91,3.2a6.05,6.05,0,0,1,.41,1.37c-.52,0-1.24.34-1.52.1a9.85,9.85,0,0,1-2.15-2.45C78.2,388.2,78.48,382.93,78.08,377.81Z"/><path class="cls-1" d="M113.85,398.21a7.85,7.85,0,0,1-6.46-3.7c-1-1.63.44-5.28,2.32-5.79,1-.28,1.48,0,1.25,1.19-.79,4.07,0,5.07,4.28,5.52,1,.11,2,.4,3,.61-1,.67-2,1.39-3.1,2A3.23,3.23,0,0,1,113.85,398.21Z"/><path class="cls-1" d="M163.78,352.2a8.49,8.49,0,0,1,1,1.52c.84,2.24,1.66,4.5,2.36,6.79.16.52-.05,1.59-.37,1.71-.55.23-1.85.06-1.92-.19-.8-3-1.45-6-2.08-9.1-.07-.35.2-.76.32-1.14Z"/><path class="cls-1" d="M216.2,394.87c0-1.74,0-3.47,0-5.21a3.6,3.6,0,0,1,.57-1.21c.2.38.55.74.59,1.14.33,3.39.65,6.78.87,10.18,0,.46-.52,1-.8,1.42-.48-.44-1.33-.84-1.38-1.33a46.09,46.09,0,0,1-.07-5Z"/><path class="cls-1" d="M167.19,350.31c-.41.16-.79.45-1.16.43-1.73-.12-4.4-3.89-3.74-5.42.2-.45,1.66-.86,1.71-.78C165.1,346.36,166.08,348.24,167.19,350.31Z"/><path class="cls-1" d="M168,395c.6,1.63,1.22,3.25,1.78,4.89.13.37.23,1,0,1.16s-1,.47-1.21.3a3.1,3.1,0,0,1-1.29-1.6,35.78,35.78,0,0,1-.67-5.83c0-.71.63-1.44,1-2.16.29.7.61,1.4.85,2.12a3.35,3.35,0,0,1,0,1Z"/><path class="cls-1" d="M170.76,384.83c-.77.42-1.23.86-1.44.76a35,35,0,0,1-4.1-2.18,15.08,15.08,0,0,1,.86-1.84Z"/><path class="cls-1" d="M218.08,377.11c1,1.55,1.77,2.6,2.38,3.72,0,.09-.7.63-1.08,1a32.46,32.46,0,0,1-2.2-2.79C217.05,378.79,217.55,378.17,218.08,377.11Z"/></svg>