<svg id="_2" data-name="2" xmlns="http://www.w3.org/2000/svg" viewBox="0 0 531.37 531.37"><defs><style>.cls-1{fill:#fff;}</style></defs><path class="cls-1" d="M264.76,388c-1.25,2.37-2.17,4.52-3.45,6.45a3,3,0,0,0,.07,3.89,5.66,5.66,0,0,0,7.33,2.09A3.93,3.93,0,0,1,270,400a3.84,3.84,0,0,1,1.26.48,4.47,4.47,0,0,1-.83,1.21c-1.34,1-2.81,1.82-4.09,2.87a2.29,2.29,0,0,0-.69,1.83c.88,4.85,2,9.67,2.81,14.53.76,4.53-1,6-5.5,4.95-.36-.09-1.38.75-1.34,1.08.37,3.54.83,7.08,1.45,10.59.09.5,1.17,1.17,1.77,1.15,2.6-.12,5.18-.53,7.78-.68.95-.06,2.58,0,2.77.51.48,1.21-.11,2.16-1.74,2.38-2.25.32-4.44,1-6.68,1.43-1.68.3-3.1.61-2,2.83a1.76,1.76,0,0,1,.11,1.17,20.47,20.47,0,0,1-.87,2.06c-.8-.43-2-.65-2.34-1.31-1.9-3.86-3.16-7.8-1.79-12.26.45-1.47-.26-3.27-.34-4.93-.3-5.71-.7-11.42-.74-17.14,0-2.74.74-5.48,1-8.23a2.63,2.63,0,0,0-.82-1.95c-5.1-4.27-4.25-12.56-1.68-17.23.94-1.72,3.11-2.68,4.74-1.81C263.45,384.16,263.85,386.27,264.76,388Zm-3.58,29.22.36.05c0,1.35-.06,2.7,0,4a23.37,23.37,0,0,0,.45,2.72,11.27,11.27,0,0,0,2.89-1.42,3.2,3.2,0,0,0,.73-2.28,51.23,51.23,0,0,0-.6-5.66c-.28-1.87-.65-3.72-1.06-5.56-.08-.37-.54-.66-.83-1-.21.32-.55.61-.61,1C262.05,411.81,261.62,414.53,261.18,417.24Z"/><path class="cls-1" d="M438,454.18c-3.17.06-4-.69-5.29-3.95-.86-2.17-2.3-4.11-3.19-6.27-2.53-6.18-2.53-12.76-2.76-19.3a3,3,0,0,1,.16-1.41c.53-1,1.33-2.93,1.78-2.86,2,.31,1,1.94,1,3.22.11,4.21,0,8.5.78,12.6.74,3.9,2.62,7.58,3.78,11.42.37,1.23.11,2.78,1.89,2.77a17.11,17.11,0,0,0,5.31-.62,2.37,2.37,0,0,0,1.21-3.89,24.2,24.2,0,0,0-3.62-3.75c-3.82-3.48-3.36-7.81,1.12-9.45a3.85,3.85,0,0,1,2.91.22c.85.49,1.32,1.61,2,2.46a15.48,15.48,0,0,0-2.37.25c-.72.19-1.7.45-2,1a2.93,2.93,0,0,0,.35,2.16,4.2,4.2,0,0,0,1.37,1.31c3.23,2.44,4.75,6.21,3.75,9.36C445.37,452.11,441.94,454.1,438,454.18Z"/><path class="cls-1" d="M152.35,390.4c.4,1.73,1.32,4.17-1.75,3.05-.71-.26-1.17-1.45-1.58-2.29-1-2-1.75-4-2.79-5.94-.66-1.2-1.61-1.26-2.24.18a26.76,26.76,0,0,0-2.1,5.22c-.28,1.4-1,1.86-2,1.69-.73-.11-1.39-.88-2-1.46-.24-.23-.11-1-.34-1.09-3.21-1.5-1.55-4.85-2.7-7.14-.32-.65.08-1.7.27-2.54a1.19,1.19,0,0,1,.77-.76c.21,0,.67.41.74.7.43,1.69,1.09,1.73,2.14.44.15-.19.69-.1,1.06-.09,3.24.1,6.79-.59,8.77,3.06.91,1.66,1.54,2.42,3,.32,1.31-1.83,3.33-1.81,5-.22,2.65,2.52,5.19,5.15,7.73,7.78a1.61,1.61,0,0,1,.33,1.44,1.64,1.64,0,0,1-1.41.46,7.77,7.77,0,0,1-5.47-3.73c-.05-.07-.07-.15-.13-.2l-3.34-3.1Z"/><path class="cls-1" d="M449.79,443.65c.79-5,2-8.92,6.1-11.31a5.29,5.29,0,0,1,6.09.07c1.64,1.21,1.9,3.13,1.53,5.19a11.48,11.48,0,0,1-6,8.43c-2.45,1.37-2.72,2.38-.8,4.4a53.13,53.13,0,0,0,5.48,4.35,12,12,0,0,1,1.37,1.55c-.59.23-1.19.7-1.77.67-4.72-.23-7.81-3.08-9.91-6.91C450.72,448,450.35,445.44,449.79,443.65Zm10.75-6.53c.06-1.44-.47-2.13-2-1.68-2.49.72-4.94,4-4.65,6.51a1.67,1.67,0,0,0,1.24,1.06C457.56,442.8,460.46,439.55,460.54,437.12Z"/><path class="cls-1" d="M191.5,387.8a7.52,7.52,0,0,1,2.12-.15c1.08.27,2.6.46,3.06,1.22.87,1.43,1.54,3.23.14,4.9-3,3.59-7.3,5-11.4,6.71-.29.12-1.08-.35-1.24-.72s-.26-1.38,0-1.66a14.66,14.66,0,0,1,2.74-1.82c1.93-1.13,3.9-2.17,5.78-3.35.44-.28.6-1,.89-1.51a8.13,8.13,0,0,0-1.45-.58c-2.18-.45-4.43-.65-6.54-1.31-2.54-.78-3-1.95-2-4.33,1.68-3.76,4-7.09,7.7-9.13.76-.42,2.37-.57,2.78-.12,1.1,1.23-.19,2-1.06,2.82a56.21,56.21,0,0,0-5.31,5.72c-1.21,1.58-.7,2.36,1.24,2.69C190,387.33,190.84,387.63,191.5,387.8Z"/><path class="cls-1" d="M357.24,377.83c0-2.22,0-4.45,0-6.67,0-.43.51-.84.79-1.27a4.64,4.64,0,0,1,.51,1.26c.72,7.05,1.41,14.1,2.11,21.16a3.29,3.29,0,0,0,.06.71c.36,1.22.75,2.44,1.13,3.65.79-1.34,2-2.6,2.25-4,.21-1.26.42-2.36,1.61-2.45a3.31,3.31,0,0,1,2.34,1.4c1.32,1.89,2.38,3.94,3.55,5.93.88,1.49,1.71,3.07,3.87,1.67a.74.74,0,0,1,.93,1.15c-.71.67-1.71,1.86-2.26,1.7a9.19,9.19,0,0,1-4.11-2.32c-1.09-1.17-1.57-2.91-2.38-4.37a4.62,4.62,0,0,0-1-1,9.13,9.13,0,0,0-.8,1.08,50.48,50.48,0,0,1-2.74,5,3.24,3.24,0,0,1-2.5,1.37c-.68-.15-1.46-1.47-1.56-2.35-.62-5.62-1.08-11.25-1.56-16.89-.13-1.58-.15-3.18-.22-4.77Z"/><path class="cls-1" d="M384.58,455.43a11.65,11.65,0,0,1-9.64-7.77,12,12,0,0,0-2.33-3.63c-.74-.84-1.14-1.49,0-2,1.64-.76,1.69-2.12,1.68-3.57a5.47,5.47,0,0,1,3.67-5.57c2.39-1,4.39.43,3.84,3a18.8,18.8,0,0,1-2.21,5.24c-2.26,4-1.5,7.09,2.31,9.67,2,1.37,4,2.19,6.45,1.34.51-.18,1.22.23,1.84.37-.48.47-.87,1.11-1.44,1.38C387.41,454.46,386,454.91,384.58,455.43Z"/><path class="cls-1" d="M414,446.85c2.58-.54,4.82-1,7.08-1.43a4.47,4.47,0,0,1,1.64.4,6.25,6.25,0,0,1-1.21,1.05,19.94,19.94,0,0,1-16.18.83c-1.48-.53-2.66-2.58-4.68-1a3,3,0,0,1-1.58-1.4,2.08,2.08,0,0,1,1.26-1.63c2-.13,2.23-1.45,2.33-3a10.63,10.63,0,0,1,3.66-7.27c1.54-1.42,3.28-1.17,4.81,0a3.13,3.13,0,0,1,.83,4.47,29.9,29.9,0,0,1-4,4.35c-1.31,1.29-1.32,2.38.39,3.06A50,50,0,0,0,414,446.85Zm-7.54-6.2c1.12-1.26,2-2.23,2.83-3.23,0-.05-.34-.46-.53-.7-1,.86-1.94,1.7-2.85,2.61C405.78,439.42,406.1,439.91,406.42,440.65Z"/><path class="cls-1" d="M119,378.85c2.34-.1,5.63,2.88,6.28,5.86.4,1.89.67,3.77,2.6,4.84.26.14.45,1,.31,1.14-.48.41-1.15.94-1.69.88-1.82-.18-2.68-1.49-3.19-3.13a17.85,17.85,0,0,0-.92-2.05c-.42.55-.87,1.08-1.25,1.66a9.33,9.33,0,0,1-5.91,4.09c-2.55.58-4.3-.47-4.66-3C109.88,384.37,114.23,379.06,119,378.85ZM115.41,389a15.45,15.45,0,0,0,2.73-2.34,19.9,19.9,0,0,0,1.51-3.35,16.15,16.15,0,0,0-3.93.83,3.39,3.39,0,0,0-1.39,2.34C114.24,387.12,114.93,387.91,115.41,389Z"/><path class="cls-1" d="M388.52,403.9c-3.23.11-5-1.76-6.56-4.52-1.92-3.48-1.32-7-.49-10.42.42-1.71,2.17-3.18,3.56-4.51.32-.3,1.87.13,2.39.67a6,6,0,0,1,0,8.41c-1.52,1.63-2.75,3.11-1,5.32,1.48,1.82,3.36,2.2,6,1.1a5.65,5.65,0,0,1,1.71-.19,5.43,5.43,0,0,1-.45,1.75A5.22,5.22,0,0,1,388.52,403.9Z"/><path class="cls-1" d="M179.36,432.27c0-3.66,3.14-7.75,6.16-8.62,2.12-.61,4.42.46,6.1,3.45,1.39,2.47,2.25,5.24,3.43,7.84.38.83.37,2.57,2.14,1.4.25.4.83,1,.72,1.18-.47.89-1.41,2.47-1.68,2.38a6.48,6.48,0,0,1-3.28-2.12,15,15,0,0,1-1.51-4.48c-.46-1.69-1-2-2.3-.53-1.71,2-3.75,3.49-6.63,3C180.29,435.37,179.1,434.13,179.36,432.27Zm8-6a29.81,29.81,0,0,0-3.87,3c-.45.5-.26,1.58-.36,2.4.86-.1,2,.09,2.54-.37a11.88,11.88,0,0,0,2.45-3.07C188.25,428,187.73,427.27,187.32,426.25Z"/><path class="cls-1" d="M225.48,394.77c1.35-1.08,2.73-2.13,4-3.27.39-.35.47-1,.84-1.4.94-1,1.75-1.76,2.35.42a21.22,21.22,0,0,0,2.35,5.37c.68,1.12,1.84,2.14,3.36.76a1.06,1.06,0,0,1,1,.06,2.26,2.26,0,0,1,.23,1.46,3.51,3.51,0,0,1-5.25,1.88,14.49,14.49,0,0,1-3.3-3.05c-.79-1-1.32-.86-2.39-.46a16.2,16.2,0,0,1-5,1.07,4.54,4.54,0,0,1-4.64-3.08c-.92-2.26-1.08-4.52.8-6.2a37.25,37.25,0,0,1,6-4.05c.41-.25,1.23.19,1.86.31a5.8,5.8,0,0,1-.9,1.85c-.75.69-1.87,1-2.54,1.75a7.41,7.41,0,0,0-2,3.3c-.31,1.88.8,3,2.9,2.7Z"/><path class="cls-1" d="M315.85,383.13a7.49,7.49,0,0,1,6.83,10.35c-.71,1.94-1.51,3.49-3.7,4.28a5,5,0,0,1-6.13-1.64,4.46,4.46,0,0,0-1.71-1.21c-1.78-.66-3.63-1.41-3.74-3.53a6.45,6.45,0,0,1,3-6.14A33.33,33.33,0,0,1,315.85,383.13Zm-1.66,8.62.14-.54,3.11.79c-.27.63-.53,1.27-.82,1.88-.21.46-.48.88-.72,1.32a5.2,5.2,0,0,0,1.83-.15,4.53,4.53,0,0,0,2.35-4.84,5.21,5.21,0,0,0-2.32-3.46,3.93,3.93,0,0,0-5.13,1.23,12.75,12.75,0,0,0-1.24,2.95Z"/><path class="cls-1" d="M91.66,433.86a10.79,10.79,0,0,1-2.56-2,42.54,42.54,0,0,1-2.29-4.7c-.33-.69-.71-1.35-1.07-2a16.79,16.79,0,0,0-1.47,1.69c-1.22,1.85-2.33,3.77-3.58,5.6a5.27,5.27,0,0,1-1.85,1.79,12.57,12.57,0,0,1-2.84.71,11.66,11.66,0,0,1,.17-2.52,92.42,92.42,0,0,1,3-9.3,28.84,28.84,0,0,1,3.62-5.78,2.35,2.35,0,0,1,2.06-.71c.57.16,1,1.05,1.33,1.71,1.75,3.86,3.41,7.75,5.17,11.6.2.46.88.67,1.22,1.08s1,1.21.91,1.61S92.46,433.33,91.66,433.86ZM79.14,431.3c.35-.47.62-.75.81-1.08,1.71-3,3.41-6.07,5.08-9.12a10,10,0,0,0,.54-1.63,7.25,7.25,0,0,0-1.89.29,2.31,2.31,0,0,0-1.21,1.11c-1.26,3.23-2.44,6.49-3.62,9.75C78.81,430.75,79,431,79.14,431.3Z"/><path class="cls-1" d="M107.34,416.92c-.68,2.33-1.49,5.22-4,7.1-1.81,1.37-2,2.94-1.21,4.83a2.22,2.22,0,0,1,.28.66c0,1.45.59,3.22-1.3,3.79-.34.09-1.53-1.65-1.84-2.68-1-3.64-2-7.32-2.77-11a10.51,10.51,0,0,1,.11-4.25c.64-2.9,4.89-4.88,7.74-3.86C106.75,412.33,107.36,414.15,107.34,416.92Zm-9,1.8a13.47,13.47,0,0,0,1.5,3,2.71,2.71,0,0,0,2.14.93c1.45-.46,3.2-5.09,2.8-6.75-.52-2.18-2.59-3-4.12-1.39C99.62,415.62,99.13,417.29,98.37,418.72Z"/><path class="cls-1" d="M338.5,443.49c.3-3.27,1.39-5.14,3.47-6.05a17.8,17.8,0,0,1,5.52-1.35c1.93-.18,2.75,1.35,2.67,3a14.13,14.13,0,0,1-5.57,10.43c-1.32,1.1-2.8,1-3.65-.58C339.87,447,339.08,444.82,338.5,443.49Zm7.19-4.71-3,2.75c.87.41,1.75,1.13,2.62,1.12.5,0,1.16-1.15,1.4-1.89C346.86,440.37,346.23,439.74,345.69,438.78Z"/><path class="cls-1" d="M142.18,425.15c0-4.35,3.57-7.95,7.31-5.54,2.86,1.83,5.67,3.55,7.58,6.37s.88,5.25-2.56,6.18c-3.76,1-7.25.8-9.87-2.2C143.27,428.4,142.67,426.16,142.18,425.15Zm8.53,4.65c3.31.09,5-1.42,3.84-2.88a20,20,0,0,0-5-4.56c-.75-.47-2.71.07-3.46.81s-.7,2.38-.29,3.32A5.57,5.57,0,0,0,150.71,429.8Z"/><path class="cls-1" d="M290.59,442.1c.46-2.21.79-4.46,1.42-6.62.41-1.4,1.24-1.41,1.74,0,.28.82.3,1.29,1.32.42,2.36-2,5.08-1.71,6.3,1.06a70.25,70.25,0,0,1,3.25,10.66c.12.44-1,1.69-1.45,1.67a2.49,2.49,0,0,1-1.83-1.47c-.55-2.14-.64-4.4-1.23-6.52-.29-1-1.32-1.85-2-2.77a14.36,14.36,0,0,0-2.28,2.76c-.74,1.57-1,3.34-1.73,4.93-.27.61-1.13,1-1.73,1.44-.5-.73-1.28-1.41-1.43-2.21a12.77,12.77,0,0,1,.2-3.3Z"/><path class="cls-1" d="M321.4,445.14a24.88,24.88,0,0,1-1.15,3.7,2.37,2.37,0,0,1-1.81,1.15,23.88,23.88,0,0,1-5.39-.87c-2.4-.71-3.39-2.55-3-5a24.09,24.09,0,0,1,.65-3.28,5.53,5.53,0,0,1,4.9-3.91,5.71,5.71,0,0,1,5.22,4.5A36.2,36.2,0,0,1,321.4,445.14ZM313.69,444l-.84.91c.65.21,1.47.78,1.91.56a27.5,27.5,0,0,0,3.48-2.34c-.68-.78-1.32-2.17-2.05-2.21C314.28,440.75,314,442.45,313.69,444Z"/><path class="cls-1" d="M240.61,424.87c4.39.13,7.64,4.69,6,7.93a17.61,17.61,0,0,1-5.28,5.92c-2.24,1.62-5.48-.67-5.91-4.11-.39-3.17.22-6.26,2.81-8.49A9.27,9.27,0,0,1,240.61,424.87Zm3,5.34c-.31-.32-.88-1.38-1.71-1.66-1.17-.39-3.2,2.63-3,4.54a2.44,2.44,0,0,0,1.49,1.71C241.8,435.14,243.62,432.81,243.65,430.21Z"/><path class="cls-1" d="M202.08,411.4c1.06,7.73,2.06,15.46,3.22,23.17.17,1.1,1.2,2.05,1.55,3.17a11.59,11.59,0,0,1,.13,2.9c-.8-.45-2-.71-2.33-1.39a18,18,0,0,1-2.31-5.69c-1.08-7.22-1.92-14.48-2.7-21.74a13.18,13.18,0,0,1,.64-4.45c.11-.46.85-.77,1.31-1.15.25.44.67.87.71,1.33.09,1.26,0,2.54,0,3.82Z"/><path class="cls-1" d="M305.17,385.25a24.74,24.74,0,0,1-2.48,1.61c-4.05,2-4.11,2-3.72,6.54.16,1.9.62,3.77.87,5.67a7,7,0,0,1-.18,1.69c-.61-.4-1.55-.66-1.77-1.22a35.73,35.73,0,0,1-1.47-5,33,33,0,0,0-.62-3.51c-.2-.58-1-.92-1.55-1.4s-1.63-1.18-1.77-1.91c-.1-.52.83-1.65,1.49-1.83,1.56-.43,1.42-1.45,1.38-2.58-.1-2.47-.29-4.94-.23-7.4,0-.72.76-1.42,1.16-2.13a6.18,6.18,0,0,1,1.08,1.92,37.32,37.32,0,0,1,.62,6.65c-.08,2.36.94,2.71,2.87,2.31a11,11,0,0,1,2.62-.24C303.92,384.42,304.35,384.82,305.17,385.25Z"/><path class="cls-1" d="M114.69,410.61c2.41,1.34,5.07,2.37,7.14,4.1s.27,5.57-2.71,5.74c-2.38.15-2,1.37-2,2.81a16.93,16.93,0,0,1-.27,3.77c-.13.58-.89,1-1.36,1.52-.46-.54-1.21-1-1.32-1.61-.57-3.13-.95-6.3-1.46-9.45a24.39,24.39,0,0,0-.79-2.74C111.54,413.35,113.16,411,114.69,410.61Zm4.71,5.76.09-.66c-1.18-.39-2.35-.85-3.56-1.13a1.28,1.28,0,0,0-1.07.67,3.3,3.3,0,0,0,.32,1.82c.08.17.83,0,1.28,0a11.55,11.55,0,0,0,1.86-.12A4.14,4.14,0,0,0,119.4,416.37Z"/><path class="cls-1" d="M165.72,420.41c.26,2.12.46,4.25.83,6.35a2,2,0,0,0,1.14,1.36c.36.1,1.06-.53,1.38-1,1.94-2.82,3.81-5.68,5.73-8.51a5.51,5.51,0,0,1,1.4-1.62,9.08,9.08,0,0,1,2.19-.72c-.3.6-.59,1.21-.9,1.81-1.67,3.16-3.28,6.36-5,9.48a20.75,20.75,0,0,1-3.24,4.64c-1.75,1.74-3.91,1.11-4.57-1.28a80.78,80.78,0,0,1-1.9-9.1,4,4,0,0,1,1.06-2.52,1.87,1.87,0,0,1,1.67-.52c.38.12.55.95.81,1.46Z"/><path class="cls-1" d="M352.32,391.51h.24l2.7,0-2.52,1.91a.61.61,0,0,1-.21.11c-4.57,1.77-4.58,1.78-3.33,6.48a14.64,14.64,0,0,1,.76,2.75,5.92,5.92,0,0,1-.65,2c-.65-.46-1.67-.79-1.87-1.39-.53-1.66-.5-3.51-1.11-5.12a13.84,13.84,0,0,0-2.39-3.2c-.67-.84-1.37-1.65-2.05-2.48a8.94,8.94,0,0,1,2.79-1c1.58,0,1.18-.94,1-1.76-.4-2.27-1-4.52-1.22-6.81-.07-.67.71-1.43,1.1-2.16.69.73,1.76,1.35,2,2.19a22,22,0,0,1,.19,4.24C348,391.26,348.26,391.5,352.32,391.51Z"/><path class="cls-1" d="M356.56,440.18c0-1.74,0-3.49,0-5.23,0-.39.46-.76.71-1.14.32.39.89.75.93,1.16.16,1.71.63,2.07,2.6,2,2.71-.07,3.32,2.81,4.23,4.89A31.45,31.45,0,0,1,367,447c.17.67-.46,1.55-.73,2.33-.71-.35-1.84-.52-2.08-1.08-.75-1.74-1.09-3.66-1.77-5.44-.24-.64-1-1.09-1.48-1.63A10.42,10.42,0,0,0,360,443a26.15,26.15,0,0,0-.66,3.51c-.12,1.09-.27,2.43-1.64,1.93a3.43,3.43,0,0,1-1.78-2.59,31.43,31.43,0,0,1,.82-5.65Z"/><path class="cls-1" d="M204.58,385.32c.62-5,1.13-10.1,1.94-15.12a8.46,8.46,0,0,1,2.09-3.57c.28-.33,1.29-.06,2-.07a10.94,10.94,0,0,1-.16,1.91,63,63,0,0,0-1.88,6.77c-.61,3.93-.95,7.9-1.27,11.87-.18,2.24-.15,4.5,1.91,6.1.26.2.52.85.42,1a1.76,1.76,0,0,1-1.14.6,3.15,3.15,0,0,1-3.43-3,55.12,55.12,0,0,1-.06-6.43Z"/><path class="cls-1" d="M240.58,390.56a15.23,15.23,0,0,1,.32-3.33c.2-.64,1-1.09,1.55-1.62a8.7,8.7,0,0,1,.75,1.8c.43,2.74.69,5.5,1.2,8.21.14.75.95,1.36,1.45,2a10.37,10.37,0,0,0,2.14-2.15c1-1.88,1.74-3.9,2.62-5.85a2.74,2.74,0,0,1,.8-1.13,4.11,4.11,0,0,1,1.34-.41,4.23,4.23,0,0,1-.08,1.29c-1.23,3.27-2.56,6.51-3.73,9.8-.52,1.47-1.1,2.7-2.88,2.65s-3.37-.84-3.88-2.64c-.78-2.82-1.3-5.72-1.93-8.58Z"/><path class="cls-1" d="M135.78,422.18a17.73,17.73,0,0,1-.48,3.74,2.57,2.57,0,0,1-1.82,1.29c-.41.05-1.34-.86-1.37-1.38a54.74,54.74,0,0,1,0-7.79,31.26,31.26,0,0,1,1.43-6.14c.16-.54,1-.88,1.48-1.31a6.21,6.21,0,0,0,.33,1.53c.22.42.64,1,1,1,1.92.23,3.87.25,5.8.5.45,0,.82.69,1.23,1.06-.5.31-1,.92-1.49.87-1.76-.2-3.74-.79-4.82,1a28.35,28.35,0,0,0-2,5.41Z"/><path class="cls-1" d="M72.29,393.94c-1.23.34-2.6,1.09-3,.75a10.66,10.66,0,0,1-3-4,42,42,0,0,1-1.49-7.43c-.07-.46.44-1.42.72-1.44a1.94,1.94,0,0,1,1.59.76,46.27,46.27,0,0,1,1.3,4.58c.55,2.08.4,4.53,3,5.55C71.64,392.77,71.75,393.14,72.29,393.94Z"/><path class="cls-1" d="M70.25,373.6a19.62,19.62,0,0,1-3.44-.57,2.1,2.1,0,0,1-1.19-1.45,2.58,2.58,0,0,1,.85-1.82c.22-.19,1.06.21,1.58.44a13.67,13.67,0,0,1,2.27,1.2c.42.3,1,.9.92,1.29S70.47,373.41,70.25,373.6Z"/></svg>